<svg xmlns="http://www.w3.org/2000/svg" xmlns:xlink="http://www.w3.org/1999/xlink" xmlns:inkscape="http://www.inkscape.org/namespaces/inkscape" version="1.1" width="228" height="191" viewBox="0 0 228 191">
<defs>
<path id="font_1_1" d="M.6589966 .23046875C.6759949 .23046875 .69400027 .23046875 .69400027 .25045777 .69400027 .27046205 .6759949 .27046205 .6589966 .27046205H.117996219C.100997928 .27046205 .08299255 .27046205 .08299255 .25045777 .08299255 .23046875 .100997928 .23046875 .117996219 .23046875H.6589966Z"/>
<path id="font_2_3" d="M.13198853 .327713V.35173036C.13198853 .6047821 .2559967 .64100649 .30699159 .64100649 .33099366 .64100649 .37298585 .634964 .394989 .6007538 .37998963 .6007538 .33999635 .6007538 .33999635 .5557556 .33999635 .524765 .3639984 .5097656 .38598634 .5097656 .4019928 .5097656 .43199159 .51875308 .43199159 .5577545 .43199159 .6178589 .3880005 .6660156 .30499269 .6660156 .1769867 .6660156 .041992189 .5367584 .041992189 .31570436 .041992189 .048553468 .1579895-.022460938 .25099183-.022460938 .3619995-.022460938 .45700074 .07156372 .45700074 .2036438 .45700074 .33070375 .36799623 .4267578 .25698854 .4267578 .18899536 .4267578 .1519928 .37573243 .13198853 .327713M.25099183 .0055389406C.18798828 .0055389406 .1579895 .06556702 .1519928 .080566409 .13398743 .127594 .13398743 .2076416 .13398743 .22564698 .13398743 .30369569 .1659851 .40374757 .2559967 .40374757 .27198792 .40374757 .31799317 .40374757 .34899903 .34172059 .36698915 .30470277 .36698915 .2536621 .36698915 .20463562 .36698915 .15661621 .36698915 .10658264 .34999085 .0705719 .31999208 .010528564 .27398683 .0055389406 .25099183 .0055389406Z"/>
<path id="font_2_2" d="M.2939911 .16503906V.07800293C.2939911 .041992189 .2919922 .0309906 .21798706 .0309906H.19699097V0C.23799134 .0029907227 .2899933 .0029907227 .33198548 .0029907227 .37399293 .0029907227 .4269867 .0029907227 .46798707 0V.0309906H.44699098C.37298585 .0309906 .37098695 .041992189 .37098695 .07800293V.16503906H.47099305V.19602967H.37098695V.65075686C.37098695 .67074587 .37098695 .6767578 .35499574 .6767578 .34599305 .6767578 .34298707 .6767578 .33499146 .66474917L.027999878 .19602967V.16503906H.2939911M.2999878 .19602967H.055999757L.2999878 .5688019V.19602967Z"/>
<path id="font_2_1" d="M.1269989 .07699585 .23298645 .18003845C.3889923 .31811524 .44898988 .3721466 .44898988 .47216798 .44898988 .5860901 .35899354 .6660156 .23699951 .6660156 .12399292 .6660156 .049987794 .57411196 .049987794 .48516847 .049987794 .4291687 .099990848 .4291687 .102996829 .4291687 .11999512 .4291687 .15499878 .44117738 .15499878 .48217774 .15499878 .5081787 .13699341 .5341797 .101989749 .5341797 .09399414 .5341797 .09199524 .5341797 .08898926 .5331726 .11199951 .59806826 .1659851 .63500979 .22399903 .63500979 .31498719 .63500979 .35798646 .5541382 .35798646 .47216798 .35798646 .39215089 .30799867 .31311036 .25299073 .25108338L.06098938 .036987306C.049987794 .025985718 .049987794 .023986817 .049987794 0H.42099L.44898988 .17404175H.42399598C.4189911 .14402771 .4119873 .1000061 .4019928 .084991458 .394989 .07699585 .32899476 .07699585 .30699159 .07699585H.1269989Z"/>
<clipPath id="clip_3">
<path transform="matrix(1.00005,0,0,-1,2.0961457,189.401)" d="M0 .43748H224.1623V187.60425H0Z"/>
</clipPath>
<path id="font_4_2" d="M.5009918 .39942933C.45700074 .38842774 .45498658 .34942628 .45498658 .34542848 .45498658 .3234253 .47200013 .3084259 .49398805 .3084259 .5159912 .3084259 .5499878 .3254242 .5499878 .36842347 .5499878 .42539979 .4869995 .44140626 .44999696 .44140626 .40299989 .44140626 .36499024 .4084015 .34199525 .36943055 .31999208 .4223938 .2679901 .44140626 .22698975 .44140626 .117996219 .44140626 .056991579 .31643678 .056991579 .28840638 .056991579 .27938844 .06399536 .27539063 .07199097 .27539063 .083999637 .27539063 .085998538 .2803955 .08898926 .29240418 .11199951 .36543275 .17199707 .4133911 .22399903 .4133911 .2630005 .4133911 .28199769 .385437 .28199769 .34942628 .28199769 .32943727 .269989 .2834015 .2619934 .25135804 .25498963 .22232056 .23298645 .13320923 .22799683 .11419678 .21398926 .060195924 .17799378 .018234253 .1329956 .018234253 .1289978 .018234253 .102996829 .018234253 .08198547 .032196046 .12799073 .04319763 .12799073 .08518982 .12799073 .0861969 .12799073 .109191898 .10998535 .12319946 .08799744 .12319946 .06098938 .12319946 .03199768 .10018921 .03199768 .062194826 .03199768 .016220093 .08099365-.009765625 .13198853-.009765625 .18499756-.009765625 .22200012 .030197144 .23999024 .062194826 .2619934 .01322937 .30799867-.009765625 .35598756-.009765625 .46499635-.009765625 .5249939 .1151886 .5249939 .143219 .5249939 .15322876 .5169983 .15623474 .5099945 .15623474 .49798585 .15623474 .49598695 .14923096 .49299623 .13922119 .47299195 .07218933 .41600038 .018234253 .35798646 .018234253 .32499696 .018234253 .30099488 .04019165 .30099488 .0821991 .30099488 .10218811 .30699159 .12519837 .32099916 .18127442 .32798768 .21130371 .34999085 .29942323 .35499574 .31843568 .36898805 .37042237 .4039917 .4133911 .44898988 .4133911 .45399476 .4133911 .47999574 .4133911 .5009918 .39942933Z"/>
<path id="font_5_52" d="M.7659912 .3560028C.7659912 .3789978 .74198916 .3789978 .72698977 .3789978H.09799194C.08299255 .3789978 .05899048 .3789978 .05899048 .3560028 .05899048 .3330078 .07899475 .3330078 .09399414 .3330078H.73098757C.74598696 .3330078 .7659912 .3330078 .7659912 .3560028M.7659912 .14398194C.7659912 .16699219 .74598696 .16699219 .73098757 .16699219H.09399414C.07899475 .16699219 .05899048 .16699219 .05899048 .14398194 .05899048 .12098694 .08299255 .12098694 .09799194 .12098694H.72698977C.74198916 .12098694 .7659912 .12098694 .7659912 .14398194Z"/>
<path id="font_6_4" d="M.31399537 .63708499C.31399537 .664032 .31199647 .66503909 .2849884 .66503909 .24398804 .6251831 .19099427 .6013489 .09599304 .6013489V.5683594C.12298584 .5683594 .1769867 .5683594 .23498535 .5953522V.08203125C.23498535 .04499817 .23199463 .032989503 .13699341 .032989503H.101989749V0C.14299011 .0029907227 .22898865 .0029907227 .27398683 .0029907227 .31900025 .0029907227 .4059906 .0029907227 .44699098 0V.032989503H.4119873C.31698609 .032989503 .31399537 .04499817 .31399537 .08203125V.63708499Z"/>
<path id="font_6_6" d="M.25299073 .33370973C.33198548 .33370973 .38198854 .27557374 .38198854 .17037964 .38198854 .045440675 .31098939 .008514404 .2579956 .008514404 .20298767 .008514404 .12799073 .0284729 .09298706 .08137512 .1289978 .08137512 .1539917 .10437012 .1539917 .13737488 .1539917 .16937256 .1309967 .19238281 .09899902 .19238281 .07199097 .19238281 .04399109 .17536927 .04399109 .13537598 .04399109 .04045105 .1459961-.021484375 .2599945-.021484375 .3929901-.021484375 .48599244 .070388797 .48599244 .17037964 .48599244 .25352479 .41999818 .32969667 .31799317 .3517456 .39698792 .37982179 .45599366 .4479828 .45599366 .52804568 .45599366 .6080475 .3659973 .66503909 .2619934 .66503909 .15499878 .66503909 .07398987 .6070404 .07398987 .53105166 .07398987 .49404908 .09899902 .4780426 .125 .4780426 .1559906 .4780426 .17599488 .5000458 .17599488 .52905276 .17599488 .56604006 .14399719 .5800476 .12199402 .5810547 .1639862 .6360321 .24099732 .6390381 .25898744 .6390381 .2849884 .6390381 .36099244 .6310272 .36099244 .52804568 .36099244 .45799256 .33198548 .41589356 .31799317 .39985658 .28799439 .36878968 .2649994 .36679078 .20399475 .3627777 .18499756 .36177064 .1769867 .36076356 .1769867 .3477478 .1769867 .33370973 .18598938 .33370973 .20298767 .33370973H.25299073Z"/>
<path id="font_6_1" d="M.33299256-.25C.34098817-.25 .35299684-.25 .35299684-.23800659 .35299684-.23400879 .35198976-.23300171 .33898927-.22000122 .20199585-.09100342 .16799927 .09498596 .16799927 .25 .16799927 .5379944 .2869873 .6729889 .33799745 .71899417 .35198976 .7319946 .35299684 .73298647 .35299684 .73799136 .35299684 .7429962 .34899903 .75 .33898927 .75 .32299806 .75 .272995 .69898989 .2649994 .6899872 .1309967 .5499878 .102996829 .36999513 .102996829 .25 .102996829 .025985718 .19699097-.15400696 .33299256-.25Z"/>
<path id="font_6_3" d="M.4889984 .31877137C.4889984 .42585755 .47799684 .49090577 .44499208 .55496218 .40098573 .6430359 .31999208 .66503909 .2649994 .66503909 .13899231 .66503909 .09298706 .5709839 .07899475 .5429535 .042999269 .4698944 .040985109 .3708191 .040985109 .31877137 .040985109 .25271607 .04399109 .15162659 .09199524 .07156372 .13798523-.0024871827 .21199036-.021484375 .2649994-.021484375 .31298829-.021484375 .39898683-.0064849855 .44898988 .09257507 .48599244 .16464234 .4889984 .2537079 .4889984 .31877137M.2649994 .006515503C.23098755 .006515503 .1619873 .022521973 .14099121 .12760926 .12998963 .18466187 .12998963 .2787323 .12998963 .33078004 .12998963 .3998413 .12998963 .4698944 .14099121 .5249481 .1619873 .6270294 .23999024 .6370239 .2649994 .6370239 .29899598 .6370239 .36799623 .62002566 .3880005 .5289459 .3999939 .4738922 .3999939 .39883424 .3999939 .33078004 .3999939 .27172853 .3999939 .18165589 .3880005 .12561035 .36698915 .020523072 .2979889 .006515503 .2649994 .006515503Z"/>
<path id="font_4_1" d="M.18699646 .01499939C.18699646-.050109865 .17298889-.10720825 .11099243-.16934204 .10699463-.17234802 .10499573-.17434693 .10499573-.17933655 .10499573-.18734741 .11299133-.19334412 .11999512-.19334412 .13198853-.19334412 .21499634-.114227298 .21499634 .0029907227 .21499634 .066986087 .19099427 .11099243 .14698792 .11099243 .11199951 .11099243 .09199524 .08299255 .09199524 .055999757 .09199524 .027999878 .11099243 0 .147995 0 .17199707 0 .18699646 .01399231 .18699646 .01499939Z"/>
<path id="font_6_5" d="M.28199769 .20405579C.2979889 .21907044 .33999635 .2520752 .35598756 .26608277 .41799928 .32312013 .47698976 .3781433 .47698976 .46917726 .47698976 .588089 .3769989 .66503909 .2519989 .66503909 .13198853 .66503909 .052993776 .57411196 .052993776 .48516847 .052993776 .4361725 .09199524 .4291687 .10598755 .4291687 .1269989 .4291687 .1579895 .4441681 .1579895 .48217774 .1579895 .5341797 .10798645 .5341797 .09599304 .5341797 .125 .6070709 .19198609 .6320343 .24099732 .6320343 .33399964 .6320343 .38198854 .55314639 .38198854 .46917726 .38198854 .36514283 .30899049 .28910829 .19099427 .16804505L.06498718 .037994386C.052993776 .026992798 .052993776 .024993897 .052993776 0H.44799806L.47698976 .17904663H.44599916C.44299317 .1590271 .43499757 .10900879 .4229889 .08999634 .4169922 .08198547 .34098817 .08198547 .32499696 .08198547H.14698792L.28199769 .20405579Z"/>
<path id="font_6_2" d="M.30899049 .25C.30899049 .34500123 .29299928 .45899964 .23098755 .57699587 .18199158 .6689911 .09098816 .75 .07299805 .75 .06298828 .75 .05999756 .7429962 .05999756 .73799136 .05999756 .73399356 .05999756 .7319946 .07199097 .7200012 .21199036 .58699038 .24398804 .4039917 .24398804 .25 .24398804-.037002565 .125-.17300415 .07398987-.2190094 .06098938-.23200989 .05999756-.23300171 .05999756-.23800659 .05999756-.24301148 .06298828-.25 .07299805-.25 .08898926-.25 .13899231-.19900513 .14698792-.19000244 .2809906-.05000305 .30899049 .12998963 .30899049 .25Z"/>
<path id="font_7_1" d="M.33399964 .30233766C.33999635 .32835389 .36299134 .42037965 .43299867 .42037965 .43798829 .42037965 .46199037 .42037965 .48298646 .40734864 .45498658 .402359 .43499757 .37734986 .43499757 .35334779 .43499757 .33735658 .44599916 .31835938 .47299195 .31835938 .49499513 .31835938 .5269928 .3363495 .5269928 .37635804 .5269928 .42837525 .46798707 .4423828 .43399049 .4423828 .37599183 .4423828 .34098817 .38935853 .32899476 .36634828 .3039856 .43237306 .25 .4423828 .22099304 .4423828 .116989139 .4423828 .05999756 .3133545 .05999756 .28834535 .05999756 .27833558 .069992069 .27833558 .07199097 .27833558 .07998657 .27833558 .08299255 .28033448 .084991458 .28933717 .11898804 .39535523 .18499756 .42037965 .21899414 .42037965 .23799134 .42037965 .272995 .4113617 .272995 .35334779 .272995 .32235719 .2559967 .25532533 .21899414 .11528015 .20298767 .053268434 .16799927 .011245728 .12399292 .011245728 .117996219 .011245728 .09498596 .011245728 .07398987 .024276734 .09899902 .029266358 .12098694 .05027771 .12098694 .07827759 .12098694 .105270389 .09899902 .11328125 .083999637 .11328125 .053985597 .11328125 .0289917 .08728027 .0289917 .055267335 .0289917 .009246826 .07899475-.0107421879 .12298584-.0107421879 .18899536-.0107421879 .22499085 .059280397 .22799683 .0652771 .23999024 .028274537 .27598573-.0107421879 .33599855-.0107421879 .43899537-.0107421879 .49598695 .118270877 .49598695 .14328003 .49598695 .1532898 .4869995 .1532898 .48399354 .1532898 .47499085 .1532898 .47299195 .14929199 .47099305 .14228821 .43798829 .03527832 .36999513 .011245728 .33799745 .011245728 .29899598 .011245728 .2829895 .043273927 .2829895 .07727051 .2829895 .09927368 .2889862 .121276859 .2999878 .16529846L.33399964 .30233766Z"/>
<path id="font_7_2" d="M.48599244 .38136292C.48999024 .39537049 .48999024 .39736939 .48999024 .40437318 .48999024 .42237855 .47599793 .43138124 .46099855 .43138124 .45098878 .43138124 .43499757 .42536927 .42599488 .41036988 .42399598 .405365 .41600038 .37435914 .4119873 .35635377 .40499879 .33035279 .397995 .30334474 .3919983 .27633668L.34700013 .09628296C.34298707 .08126831 .2999878 .011245728 .23399353 .011245728 .18299866 .011245728 .17199707 .055267335 .17199707 .0922699 .17199707 .1382904 .18899536 .20030213 .22299195 .28833009 .23899842 .3293457 .24299622 .3403473 .24299622 .36035157 .24299622 .405365 .21099854 .4423828 .16099549 .4423828 .06599426 .4423828 .0289917 .29733277 .0289917 .28833009 .0289917 .27833558 .038986207 .27833558 .040985109 .27833558 .050994874 .27833558 .051986696 .28033448 .056991579 .29634095 .083999637 .3903656 .12399292 .42037965 .1579895 .42037965 .1659851 .42037965 .18299866 .42037965 .18299866 .3883667 .18299866 .36335755 .17298889 .3373413 .1659851 .31834413 .12599182 .21231079 .10798645 .1552887 .10798645 .10827637 .10798645 .019256592 .17098999-.0107421879 .22999573-.0107421879 .2689972-.0107421879 .30299378 .0062561037 .33099366 .03425598 .31799317-.017745972 .30599977-.06674194 .2659912-.11973572 .23999024-.15385437 .20199585-.18309021 .1559906-.18309021 .14199829-.18309021 .09700012-.18005371 .07998657-.14074707 .09599304-.14074707 .10899353-.14074707 .12298584-.1287384 .1329956-.11973572 .14299011-.10673523 .14299011-.08773804 .14299011-.056747438 .115997318-.052734376 .10598755-.052734376 .08299255-.052734376 .049987794-.068740848 .049987794-.11773682 .049987794-.16796875 .09399414-.20507813 .1559906-.20507813 .25898744-.20507813 .3619995-.11373901 .3899994-.00074768069L.48599244 .38136292Z"/>
</defs>
<path transform="matrix(1.00005,0,0,-1,2.0961457,189.401)" stroke-width=".3985" stroke-linecap="butt" stroke-miterlimit="10" stroke-linejoin="miter" fill="none" stroke="#404040" d="M0 .43748H224.1623V187.60425H0Z"/>
<path transform="matrix(1.00005,0,0,-1,2.0961457,189.401)" stroke-width=".3985" stroke-linecap="butt" stroke-miterlimit="10" stroke-linejoin="miter" fill="none" stroke="#cccccc" d="M14.01013 .43748V187.60425M28.02028 .43748V187.60425M42.03043 .43748V187.60425M56.04057 .43748V187.60425M70.0507 .43748V187.60425M84.06085 .43748V187.60425M98.071 .43748V187.60425M112.08115 .43748V187.60425M126.09128 .43748V187.60425M140.10143 .43748V187.60425M154.11157 .43748V187.60425M168.12172 .43748V187.60425M182.13185 .43748V187.60425M196.142 .43748V187.60425M210.15215 .43748V187.60425"/>
<path transform="matrix(1.00005,0,0,-1,2.0961457,189.401)" stroke-width=".3985" stroke-linecap="butt" stroke-miterlimit="10" stroke-linejoin="miter" fill="none" stroke="#cccccc" d="M28.02028 .43748V187.60425M56.04057 .43748V187.60425M84.06085 .43748V187.60425M140.10143 .43748V187.60425M168.12172 .43748V187.60425M196.142 .43748V187.60425"/>
<path transform="matrix(1.00005,0,0,-1,2.0961457,189.401)" stroke-width=".3985" stroke-linecap="butt" stroke-miterlimit="10" stroke-linejoin="miter" fill="none" stroke="#cccccc" d="M0 12.1354H224.1623M0 23.83333H224.1623M0 35.53125H224.1623M0 47.22919H224.1623M0 58.92711H224.1623M0 70.62503H224.1623M0 82.32295H224.1623M0 94.02087H224.1623M0 105.7188H224.1623M0 117.41672H224.1623M0 129.11464H224.1623M0 140.81256H224.1623M0 152.51049H224.1623M0 164.2084H224.1623M0 175.90633H224.1623"/>
<path transform="matrix(1.00005,0,0,-1,2.0961457,189.401)" stroke-width=".3985" stroke-linecap="butt" stroke-miterlimit="10" stroke-linejoin="miter" fill="none" stroke="#cccccc" d="M0 23.83333H224.1623M0 47.22919H224.1623M0 70.62503H224.1623M0 117.41672H224.1623M0 140.81256H224.1623M0 164.2084H224.1623"/>
<path transform="matrix(1.00005,0,0,-1,2.0961457,189.401)" stroke-width=".19925" stroke-linecap="butt" stroke-miterlimit="10" stroke-linejoin="miter" fill="none" stroke="#7f807f" d="M14.01013 92.60349V95.43828M28.02028 92.60349V95.43828M42.03043 92.60349V95.43828M56.04057 92.60349V95.43828M70.0507 92.60349V95.43828M84.06085 92.60349V95.43828M98.071 92.60349V95.43828M112.08115 92.60349V95.43828M126.09128 92.60349V95.43828M140.10143 92.60349V95.43828M154.11157 92.60349V95.43828M168.12172 92.60349V95.43828M182.13185 92.60349V95.43828M196.142 92.60349V95.43828M210.15215 92.60349V95.43828"/>
<path transform="matrix(1.00005,0,0,-1,2.0961457,189.401)" stroke-width=".19925" stroke-linecap="butt" stroke-miterlimit="10" stroke-linejoin="miter" fill="none" stroke="#7f807f" d="M28.02028 91.89499V96.14674M56.04057 91.89499V96.14674M84.06085 91.89499V96.14674M140.10143 91.89499V96.14674M168.12172 91.89499V96.14674M196.142 91.89499V96.14674"/>
<path transform="matrix(1.00005,0,0,-1,2.0961457,189.401)" stroke-width=".19925" stroke-linecap="butt" stroke-miterlimit="10" stroke-linejoin="miter" fill="none" stroke="#7f807f" d="M110.66377 12.1354H113.4985M110.66377 23.83333H113.4985M110.66377 35.53125H113.4985M110.66377 47.22919H113.4985M110.66377 58.92711H113.4985M110.66377 70.62503H113.4985M110.66377 82.32295H113.4985M110.66377 94.02087H113.4985M110.66377 105.7188H113.4985M110.66377 117.41672H113.4985M110.66377 129.11464H113.4985M110.66377 140.81256H113.4985M110.66377 152.51049H113.4985M110.66377 164.2084H113.4985M110.66377 175.90633H113.4985"/>
<path transform="matrix(1.00005,0,0,-1,2.0961457,189.401)" stroke-width=".19925" stroke-linecap="butt" stroke-miterlimit="10" stroke-linejoin="miter" fill="none" stroke="#7f807f" d="M109.95529 23.83333H114.20697M109.95529 47.22919H114.20697M109.95529 70.62503H114.20697M109.95529 117.41672H114.20697M109.95529 140.81256H114.20697M109.95529 164.2084H114.20697"/>
<path transform="matrix(1.00005,0,0,-1,2.0961457,189.401)" stroke-width=".3985" stroke-linecap="butt" stroke-miterlimit="10" stroke-linejoin="miter" fill="none" stroke="#000000" d="M0 94.02087H222.16976"/>
<path transform="matrix(1.00005,0,0,-1,224.277,95.380138)" d="M1.99252 0-1.19551 1.59401 0 0-1.19551-1.59401"/>
<path transform="matrix(1.00005,0,0,-1,2.0961457,189.401)" stroke-width=".3985" stroke-linecap="butt" stroke-miterlimit="10" stroke-linejoin="miter" fill="none" stroke="#000000" d="M112.08115 .43748V185.61173"/>
<path transform="matrix(0,-1,-1.00005,-0,114.18289,3.7892762)" d="M1.99252 0-1.19551 1.59401 0 0-1.19551-1.59401"/>
<use data-text="&#x2212;" xlink:href="#font_1_1" transform="matrix(9.963098,0,0,-9.9626,23.752228,107.446)"/>
<use data-text="6" xlink:href="#font_2_3" transform="matrix(9.963098,0,0,-9.9626,31.501618,107.446)"/>
<use data-text="&#x2212;" xlink:href="#font_1_1" transform="matrix(9.963098,0,0,-9.9626,51.773626,107.446)"/>
<use data-text="4" xlink:href="#font_2_2" transform="matrix(9.963098,0,0,-9.9626,59.523015,107.446)"/>
<use data-text="&#x2212;" xlink:href="#font_1_1" transform="matrix(9.963098,0,0,-9.9626,79.79603,107.446)"/>
<use data-text="2" xlink:href="#font_2_1" transform="matrix(9.963098,0,0,-9.9626,87.54542,107.446)"/>
<use data-text="2" xlink:href="#font_2_1" transform="matrix(9.963098,0,0,-9.9626,139.714,107.446)"/>
<use data-text="4" xlink:href="#font_2_2" transform="matrix(9.963098,0,0,-9.9626,167.73542,107.446)"/>
<use data-text="6" xlink:href="#font_2_3" transform="matrix(9.963098,0,0,-9.9626,195.75682,107.446)"/>
<use data-text="&#x2212;" xlink:href="#font_1_1" transform="matrix(9.963098,0,0,-9.9626,95.805828,168.363)"/>
<use data-text="6" xlink:href="#font_2_3" transform="matrix(9.963098,0,0,-9.9626,103.555217,168.363)"/>
<use data-text="&#x2212;" xlink:href="#font_1_1" transform="matrix(9.963098,0,0,-9.9626,95.805828,144.96701)"/>
<use data-text="4" xlink:href="#font_2_2" transform="matrix(9.963098,0,0,-9.9626,103.555217,144.96701)"/>
<use data-text="&#x2212;" xlink:href="#font_1_1" transform="matrix(9.963098,0,0,-9.9626,95.805828,121.571)"/>
<use data-text="2" xlink:href="#font_2_1" transform="matrix(9.963098,0,0,-9.9626,103.555217,121.571)"/>
<use data-text="2" xlink:href="#font_2_1" transform="matrix(9.963098,0,0,-9.9626,103.555217,75.194)"/>
<use data-text="4" xlink:href="#font_2_2" transform="matrix(9.963098,0,0,-9.9626,103.555217,51.798997)"/>
<use data-text="6" xlink:href="#font_2_3" transform="matrix(9.963098,0,0,-9.9626,103.555217,28.403)"/>
<g clip-path="url(#clip_3)">
<path transform="matrix(1.00005,0,0,-1,2.0961457,189.401)" stroke-width=".99628" stroke-linecap="butt" stroke-dasharray="2.98883,2.98883" stroke-miterlimit="10" stroke-linejoin="miter" fill="none" stroke="#8014b3" d="M9.4069 111.56775H214.75537"/>
<path transform="matrix(-1.00005,-0,0,1,11.503516,77.83325)" d="M5.95201 0C5.22108 .18091 2.00812 1.20609 0 2.32172V-2.32172C2.00812-1.20609 5.22108-.18091 5.95201 0Z" fill="#8014b3"/>
<path transform="matrix(-1.00005,-0,0,1,11.503516,77.83325)" stroke-width=".99628" stroke-linecap="butt" stroke-miterlimit="10" stroke-linejoin="miter" fill="none" stroke="#8014b3" d="M5.95201 0C5.22108 .18091 2.00812 1.20609 0 2.32172V-2.32172C2.00812-1.20609 5.22108-.18091 5.95201 0Z"/>
<path transform="matrix(1.00005,0,0,-1,216.86225,77.83325)" d="M5.95201 0C5.22108 .18091 2.00812 1.20609 0 2.32172V-2.32172C2.00812-1.20609 5.22108-.18091 5.95201 0Z" fill="#8014b3"/>
<path transform="matrix(1.00005,0,0,-1,216.86225,77.83325)" stroke-width=".99628" stroke-linecap="butt" stroke-miterlimit="10" stroke-linejoin="miter" fill="none" stroke="#8014b3" d="M5.95201 0C5.22108 .18091 2.00812 1.20609 0 2.32172V-2.32172C2.00812-1.20609 5.22108-.18091 5.95201 0Z"/>
<path transform="matrix(1.00005,0,0,-1,2.0961457,189.401)" stroke-width=".99628" stroke-linecap="butt" stroke-dasharray="2.98883,2.98883" stroke-miterlimit="10" stroke-linejoin="miter" fill="none" stroke="#ff801a" d="M126.09128 179.59836V8.44339"/>
<path transform="matrix(0,-1,-1.00005,-0,128.19373,9.802643)" d="M5.95201 0C5.22108 .18091 2.00812 1.20609 0 2.32172V-2.32172C2.00812-1.20609 5.22108-.18091 5.95201 0Z" fill="#ff801a"/>
<path transform="matrix(0,-1,-1.00005,-0,128.19373,9.802643)" stroke-width=".99628" stroke-linecap="butt" stroke-miterlimit="10" stroke-linejoin="miter" fill="none" stroke="#ff801a" d="M5.95201 0C5.22108 .18091 2.00812 1.20609 0 2.32172V-2.32172C2.00812-1.20609 5.22108-.18091 5.95201 0Z"/>
<path transform="matrix(0,1,1.00005,0,128.19373,180.95761)" d="M5.95201 0C5.22108 .18091 2.00812 1.20609 0 2.32172V-2.32172C2.00812-1.20609 5.22108-.18091 5.95201 0Z" fill="#ff801a"/>
<path transform="matrix(0,1,1.00005,0,128.19373,180.95761)" stroke-width=".99628" stroke-linecap="butt" stroke-miterlimit="10" stroke-linejoin="miter" fill="none" stroke="#ff801a" d="M5.95201 0C5.22108 .18091 2.00812 1.20609 0 2.32172V-2.32172C2.00812-1.20609 5.22108-.18091 5.95201 0Z"/>
<use data-text="x" xlink:href="#font_4_2" transform="matrix(7.970498,0,0,-7.9701,101.51711,185.683)" fill="#ff801a"/>
<use data-text="=" xlink:href="#font_5_52" transform="matrix(7.970498,0,0,-7.9701,107.69543,185.683)" fill="#ff801a"/>
<use data-text="1" xlink:href="#font_6_4" transform="matrix(7.970498,0,0,-7.9701,115.60783,185.683)" fill="#ff801a"/>
<path transform="matrix(1.00005,0,0,-1,2.0961457,189.401)" stroke-width=".99628" stroke-linecap="butt" stroke-dasharray="2.98883,2.98883" stroke-miterlimit="10" stroke-linejoin="miter" fill="none" stroke="#ff801a" d="M154.11157 179.59836V8.44339"/>
<path transform="matrix(0,-1,-1.00005,-0,156.21541,9.802643)" d="M5.95201 0C5.22108 .18091 2.00812 1.20609 0 2.32172V-2.32172C2.00812-1.20609 5.22108-.18091 5.95201 0Z" fill="#ff801a"/>
<path transform="matrix(0,-1,-1.00005,-0,156.21541,9.802643)" stroke-width=".99628" stroke-linecap="butt" stroke-miterlimit="10" stroke-linejoin="miter" fill="none" stroke="#ff801a" d="M5.95201 0C5.22108 .18091 2.00812 1.20609 0 2.32172V-2.32172C2.00812-1.20609 5.22108-.18091 5.95201 0Z"/>
<path transform="matrix(0,1,1.00005,0,156.21541,180.95761)" d="M5.95201 0C5.22108 .18091 2.00812 1.20609 0 2.32172V-2.32172C2.00812-1.20609 5.22108-.18091 5.95201 0Z" fill="#ff801a"/>
<path transform="matrix(0,1,1.00005,0,156.21541,180.95761)" stroke-width=".99628" stroke-linecap="butt" stroke-miterlimit="10" stroke-linejoin="miter" fill="none" stroke="#ff801a" d="M5.95201 0C5.22108 .18091 2.00812 1.20609 0 2.32172V-2.32172C2.00812-1.20609 5.22108-.18091 5.95201 0Z"/>
<use data-text="x" xlink:href="#font_4_2" transform="matrix(7.970498,0,0,-7.9701,164.56627,185.683)" fill="#ff801a"/>
<use data-text="=" xlink:href="#font_5_52" transform="matrix(7.970498,0,0,-7.9701,170.74459,185.683)" fill="#ff801a"/>
<use data-text="3" xlink:href="#font_6_6" transform="matrix(7.970498,0,0,-7.9701,178.65699,185.683)" fill="#ff801a"/>
<path transform="matrix(1.00005,0,0,-1,2.0961457,189.401)" stroke-width="1.49442" stroke-linecap="butt" stroke-miterlimit="10" stroke-linejoin="miter" fill="none" stroke="#1414cc" d="M7.75658 111.76509 1.57674 111.74907 3.1535 111.75316 4.73026 111.75772 6.30702 111.7623 7.88377 111.76695 9.46054 111.77199 11.03728 111.7769 12.61404 111.78218 14.1908 111.78766 15.76756 111.79341 17.34431 111.79938 18.92108 111.80533 20.49782 111.81187 22.07458 111.81856 23.65134 111.82545 25.2281 111.83258 26.80486 111.84009 28.38162 111.84816 29.95836 111.85623 31.53513 111.86487 33.11188 111.87389 34.68864 111.88336 36.2654 111.89319 37.84216 111.90347 39.4189 111.91423 40.99567 111.92572 42.57242 111.93623 44.14919 111.95029 45.72594 111.96313 47.3027 111.97717 48.87944 111.99239 50.4562 112.00642 52.03296 112.02397 53.60973 112.04034 55.18648 112.05789 56.76324 112.07777 58.33998 112.09883 59.91675 112.12036 61.4935 112.1434 63.07027 112.16809 64.64702 112.19429 66.22379 112.22224 67.80052 112.25244 69.37729 112.28436 70.95404 112.31886 72.5308 112.35596 74.10756 112.39584 75.68433 112.43901 77.26106 112.48557 78.83783 112.5361 80.41458 112.59085 81.99135 112.65074 83.5681 112.71602 85.14487 112.78738 86.7216 112.86598 88.29837 112.95255 89.87512 113.04825 91.45189 113.15459 93.02864 113.27309 94.60541 113.40596 96.18214 113.5557 97.75891 113.72485 99.33566 113.91786 100.91243 114.13884 102.48918 114.39444 104.06595 114.69226 105.64268 115.04272 107.21945 115.45966 108.7962 115.96149 110.37297 116.57797 111.94972 117.34535 113.52649 118.32095 115.10324 119.60304 116.68 121.34453 118.25676 123.82869 119.83351 127.6242 121.41028 134.06777 122.98703 147.21483 124.2634 180.1273"/>
<path transform="matrix(-1.0000199,.0026,.00260013,.99997,9.853113,77.6359)" d="M4.676 0C4.10176 .14711 1.5776 .98082 0 1.88808V-1.88808C1.5776-.98082 4.10176-.14711 4.676 0Z" fill="#1414cc"/>
<path transform="matrix(-1.0000199,.0026,.00260013,.99997,9.853113,77.6359)" stroke-width="1.49442" stroke-linecap="butt" stroke-miterlimit="10" stroke-linejoin="miter" fill="none" stroke="#1414cc" d="M4.676 0C4.10176 .14711 1.5776 .98082 0 1.88808V-1.88808C1.5776-.98082 4.10176-.14711 4.676 0Z"/>
<path transform="matrix(.038731934,-.9992,-.9992499,-.03873,126.36575,9.273697)" d="M4.676 0C4.10176 .14711 1.5776 .98082 0 1.88808V-1.88808C1.5776-.98082 4.10176-.14711 4.676 0Z" fill="#1414cc"/>
<path transform="matrix(.038731934,-.9992,-.9992499,-.03873,126.36575,9.273697)" stroke-width="1.49442" stroke-linecap="butt" stroke-miterlimit="10" stroke-linejoin="miter" fill="none" stroke="#1414cc" d="M4.676 0C4.10176 .14711 1.5776 .98082 0 1.88808V-1.88808C1.5776-.98082 4.10176-.14711 4.676 0Z"/>
<path transform="matrix(1.00005,0,0,-1,2.0961457,189.401)" stroke-width="1.49442" stroke-linecap="butt" stroke-miterlimit="10" stroke-linejoin="miter" fill="none" stroke="#1414cc" d="M127.38356 7.75526C128.01447 41.84196 128.01447 41.84196 128.31188 51.45212 128.6093 61.06229 129.08625 65.55124 129.38365 69.26338 129.68106 72.97552 130.15802 76.22954 130.45543 78.20668 130.75286 80.18382 131.2298 82.29799 131.5272 83.51332 131.82462 84.72865 132.30156 86.15802 132.59897 86.96608 132.8964 87.77415 133.37335 88.77576 133.67076 89.33736 133.96817 89.89894 134.44512 90.61537 134.74253 91.01367 135.03995 91.41199 135.51689 91.92624 135.8143 92.20811 136.11171 92.48999 136.58867 92.85213 136.88608 93.04529 137.1835 93.23843 137.66045 93.47923 137.95786 93.60027 138.25527 93.72128 138.73221 93.85922 139.02962 93.91757 139.32704 93.97592 139.804 94.02087 140.10141 94.02087 140.39882 94.02087 140.87577 93.97592 141.17319 93.91757 141.4706 93.85922 141.94754 93.7213 142.24495 93.60028 142.54236 93.47925 143.01932 93.23845 143.31674 93.0453 143.61415 92.85214 144.0911 92.49002 144.3885 92.20815 144.68592 91.92627 145.16287 91.41202 145.4603 91.0137 145.7577 90.6154 146.23465 89.89894 146.53206 89.33737 146.82947 88.77579 147.30641 87.77422 147.60384 86.96614 147.90125 86.15808 148.3782 84.72865 148.67562 83.51332 148.97303 82.29799 149.44997 80.18394 149.74739 78.2068 150.0448 76.22966 150.52175 72.97554 150.81916 69.26338 151.11656 65.55122 151.59352 61.06212 151.89095 51.45212 152.18836 41.84213 152.9627 .00116 152.81926 7.75644"/>
<path transform="matrix(-.018500925,.9998,.99985,.0185,129.48607,181.64572)" d="M4.676 0C4.10176 .14711 1.5776 .98082 0 1.88808V-1.88808C1.5776-.98082 4.10176-.14711 4.676 0Z" fill="#1414cc"/>
<path transform="matrix(-.018500925,.9998,.99985,.0185,129.48607,181.64572)" stroke-width="1.49442" stroke-linecap="butt" stroke-miterlimit="10" stroke-linejoin="miter" fill="none" stroke="#1414cc" d="M4.676 0C4.10176 .14711 1.5776 .98082 0 1.88808V-1.88808C1.5776-.98082 4.10176-.14711 4.676 0Z"/>
<path transform="matrix(.018500925,.9998,.99985,-.0185,154.92304,181.64455)" d="M4.676 0C4.10176 .14711 1.5776 .98082 0 1.88808V-1.88808C1.5776-.98082 4.10176-.14711 4.676 0Z" fill="#1414cc"/>
<path transform="matrix(.018500925,.9998,.99985,-.0185,154.92304,181.64455)" stroke-width="1.49442" stroke-linecap="butt" stroke-miterlimit="10" stroke-linejoin="miter" fill="none" stroke="#1414cc" d="M4.676 0C4.10176 .14711 1.5776 .98082 0 1.88808V-1.88808C1.5776-.98082 4.10176-.14711 4.676 0Z"/>
<path transform="matrix(1.00005,0,0,-1,2.0961457,189.401)" stroke-width="1.49442" stroke-linecap="butt" stroke-miterlimit="10" stroke-linejoin="miter" fill="none" stroke="#1414cc" d="M156.00724 180.14911C157.70153 144.54105 157.70153 144.54105 158.49379 135.82328 159.28607 127.1055 160.55664 127.18811 161.34893 125.06505 162.1412 122.94199 163.41176 121.4936 164.20404 120.52168 164.99633 119.54976 166.26689 118.6123 167.05918 118.06009 167.85146 117.50787 169.12203 116.8939 169.91429 116.5417 170.70658 116.1895 171.97714 115.76334 172.76943 115.52165 173.5617 115.27997 174.83228 114.97404 175.62456 114.79977 176.41684 114.62549 177.68741 114.39621 178.47969 114.26553 179.27198 114.13486 180.54251 113.9587 181.3348 113.85785 182.12708 113.75702 183.39765 113.61842 184.18993 113.53874 184.98221 113.45905 186.25278 113.34769 187.04506 113.28348 187.83734 113.21927 189.10791 113.1284 189.90019 113.07585 190.69248 113.0233 191.96303 112.9483 192.75531 112.90471 193.54759 112.8611 194.81816 112.79814 195.61045 112.76152 196.40273 112.7249 197.6733 112.67175 198.46558 112.64067 199.25786 112.6096 200.52841 112.5641 201.3207 112.5375 202.11298 112.5109 203.38353 112.47182 204.17581 112.44884 204.9681 112.42587 206.23867 112.39185 207.03095 112.37186 207.82323 112.35187 209.0938 112.32222 209.88608 112.30472 210.67836 112.2872 211.94893 112.26105 212.74121 112.24564 213.5335 112.23022 214.80405 112.20721 215.59633 112.19359 216.38861 112.17996 217.65917 112.15955 218.45145 112.14738 219.24373 112.13522 220.5143 112.1168 221.30658 112.10585 222.09886 112.09491 224.16172 112.06842 216.40584 112.16759"/>
<path transform="matrix(-.047522375,-.99881,-.9988599,.04752,158.11118,9.251907)" d="M4.676 0C4.10176 .14711 1.5776 .98082 0 1.88808V-1.88808C1.5776-.98082 4.10176-.14711 4.676 0Z" fill="#1414cc"/>
<path transform="matrix(-.047522375,-.99881,-.9988599,.04752,158.11118,9.251907)" stroke-width="1.49442" stroke-linecap="butt" stroke-miterlimit="10" stroke-linejoin="miter" fill="none" stroke="#1414cc" d="M4.676 0C4.10176 .14711 1.5776 .98082 0 1.88808V-1.88808C1.5776-.98082 4.10176-.14711 4.676 0Z"/>
<path transform="matrix(.99992999,.01279,.012790639,-.99988,218.51279,77.2334)" d="M4.676 0C4.10176 .14711 1.5776 .98082 0 1.88808V-1.88808C1.5776-.98082 4.10176-.14711 4.676 0Z" fill="#1414cc"/>
<path transform="matrix(.99992999,.01279,.012790639,-.99988,218.51279,77.2334)" stroke-width="1.49442" stroke-linecap="butt" stroke-miterlimit="10" stroke-linejoin="miter" fill="none" stroke="#1414cc" d="M4.676 0C4.10176 .14711 1.5776 .98082 0 1.88808V-1.88808C1.5776-.98082 4.10176-.14711 4.676 0Z"/>
<use data-text="(" xlink:href="#font_6_1" transform="matrix(7.970498,0,0,-7.9701,90.76257,68.128)" fill="#1414cc"/>
<use data-text="0" xlink:href="#font_6_3" transform="matrix(7.970498,0,0,-7.9701,94.05439,68.128)" fill="#1414cc"/>
<use data-text="," xlink:href="#font_4_1" transform="matrix(7.970498,0,0,-7.9701,98.290958,68.128)" fill="#1414cc"/>
<use data-text="2" xlink:href="#font_6_5" transform="matrix(7.970498,0,0,-7.9701,102.05414,68.128)" fill="#1414cc"/>
<use data-text=")" xlink:href="#font_6_2" transform="matrix(7.970498,0,0,-7.9701,106.286479,68.128)" fill="#1414cc"/>
</g>
<path transform="matrix(1.00005,0,0,-1,2.0961457,189.401)" d="M114.0737 117.41672C114.0737 118.51718 113.18161 119.40927 112.08115 119.40927 110.98067 119.40927 110.0886 118.51718 110.0886 117.41672 110.0886 116.31624 110.98067 115.42416 112.08115 115.42416 113.18161 115.42416 114.0737 116.31624 114.0737 117.41672ZM112.08115 117.41672" fill="#1414cc"/>
<path transform="matrix(1.00005,0,0,-1,2.0961457,189.401)" stroke-width=".3985" stroke-linecap="butt" stroke-miterlimit="10" stroke-linejoin="miter" fill="none" stroke="#1414cc" d="M114.0737 117.41672C114.0737 118.51718 113.18161 119.40927 112.08115 119.40927 110.98067 119.40927 110.0886 118.51718 110.0886 117.41672 110.0886 116.31624 110.98067 115.42416 112.08115 115.42416 113.18161 115.42416 114.0737 116.31624 114.0737 117.41672ZM112.08115 117.41672"/>
<path transform="matrix(1.00005,0,0,-1,2.0961457,189.401)" stroke-width=".3985" stroke-linecap="butt" stroke-miterlimit="10" stroke-linejoin="miter" fill="none" stroke="#1414cc" d=""/>
<use data-text="x" xlink:href="#font_7_1" transform="matrix(9.963098,0,0,-9.9626,217.10889,91.839008)"/>
<use data-text="y" xlink:href="#font_7_2" transform="matrix(9.963098,0,0,-9.9626,117.72992,9.606003)"/>
</svg>
