<svg xmlns="http://www.w3.org/2000/svg" xmlns:xlink="http://www.w3.org/1999/xlink" xmlns:inkscape="http://www.inkscape.org/namespaces/inkscape" version="1.1" width="101" height="100" viewBox="0 0 101 100">
<defs>
<clipPath id="clip_1">
<path transform="matrix(1,0,0,-1.00006,2.0960007,98.68896)" d="M0 0H96.88524V96.88524H0Z"/>
</clipPath>
<path id="font_2_1" d="M.44099427 .7259979C.44099427 .72698977 .44400025 .73098757 .44400025 .73599246 .44400025 .73999026 .44198609 .75 .4269867 .75 .40699769 .75 .1499939 .58999636 .1499939 .25 .1499939-.08900452 .40699769-.25 .4269867-.25 .44198609-.25 .44400025-.2400055 .44400025-.23600769 .44400025-.2290039 .43998719-.22601319 .43598939-.2230072 .25898744-.08200073 .22698975 .12098694 .22698975 .25 .22698975 .49499513 .33999635 .6559906 .44099427 .7259979Z"/>
<path id="font_2_3" d="M.6009979 .31976319C.6009979 .3918152 .6009979 .6660156 .33999635 .6660156 .07899475 .6660156 .07899475 .3918152 .07899475 .31976319 .07899475 .2467041 .07899475-.022460938 .33999635-.022460938 .6009979-.022460938 .6009979 .2467041 .6009979 .31976319M.33999635 .010528564C.30299378 .010528564 .21899414 .023544312 .19400025 .12461853 .17999268 .17866516 .1789856 .24971009 .1789856 .33177186 .1789856 .405838 .1789856 .47488404 .19499207 .5319214 .21998596 .6159973 .29699708 .63301089 .33999635 .63301089 .4139862 .63301089 .46699525 .5949707 .4869995 .5249176 .5009918 .47387696 .5009918 .39082337 .5009918 .33177186 .5009918 .26371766 .5009918 .18266297 .48599244 .12261963 .45999146 .025543213 .37998963 .010528564 .33999635 .010528564Z"/>
<path id="font_3_1" d="M.269989 .01399231C.269989-.08216858 .21798706-.13726807 .19099427-.15931702 .18099976-.16732788 .1789856-.16934204 .1789856-.17634583 .1789856-.18234253 .18798828-.19433594 .19699097-.19433594 .20999146-.19433594 .3039856-.1162262 .3039856 .008987427 .3039856 .07699585 .27398683 .12199402 .22898865 .12199402 .19099427 .12199402 .16799927 .09199524 .16799927 .06098938 .16799927 .0289917 .19099427 0 .22898865 0 .24398804 0 .25898744 .0039978029 .269989 .01399231Z"/>
<path id="font_3_2" d="M.5779877 .32435609C.58299258 .34535218 .59298709 .38237 .59298709 .38737489 .59298709 .40437318 .5799866 .42237855 .55599978 .42237855 .5379944 .42237855 .5139923 .41036988 .5059967 .38237 .4869995 .40837098 .44898988 .4423828 .38598634 .4423828 .24499512 .4423828 .10499573 .30534364 .10499573 .16329956 .10499573 .061264039 .17999268-.0107421879 .27999879-.0107421879 .3619995-.0107421879 .42599488 .04725647 .43798829 .059265138 .45599366 .010253906 .5109863-.0107421879 .55599978-.0107421879 .59599307-.0107421879 .6230011 .012252808 .6439972 .04525757 .66999819 .08427429 .6839905 .13728333 .6839905 .14428711 .6839905 .15829468 .6669922 .15829468 .6629944 .15829468 .644989 .15829468 .6439972 .15229798 .6389923 .1362915 .62098696 .06225586 .59498599 .023254395 .55999758 .023254395 .5319977 .023254395 .519989 .04525757 .519989 .07626343 .519989 .091278079 .5299988 .12928772 .5359955 .15629578L.5779877 .32435609M.44400025 .13328552C.43998719 .11828613 .43998719 .11628723 .42199708 .0962677 .3849945 .054260255 .33299256 .023254395 .2829895 .023254395 .24798584 .023254395 .19499207 .042251588 .19499207 .12528992 .19499207 .17129517 .21899414 .27633668 .2539978 .32835389 .29299928 .38336183 .34399415 .40837098 .38598634 .40837098 .43099977 .40837098 .47399903 .38136292 .48999024 .3213501L.44400025 .13328552Z"/>
<path id="font_2_2" d="M.3909912 .25C.3909912 .58898928 .13398743 .75 .11399841 .75 .09799194 .75 .09799194 .73799136 .09799194 .73599246 .09799194 .73498538 .09799194 .72898867 .10398865 .72299197 .2539978 .60398867 .31399537 .42999269 .31399537 .25 .31399537 .1599884 .29699708 .06599426 .2630005-.01600647 .21499634-.13000489 .1519928-.18501282 .102996829-.2250061 .099990848-.227005 .09799194-.23200989 .09799194-.23600769 .09799194-.23800659 .09799194-.25 .11399841-.25 .13398743-.25 .3909912-.0900116 .3909912 .25Z"/>
<path id="font_4_1" d="M.33399964 .30233766C.33999635 .32835389 .36299134 .42037965 .43299867 .42037965 .43798829 .42037965 .46199037 .42037965 .48298646 .40734864 .45498658 .402359 .43499757 .37734986 .43499757 .35334779 .43499757 .33735658 .44599916 .31835938 .47299195 .31835938 .49499513 .31835938 .5269928 .3363495 .5269928 .37635804 .5269928 .42837525 .46798707 .4423828 .43399049 .4423828 .37599183 .4423828 .34098817 .38935853 .32899476 .36634828 .3039856 .43237306 .25 .4423828 .22099304 .4423828 .116989139 .4423828 .05999756 .3133545 .05999756 .28834535 .05999756 .27833558 .069992069 .27833558 .07199097 .27833558 .07998657 .27833558 .08299255 .28033448 .084991458 .28933717 .11898804 .39535523 .18499756 .42037965 .21899414 .42037965 .23799134 .42037965 .272995 .4113617 .272995 .35334779 .272995 .32235719 .2559967 .25532533 .21899414 .11528015 .20298767 .053268434 .16799927 .011245728 .12399292 .011245728 .117996219 .011245728 .09498596 .011245728 .07398987 .024276734 .09899902 .029266358 .12098694 .05027771 .12098694 .07827759 .12098694 .105270389 .09899902 .11328125 .083999637 .11328125 .053985597 .11328125 .0289917 .08728027 .0289917 .055267335 .0289917 .009246826 .07899475-.0107421879 .12298584-.0107421879 .18899536-.0107421879 .22499085 .059280397 .22799683 .0652771 .23999024 .028274537 .27598573-.0107421879 .33599855-.0107421879 .43899537-.0107421879 .49598695 .118270877 .49598695 .14328003 .49598695 .1532898 .4869995 .1532898 .48399354 .1532898 .47499085 .1532898 .47299195 .14929199 .47099305 .14228821 .43798829 .03527832 .36999513 .011245728 .33799745 .011245728 .29899598 .011245728 .2829895 .043273927 .2829895 .07727051 .2829895 .09927368 .2889862 .121276859 .2999878 .16529846L.33399964 .30233766Z"/>
<path id="font_4_2" d="M.48599244 .38136292C.48999024 .39537049 .48999024 .39736939 .48999024 .40437318 .48999024 .42237855 .47599793 .43138124 .46099855 .43138124 .45098878 .43138124 .43499757 .42536927 .42599488 .41036988 .42399598 .405365 .41600038 .37435914 .4119873 .35635377 .40499879 .33035279 .397995 .30334474 .3919983 .27633668L.34700013 .09628296C.34298707 .08126831 .2999878 .011245728 .23399353 .011245728 .18299866 .011245728 .17199707 .055267335 .17199707 .0922699 .17199707 .1382904 .18899536 .20030213 .22299195 .28833009 .23899842 .3293457 .24299622 .3403473 .24299622 .36035157 .24299622 .405365 .21099854 .4423828 .16099549 .4423828 .06599426 .4423828 .0289917 .29733277 .0289917 .28833009 .0289917 .27833558 .038986207 .27833558 .040985109 .27833558 .050994874 .27833558 .051986696 .28033448 .056991579 .29634095 .083999637 .3903656 .12399292 .42037965 .1579895 .42037965 .1659851 .42037965 .18299866 .42037965 .18299866 .3883667 .18299866 .36335755 .17298889 .3373413 .1659851 .31834413 .12599182 .21231079 .10798645 .1552887 .10798645 .10827637 .10798645 .019256592 .17098999-.0107421879 .22999573-.0107421879 .2689972-.0107421879 .30299378 .0062561037 .33099366 .03425598 .31799317-.017745972 .30599977-.06674194 .2659912-.11973572 .23999024-.15385437 .20199585-.18309021 .1559906-.18309021 .14199829-.18309021 .09700012-.18005371 .07998657-.14074707 .09599304-.14074707 .10899353-.14074707 .12298584-.1287384 .1329956-.11973572 .14299011-.10673523 .14299011-.08773804 .14299011-.056747438 .115997318-.052734376 .10598755-.052734376 .08299255-.052734376 .049987794-.068740848 .049987794-.11773682 .049987794-.16796875 .09399414-.20507813 .1559906-.20507813 .25898744-.20507813 .3619995-.11373901 .3899994-.00074768069L.48599244 .38136292Z"/>
</defs>
<path transform="matrix(1,0,0,-1.00006,2.0960007,98.68896)" stroke-width=".3985" stroke-linecap="butt" stroke-miterlimit="10" stroke-linejoin="miter" fill="none" stroke="#404040" d="M0 0H96.88524V96.88524H0Z"/>
<path transform="matrix(1,0,0,-1.00006,2.0960007,98.68896)" stroke-width=".3985" stroke-linecap="butt" stroke-miterlimit="10" stroke-linejoin="miter" fill="none" stroke="#cccccc" d=""/>
<path transform="matrix(1,0,0,-1.00006,2.0960007,98.68896)" stroke-width=".3985" stroke-linecap="butt" stroke-miterlimit="10" stroke-linejoin="miter" fill="none" stroke="#cccccc" d=""/>
<path transform="matrix(1,0,0,-1.00006,2.0960007,98.68896)" stroke-width=".3985" stroke-linecap="butt" stroke-miterlimit="10" stroke-linejoin="miter" fill="none" stroke="#cccccc" d=""/>
<path transform="matrix(1,0,0,-1.00006,2.0960007,98.68896)" stroke-width=".3985" stroke-linecap="butt" stroke-miterlimit="10" stroke-linejoin="miter" fill="none" stroke="#cccccc" d=""/>
<path transform="matrix(1,0,0,-1.00006,2.0960007,98.68896)" stroke-width=".19925" stroke-linecap="butt" stroke-miterlimit="10" stroke-linejoin="miter" fill="none" stroke="#7f807f" d=""/>
<path transform="matrix(1,0,0,-1.00006,2.0960007,98.68896)" stroke-width=".19925" stroke-linecap="butt" stroke-miterlimit="10" stroke-linejoin="miter" fill="none" stroke="#7f807f" d=""/>
<path transform="matrix(1,0,0,-1.00006,2.0960007,98.68896)" stroke-width=".19925" stroke-linecap="butt" stroke-miterlimit="10" stroke-linejoin="miter" fill="none" stroke="#7f807f" d=""/>
<path transform="matrix(1,0,0,-1.00006,2.0960007,98.68896)" stroke-width=".19925" stroke-linecap="butt" stroke-miterlimit="10" stroke-linejoin="miter" fill="none" stroke="#7f807f" d=""/>
<path transform="matrix(1,0,0,-1.00006,2.0960007,98.68896)" stroke-width=".3985" stroke-linecap="butt" stroke-miterlimit="10" stroke-linejoin="miter" fill="none" stroke="#000000" d="M0 48.44261H94.89272"/>
<path transform="matrix(1,0,0,-1.00006,96.98872,50.243444)" d="M1.99252 0-1.19551 1.59401 0 0-1.19551-1.59401"/>
<path transform="matrix(1,0,0,-1.00006,2.0960007,98.68896)" stroke-width=".3985" stroke-linecap="butt" stroke-miterlimit="10" stroke-linejoin="miter" fill="none" stroke="#000000" d="M48.44261 0V94.89272"/>
<path transform="matrix(0,-1.00006,-1,-0,50.538614,3.7905427)" d="M1.99252 0-1.19551 1.59401 0 0-1.19551-1.59401"/>
<g clip-path="url(#clip_1)">
<path transform="matrix(1,0,0,-1.00006,2.0960007,98.68896)" stroke-width="1.49442" stroke-linecap="butt" stroke-miterlimit="10" stroke-linejoin="miter" fill="none" stroke="#1414cc" d="M29.53706 89.3338C29.66637 88.83801 29.66637 88.83801 30.4677 86.21317 31.26901 83.58832 32.5541 79.96957 33.35541 77.92108 34.15674 75.87257 35.44179 73.04776 36.24312 71.44899 37.04445 69.8502 38.3295 67.64592 39.13083 66.3982 39.93216 65.15045 41.21722 63.42996 42.01855 62.45616 42.81987 61.48238 44.10493 60.13968 44.90625 59.37967 45.70758 58.61966 46.99265 57.57152 47.79398 56.97853 48.5953 56.38554 49.88036 55.56856 50.68169 55.1058 51.48302 54.64307 52.76807 54.00467 53.5694 53.64334 54.37071 53.282 55.65579 52.78358 56.4571 52.50145 57.25844 52.21931 58.5435 51.83005 59.34482 51.60988 60.14615 51.38971 61.4312 51.08632 62.23253 50.91455 63.03386 50.74278 64.31892 50.50597 65.12025 50.37184 65.92159 50.23772 67.20663 50.05246 68.00797 49.94781 68.80928 49.84315 70.09435 49.69917 70.89566 49.61751 71.69699 49.53584 72.98206 49.42293 73.78339 49.35922 74.58472 49.2955 75.86977 49.20796 76.6711 49.15828 77.47243 49.1086 78.75748 49.03996 79.5588 49.00116 80.36012 48.96234 81.6452 48.90881 82.44652 48.87854 83.24785 48.84825 84.5329 48.80646 85.33423 48.78282 86.13556 48.75919 87.42061 48.72658 88.22194 48.70813 89.02327 48.6897 90.30833 48.66423 91.10966 48.64984 91.91098 48.63544 93.19604 48.61557 93.99736 48.60434 94.79869 48.5931 96.88507 48.56883 89.12909 48.65878"/>
<path transform="matrix(-.2523,-.96764799,-.96759,.25231514,31.63306,9.3498)" d="M4.676 0C4.10176 .14711 1.5776 .98082 0 1.88808V-1.88808C1.5776-.98082 4.10176-.14711 4.676 0Z" fill="#1414cc"/>
<path transform="matrix(-.2523,-.96764799,-.96759,.25231514,31.63306,9.3498)" stroke-width="1.49442" stroke-linecap="butt" stroke-miterlimit="10" stroke-linejoin="miter" fill="none" stroke="#1414cc" d="M4.676 0C4.10176 .14711 1.5776 .98082 0 1.88808V-1.88808C1.5776-.98082 4.10176-.14711 4.676 0Z"/>
<path transform="matrix(.9999,.011600696,.0116,-.99995997,91.22507,50.02726)" d="M4.676 0C4.10176 .14711 1.5776 .98082 0 1.88808V-1.88808C1.5776-.98082 4.10176-.14711 4.676 0Z" fill="#1414cc"/>
<path transform="matrix(.9999,.011600696,.0116,-.99995997,91.22507,50.02726)" stroke-width="1.49442" stroke-linecap="butt" stroke-miterlimit="10" stroke-linejoin="miter" fill="none" stroke="#1414cc" d="M4.676 0C4.10176 .14711 1.5776 .98082 0 1.88808V-1.88808C1.5776-.98082 4.10176-.14711 4.676 0Z"/>
<use data-text="(" xlink:href="#font_2_1" transform="matrix(4.9813,0,0,-4.9815986,54.574,39.377405)"/>
<use data-text="0" xlink:href="#font_2_3" transform="matrix(4.9813,0,0,-4.9815986,57.268888,39.377405)"/>
<use data-text="," xlink:href="#font_3_1" transform="matrix(4.9813,0,0,-4.9815986,60.663,39.377405)"/>
<use data-text="a" xlink:href="#font_3_2" transform="matrix(4.9813,0,0,-4.9815986,64.164859,39.377405)"/>
<use data-text=")" xlink:href="#font_2_2" transform="matrix(4.9813,0,0,-4.9815986,68.026,39.377405)"/>
</g>
<path transform="matrix(1,0,0,-1.00006,2.0960007,98.68896)" d="M50.43517 56.51639C50.43517 57.61685 49.54309 58.50894 48.44261 58.50894 47.34215 58.50894 46.45006 57.61685 46.45006 56.51639 46.45006 55.41591 47.34215 54.52383 48.44261 54.52383 49.54309 54.52383 50.43517 55.41591 50.43517 56.51639ZM48.44261 56.51639" fill="#1414cc"/>
<path transform="matrix(1,0,0,-1.00006,2.0960007,98.68896)" stroke-width=".3985" stroke-linecap="butt" stroke-miterlimit="10" stroke-linejoin="miter" fill="none" stroke="#1414cc" d="M50.43517 56.51639C50.43517 57.61685 49.54309 58.50894 48.44261 58.50894 47.34215 58.50894 46.45006 57.61685 46.45006 56.51639 46.45006 55.41591 47.34215 54.52383 48.44261 54.52383 49.54309 54.52383 50.43517 55.41591 50.43517 56.51639ZM48.44261 56.51639"/>
<path transform="matrix(1,0,0,-1.00006,2.0960007,98.68896)" stroke-width=".3985" stroke-linecap="butt" stroke-miterlimit="10" stroke-linejoin="miter" fill="none" stroke="#1414cc" d=""/>
<use data-text="x" xlink:href="#font_4_1" transform="matrix(9.9626,0,0,-9.963197,89.788,46.71384)"/>
<use data-text="y" xlink:href="#font_4_2" transform="matrix(9.9626,0,0,-9.963197,54.067,9.590614)"/>
</svg>
