<svg xmlns="http://www.w3.org/2000/svg" xmlns:xlink="http://www.w3.org/1999/xlink" xmlns:inkscape="http://www.inkscape.org/namespaces/inkscape" version="1.1" width="158" height="157" viewBox="0 0 158 157">
<defs>
<path id="font_1_1" d="M.8799896 .2223053C.8959961 .2223053 .9229889 .2223053 .9229889 .25030519 .9229889 .2783203 .8959961 .2783203 .8799896 .2783203H.20298767C.18699646 .2783203 .1599884 .2783203 .1599884 .25030519 .1599884 .2223053 .18699646 .2223053 .20298767 .2223053H.8799896Z"/>
<path id="font_2_1" d="M.397995 .63591006C.397995 .6660156 .394989 .6660156 .3619995 .6660156 .29100038 .6016083 .17999268 .6016083 .1599884 .6016083H.14299011V.5576172H.1599884C.18299866 .5576172 .24798584 .5606079 .30599977 .58561709V.08596802C.30599977 .054977418 .30599977 .04399109 .19999695 .04399109H.1499939V0C.20498657 .0039978029 .2939911 .0039978029 .35198976 .0039978029 .4099884 .0039978029 .49899293 .0039978029 .55400088 0V.04399109H.5039978C.397995 .04399109 .397995 .054977418 .397995 .08596802V.63591006Z"/>
<clipPath id="clip_3">
<path transform="matrix(1.00002,0,0,-1.00008,2.313713,155.57816)" d="M0 0H153.5947V153.5947H0Z"/>
</clipPath>
<path id="font_4_2" d="M.19299317 .1382904C.20399475 .18132019 .21499634 .22433472 .22499085 .26835633 .22599793 .27035523 .23298645 .29937745 .23399353 .30438233 .23699951 .313385 .2619934 .35438539 .28799439 .37937928 .31999208 .40838624 .35398866 .4133911 .37199403 .4133911 .3829956 .4133911 .40098573 .4123993 .4149933 .40039063 .37199403 .39138795 .3659973 .35438539 .3659973 .3453827 .3659973 .32337953 .3829956 .30838014 .40499879 .30838014 .43199159 .30838014 .46199037 .3303833 .46199037 .3703766 .46199037 .40638734 .43099977 .44140626 .37399293 .44140626 .30599977 .44140626 .2599945 .39637757 .23899842 .36938478 .21899414 .44140626 .15098572 .44140626 .14099121 .44140626 .10499573 .44140626 .07998657 .418396 .06399536 .38739015 .040985109 .3423767 .02999878 .29136659 .02999878 .28837586 .02999878 .27937318 .036987306 .2753601 .04499817 .2753601 .057998659 .2753601 .05899048 .27937318 .06599426 .30537416 .07798767 .35438539 .09599304 .4133911 .13798523 .4133911 .1639862 .4133911 .16999817 .38838197 .16999817 .36637879 .16999817 .34838868 .16499329 .32937623 .15699768 .29637147 .15499878 .28837586 .13999939 .2293396 .13598633 .21533203L.09899902 .06526184C.09498596 .050247194 .08898926 .025238038 .08898926 .021224976 .08898926-.0017700195 .10798645-.009765625 .12098694-.009765625 .1559906-.009765625 .16299439 .018234253 .17098999 .052246095L.19299317 .1382904Z"/>
<path id="font_5_4" d="M.73098757 .3330078C.74598696 .3330078 .7659912 .3330078 .7659912 .3560028 .7659912 .3789978 .74198916 .3789978 .72698977 .3789978H.09799194C.08299255 .3789978 .05899048 .3789978 .05899048 .3560028 .05899048 .3330078 .07899475 .3330078 .09399414 .3330078H.73098757M.72698977 .12098694C.74198916 .12098694 .7659912 .12098694 .7659912 .14398194 .7659912 .16699219 .74598696 .16699219 .73098757 .16699219H.09399414C.07899475 .16699219 .05899048 .16699219 .05899048 .14398194 .05899048 .12098694 .08299255 .12098694 .09799194 .12098694H.72698977Z"/>
<path id="font_5_3" d="M.31399537 .63708499C.31399537 .664032 .31199647 .66503909 .2849884 .66503909 .24398804 .6251831 .19099427 .6013489 .09599304 .6013489V.5683594C.12298584 .5683594 .1769867 .5683594 .23498535 .5953522V.08203125C.23498535 .04499817 .23199463 .032989503 .13699341 .032989503H.101989749V0C.14299011 .0029907227 .22898865 .0029907227 .27398683 .0029907227 .31900025 .0029907227 .4059906 .0029907227 .44699098 0V.032989503H.4119873C.31698609 .032989503 .31399537 .04499817 .31399537 .08203125V.63708499Z"/>
<path id="font_4_1" d="M.47898866 .4910736C.47898866 .61608889 .43099977 .70410159 .34799195 .70410159 .19898987 .70410159 .04399109 .42607118 .04399109 .20314026 .04399109 .107177738 .07699585-.009765625 .17599488-.009765625 .32199098-.009765625 .47898866 .2611084 .47898866 .4910736M.1559906 .3640747C.20298767 .5660858 .2849884 .6760864 .34700013 .6760864 .40699769 .6760864 .40699769 .5690918 .40699769 .55007937 .40699769 .4940796 .3889923 .41307069 .3769989 .3640747H.1559906M.36799623 .33007813C.32099916 .12916565 .23899842 .018234253 .1769867 .018234253 .12298584 .018234253 .116989139 .09819031 .116989139 .14416504 .116989139 .20713806 .13598633 .28808595 .14698792 .33007813H.36799623Z"/>
<path id="font_5_11" d="M.18598938 .3976593H.33499146V.43066407H.18598938V.6147156H.15499878C.1539917 .5236969 .11299133 .4286499 .019989014 .42565919V.3976593H.10998535V.1250763C.10998535 .008224487 .19999695-.009765625 .24598694-.009765625 .31298829-.009765625 .35299684 .050186159 .35299684 .1250763V.1809845H.32199098V.12705994C.32199098 .058166505 .29100038 .021224976 .25299073 .021224976 .18598938 .021224976 .18598938 .10710144 .18598938 .12307739V.3976593Z"/>
<path id="font_5_5" d="M.41999818 .29855348C.41999818 .39653016 .32499696 .44628907 .23399353 .44628907 .15098572 .44628907 .07699585 .4143219 .07699585 .34857179 .07699585 .318573 .09799194 .30056764 .12399292 .30056764 .1519928 .30056764 .17098999 .3205719 .17098999 .3475647 .17098999 .37156678 .1559906 .38856507 .13398743 .3935547 .17098999 .41827394 .22499085 .41827394 .23199463 .41827394 .28799439 .41827394 .34399415 .37957765 .34399415 .2975464V.2662201C.28599549 .26322938 .21899414 .2602234 .14898682 .23123169 .06098938 .19322205 .04399109 .13522339 .04399109 .10223389 .04399109 .016220093 .14498902-.009765625 .21398926-.009765625 .2869873-.009765625 .33198548 .031219483 .35398866 .07122803 .35899354 .033233644 .3849945-.004776001 .42900086-.004776001 .43899537-.004776001 .5239868-.00077819827 .5239868 .09022522V.14523316H.49299623V.09022522C.49299623 .049224855 .47799684 .033233644 .45700074 .033233644 .41999818 .033233644 .41999818 .07922363 .41999818 .09022522V.29855348M.34399415 .1412201C.34399415 .04421997 .2619934 .018234253 .22200012 .018234253 .16999817 .018234253 .12599182 .053222658 .12599182 .10122681 .12599182 .16722107 .18798828 .23522949 .34399415 .24023438V.1412201Z"/>
<path id="font_5_8" d="M.48599244 .3032837C.48599244 .38737489 .44799806 .44140626 .34298707 .44140626 .24398804 .44140626 .19898987 .36935426 .18699646 .34532167H.18598938V.44140626L.040985109 .43040467V.39738465C.10899353 .39738465 .116989139 .39038087 .116989139 .34132386V.07803345C.116989139 .032989503 .10499573 .032989503 .040985109 .032989503V0C.083999637 .0029907227 .12799073 .0029907227 .15499878 .0029907227 .18399048 .0029907227 .22599793 .0029907227 .2689972 0V.032989503C.20498657 .032989503 .19299317 .032989503 .19299317 .07803345V.25923158C.19299317 .36434938 .272995 .4133911 .33399964 .4133911 .394989 .4133911 .4099884 .37036134 .4099884 .3072815V.07803345C.4099884 .032989503 .397995 .032989503 .33399964 .032989503V0C.3769989 .0029907227 .42099 .0029907227 .44799806 .0029907227 .47698976 .0029907227 .5189972 .0029907227 .56199648 0V.032989503C.49798585 .032989503 .48599244 .032989503 .48599244 .07803345V.3032837Z"/>
<path id="font_5_1" d="M.33299256-.25C.34098817-.25 .35299684-.25 .35299684-.23800659 .35299684-.23400879 .35198976-.23300171 .33898927-.22000122 .20199585-.09100342 .16799927 .09498596 .16799927 .25 .16799927 .5379944 .2869873 .6729889 .33799745 .71899417 .35198976 .7319946 .35299684 .73298647 .35299684 .73799136 .35299684 .7429962 .34899903 .75 .33898927 .75 .32299806 .75 .272995 .69898989 .2649994 .6899872 .1309967 .5499878 .102996829 .36999513 .102996829 .25 .102996829 .025985718 .19699097-.15400696 .33299256-.25Z"/>
<path id="font_5_2" d="M.30899049 .25C.30899049 .34500123 .29299928 .45899964 .23098755 .57699587 .18199158 .6689911 .09098816 .75 .07299805 .75 .06298828 .75 .05999756 .7429962 .05999756 .73799136 .05999756 .73399356 .05999756 .7319946 .07199097 .7200012 .21199036 .58699038 .24398804 .4039917 .24398804 .25 .24398804-.037002565 .125-.17300415 .07398987-.2190094 .06098938-.23200989 .05999756-.23300171 .05999756-.23800659 .05999756-.24301148 .06298828-.25 .07299805-.25 .08898926-.25 .13899231-.19900513 .14698792-.19000244 .2809906-.05000305 .30899049 .12998963 .30899049 .25Z"/>
<path id="font_5_10" d="M.35598756 .4202881C.35598756 .4362793 .35598756 .44628907 .34298707 .44628907 .33799745 .44628907 .33499146 .44628907 .31900025 .4302826 .31698609 .4292755 .30799867 .4202881 .30499269 .4202881 .3039856 .4202881 .3019867 .4202881 .29599 .4242859 .27999879 .43528749 .25099183 .44628907 .20599365 .44628907 .06599426 .44628907 .034988405 .37026979 .034988405 .32226563 .034988405 .27226258 .07199097 .24325562 .07499695 .24024964 .114990238 .21025086 .13798523 .20625305 .20498657 .19424439 .2519989 .18525696 .32899476 .17124939 .32899476 .10324097 .32899476 .0642395 .30299378 .018234253 .21099854 .018234253 .10998535 .018234253 .08099365 .09623718 .067993167 .14924622 .06399536 .1622467 .06298828 .16725159 .050994874 .16725159 .034988405 .16725159 .034988405 .15924073 .034988405 .14024353V.016220093C.034988405 .00022888184 .034988405-.009765625 .04798889-.009765625 .053985597-.009765625 .054992677-.008773804 .07299805 .010223389 .07798767 .0152282719 .08898926 .02822876 .09399414 .033233644 .13899231-.0077667238 .18598938-.009765625 .21199036-.009765625 .33898927-.009765625 .3829956 .06323242 .3829956 .12924195 .3829956 .1772461 .35398866 .24725342 .23498535 .2692566 .22698975 .2712555 .17098999 .28126527 .16699219 .28126527 .13598633 .28826905 .08898926 .30926515 .08898926 .34927369 .08898926 .37927247 .11099243 .4212799 .20599365 .4212799 .31799317 .4212799 .32299806 .33926393 .32499696 .31126405 .32598878 .30326844 .33299256 .30026246 .33999635 .30026246 .35598756 .30026246 .35598756 .30726625 .35598756 .32626344V.4202881Z"/>
<path id="font_5_7" d="M.41299439 .22851563C.43499757 .22851563 .44099427 .22851563 .44099427 .25151063 .44099427 .34039308 .3919983 .44628907 .25099183 .44628907 .1269989 .44628907 .02999878 .3433838 .02999878 .21949768 .02999878 .09031677 .13798523-.009765625 .2639923-.009765625 .3909912-.009765625 .44099427 .097335819 .44099427 .12036133 .44099427 .12435913 .43798829 .13438416 .4249878 .13438416 .4139862 .13438416 .4119873 .12736511 .4099884 .12136841 .37399293 .024230957 .28799439 .021224976 .269989 .021224976 .22499085 .021224976 .1789856 .042251588 .14898682 .08831787 .11898804 .13438416 .11898804 .19847107 .11898804 .22851563H.41299439M.11999512 .25450135C.1289978 .39431764 .21398926 .41827394 .25099183 .41827394 .36799623 .41827394 .37199403 .27748109 .37298585 .25450135H.11999512Z"/>
<path id="font_5_6" d="M.36799623 .39746095C.33999635 .3884735 .33599855 .36547853 .33599855 .35346986 .33599855 .32647706 .35499574 .30647279 .3829956 .30647279 .40899659 .30647279 .42999269 .32447816 .42999269 .35447694 .42999269 .41627503 .3619995 .44628907 .2679901 .44628907 .1289978 .44628907 .034988405 .33547975 .034988405 .21640015 .034988405 .089279178 .13899231-.009765625 .2649994-.009765625 .4059906-.009765625 .44099427 .108306888 .44099427 .12031555 .44099427 .13232422 .42799378 .13232422 .4249878 .13232422 .41799928 .13232422 .41299439 .13131714 .4099884 .12130737 .40299989 .10029602 .375 .021224976 .2749939 .021224976 .21299744 .021224976 .12399292 .0692749 .12399292 .21739197 .12399292 .3614807 .19799805 .4152832 .2709961 .4152832 .27999879 .4152832 .33299256 .4152832 .36799623 .39746095Z"/>
<path id="font_5_9" d="M.5 .21325684C.5 .3382721 .39698792 .44628907 .2649994 .44628907 .1329956 .44628907 .02999878 .3382721 .02999878 .21325684 .02999878 .08824158 .13699341-.009765625 .2649994-.009765625 .3939972-.009765625 .5 .08824158 .5 .21325684M.2649994 .021224976C.21099854 .021224976 .16899109 .047225954 .14698792 .082229617 .12199402 .12324524 .11898804 .17224121 .11898804 .22225952 .11898804 .2602539 .11898804 .32026673 .1499939 .363266 .17599488 .3982849 .21798706 .41827394 .2649994 .41827394 .31698609 .41827394 .3600006 .39328004 .3829956 .35827638 .4099884 .31626893 .41099549 .2622528 .41099549 .22225952 .41099549 .17625427 .40899659 .12124634 .3809967 .07923889 .35398866 .039230348 .30899049 .021224976 .2649994 .021224976Z"/>
<path id="font_6_1" d="M.49198915 .40434266C.45498658 .39733888 .44400025 .3653412 .44400025 .3503418 .44400025 .33132936 .45799256 .31433106 .48298646 .31433106 .5109863 .31433106 .5379944 .33833314 .5379944 .3733368 .5379944 .41937257 .48799134 .4423828 .44099427 .4423828 .3809967 .4423828 .34599305 .38934327 .33399964 .3683319 .31498719 .41737367 .2709961 .4423828 .22299195 .4423828 .115997318 .4423828 .057998659 .31433106 .057998659 .28833009 .057998659 .2793274 .06498718 .2763214 .07199097 .2763214 .08099365 .2763214 .083999637 .2813263 .085998538 .287323 .116989139 .38633729 .18299866 .41737367 .22099304 .41737367 .25 .41737367 .27598573 .3983307 .27598573 .35133363 .27598573 .31533814 .23298645 .15530396 .21998596 .107284549 .21199036 .076293949 .18199158 .014251709 .1269989 .014251709 .10699463 .014251709 .085998538 .021270752 .07598877 .027282715 .102996829 .032287599 .12298584 .055282594 .12298584 .08128357 .12298584 .106292728 .10398865 .11729431 .084991458 .11729431 .055999757 .11729431 .02999878 .092285159 .02999878 .058288576 .02999878 .009246826 .083999637-.0107421879 .12599182-.0107421879 .18399048-.0107421879 .21798706 .03729248 .23298645 .06428528 .2579956-.0017547608 .31698609-.0107421879 .34399415-.0107421879 .45199586-.0107421879 .5089874 .11929321 .5089874 .14329529 .5089874 .14830017 .5059967 .15530396 .49598695 .15530396 .4850006 .15530396 .48399354 .1512909 .47898866 .1362915 .45700074 .06428528 .39898683 .014251709 .34700013 .014251709 .31799317 .014251709 .29100038 .032287599 .29100038 .08029175 .29100038 .10229492 .30499269 .15730286 .31399537 .1953125 .31799317 .21331787 .34498597 .32133485 .34700013 .32833863 .35899354 .3643341 .3889923 .41737367 .43998719 .41737367 .45799256 .41737367 .47698976 .41436769 .49198915 .40434266Z"/>
<path id="font_6_2" d="M.5019989 .38536073C.5029907 .3903656 .5049896 .39637757 .5049896 .40237428 .5049896 .41537477 .49598695 .43138124 .47399903 .43138124 .46099855 .43138124 .44299317 .42337037 .43499757 .40437318 .43399049 .40037538 .42399598 .35935975 .41799928 .33735658L.36799623 .13728333C.3600006 .10827637 .3600006 .106277469 .35798646 .09727478 .35699464 .09327698 .31498719 .014251709 .24299622 .014251709 .18099976 .014251709 .18099976 .07727051 .18099976 .09628296 .18099976 .14129639 .19400025 .19030762 .23699951 .30233766 .24499512 .3253479 .25099183 .33935548 .25099183 .35835267 .25099183 .40737916 .21398926 .4423828 .16499329 .4423828 .068984989 .4423828 .0289917 .30033876 .0289917 .28833009 .0289917 .2793274 .035995485 .27633668 .042999269 .27633668 .053985597 .27633668 .054992677 .28233338 .05899048 .29533387 .07998657 .3693695 .11999512 .41737367 .1619873 .41737367 .18598938 .41737367 .18598938 .39837647 .18598938 .3843689 .18598938 .36735536 .18199158 .34934999 .17298889 .3253479 .12599182 .2013092 .11299133 .15930176 .11299133 .11128235 .11299133 .00024414063 .20298767-.0107421879 .23999024-.0107421879 .2889862-.0107421879 .32398988 .01524353 .34199525 .0332489 .32899476-.017745972 .31799317-.0627594 .2789917-.11276245 .24899292-.15286255 .20899964-.18008423 .16499329-.18008423 .13699341-.18008423 .10398865-.16999817 .08999634-.14176941 .14299011-.14176941 .1499939-.09776306 .1499939-.087768558 .1499939-.06576538 .13398743-.051757814 .11199951-.051757814 .08799744-.051757814 .055999757-.07077026 .055999757-.116760257 .055999757-.16899109 .101989749-.20507813 .16499329-.20507813 .2669983-.20507813 .37599183-.117767337 .40499879-.00074768069L.5019989 .38536073Z"/>
</defs>
<path transform="matrix(1.00002,0,0,-1.00008,2.313713,155.57816)" stroke-width=".74721" stroke-linecap="butt" stroke-miterlimit="10" stroke-linejoin="miter" fill="none" stroke="#404040" d="M0 0H153.5947V153.5947H0Z"/>
<path transform="matrix(1.00002,0,0,-1.00008,2.313713,155.57816)" stroke-width=".19925" stroke-linecap="butt" stroke-miterlimit="10" stroke-linejoin="miter" fill="none" stroke="#7f807f" d="M5.29636 56.1342V60.3859M111.22374 56.1342V60.3859"/>
<path transform="matrix(1.00002,0,0,-1.00008,2.313713,155.57816)" stroke-width=".19925" stroke-linecap="butt" stroke-miterlimit="10" stroke-linejoin="miter" fill="none" stroke="#7f807f" d="M56.1342 5.29636H60.3859M56.1342 111.22374H60.3859"/>
<path transform="matrix(1.00002,0,0,-1.00008,2.313713,155.57816)" stroke-width=".74721" stroke-linecap="butt" stroke-miterlimit="10" stroke-linejoin="miter" fill="none" stroke="#404040" d="M0 58.26006H151.07915"/>
<path transform="matrix(1.00002,0,0,-1.00008,153.39588,97.31343)" d="M2.51553 0-1.50932 2.01244 0 0-1.50932-2.01244" fill="#404040"/>
<path transform="matrix(1.00002,0,0,-1.00008,2.313713,155.57816)" stroke-width=".74721" stroke-linecap="butt" stroke-miterlimit="10" stroke-linejoin="miter" fill="none" stroke="#404040" d="M58.26006 0V151.07915"/>
<path transform="matrix(0,-1.00008,-1.00002,-0,60.57494,4.486923)" d="M2.51553 0-1.50932 2.01244 0 0-1.50932-2.01244" fill="#404040"/>
<use data-text="&#x2212;" xlink:href="#font_1_1" transform="matrix(4.9813997,0,0,-4.9816987,3.2167283,106.45523)"/>
<use data-text="1" xlink:href="#font_2_1" transform="matrix(4.9813997,0,0,-4.9816987,8.612839,106.45523)"/>
<use data-text="1" xlink:href="#font_2_1" transform="matrix(4.9813997,0,0,-4.9816987,111.84491,106.34422)"/>
<use data-text="&#x2212;" xlink:href="#font_1_1" transform="matrix(4.9813997,0,0,-4.9816987,45.967588,151.52683)"/>
<use data-text="1" xlink:href="#font_2_1" transform="matrix(4.9813997,0,0,-4.9816987,51.363698,151.52683)"/>
<use data-text="1" xlink:href="#font_2_1" transform="matrix(4.9813997,0,0,-4.9816987,51.364698,45.950387)"/>
<g clip-path="url(#clip_3)">
<path transform="matrix(1.00002,0,0,-1.00008,2.313713,155.57816)" stroke-width=".74721" stroke-linecap="butt" stroke-miterlimit="10" stroke-linejoin="miter" fill="none" stroke="#404040" d="M111.22374 58.26006C111.22374 87.51146 87.51146 111.22374 58.26006 111.22374 29.00865 111.22374 5.29636 87.51146 5.29636 58.26006 5.29636 29.00865 29.00865 5.29636 58.26006 5.29636 87.51146 5.29636 111.22374 29.00865 111.22374 58.26006ZM58.26006 58.26006"/>
<path transform="matrix(1.00002,0,0,-1.00008,2.313713,155.57816)" stroke-width=".74721" stroke-linecap="butt" stroke-miterlimit="10" stroke-linejoin="miter" fill="none" stroke="#1414cc" d="M90.03827 100.63101 58.26006 58.26006"/>
<path transform="matrix(1.00002,0,0,-1.00008,2.313713,155.57816)" stroke-width=".74721" stroke-linecap="butt" stroke-miterlimit="10" stroke-linejoin="miter" fill="none" stroke="#1414cc" d="M146.70943 58.26006 58.26006 124.46468"/>
<path transform="matrix(1.00002,0,0,-1.00008,2.313713,155.57816)" stroke-width=".3985" stroke-linecap="butt" stroke-miterlimit="10" stroke-linejoin="miter" fill="none" stroke="#e61ae6" d="M95.33464 96.65874 91.20346 91.15051 85.90709 95.12279"/>
<path transform="matrix(1.00002,0,0,-1.00008,2.313713,155.57816)" stroke-width=".3985" stroke-linecap="butt" stroke-miterlimit="10" stroke-linejoin="miter" fill="none" stroke="#008c0d" d="M84.7419 104.60329 80.61072 99.09506 85.90709 95.12279"/>
<path transform="matrix(1.00002,0,0,-1.00008,2.313713,155.57816)" stroke-width="1.19553" stroke-linecap="butt" stroke-miterlimit="10" stroke-linejoin="miter" fill="none" stroke="#1414cc" d="M58.26006 58.26006 90.03827 100.63101"/>
<path transform="matrix(1.00002,0,0,-1.00008,2.313713,155.57816)" stroke-width=".74721" stroke-linecap="butt" stroke-miterlimit="10" stroke-linejoin="miter" fill="none" stroke="#404040" d="M74.14915 79.44553"/>
<use data-text="r" xlink:href="#font_4_2" transform="matrix(4.7819964,-6.376351,-6.3759686,-4.782283,67.634479,81.74289)" fill="#1414cc"/>
<use data-text="=" xlink:href="#font_5_4" transform="matrix(4.7819964,-6.376351,-6.3759686,-4.782283,71.47983,76.61547)" fill="#1414cc"/>
<use data-text="1" xlink:href="#font_5_3" transform="matrix(4.7819964,-6.376351,-6.3759686,-4.782283,76.840457,69.46758)" fill="#1414cc"/>
<path transform="matrix(1.00002,0,0,-1.00008,2.313713,155.57816)" stroke-width=".19925" stroke-linecap="butt" stroke-miterlimit="10" stroke-linejoin="miter" fill="none" stroke="#1414cc" d="M68.8528 58.26006 68.85056 58.46025 68.84474 58.66078 68.8352 58.86087 68.82175 59.06085 68.8048 59.26074 68.78413 59.45999 68.75935 59.65892 68.73106 59.85733 68.69919 60.05508 68.66339 60.25253 68.62398 60.44904 68.58054 60.64479 68.53352 60.83937 68.48279 61.03355 68.42833 61.22643 68.37029 61.41837 68.30885 61.60925 68.24371 61.79865 68.17485 61.98679 68.1026 62.17384 68.02687 62.35944 67.94753 62.54364 67.86491 62.72626 67.77869 62.90709 67.68907 63.08641 67.59595 63.26384 67.49957 63.43968 67.39967 63.61362 67.2967 63.78564 67.19058 63.95544 67.08127 64.12355 66.96866 64.28943 66.85318 64.45331 66.73454 64.61475 66.61273 64.77396 66.48807 64.93082 66.36032 65.08527 66.2297 65.23738 66.09602 65.38683 65.9599 65.53397 65.82072 65.67834 65.67899 65.82008 65.5346 65.95885 65.38768 66.09517 65.23822 66.22885 65.08621 66.35957 64.93178 66.48743 64.77478 66.61209 64.61559 66.73393"/>
<path transform="matrix(1.00002,0,0,-1.00008,2.313713,155.57816)" stroke-width=".74721" stroke-linecap="butt" stroke-miterlimit="10" stroke-linejoin="miter" fill="none" stroke="#404040" d="M66.2046 63.55643"/>
<use data-text="&#x03b8;" xlink:href="#font_4_1" transform="matrix(7.9702599,0,0,-7.9707376,72.21411,94.78429)" fill="#1414cc"/>
<path transform="matrix(1.00002,0,0,-1.00008,2.313713,155.57816)" stroke-width="1.19553" stroke-linecap="butt" stroke-miterlimit="10" stroke-linejoin="miter" fill="none" stroke="#e61ae6" d="M146.53252 58.26006 90.03827 100.63101"/>
<path transform="matrix(1.00002,0,0,-1.00008,2.313713,155.57816)" d="M151.65984 63.52245C151.96369 65.16534 151.2136 67.34297 149.22557 68.84334 148.83194 69.14041 148.3818 68.544 148.77545 68.24693 150.76346 66.74657 151.59632 65.23329 151.29247 63.5904 151.24762 63.34793 151.61499 63.27997 151.65984 63.52245" fill="#e61ae6"/>
<path transform="matrix(1.00002,0,0,-1.00008,2.313713,155.57816)" d="M126.25 88.73079C125.94615 87.08789 126.69626 84.91025 128.68427 83.40988 129.07791 83.11281 129.52805 83.70921 129.1344 84.00629 127.1464 85.50665 126.31352 87.01993 126.61737 88.66284 126.66222 88.90532 126.29485 88.97327 126.25 88.73079" fill="#e61ae6"/>
<path transform="matrix(1.00002,0,0,-1.00008,2.313713,155.57816)" stroke-width=".74721" stroke-linecap="butt" stroke-miterlimit="10" stroke-linejoin="miter" fill="none" stroke="#e61ae6" d="M149.00052 68.54514 128.90933 83.70808"/>
<path transform="matrix(1.00002,0,0,-1.00008,2.313713,155.57816)" d="M126.35065 88.86415C124.85403 88.12141 123.17041 88.50737 121.18239 90.00774 120.78876 90.30481 120.33862 89.7084 120.73227 89.41133 122.72028 87.91096 125.02014 87.78674 126.51674 88.5295 126.73761 88.63911 126.57152 88.97377 126.35065 88.86415" fill="#e61ae6"/>
<path transform="matrix(1.00002,0,0,-1.00008,2.313713,155.57816)" d="M95.47282 105.71791C96.96942 106.46063 98.65306 106.07468 100.64107 104.57431 101.03471 104.27724 101.48485 104.87364 101.0912 105.17072 99.1032 106.67107 96.80331 106.79529 95.30673 106.05257 95.08586 105.94295 95.25195 105.60829 95.47282 105.71791" fill="#e61ae6"/>
<path transform="matrix(1.00002,0,0,-1.00008,2.313713,155.57816)" stroke-width=".74721" stroke-linecap="butt" stroke-miterlimit="10" stroke-linejoin="miter" fill="none" stroke="#e61ae6" d="M120.95734 89.70953 100.86613 104.87251"/>
<path transform="matrix(1.00002,0,0,-1.00008,2.313713,155.57816)" stroke-width=".74721" stroke-linecap="butt" stroke-miterlimit="10" stroke-linejoin="miter" fill="none" stroke="#404040" d=""/>
<use data-text="t" xlink:href="#font_5_11" transform="matrix(6.3759686,4.782283,4.7819964,-6.376351,119.93242,59.37893)" fill="#e61ae6"/>
<use data-text="a" xlink:href="#font_5_5" transform="matrix(6.3759686,4.782283,4.7819964,-6.376351,122.5657,61.35401)" fill="#e61ae6"/>
<use data-text="n" xlink:href="#font_5_8" transform="matrix(6.3759686,4.782283,4.7819964,-6.376351,125.95133,63.89341)" fill="#e61ae6"/>
<use data-text="(" xlink:href="#font_5_1" transform="matrix(6.3759686,4.782283,4.7819964,-6.376351,129.71317,66.71496)" fill="#e61ae6"/>
<use data-text="&#x03b8;" xlink:href="#font_4_1" transform="matrix(6.3759686,4.782283,4.7819964,-6.376351,132.3522,68.69436)" fill="#e61ae6"/>
<use data-text=")" xlink:href="#font_5_2" transform="matrix(6.3759686,4.782283,4.7819964,-6.376351,135.70095,71.20608)" fill="#e61ae6"/>
<path transform="matrix(1.00002,0,0,-1.00008,2.313713,155.57816)" stroke-width="1.19553" stroke-linecap="butt" stroke-miterlimit="10" stroke-linejoin="miter" fill="none" stroke="#e61ae6" d="M146.53252 58.26006H58.26006"/>
<path transform="matrix(1.00002,0,0,-1.00008,2.313713,155.57816)" d="M58.09297 52.88016C58.84015 51.38573 60.75075 50.0994 63.24144 50.0994 63.73459 50.0994 63.73459 50.8466 63.24144 50.8466 60.75075 50.8466 59.17432 51.5528 58.42714 53.04723 58.31686 53.26778 57.9827 53.10071 58.09297 52.88016" fill="#e61ae6"/>
<path transform="matrix(1.00002,0,0,-1.00008,2.313713,155.57816)" d="M93.80634 48.06584C93.05916 49.56027 91.14856 50.8466 88.65787 50.8466 88.16472 50.8466 88.16472 50.0994 88.65787 50.0994 91.14856 50.0994 92.72499 49.3932 93.47217 47.89877 93.58244 47.67822 93.91661 47.84529 93.80634 48.06584" fill="#e61ae6"/>
<path transform="matrix(1.00002,0,0,-1.00008,2.313713,155.57816)" stroke-width=".74721" stroke-linecap="butt" stroke-miterlimit="10" stroke-linejoin="miter" fill="none" stroke="#e61ae6" d="M63.24144 50.47299H88.65787"/>
<path transform="matrix(1.00002,0,0,-1.00008,2.313713,155.57816)" d="M93.80634 47.89877C94.55351 49.3932 96.12994 50.0994 98.62064 50.0994 99.11378 50.0994 99.11378 50.8466 98.62064 50.8466 96.12994 50.8466 94.21935 49.56027 93.47217 48.06584 93.3619 47.84529 93.69606 47.67822 93.80634 47.89877" fill="#e61ae6"/>
<path transform="matrix(1.00002,0,0,-1.00008,2.313713,155.57816)" d="M146.54235 53.04723C145.79517 51.5528 144.21874 50.8466 141.72805 50.8466 141.23488 50.8466 141.23488 50.0994 141.72805 50.0994 144.21874 50.0994 146.12934 51.38573 146.87651 52.88016 146.98679 53.10071 146.65262 53.26778 146.54235 53.04723" fill="#e61ae6"/>
<path transform="matrix(1.00002,0,0,-1.00008,2.313713,155.57816)" stroke-width=".74721" stroke-linecap="butt" stroke-miterlimit="10" stroke-linejoin="miter" fill="none" stroke="#e61ae6" d="M98.62064 50.47299H141.72805"/>
<path transform="matrix(1.00002,0,0,-1.00008,2.313713,155.57816)" stroke-width=".74721" stroke-linecap="butt" stroke-miterlimit="10" stroke-linejoin="miter" fill="none" stroke="#404040" d=""/>
<use data-text="s" xlink:href="#font_5_10" transform="matrix(7.9702599,0,0,-7.9707376,85.13437,112.28269)" fill="#e61ae6"/>
<use data-text="e" xlink:href="#font_5_7" transform="matrix(7.9702599,0,0,-7.9707376,88.47391,112.28269)" fill="#e61ae6"/>
<use data-text="c" xlink:href="#font_5_6" transform="matrix(7.9702599,0,0,-7.9707376,92.23587,112.28269)" fill="#e61ae6"/>
<use data-text="(" xlink:href="#font_5_1" transform="matrix(7.9702599,0,0,-7.9707376,95.99783,112.28269)" fill="#e61ae6"/>
<use data-text="&#x03b8;" xlink:href="#font_4_1" transform="matrix(7.9702599,0,0,-7.9707376,99.295658,112.28269)" fill="#e61ae6"/>
<use data-text=")" xlink:href="#font_5_2" transform="matrix(7.9702599,0,0,-7.9707376,103.480739,112.28269)" fill="#e61ae6"/>
<path transform="matrix(1.00002,0,0,-1.00008,2.313713,155.57816)" stroke-width="1.19553" stroke-linecap="butt" stroke-miterlimit="10" stroke-linejoin="miter" fill="none" stroke="#008c0d" d="M90.03827 100.63101 58.26006 124.46468"/>
<path transform="matrix(1.00002,0,0,-1.00008,2.313713,155.57816)" d="M95.51843 105.89395C95.81737 107.53773 95.06071 109.71312 93.06822 111.20752 92.6737 111.50342 92.22536 110.90564 92.61989 110.60976 94.61238 109.11536 95.44978 107.6046 95.15085 105.9608 95.10674 105.71822 95.47432 105.65135 95.51843 105.89395" fill="#008c0d"/>
<path transform="matrix(1.00002,0,0,-1.00008,2.313713,155.57816)" d="M82.26137 121.8547C81.96242 120.21089 82.71907 118.0355 84.71156 116.5411 85.10608 116.24522 85.55441 116.84299 85.1599 117.13889 83.1674 118.63329 82.33 120.14404 82.62895 121.78784 82.67307 122.03044 82.30548 122.09729 82.26137 121.8547" fill="#008c0d"/>
<path transform="matrix(1.00002,0,0,-1.00008,2.313713,155.57816)" stroke-width=".74721" stroke-linecap="butt" stroke-miterlimit="10" stroke-linejoin="miter" fill="none" stroke="#008c0d" d="M92.84406 110.90865 84.93573 116.84"/>
<path transform="matrix(1.00002,0,0,-1.00008,2.313713,155.57816)" d="M82.3616 121.98836C80.86723 121.24113 79.18245 121.62206 77.18996 123.11646 76.79543 123.41234 76.34709 122.81458 76.74162 122.51868 78.73412 121.02428 81.03433 120.90697 82.5287 121.65419 82.74925 121.76447 82.58215 122.09863 82.3616 121.98836" fill="#008c0d"/>
<path transform="matrix(1.00002,0,0,-1.00008,2.313713,155.57816)" d="M63.66164 129.57816C65.15599 130.32537 66.84077 129.94446 68.83327 128.45006 69.2278 128.15416 69.67613 128.75194 69.28162 129.04782 67.28912 130.54222 64.98889 130.65953 63.49454 129.91233 63.27399 129.80205 63.44109 129.46788 63.66164 129.57816" fill="#008c0d"/>
<path transform="matrix(1.00002,0,0,-1.00008,2.313713,155.57816)" stroke-width=".74721" stroke-linecap="butt" stroke-miterlimit="10" stroke-linejoin="miter" fill="none" stroke="#008c0d" d="M76.96579 122.81757 69.05745 128.74893"/>
<path transform="matrix(1.00002,0,0,-1.00008,2.313713,155.57816)" stroke-width=".74721" stroke-linecap="butt" stroke-miterlimit="10" stroke-linejoin="miter" fill="none" stroke="#404040" d=""/>
<use data-text="c" xlink:href="#font_5_6" transform="matrix(6.3759686,4.782283,4.7819964,-6.376351,76.34755,26.556305)" fill="#008c0d"/>
<use data-text="o" xlink:href="#font_5_9" transform="matrix(6.3759686,4.782283,4.7819964,-6.376351,79.35701,28.813538)" fill="#008c0d"/>
<use data-text="t" xlink:href="#font_5_11" transform="matrix(6.3759686,4.782283,4.7819964,-6.376351,82.742649,31.352936)" fill="#008c0d"/>
<use data-text="(" xlink:href="#font_5_1" transform="matrix(6.3759686,4.782283,4.7819964,-6.376351,85.37592,33.32802)" fill="#008c0d"/>
<use data-text="&#x03b8;" xlink:href="#font_4_1" transform="matrix(6.3759686,4.782283,4.7819964,-6.376351,88.01455,35.307115)" fill="#008c0d"/>
<use data-text=")" xlink:href="#font_5_2" transform="matrix(6.3759686,4.782283,4.7819964,-6.376351,91.36329,37.818834)" fill="#008c0d"/>
<path transform="matrix(1.00002,0,0,-1.00008,2.313713,155.57816)" stroke-width="1.19553" stroke-linecap="butt" stroke-miterlimit="10" stroke-linejoin="miter" fill="none" stroke="#008c0d" d="M58.26006 58.26006V124.46468"/>
<path transform="matrix(1.00002,0,0,-1.00008,2.313713,155.57816)" stroke-width=".3985" stroke-linecap="butt" stroke-miterlimit="10" stroke-linejoin="miter" fill="none" stroke="#008c0d" d="M90.03827 100.63101 58.26006 124.46468"/>
<path transform="matrix(1.00002,0,0,-1.00008,2.313713,155.57816)" d="M53.04723 58.42714C51.5528 59.17432 50.8466 60.75075 50.8466 63.24144 50.8466 63.73459 50.0994 63.73459 50.0994 63.24144 50.0994 60.75075 51.38573 58.84015 52.88016 58.09297 53.10071 57.9827 53.26778 58.31686 53.04723 58.42714" fill="#008c0d"/>
<path transform="matrix(1.00002,0,0,-1.00008,2.313713,155.57816)" d="M47.89877 91.19528C49.3932 90.4481 50.0994 88.87167 50.0994 86.38098 50.0994 85.88783 50.8466 85.88783 50.8466 86.38098 50.8466 88.87167 49.56027 90.78227 48.06584 91.52945 47.84529 91.63972 47.67822 91.30556 47.89877 91.19528" fill="#008c0d"/>
<path transform="matrix(1.00002,0,0,-1.00008,2.313713,155.57816)" stroke-width=".74721" stroke-linecap="butt" stroke-miterlimit="10" stroke-linejoin="miter" fill="none" stroke="#008c0d" d="M50.47299 63.24144V86.38098"/>
<path transform="matrix(1.00002,0,0,-1.00008,2.313713,155.57816)" d="M48.06584 91.19528C49.56027 91.94246 50.8466 93.85306 50.8466 96.34375 50.8466 96.8369 50.0994 96.8369 50.0994 96.34375 50.0994 93.85306 49.3932 92.27663 47.89877 91.52945 47.67822 91.41917 47.84529 91.085 48.06584 91.19528" fill="#008c0d"/>
<path transform="matrix(1.00002,0,0,-1.00008,2.313713,155.57816)" d="M52.88016 124.63176C51.38573 123.88458 50.0994 121.97398 50.0994 119.48329 50.0994 118.99013 50.8466 118.99013 50.8466 119.48329 50.8466 121.97398 51.5528 123.55042 53.04723 124.29759 53.26778 124.40787 53.10071 124.74203 52.88016 124.63176" fill="#008c0d"/>
<path transform="matrix(1.00002,0,0,-1.00008,2.313713,155.57816)" stroke-width=".74721" stroke-linecap="butt" stroke-miterlimit="10" stroke-linejoin="miter" fill="none" stroke="#008c0d" d="M50.47299 96.34375V119.48329"/>
<path transform="matrix(1.00002,0,0,-1.00008,2.313713,155.57816)" stroke-width=".74721" stroke-linecap="butt" stroke-miterlimit="10" stroke-linejoin="miter" fill="none" stroke="#404040" d=""/>
<use data-text="c" xlink:href="#font_5_6" transform="matrix(0,-7.9707376,-7.9702599,-0,49.59066,75.0297)" fill="#008c0d"/>
<use data-text="s" xlink:href="#font_5_10" transform="matrix(0,-7.9707376,-7.9702599,-0,49.59066,71.26752)" fill="#008c0d"/>
<use data-text="c" xlink:href="#font_5_6" transform="matrix(0,-7.9707376,-7.9702599,-0,49.59066,67.92778)" fill="#008c0d"/>
<use data-text="(" xlink:href="#font_5_1" transform="matrix(0,-7.9707376,-7.9702599,-0,49.59066,64.16559)" fill="#008c0d"/>
<use data-text="&#x03b8;" xlink:href="#font_4_1" transform="matrix(0,-7.9707376,-7.9702599,-0,49.59066,60.86757)" fill="#008c0d"/>
<use data-text=")" xlink:href="#font_5_2" transform="matrix(0,-7.9707376,-7.9702599,-0,49.59066,56.682237)" fill="#008c0d"/>
</g>
<path transform="matrix(1.00002,0,0,-1.00008,2.313713,155.57816)" d="M91.03455 100.63101C91.03455 101.18124 90.5885 101.62729 90.03827 101.62729 89.48804 101.62729 89.04199 101.18124 89.04199 100.63101 89.04199 100.08078 89.48804 99.63474 90.03827 99.63474 90.5885 99.63474 91.03455 100.08078 91.03455 100.63101ZM90.03827 100.63101" fill="#1414cc"/>
<path transform="matrix(1.00002,0,0,-1.00008,2.313713,155.57816)" stroke-width=".74721" stroke-linecap="butt" stroke-miterlimit="10" stroke-linejoin="miter" fill="none" stroke="#1414cc" d="M91.03455 100.63101C91.03455 101.18124 90.5885 101.62729 90.03827 101.62729 89.48804 101.62729 89.04199 101.18124 89.04199 100.63101 89.04199 100.08078 89.48804 99.63474 90.03827 99.63474 90.5885 99.63474 91.03455 100.08078 91.03455 100.63101ZM90.03827 100.63101"/>
<path transform="matrix(1.00002,0,0,-1.00008,2.313713,155.57816)" d="M59.25633 58.26006C59.25633 58.81029 58.81029 59.25633 58.26006 59.25633 57.70982 59.25633 57.26378 58.81029 57.26378 58.26006 57.26378 57.70982 57.70982 57.26378 58.26006 57.26378 58.81029 57.26378 59.25633 57.70982 59.25633 58.26006ZM58.26006 58.26006" fill="#1414cc"/>
<path transform="matrix(1.00002,0,0,-1.00008,2.313713,155.57816)" stroke-width=".74721" stroke-linecap="butt" stroke-miterlimit="10" stroke-linejoin="miter" fill="none" stroke="#1414cc" d="M59.25633 58.26006C59.25633 58.81029 58.81029 59.25633 58.26006 59.25633 57.70982 59.25633 57.26378 58.81029 57.26378 58.26006 57.26378 57.70982 57.70982 57.26378 58.26006 57.26378 58.81029 57.26378 59.25633 57.70982 59.25633 58.26006ZM58.26006 58.26006"/>
<path transform="matrix(1.00002,0,0,-1.00008,2.313713,155.57816)" stroke-width=".74721" stroke-linecap="butt" stroke-miterlimit="10" stroke-linejoin="miter" fill="none" stroke="#1414cc" d=""/>
<path transform="matrix(1.00002,0,0,-1.00008,2.313713,155.57816)" d="M147.7057 58.26006C147.7057 58.81029 147.25966 59.25633 146.70943 59.25633 146.15918 59.25633 145.71315 58.81029 145.71315 58.26006 145.71315 57.70982 146.15918 57.26378 146.70943 57.26378 147.25966 57.26378 147.7057 57.70982 147.7057 58.26006ZM146.70943 58.26006" fill="#1414cc"/>
<path transform="matrix(1.00002,0,0,-1.00008,2.313713,155.57816)" stroke-width=".74721" stroke-linecap="butt" stroke-miterlimit="10" stroke-linejoin="miter" fill="none" stroke="#1414cc" d="M147.7057 58.26006C147.7057 58.81029 147.25966 59.25633 146.70943 59.25633 146.15918 59.25633 145.71315 58.81029 145.71315 58.26006 145.71315 57.70982 146.15918 57.26378 146.70943 57.26378 147.25966 57.26378 147.7057 57.70982 147.7057 58.26006ZM146.70943 58.26006"/>
<path transform="matrix(1.00002,0,0,-1.00008,2.313713,155.57816)" d="M59.25633 124.46468C59.25633 125.01491 58.81029 125.46095 58.26006 125.46095 57.70982 125.46095 57.26378 125.01491 57.26378 124.46468 57.26378 123.91443 57.70982 123.4684 58.26006 123.4684 58.81029 123.4684 59.25633 123.91443 59.25633 124.46468ZM58.26006 124.46468" fill="#1414cc"/>
<path transform="matrix(1.00002,0,0,-1.00008,2.313713,155.57816)" stroke-width=".74721" stroke-linecap="butt" stroke-miterlimit="10" stroke-linejoin="miter" fill="none" stroke="#1414cc" d="M59.25633 124.46468C59.25633 125.01491 58.81029 125.46095 58.26006 125.46095 57.70982 125.46095 57.26378 125.01491 57.26378 124.46468 57.26378 123.91443 57.70982 123.4684 58.26006 123.4684 58.81029 123.4684 59.25633 123.91443 59.25633 124.46468ZM58.26006 124.46468"/>
<path transform="matrix(1.00002,0,0,-1.00008,2.313713,155.57816)" stroke-width=".74721" stroke-linecap="butt" stroke-miterlimit="10" stroke-linejoin="miter" fill="none" stroke="#1414cc" d=""/>
<use data-text="x" xlink:href="#font_6_1" transform="matrix(8.966579,0,0,-8.967117,146.99362,93.6192)"/>
<use data-text="y" xlink:href="#font_6_2" transform="matrix(8.966579,0,0,-8.967117,64.26895,9.526474)"/>
</svg>
