<svg xmlns="http://www.w3.org/2000/svg" xmlns:xlink="http://www.w3.org/1999/xlink" xmlns:inkscape="http://www.inkscape.org/namespaces/inkscape" version="1.1" width="157" height="143" viewBox="0 0 157 143">
<defs>
<path id="font_1_1" d="M.6589966 .23046875C.6759949 .23046875 .69400027 .23046875 .69400027 .25045777 .69400027 .27046205 .6759949 .27046205 .6589966 .27046205H.117996219C.100997928 .27046205 .08299255 .27046205 .08299255 .25045777 .08299255 .23046875 .100997928 .23046875 .117996219 .23046875H.6589966Z"/>
<path id="font_2_3" d="M.2899933 .35191346C.37199403 .37893678 .42999269 .4490509 .42999269 .52809146 .42999269 .6100464 .34199525 .6660156 .24598694 .6660156 .14498902 .6660156 .068984989 .60606387 .068984989 .53009036 .068984989 .49710084 .09098816 .47808839 .11999512 .47808839 .15098572 .47808839 .17098999 .50009158 .17098999 .5290985 .17098999 .57910159 .12399292 .57910159 .10899353 .57910159 .13999939 .62802127 .20599365 .64100649 .24198914 .64100649 .2829895 .64100649 .33799745 .6190338 .33799745 .5290985 .33799745 .51708987 .33599855 .45906068 .30999757 .4149933 .27999879 .36691285 .24598694 .36390687 .22099304 .36291505 .21299744 .36190797 .18899536 .35990907 .18199158 .35990907 .17399597 .35890199 .16699219 .35791017 .16699219 .3479004 .16699219 .33691407 .17399597 .33691407 .19099427 .33691407H.23498535C.31698609 .33691407 .35398866 .2686615 .35398866 .17037964 .35398866 .034469606 .2849884 .0055389406 .24099732 .0055389406 .19799805 .0055389406 .12298584 .022491456 .08799744 .08137512 .12298584 .07637024 .1539917 .09837341 .1539917 .1363678 .1539917 .17237854 .1269989 .19238281 .09799194 .19238281 .07398987 .19238281 .041992189 .17837525 .041992189 .1343689 .041992189 .043441774 .1349945-.022460938 .24398804-.022460938 .3659973-.022460938 .45700074 .06838989 .45700074 .17037964 .45700074 .252594 .3939972 .33088685 .2899933 .35191346Z"/>
<path id="font_2_2" d="M.1269989 .07699585 .23298645 .18003845C.3889923 .31811524 .44898988 .3721466 .44898988 .47216798 .44898988 .5860901 .35899354 .6660156 .23699951 .6660156 .12399292 .6660156 .049987794 .57411196 .049987794 .48516847 .049987794 .4291687 .099990848 .4291687 .102996829 .4291687 .11999512 .4291687 .15499878 .44117738 .15499878 .48217774 .15499878 .5081787 .13699341 .5341797 .101989749 .5341797 .09399414 .5341797 .09199524 .5341797 .08898926 .5331726 .11199951 .59806826 .1659851 .63500979 .22399903 .63500979 .31498719 .63500979 .35798646 .5541382 .35798646 .47216798 .35798646 .39215089 .30799867 .31311036 .25299073 .25108338L.06098938 .036987306C.049987794 .025985718 .049987794 .023986817 .049987794 0H.42099L.44898988 .17404175H.42399598C.4189911 .14402771 .4119873 .1000061 .4019928 .084991458 .394989 .07699585 .32899476 .07699585 .30699159 .07699585H.1269989Z"/>
<path id="font_2_1" d="M.2939911 .64004519C.2939911 .66400149 .2939911 .6660156 .2709961 .6660156 .20899964 .60227969 .12098694 .60227969 .08898926 .60227969V.57128909C.10899353 .57128909 .16799927 .57128909 .21998596 .5972748V.07902527C.21998596 .042999269 .21699524 .0309906 .1269989 .0309906H.09498596V0C.12998963 .0029907227 .21699524 .0029907227 .25698854 .0029907227 .29699708 .0029907227 .38398744 .0029907227 .4189911 0V.0309906H.3869934C.29699708 .0309906 .2939911 .041992189 .2939911 .07902527V.64004519Z"/>
<path id="font_2_4" d="M.2939911 .16503906V.07800293C.2939911 .041992189 .2919922 .0309906 .21798706 .0309906H.19699097V0C.23799134 .0029907227 .2899933 .0029907227 .33198548 .0029907227 .37399293 .0029907227 .4269867 .0029907227 .46798707 0V.0309906H.44699098C.37298585 .0309906 .37098695 .041992189 .37098695 .07800293V.16503906H.47099305V.19602967H.37098695V.65075686C.37098695 .67074587 .37098695 .6767578 .35499574 .6767578 .34599305 .6767578 .34298707 .6767578 .33499146 .66474917L.027999878 .19602967V.16503906H.2939911M.2999878 .19602967H.055999757L.2999878 .5688019V.19602967Z"/>
<path id="font_2_5" d="M.44898988 .20022583C.44898988 .3193512 .36698915 .41944886 .25898744 .41944886 .21099854 .41944886 .16799927 .40345765 .13198853 .36842347V.5637665C.1519928 .5577698 .18499756 .55078127 .21699524 .55078127 .33999635 .55078127 .4099884 .6417694 .4099884 .6547699 .4099884 .6607666 .40699769 .6657715 .3999939 .6657715 .39898683 .6657715 .39698792 .6657715 .3919983 .66278079 .37199403 .6537781 .32299806 .6337738 .2559967 .6337738 .21598816 .6337738 .16999817 .6407776 .12298584 .6617737 .114990238 .66477969 .11299133 .66477969 .11099243 .66477969 .100997928 .66477969 .100997928 .6567688 .100997928 .6407776V.34439088C.100997928 .32637025 .100997928 .31835938 .114990238 .31835938 .12199402 .31835938 .12399292 .32136537 .12799073 .32736207 .13899231 .3433838 .17599488 .39746095 .25698854 .39746095 .30899049 .39746095 .33399964 .35139466 .34199525 .33337403 .35798646 .29632569 .3600006 .25727845 .3600006 .20722962 .3600006 .17222595 .3600006 .11222839 .33599855 .07035828 .31199647 .031463624 .2749939 .0055389406 .22898865 .0055389406 .1559906 .0055389406 .09899902 .058380128 .08198547 .11723328 .084991458 .1162262 .08799744 .115234378 .09899902 .115234378 .13198853 .115234378 .14898682 .14022827 .14898682 .16423035 .14898682 .18823242 .13198853 .21322632 .09899902 .21322632 .084991458 .21322632 .049987794 .20622254 .049987794 .16023255 .049987794 .07434082 .11898804-.022460938 .23098755-.022460938 .34700013-.022460938 .44898988 .073349 .44898988 .20022583Z"/>
<path id="font_2_6" d="M.13198853 .327713V.35173036C.13198853 .6047821 .2559967 .64100649 .30699159 .64100649 .33099366 .64100649 .37298585 .634964 .394989 .6007538 .37998963 .6007538 .33999635 .6007538 .33999635 .5557556 .33999635 .524765 .3639984 .5097656 .38598634 .5097656 .4019928 .5097656 .43199159 .51875308 .43199159 .5577545 .43199159 .6178589 .3880005 .6660156 .30499269 .6660156 .1769867 .6660156 .041992189 .5367584 .041992189 .31570436 .041992189 .048553468 .1579895-.022460938 .25099183-.022460938 .3619995-.022460938 .45700074 .07156372 .45700074 .2036438 .45700074 .33070375 .36799623 .4267578 .25698854 .4267578 .18899536 .4267578 .1519928 .37573243 .13198853 .327713M.25099183 .0055389406C.18798828 .0055389406 .1579895 .06556702 .1519928 .080566409 .13398743 .127594 .13398743 .2076416 .13398743 .22564698 .13398743 .30369569 .1659851 .40374757 .2559967 .40374757 .27198792 .40374757 .31799317 .40374757 .34899903 .34172059 .36698915 .30470277 .36698915 .2536621 .36698915 .20463562 .36698915 .15661621 .36698915 .10658264 .34999085 .0705719 .31999208 .010528564 .27398683 .0055389406 .25099183 .0055389406Z"/>
<clipPath id="clip_3">
<path transform="matrix(1,0,0,-1.00009,2.0960007,141.23027)" d="M0 0H153.58863V139.42038H0Z"/>
</clipPath>
<path id="font_4_2" d="M.33399964 .30233766C.33999635 .32835389 .36299134 .42037965 .43299867 .42037965 .43798829 .42037965 .46199037 .42037965 .48298646 .40734864 .45498658 .402359 .43499757 .37734986 .43499757 .35334779 .43499757 .33735658 .44599916 .31835938 .47299195 .31835938 .49499513 .31835938 .5269928 .3363495 .5269928 .37635804 .5269928 .42837525 .46798707 .4423828 .43399049 .4423828 .37599183 .4423828 .34098817 .38935853 .32899476 .36634828 .3039856 .43237306 .25 .4423828 .22099304 .4423828 .116989139 .4423828 .05999756 .3133545 .05999756 .28834535 .05999756 .27833558 .069992069 .27833558 .07199097 .27833558 .07998657 .27833558 .08299255 .28033448 .084991458 .28933717 .11898804 .39535523 .18499756 .42037965 .21899414 .42037965 .23799134 .42037965 .272995 .4113617 .272995 .35334779 .272995 .32235719 .2559967 .25532533 .21899414 .11528015 .20298767 .053268434 .16799927 .011245728 .12399292 .011245728 .117996219 .011245728 .09498596 .011245728 .07398987 .024276734 .09899902 .029266358 .12098694 .05027771 .12098694 .07827759 .12098694 .105270389 .09899902 .11328125 .083999637 .11328125 .053985597 .11328125 .0289917 .08728027 .0289917 .055267335 .0289917 .009246826 .07899475-.0107421879 .12298584-.0107421879 .18899536-.0107421879 .22499085 .059280397 .22799683 .0652771 .23999024 .028274537 .27598573-.0107421879 .33599855-.0107421879 .43899537-.0107421879 .49598695 .118270877 .49598695 .14328003 .49598695 .1532898 .4869995 .1532898 .48399354 .1532898 .47499085 .1532898 .47299195 .14929199 .47099305 .14228821 .43798829 .03527832 .36999513 .011245728 .33799745 .011245728 .29899598 .011245728 .2829895 .043273927 .2829895 .07727051 .2829895 .09927368 .2889862 .121276859 .2999878 .16529846L.33399964 .30233766Z"/>
<path id="font_4_3" d="M.48599244 .38136292C.48999024 .39537049 .48999024 .39736939 .48999024 .40437318 .48999024 .42237855 .47599793 .43138124 .46099855 .43138124 .45098878 .43138124 .43499757 .42536927 .42599488 .41036988 .42399598 .405365 .41600038 .37435914 .4119873 .35635377 .40499879 .33035279 .397995 .30334474 .3919983 .27633668L.34700013 .09628296C.34298707 .08126831 .2999878 .011245728 .23399353 .011245728 .18299866 .011245728 .17199707 .055267335 .17199707 .0922699 .17199707 .1382904 .18899536 .20030213 .22299195 .28833009 .23899842 .3293457 .24299622 .3403473 .24299622 .36035157 .24299622 .405365 .21099854 .4423828 .16099549 .4423828 .06599426 .4423828 .0289917 .29733277 .0289917 .28833009 .0289917 .27833558 .038986207 .27833558 .040985109 .27833558 .050994874 .27833558 .051986696 .28033448 .056991579 .29634095 .083999637 .3903656 .12399292 .42037965 .1579895 .42037965 .1659851 .42037965 .18299866 .42037965 .18299866 .3883667 .18299866 .36335755 .17298889 .3373413 .1659851 .31834413 .12599182 .21231079 .10798645 .1552887 .10798645 .10827637 .10798645 .019256592 .17098999-.0107421879 .22999573-.0107421879 .2689972-.0107421879 .30299378 .0062561037 .33099366 .03425598 .31799317-.017745972 .30599977-.06674194 .2659912-.11973572 .23999024-.15385437 .20199585-.18309021 .1559906-.18309021 .14199829-.18309021 .09700012-.18005371 .07998657-.14074707 .09599304-.14074707 .10899353-.14074707 .12298584-.1287384 .1329956-.11973572 .14299011-.10673523 .14299011-.08773804 .14299011-.056747438 .115997318-.052734376 .10598755-.052734376 .08299255-.052734376 .049987794-.068740848 .049987794-.11773682 .049987794-.16796875 .09399414-.20507813 .1559906-.20507813 .25898744-.20507813 .3619995-.11373901 .3899994-.00074768069L.48599244 .38136292Z"/>
<path id="font_2_7" d="M.68699648 .32714845C.70199587 .32714845 .72099307 .32714845 .72099307 .34713746 .72099307 .36714173 .70199587 .36714173 .6879883 .36714173H.08898926C.07499695 .36714173 .055999757 .36714173 .055999757 .34713746 .055999757 .32714845 .07499695 .32714845 .08999634 .32714845H.68699648M.6879883 .13284302C.70199587 .13284302 .72099307 .13284302 .72099307 .15284729 .72099307 .17285156 .70199587 .17285156 .68699648 .17285156H.08999634C.07499695 .17285156 .055999757 .17285156 .055999757 .15284729 .055999757 .13284302 .07499695 .13284302 .08898926 .13284302H.6879883Z"/>
<path id="font_5_1" d="M.24899292 .10601807C.23899842 .072021488 .20599365 .018234253 .15499878 .018234253 .1519928 .018234253 .12199402 .018234253 .100997928 .03215027 .14199829 .04508972 .14498902 .08100891 .14498902 .087020877 .14498902 .10900879 .12799073 .12402344 .10499573 .12402344 .07699585 .12402344 .04798889 .10002136 .04798889 .0630188 .04798889 .01322937 .10398865-.009765625 .15299988-.009765625 .19898987-.009765625 .23999024 .019226075 .2649994 .061019899 .2889862 .008224487 .34399415-.009765625 .38398744-.009765625 .49899293-.009765625 .55999758 .11502075 .55999758 .14305115 .55999758 .15608216 .5469971 .15608216 .5439911 .15608216 .5299988 .15608216 .5289917 .15107727 .5249939 .13905335 .5039978 .07002258 .44400025 .018234253 .3880005 .018234253 .34799195 .018234253 .32699586 .04508972 .32699586 .08302307 .32699586 .10900879 .35099793 .20018006 .3789978 .31140138 .39898683 .38841249 .44400025 .4133911 .47698976 .4133911 .47898866 .4133911 .5099945 .4133911 .5309906 .39941407 .49899293 .39041139 .4869995 .3624115 .4869995 .34440614 .4869995 .32240296 .5039978 .30740357 .5269928 .30740357 .5499878 .30740357 .58299258 .32640077 .58299258 .3684082 .58299258 .4243927 .5189972 .44140626 .47898866 .44140626 .42900086 .44140626 .3889923 .4084015 .36698915 .3704071 .34899903 .4113922 .30299378 .44140626 .24699402 .44140626 .1349945 .44140626 .070999149 .31840516 .070999149 .2883606 .070999149 .27534486 .084991458 .27534486 .08799744 .27534486 .100997928 .27534486 .101989749 .27934266 .10699463 .29237367 .13198853 .3704071 .19499207 .4133911 .24398804 .4133911 .2769928 .4133911 .3039856 .395401 .3039856 .3474121 .3039856 .32740785 .2919922 .27734376 .2829895 .24327088L.24899292 .10601807Z"/>
<path id="font_4_1" d="M.18699646 .23144531C.21598816 .23144531 .2899933 .23344422 .33999635 .2544403 .4099884 .28442384 .4149933 .34339906 .4149933 .35740663 .4149933 .40138246 .3769989 .4423828 .30799867 .4423828 .19699097 .4423828 .04598999 .34539796 .04598999 .17037964 .04598999 .06829834 .10499573-.0107421879 .20298767-.0107421879 .34599305-.0107421879 .42999269 .095321658 .42999269 .10733032 .42999269 .113342288 .42399598 .12034607 .41799928 .12034607 .41299439 .12034607 .41099549 .11834717 .40499879 .1103363 .32598878 .011245728 .21699524 .011245728 .20498657 .011245728 .1269989 .011245728 .117996219 .095321658 .117996219 .12734986 .117996219 .13935852 .11898804 .17037964 .13398743 .23144531H.18699646M.13999939 .25343324C.1789856 .40538026 .28199769 .42037965 .30799867 .42037965 .35499574 .42037965 .38198854 .39138795 .38198854 .35740663 .38198854 .25343324 .22200012 .25343324 .18099976 .25343324H.13999939Z"/>
</defs>
<path transform="matrix(1,0,0,-1.00009,2.0960007,141.23027)" stroke-width=".3985" stroke-linecap="butt" stroke-miterlimit="10" stroke-linejoin="miter" fill="none" stroke="#404040" d="M0 0H153.58863V139.42038H0Z"/>
<path transform="matrix(1,0,0,-1.00009,2.0960007,141.23027)" stroke-width=".3985" stroke-linecap="butt" stroke-miterlimit="10" stroke-linejoin="miter" fill="none" stroke="#cccccc" d="M0 0V139.42038M19.19858 0V139.42038M38.39716 0V139.42038M57.59573 0V139.42038M76.79431 0V139.42038M95.99289 0V139.42038M115.19147 0V139.42038M134.39005 0V139.42038M153.58863 0V139.42038"/>
<path transform="matrix(1,0,0,-1.00009,2.0960007,141.23027)" stroke-width=".3985" stroke-linecap="butt" stroke-miterlimit="10" stroke-linejoin="miter" fill="none" stroke="#cccccc" d="M19.19858 0V139.42038M38.39716 0V139.42038M57.59573 0V139.42038M95.99289 0V139.42038M115.19147 0V139.42038M134.39005 0V139.42038"/>
<path transform="matrix(1,0,0,-1.00009,2.0960007,141.23027)" stroke-width=".3985" stroke-linecap="butt" stroke-miterlimit="10" stroke-linejoin="miter" fill="none" stroke="#cccccc" d="M0 0H153.58863M0 17.42754H153.58863M0 34.85509H153.58863M0 52.28264H153.58863M0 69.71019H153.58863M0 87.13773H153.58863M0 104.56528H153.58863M0 121.99283H153.58863M0 139.42038H153.58863"/>
<path transform="matrix(1,0,0,-1.00009,2.0960007,141.23027)" stroke-width=".3985" stroke-linecap="butt" stroke-miterlimit="10" stroke-linejoin="miter" fill="none" stroke="#cccccc" d="M0 34.85509H153.58863M0 52.28264H153.58863M0 69.71019H153.58863M0 87.13773H153.58863M0 104.56528H153.58863M0 121.99283H153.58863"/>
<path transform="matrix(1,0,0,-1.00009,2.0960007,141.23027)" stroke-width=".19925" stroke-linecap="butt" stroke-miterlimit="10" stroke-linejoin="miter" fill="none" stroke="#7f807f" d="M0 16.01012V18.84496M19.19858 16.01012V18.84496M38.39716 16.01012V18.84496M57.59573 16.01012V18.84496M76.79431 16.01012V18.84496M95.99289 16.01012V18.84496M115.19147 16.01012V18.84496M134.39005 16.01012V18.84496M153.58863 16.01012V18.84496"/>
<path transform="matrix(1,0,0,-1.00009,2.0960007,141.23027)" stroke-width=".19925" stroke-linecap="butt" stroke-miterlimit="10" stroke-linejoin="miter" fill="none" stroke="#7f807f" d="M19.19858 15.30162V19.55345M38.39716 15.30162V19.55345M57.59573 15.30162V19.55345M95.99289 15.30162V19.55345M115.19147 15.30162V19.55345M134.39005 15.30162V19.55345"/>
<path transform="matrix(1,0,0,-1.00009,2.0960007,141.23027)" stroke-width=".19925" stroke-linecap="butt" stroke-miterlimit="10" stroke-linejoin="miter" fill="none" stroke="#7f807f" d="M75.37686 0H78.21176M75.37686 17.42754H78.21176M75.37686 34.85509H78.21176M75.37686 52.28264H78.21176M75.37686 69.71019H78.21176M75.37686 87.13773H78.21176M75.37686 104.56528H78.21176M75.37686 121.99283H78.21176M75.37686 139.42038H78.21176"/>
<path transform="matrix(1,0,0,-1.00009,2.0960007,141.23027)" stroke-width=".19925" stroke-linecap="butt" stroke-miterlimit="10" stroke-linejoin="miter" fill="none" stroke="#7f807f" d="M74.66833 34.85509H78.92026M74.66833 52.28264H78.92026M74.66833 69.71019H78.92026M74.66833 87.13773H78.92026M74.66833 104.56528H78.92026M74.66833 121.99283H78.92026"/>
<path transform="matrix(1,0,0,-1.00009,2.0960007,141.23027)" stroke-width=".3985" stroke-linecap="butt" stroke-miterlimit="10" stroke-linejoin="miter" fill="none" stroke="#000000" d="M0 17.42754H151.5961"/>
<path transform="matrix(1,0,0,-1.00009,153.69211,123.80116)" d="M1.99252 0-1.19551 1.59401 0 0-1.19551-1.59401"/>
<path transform="matrix(1,0,0,-1.00009,2.0960007,141.23027)" stroke-width=".3985" stroke-linecap="butt" stroke-miterlimit="10" stroke-linejoin="miter" fill="none" stroke="#000000" d="M76.79431 0V137.42786"/>
<path transform="matrix(0,-1.00009,-1,-0,78.89031,3.790039)" d="M1.99252 0-1.19551 1.59401 0 0-1.19551-1.59401"/>
<use data-text="&#x2212;" xlink:href="#font_1_1" transform="matrix(9.9626,0,0,-9.963496,14.929001,135.86879)"/>
<use data-text="3" xlink:href="#font_2_3" transform="matrix(9.9626,0,0,-9.963496,22.678002,135.86879)"/>
<use data-text="&#x2212;" xlink:href="#font_1_1" transform="matrix(9.9626,0,0,-9.963496,34.128004,135.86879)"/>
<use data-text="2" xlink:href="#font_2_2" transform="matrix(9.9626,0,0,-9.963496,41.877004,135.86879)"/>
<use data-text="&#x2212;" xlink:href="#font_1_1" transform="matrix(9.9626,0,0,-9.963496,53.327,135.86879)"/>
<use data-text="1" xlink:href="#font_2_1" transform="matrix(9.9626,0,0,-9.963496,61.076,135.86879)"/>
<use data-text="1" xlink:href="#font_2_1" transform="matrix(9.9626,0,0,-9.963496,95.598,135.86879)"/>
<use data-text="2" xlink:href="#font_2_2" transform="matrix(9.9626,0,0,-9.963496,114.797,135.86879)"/>
<use data-text="3" xlink:href="#font_2_3" transform="matrix(9.9626,0,0,-9.963496,133.995,135.86879)"/>
<use data-text="1" xlink:href="#font_2_1" transform="matrix(9.9626,0,0,-9.963496,68.263,109.58242)"/>
<use data-text="2" xlink:href="#font_2_2" transform="matrix(9.9626,0,0,-9.963496,68.263,92.153858)"/>
<use data-text="3" xlink:href="#font_2_3" transform="matrix(9.9626,0,0,-9.963496,68.263,74.72429)"/>
<use data-text="4" xlink:href="#font_2_4" transform="matrix(9.9626,0,0,-9.963496,68.263,57.294717)"/>
<use data-text="5" xlink:href="#font_2_5" transform="matrix(9.9626,0,0,-9.963496,68.263,39.866144)"/>
<use data-text="6" xlink:href="#font_2_6" transform="matrix(9.9626,0,0,-9.963496,68.263,22.436585)"/>
<g clip-path="url(#clip_3)">
<path transform="matrix(1,0,0,-1.00009,2.0960007,141.23027)" stroke-width="1.49442" stroke-linecap="butt" stroke-dasharray="2.98883,2.98883" stroke-miterlimit="10" stroke-linejoin="miter" fill="none" stroke="#d2ade4" d="M7.7496 18.8401C3.93437 18.68098 3.93437 18.68098 5.44547 18.75385 6.95656 18.82672 9.37985 18.95345 10.89095 19.04198 12.40204 19.13051 14.82535 19.28418 16.33644 19.39197 17.84752 19.49977 20.27083 19.6876 21.78192 19.81895 23.29301 19.95029 25.71631 20.17876 27.2274 20.33862 28.7385 20.49849 31.1618 20.77655 32.6729 20.97124 34.18398 21.16594 36.60728 21.50488 38.11838 21.7419 39.62947 21.97891 42.05276 22.39124 43.56386 22.6795 45.07495 22.96777 47.49826 23.46866 49.00935 23.81961 50.52043 24.17056 52.94374 24.78157 54.45483 25.20894 55.96593 25.63629 58.38922 26.37975 59.90031 26.89975 61.4114 27.41977 63.83472 28.32397 65.34581 28.95691 66.85689 29.58984 69.2802 30.69106 70.79129 31.46158 72.30238 32.2321 74.72568 33.57297 76.23677 34.51038 77.74786 35.44777 80.17117 37.07678 81.68227 38.21773 83.19334 39.35866 85.61664 41.34424 87.12773 42.73357 88.63882 44.12288 91.06212 46.53996 92.57321 48.23106 94.0843 49.92216 96.50763 52.86351 98.01872 54.92184 99.5298 56.9802 101.9531 60.56067 103.46419 63.06627 104.97528 65.57185 107.39857 69.93044 108.90967 72.98045 110.42076 76.03047 112.84407 81.33603 114.35516 85.04869 115.86624 88.76135 118.28955 95.21982 119.80064 99.73871 121.31174 104.25761 123.73503 112.1174 125.24612 117.61781 126.75722 123.11821 130.69162 139.38185 128.86804 131.84282"/>
<path transform="matrix(-.99907,.04169375,.04169,.99915996,9.8456,122.38847)" d="M4.676 0C4.10176 .14711 1.5776 .98082 0 1.88808V-1.88808C1.5776-.98082 4.10176-.14711 4.676 0Z" fill="#d2ade4"/>
<path transform="matrix(-.99907,.04169375,.04169,.99915996,9.8456,122.38847)" stroke-width="1.49442" stroke-linecap="butt" stroke-miterlimit="10" stroke-linejoin="miter" fill="none" stroke="#d2ade4" d="M4.676 0C4.10176 .14711 1.5776 .98082 0 1.88808V-1.88808C1.5776-.98082 4.10176-.14711 4.676 0Z"/>
<path transform="matrix(.23509,-.9720075,-.97192,-.23511116,130.96405,9.37558)" d="M4.676 0C4.10176 .14711 1.5776 .98082 0 1.88808V-1.88808C1.5776-.98082 4.10176-.14711 4.676 0Z" fill="#d2ade4"/>
<path transform="matrix(.23509,-.9720075,-.97192,-.23511116,130.96405,9.37558)" stroke-width="1.49442" stroke-linecap="butt" stroke-miterlimit="10" stroke-linejoin="miter" fill="none" stroke="#d2ade4" d="M4.676 0C4.10176 .14711 1.5776 .98082 0 1.88808V-1.88808C1.5776-.98082 4.10176-.14711 4.676 0Z"/>
<path transform="matrix(1,0,0,-1.00009,2.0960007,141.23027)" stroke-width="1.49442" stroke-linecap="butt" stroke-miterlimit="10" stroke-linejoin="miter" fill="none" stroke="#1414cc" d="M7.75551 17.88516C3.4365 17.80812 3.4365 17.80812 4.75636 17.83653 6.07622 17.86494 8.19286 17.91513 9.51273 17.9515 10.83258 17.98788 12.94923 18.05219 14.2691 18.0988 15.58897 18.1454 17.7056 18.2278 19.02547 18.28752 20.34534 18.34723 22.46196 18.45276 23.78183 18.52927 25.1017 18.60579 27.21834 18.7411 28.53821 18.839 29.85808 18.9369 31.97472 19.10939 33.29457 19.23495 34.61444 19.3605 36.7311 19.58292 38.05095 19.744 39.37082 19.90509 41.48746 20.18991 42.80731 20.39597 44.12718 20.60204 46.24382 20.96506 47.56369 21.22917 48.88354 21.4933 51.0002 21.96121 52.32007 22.29958 53.63992 22.63794 55.75656 23.23457 57.07643 23.66798 58.3963 24.1014 60.51294 24.86775 61.83281 25.4233 63.15268 25.97884 65.2693 26.9604 66.58917 27.67197 67.90904 28.38354 70.02567 29.64053 71.34554 30.55186 72.6654 31.4632 74.78204 33.0732 76.10191 34.24025 77.42178 35.40729 79.53842 37.4679 80.85828 38.9631 82.17815 40.45831 84.2948 43.10074 85.61465 45.01672 86.93452 46.93272 89.05116 50.31776 90.37103 52.77234 91.69089 55.22691 93.80753 59.5628 95.1274 62.70763 96.44725 65.85243 98.5639 71.40923 99.88377 75.4381 101.20364 79.46696 103.32027 86.58365 104.64014 91.74504 105.96 96.90643 108.07664 106.02557 109.39651 112.63788 110.71638 119.2502 114.15288 139.40207 112.84915 131.75592"/>
<path transform="matrix(-.99983,.017851608,.01785,.99992,9.851521,123.3435)" d="M4.676 0C4.10176 .14711 1.5776 .98082 0 1.88808V-1.88808C1.5776-.98082 4.10176-.14711 4.676 0Z" fill="#1414cc"/>
<path transform="matrix(-.99983,.017851608,.01785,.99992,9.851521,123.3435)" stroke-width="1.49442" stroke-linecap="butt" stroke-miterlimit="10" stroke-linejoin="miter" fill="none" stroke="#1414cc" d="M4.676 0C4.10176 .14711 1.5776 .98082 0 1.88808V-1.88808C1.5776-.98082 4.10176-.14711 4.676 0Z"/>
<path transform="matrix(.16808,-.9858187,-.98573,-.16809513,114.94515,9.462509)" d="M4.676 0C4.10176 .14711 1.5776 .98082 0 1.88808V-1.88808C1.5776-.98082 4.10176-.14711 4.676 0Z" fill="#1414cc"/>
<path transform="matrix(.16808,-.9858187,-.98573,-.16809513,114.94515,9.462509)" stroke-width="1.49442" stroke-linecap="butt" stroke-miterlimit="10" stroke-linejoin="miter" fill="none" stroke="#1414cc" d="M4.676 0C4.10176 .14711 1.5776 .98082 0 1.88808V-1.88808C1.5776-.98082 4.10176-.14711 4.676 0Z"/>
<path transform="matrix(1,0,0,-1.00009,2.0960007,141.23027)" stroke-width="1.49442" stroke-linecap="butt" stroke-dasharray="2.98883,2.98883" stroke-miterlimit="10" stroke-linejoin="miter" fill="none" stroke="#008c0d" d="M7.75586 17.74576C3.33554 17.68698 3.33554 17.68698 4.61664 17.70776 5.89774 17.72855 7.95218 17.76543 9.23328 17.79248 10.51437 17.81953 12.56882 17.8676 13.84991 17.90283 15.13103 17.93806 17.18547 18.00064 18.46657 18.04654 19.74767 18.09242 21.80211 18.17392 23.0832 18.2337 24.3643 18.29347 26.41875 18.39958 27.69984 18.47745 28.98096 18.55531 31.0354 18.69368 32.3165 18.7949 33.5976 18.89615 35.65204 19.07512 36.93314 19.20705 38.21423 19.33899 40.26868 19.5737 41.54977 19.74591 42.83089 19.91814 44.88533 20.22421 46.16643 20.44841 47.44753 20.67262 49.50197 21.07014 50.78307 21.3618 52.06416 21.65344 54.1186 22.17058 55.3997 22.55054 56.68082 22.9305 58.73526 23.60526 60.01636 24.10037 61.29745 24.59549 63.3519 25.47421 64.633 26.119 65.9141 26.7638 67.96854 27.90811 69.24963 28.7476 70.53075 29.58708 72.58519 31.07683 73.86629 32.1695 75.14738 33.26215 77.20183 35.19963 78.48293 36.62276 79.76402 38.0459 81.81847 40.57253 83.09956 42.42648 84.38068 44.28044 86.43512 47.57028 87.71622 49.98482 88.99731 52.39934 91.05176 56.68423 92.33286 59.82877 93.61395 62.9733 95.6684 68.55316 96.9495 72.64847 98.2306 76.74377 100.28505 84.01143 101.56615 89.34492 102.84724 94.67842 104.90169 104.1421 106.18279 111.08858 107.46388 118.03503 110.79942 139.41027 109.60376 131.74648"/>
<path transform="matrix(-.99988,.013291196,.01329,.99997,9.85186,123.48291)" d="M4.676 0C4.10176 .14711 1.5776 .98082 0 1.88808V-1.88808C1.5776-.98082 4.10176-.14711 4.676 0Z" fill="#008c0d"/>
<path transform="matrix(-.99988,.013291196,.01329,.99997,9.85186,123.48291)" stroke-width="1.49442" stroke-linecap="butt" stroke-miterlimit="10" stroke-linejoin="miter" fill="none" stroke="#008c0d" d="M4.676 0C4.10176 .14711 1.5776 .98082 0 1.88808V-1.88808C1.5776-.98082 4.10176-.14711 4.676 0Z"/>
<path transform="matrix(.15414,-.9880889,-.988,-.15415387,111.69976,9.471939)" d="M4.676 0C4.10176 .14711 1.5776 .98082 0 1.88808V-1.88808C1.5776-.98082 4.10176-.14711 4.676 0Z" fill="#008c0d"/>
<path transform="matrix(.15414,-.9880889,-.988,-.15415387,111.69976,9.471939)" stroke-width="1.49442" stroke-linecap="butt" stroke-miterlimit="10" stroke-linejoin="miter" fill="none" stroke="#008c0d" d="M4.676 0C4.10176 .14711 1.5776 .98082 0 1.88808V-1.88808C1.5776-.98082 4.10176-.14711 4.676 0Z"/>
</g>
<use data-text="x" xlink:href="#font_4_2" transform="matrix(9.9626,0,0,-9.963496,146.499,120.27738)"/>
<use data-text="y" xlink:href="#font_4_3" transform="matrix(9.9626,0,0,-9.963496,82.422,9.582428)"/>
<path transform="matrix(1,0,0,-1.00009,2.0960007,141.23027)" d="M4.8067 94.761H61.79507V135.03867H4.8067Z" fill="#ffffff"/>
<path transform="matrix(1,0,0,-1.00009,2.0960007,141.23027)" stroke-width=".3985" stroke-linecap="butt" stroke-miterlimit="10" stroke-linejoin="miter" fill="none" stroke="#000000" d="M4.8067 94.761H61.79507V135.03867H4.8067Z"/>
<path transform="matrix(1,0,0,-1.00009,10.639,14.222839)" stroke-width="1.49442" stroke-linecap="butt" stroke-dasharray="2.98883,2.98883" stroke-miterlimit="10" stroke-linejoin="miter" fill="none" stroke="#d2ade4" d="M7.75682 0C6.14426 0 6.14426 0 8.50412 0 10.86398 0 17.00826 0 9.25143 0"/>
<path transform="matrix(-1,-0,0,1.00009,18.39582,14.222839)" d="M4.676 0C4.10176 .14711 1.5776 .98082 0 1.88808V-1.88808C1.5776-.98082 4.10176-.14711 4.676 0Z" fill="#d2ade4"/>
<path transform="matrix(-1,-0,0,1.00009,18.39582,14.222839)" stroke-width="1.49442" stroke-linecap="butt" stroke-miterlimit="10" stroke-linejoin="miter" fill="none" stroke="#d2ade4" d="M4.676 0C4.10176 .14711 1.5776 .98082 0 1.88808V-1.88808C1.5776-.98082 4.10176-.14711 4.676 0Z"/>
<path transform="matrix(1,0,0,-1.00009,19.89043,14.222839)" d="M4.676 0C4.10176 .14711 1.5776 .98082 0 1.88808V-1.88808C1.5776-.98082 4.10176-.14711 4.676 0Z" fill="#d2ade4"/>
<path transform="matrix(1,0,0,-1.00009,19.89043,14.222839)" stroke-width="1.49442" stroke-linecap="butt" stroke-miterlimit="10" stroke-linejoin="miter" fill="none" stroke="#d2ade4" d="M4.676 0C4.10176 .14711 1.5776 .98082 0 1.88808V-1.88808C1.5776-.98082 4.10176-.14711 4.676 0Z"/>
<use data-text="y" xlink:href="#font_4_3" transform="matrix(9.9626,0,0,-9.963496,30.387001,16.785073)"/>
<use data-text="=" xlink:href="#font_2_7" transform="matrix(9.9626,0,0,-9.963496,38.397005,16.785073)"/>
<use data-text="2" xlink:href="#font_2_2" transform="matrix(9.9626,0,0,-9.963496,48.897584,16.785073)"/>
<use data-text="x" xlink:href="#font_5_1" transform="matrix(6.9738,0,0,-6.9744279,53.894006,13.168747)"/>
<path transform="matrix(1,0,0,-1.00009,10.639,26.320923)" stroke-width="1.49442" stroke-linecap="butt" stroke-miterlimit="10" stroke-linejoin="miter" fill="none" stroke="#1414cc" d="M7.75682 0C6.14426 0 6.14426 0 8.50412 0 10.86398 0 17.00826 0 9.25143 0"/>
<path transform="matrix(-1,-0,0,1.00009,18.39582,26.320923)" d="M4.676 0C4.10176 .14711 1.5776 .98082 0 1.88808V-1.88808C1.5776-.98082 4.10176-.14711 4.676 0Z" fill="#1414cc"/>
<path transform="matrix(-1,-0,0,1.00009,18.39582,26.320923)" stroke-width="1.49442" stroke-linecap="butt" stroke-miterlimit="10" stroke-linejoin="miter" fill="none" stroke="#1414cc" d="M4.676 0C4.10176 .14711 1.5776 .98082 0 1.88808V-1.88808C1.5776-.98082 4.10176-.14711 4.676 0Z"/>
<path transform="matrix(1,0,0,-1.00009,19.89043,26.320923)" d="M4.676 0C4.10176 .14711 1.5776 .98082 0 1.88808V-1.88808C1.5776-.98082 4.10176-.14711 4.676 0Z" fill="#1414cc"/>
<path transform="matrix(1,0,0,-1.00009,19.89043,26.320923)" stroke-width="1.49442" stroke-linecap="butt" stroke-miterlimit="10" stroke-linejoin="miter" fill="none" stroke="#1414cc" d="M4.676 0C4.10176 .14711 1.5776 .98082 0 1.88808V-1.88808C1.5776-.98082 4.10176-.14711 4.676 0Z"/>
<use data-text="y" xlink:href="#font_4_3" transform="matrix(9.9626,0,0,-9.963496,30.387001,28.883156)"/>
<use data-text="=" xlink:href="#font_2_7" transform="matrix(9.9626,0,0,-9.963496,38.397005,28.883156)"/>
<use data-text="e" xlink:href="#font_4_1" transform="matrix(9.9626,0,0,-9.963496,48.913003,28.883156)"/>
<use data-text="x" xlink:href="#font_5_1" transform="matrix(6.9738,0,0,-6.9744279,53.552003,25.267838)"/>
<path transform="matrix(1,0,0,-1.00009,10.639,38.419015)" stroke-width="1.49442" stroke-linecap="butt" stroke-dasharray="2.98883,2.98883" stroke-miterlimit="10" stroke-linejoin="miter" fill="none" stroke="#008c0d" d="M7.75682 0C6.14426 0 6.14426 0 8.50412 0 10.86398 0 17.00826 0 9.25143 0"/>
<path transform="matrix(-1,-0,0,1.00009,18.39582,38.419015)" d="M4.676 0C4.10176 .14711 1.5776 .98082 0 1.88808V-1.88808C1.5776-.98082 4.10176-.14711 4.676 0Z" fill="#008c0d"/>
<path transform="matrix(-1,-0,0,1.00009,18.39582,38.419015)" stroke-width="1.49442" stroke-linecap="butt" stroke-miterlimit="10" stroke-linejoin="miter" fill="none" stroke="#008c0d" d="M4.676 0C4.10176 .14711 1.5776 .98082 0 1.88808V-1.88808C1.5776-.98082 4.10176-.14711 4.676 0Z"/>
<path transform="matrix(1,0,0,-1.00009,19.89043,38.419015)" d="M4.676 0C4.10176 .14711 1.5776 .98082 0 1.88808V-1.88808C1.5776-.98082 4.10176-.14711 4.676 0Z" fill="#008c0d"/>
<path transform="matrix(1,0,0,-1.00009,19.89043,38.419015)" stroke-width="1.49442" stroke-linecap="butt" stroke-miterlimit="10" stroke-linejoin="miter" fill="none" stroke="#008c0d" d="M4.676 0C4.10176 .14711 1.5776 .98082 0 1.88808V-1.88808C1.5776-.98082 4.10176-.14711 4.676 0Z"/>
<use data-text="y" xlink:href="#font_4_3" transform="matrix(9.9626,0,0,-9.963496,30.387001,40.981248)"/>
<use data-text="=" xlink:href="#font_2_7" transform="matrix(9.9626,0,0,-9.963496,38.397005,40.981248)"/>
<use data-text="3" xlink:href="#font_2_3" transform="matrix(9.9626,0,0,-9.963496,48.897584,40.981248)"/>
<use data-text="x" xlink:href="#font_5_1" transform="matrix(6.9738,0,0,-6.9744279,53.894006,37.36592)"/>
</svg>
