<svg xmlns="http://www.w3.org/2000/svg" xmlns:xlink="http://www.w3.org/1999/xlink" xmlns:inkscape="http://www.inkscape.org/namespaces/inkscape" version="1.1" width="168" height="139" viewBox="0 0 168 139">
<defs>
<path id="font_1_1" d="M.6589966 .23046875C.6759949 .23046875 .69400027 .23046875 .69400027 .25045777 .69400027 .27046205 .6759949 .27046205 .6589966 .27046205H.117996219C.100997928 .27046205 .08299255 .27046205 .08299255 .25045777 .08299255 .23046875 .100997928 .23046875 .117996219 .23046875H.6589966Z"/>
<path id="font_2_3" d="M.13198853 .327713V.35173036C.13198853 .6047821 .2559967 .64100649 .30699159 .64100649 .33099366 .64100649 .37298585 .634964 .394989 .6007538 .37998963 .6007538 .33999635 .6007538 .33999635 .5557556 .33999635 .524765 .3639984 .5097656 .38598634 .5097656 .4019928 .5097656 .43199159 .51875308 .43199159 .5577545 .43199159 .6178589 .3880005 .6660156 .30499269 .6660156 .1769867 .6660156 .041992189 .5367584 .041992189 .31570436 .041992189 .048553468 .1579895-.022460938 .25099183-.022460938 .3619995-.022460938 .45700074 .07156372 .45700074 .2036438 .45700074 .33070375 .36799623 .4267578 .25698854 .4267578 .18899536 .4267578 .1519928 .37573243 .13198853 .327713M.25099183 .0055389406C.18798828 .0055389406 .1579895 .06556702 .1519928 .080566409 .13398743 .127594 .13398743 .2076416 .13398743 .22564698 .13398743 .30369569 .1659851 .40374757 .2559967 .40374757 .27198792 .40374757 .31799317 .40374757 .34899903 .34172059 .36698915 .30470277 .36698915 .2536621 .36698915 .20463562 .36698915 .15661621 .36698915 .10658264 .34999085 .0705719 .31999208 .010528564 .27398683 .0055389406 .25099183 .0055389406Z"/>
<path id="font_2_2" d="M.2939911 .16503906V.07800293C.2939911 .041992189 .2919922 .0309906 .21798706 .0309906H.19699097V0C.23799134 .0029907227 .2899933 .0029907227 .33198548 .0029907227 .37399293 .0029907227 .4269867 .0029907227 .46798707 0V.0309906H.44699098C.37298585 .0309906 .37098695 .041992189 .37098695 .07800293V.16503906H.47099305V.19602967H.37098695V.65075686C.37098695 .67074587 .37098695 .6767578 .35499574 .6767578 .34599305 .6767578 .34298707 .6767578 .33499146 .66474917L.027999878 .19602967V.16503906H.2939911M.2999878 .19602967H.055999757L.2999878 .5688019V.19602967Z"/>
<path id="font_2_1" d="M.1269989 .07699585 .23298645 .18003845C.3889923 .31811524 .44898988 .3721466 .44898988 .47216798 .44898988 .5860901 .35899354 .6660156 .23699951 .6660156 .12399292 .6660156 .049987794 .57411196 .049987794 .48516847 .049987794 .4291687 .099990848 .4291687 .102996829 .4291687 .11999512 .4291687 .15499878 .44117738 .15499878 .48217774 .15499878 .5081787 .13699341 .5341797 .101989749 .5341797 .09399414 .5341797 .09199524 .5341797 .08898926 .5331726 .11199951 .59806826 .1659851 .63500979 .22399903 .63500979 .31498719 .63500979 .35798646 .5541382 .35798646 .47216798 .35798646 .39215089 .30799867 .31311036 .25299073 .25108338L.06098938 .036987306C.049987794 .025985718 .049987794 .023986817 .049987794 0H.42099L.44898988 .17404175H.42399598C.4189911 .14402771 .4119873 .1000061 .4019928 .084991458 .394989 .07699585 .32899476 .07699585 .30699159 .07699585H.1269989Z"/>
<clipPath id="clip_3">
<path transform="matrix(1,0,0,-1.00006,2.0960007,137.40729)" d="M0 0H164.37595V135.60164H0Z"/>
</clipPath>
<path id="font_4_1" d="M.33399964 .30233766C.33999635 .32835389 .36299134 .42037965 .43299867 .42037965 .43798829 .42037965 .46199037 .42037965 .48298646 .40734864 .45498658 .402359 .43499757 .37734986 .43499757 .35334779 .43499757 .33735658 .44599916 .31835938 .47299195 .31835938 .49499513 .31835938 .5269928 .3363495 .5269928 .37635804 .5269928 .42837525 .46798707 .4423828 .43399049 .4423828 .37599183 .4423828 .34098817 .38935853 .32899476 .36634828 .3039856 .43237306 .25 .4423828 .22099304 .4423828 .116989139 .4423828 .05999756 .3133545 .05999756 .28834535 .05999756 .27833558 .069992069 .27833558 .07199097 .27833558 .07998657 .27833558 .08299255 .28033448 .084991458 .28933717 .11898804 .39535523 .18499756 .42037965 .21899414 .42037965 .23799134 .42037965 .272995 .4113617 .272995 .35334779 .272995 .32235719 .2559967 .25532533 .21899414 .11528015 .20298767 .053268434 .16799927 .011245728 .12399292 .011245728 .117996219 .011245728 .09498596 .011245728 .07398987 .024276734 .09899902 .029266358 .12098694 .05027771 .12098694 .07827759 .12098694 .105270389 .09899902 .11328125 .083999637 .11328125 .053985597 .11328125 .0289917 .08728027 .0289917 .055267335 .0289917 .009246826 .07899475-.0107421879 .12298584-.0107421879 .18899536-.0107421879 .22499085 .059280397 .22799683 .0652771 .23999024 .028274537 .27598573-.0107421879 .33599855-.0107421879 .43899537-.0107421879 .49598695 .118270877 .49598695 .14328003 .49598695 .1532898 .4869995 .1532898 .48399354 .1532898 .47499085 .1532898 .47299195 .14929199 .47099305 .14228821 .43798829 .03527832 .36999513 .011245728 .33799745 .011245728 .29899598 .011245728 .2829895 .043273927 .2829895 .07727051 .2829895 .09927368 .2889862 .121276859 .2999878 .16529846L.33399964 .30233766Z"/>
<path id="font_4_2" d="M.48599244 .38136292C.48999024 .39537049 .48999024 .39736939 .48999024 .40437318 .48999024 .42237855 .47599793 .43138124 .46099855 .43138124 .45098878 .43138124 .43499757 .42536927 .42599488 .41036988 .42399598 .405365 .41600038 .37435914 .4119873 .35635377 .40499879 .33035279 .397995 .30334474 .3919983 .27633668L.34700013 .09628296C.34298707 .08126831 .2999878 .011245728 .23399353 .011245728 .18299866 .011245728 .17199707 .055267335 .17199707 .0922699 .17199707 .1382904 .18899536 .20030213 .22299195 .28833009 .23899842 .3293457 .24299622 .3403473 .24299622 .36035157 .24299622 .405365 .21099854 .4423828 .16099549 .4423828 .06599426 .4423828 .0289917 .29733277 .0289917 .28833009 .0289917 .27833558 .038986207 .27833558 .040985109 .27833558 .050994874 .27833558 .051986696 .28033448 .056991579 .29634095 .083999637 .3903656 .12399292 .42037965 .1579895 .42037965 .1659851 .42037965 .18299866 .42037965 .18299866 .3883667 .18299866 .36335755 .17298889 .3373413 .1659851 .31834413 .12599182 .21231079 .10798645 .1552887 .10798645 .10827637 .10798645 .019256592 .17098999-.0107421879 .22999573-.0107421879 .2689972-.0107421879 .30299378 .0062561037 .33099366 .03425598 .31799317-.017745972 .30599977-.06674194 .2659912-.11973572 .23999024-.15385437 .20199585-.18309021 .1559906-.18309021 .14199829-.18309021 .09700012-.18005371 .07998657-.14074707 .09599304-.14074707 .10899353-.14074707 .12298584-.1287384 .1329956-.11973572 .14299011-.10673523 .14299011-.08773804 .14299011-.056747438 .115997318-.052734376 .10598755-.052734376 .08299255-.052734376 .049987794-.068740848 .049987794-.11773682 .049987794-.16796875 .09399414-.20507813 .1559906-.20507813 .25898744-.20507813 .3619995-.11373901 .3899994-.00074768069L.48599244 .38136292Z"/>
</defs>
<path transform="matrix(1,0,0,-1.00006,2.0960007,137.40729)" stroke-width=".3985" stroke-linecap="butt" stroke-miterlimit="10" stroke-linejoin="miter" fill="none" stroke="#404040" d="M0 0H164.37595V135.60164H0Z"/>
<path transform="matrix(1,0,0,-1.00006,2.0960007,137.40729)" stroke-width=".3985" stroke-linecap="butt" stroke-miterlimit="10" stroke-linejoin="miter" fill="none" stroke="#cccccc" d="M10.27348 0V135.60164M20.54698 0V135.60164M30.82048 0V135.60164M41.09398 0V135.60164M51.36748 0V135.60164M61.64098 0V135.60164M71.91447 0V135.60164M82.18797 0V135.60164M92.46147 0V135.60164M102.73495 0V135.60164M113.00845 0V135.60164M123.28195 0V135.60164M133.55545 0V135.60164M143.82895 0V135.60164M154.10245 0V135.60164"/>
<path transform="matrix(1,0,0,-1.00006,2.0960007,137.40729)" stroke-width=".3985" stroke-linecap="butt" stroke-miterlimit="10" stroke-linejoin="miter" fill="none" stroke="#cccccc" d="M20.54698 0V135.60164M41.09398 0V135.60164M61.64098 0V135.60164M102.73495 0V135.60164M123.28195 0V135.60164M143.82895 0V135.60164"/>
<path transform="matrix(1,0,0,-1.00006,2.0960007,137.40729)" stroke-width=".3985" stroke-linecap="butt" stroke-miterlimit="10" stroke-linejoin="miter" fill="none" stroke="#cccccc" d="M0 8.4751H164.37595M0 16.9502H164.37595M0 25.42531H164.37595M0 33.9004H164.37595M0 42.3755H164.37595M0 50.85062H164.37595M0 59.32571H164.37595M0 67.80081H164.37595M0 76.27592H164.37595M0 84.75102H164.37595M0 93.22612H164.37595M0 101.70123H164.37595M0 110.17633H164.37595M0 118.65143H164.37595M0 127.12654H164.37595"/>
<path transform="matrix(1,0,0,-1.00006,2.0960007,137.40729)" stroke-width=".3985" stroke-linecap="butt" stroke-miterlimit="10" stroke-linejoin="miter" fill="none" stroke="#cccccc" d="M0 16.9502H164.37595M0 33.9004H164.37595M0 50.85062H164.37595M0 84.75102H164.37595M0 101.70123H164.37595M0 118.65143H164.37595"/>
<path transform="matrix(1,0,0,-1.00006,2.0960007,137.40729)" stroke-width=".19925" stroke-linecap="butt" stroke-miterlimit="10" stroke-linejoin="miter" fill="none" stroke="#7f807f" d="M10.27348 66.3834V69.21822M20.54698 66.3834V69.21822M30.82048 66.3834V69.21822M41.09398 66.3834V69.21822M51.36748 66.3834V69.21822M61.64098 66.3834V69.21822M71.91447 66.3834V69.21822M82.18797 66.3834V69.21822M92.46147 66.3834V69.21822M102.73495 66.3834V69.21822M113.00845 66.3834V69.21822M123.28195 66.3834V69.21822M133.55545 66.3834V69.21822M143.82895 66.3834V69.21822M154.10245 66.3834V69.21822"/>
<path transform="matrix(1,0,0,-1.00006,2.0960007,137.40729)" stroke-width=".19925" stroke-linecap="butt" stroke-miterlimit="10" stroke-linejoin="miter" fill="none" stroke="#7f807f" d="M20.54698 65.67491V69.92671M41.09398 65.67491V69.92671M61.64098 65.67491V69.92671M102.73495 65.67491V69.92671M123.28195 65.67491V69.92671M143.82895 65.67491V69.92671"/>
<path transform="matrix(1,0,0,-1.00006,2.0960007,137.40729)" stroke-width=".19925" stroke-linecap="butt" stroke-miterlimit="10" stroke-linejoin="miter" fill="none" stroke="#7f807f" d="M80.77054 8.4751H83.60541M80.77054 16.9502H83.60541M80.77054 25.42531H83.60541M80.77054 33.9004H83.60541M80.77054 42.3755H83.60541M80.77054 50.85062H83.60541M80.77054 59.32571H83.60541M80.77054 67.80081H83.60541M80.77054 76.27592H83.60541M80.77054 84.75102H83.60541M80.77054 93.22612H83.60541M80.77054 101.70123H83.60541M80.77054 110.17633H83.60541M80.77054 118.65143H83.60541M80.77054 127.12654H83.60541"/>
<path transform="matrix(1,0,0,-1.00006,2.0960007,137.40729)" stroke-width=".19925" stroke-linecap="butt" stroke-miterlimit="10" stroke-linejoin="miter" fill="none" stroke="#7f807f" d="M80.06203 16.9502H84.31389M80.06203 33.9004H84.31389M80.06203 50.85062H84.31389M80.06203 84.75102H84.31389M80.06203 101.70123H84.31389M80.06203 118.65143H84.31389"/>
<path transform="matrix(1,0,0,-1.00006,2.0960007,137.40729)" stroke-width=".3985" stroke-linecap="butt" stroke-miterlimit="10" stroke-linejoin="miter" fill="none" stroke="#000000" d="M0 67.80081H162.38343"/>
<path transform="matrix(1,0,0,-1.00006,164.47943,69.60241)" d="M1.99252 0-1.19551 1.59401 0 0-1.19551-1.59401"/>
<path transform="matrix(1,0,0,-1.00006,2.0960007,137.40729)" stroke-width=".3985" stroke-linecap="butt" stroke-miterlimit="10" stroke-linejoin="miter" fill="none" stroke="#000000" d="M82.18797 0V133.60912"/>
<path transform="matrix(0,-1.00006,-1,-0,84.28397,3.7901612)" d="M1.99252 0-1.19551 1.59401 0 0-1.19551-1.59401"/>
<use data-text="&#x2212;" xlink:href="#font_1_1" transform="matrix(9.9626,0,0,-9.963197,16.278,81.668949)"/>
<use data-text="6" xlink:href="#font_2_3" transform="matrix(9.9626,0,0,-9.963197,24.027,81.668949)"/>
<use data-text="&#x2212;" xlink:href="#font_1_1" transform="matrix(9.9626,0,0,-9.963197,36.825,81.668949)"/>
<use data-text="4" xlink:href="#font_2_2" transform="matrix(9.9626,0,0,-9.963197,44.574,81.668949)"/>
<use data-text="&#x2212;" xlink:href="#font_1_1" transform="matrix(9.9626,0,0,-9.963197,57.372,81.668949)"/>
<use data-text="2" xlink:href="#font_2_1" transform="matrix(9.9626,0,0,-9.963197,65.121,81.668949)"/>
<use data-text="2" xlink:href="#font_2_1" transform="matrix(9.9626,0,0,-9.963197,102.340007,81.668949)"/>
<use data-text="4" xlink:href="#font_2_2" transform="matrix(9.9626,0,0,-9.963197,122.887,81.668949)"/>
<use data-text="6" xlink:href="#font_2_3" transform="matrix(9.9626,0,0,-9.963197,143.43399,81.668949)"/>
<use data-text="&#x2212;" xlink:href="#font_1_1" transform="matrix(9.9626,0,0,-9.963197,65.908008,123.25144)"/>
<use data-text="6" xlink:href="#font_2_3" transform="matrix(9.9626,0,0,-9.963197,73.657,123.25144)"/>
<use data-text="&#x2212;" xlink:href="#font_1_1" transform="matrix(9.9626,0,0,-9.963197,65.908008,106.30042)"/>
<use data-text="4" xlink:href="#font_2_2" transform="matrix(9.9626,0,0,-9.963197,73.657,106.30042)"/>
<use data-text="&#x2212;" xlink:href="#font_1_1" transform="matrix(9.9626,0,0,-9.963197,65.908008,89.348407)"/>
<use data-text="2" xlink:href="#font_2_1" transform="matrix(9.9626,0,0,-9.963197,73.657,89.348407)"/>
<use data-text="2" xlink:href="#font_2_1" transform="matrix(9.9626,0,0,-9.963197,73.657,55.861398)"/>
<use data-text="4" xlink:href="#font_2_2" transform="matrix(9.9626,0,0,-9.963197,73.657,38.910387)"/>
<use data-text="6" xlink:href="#font_2_3" transform="matrix(9.9626,0,0,-9.963197,73.657,21.959366)"/>
<g clip-path="url(#clip_3)">
<path transform="matrix(1,0,0,-1.00006,2.0960007,137.40729)" stroke-width="1.49442" stroke-linecap="butt" stroke-miterlimit="10" stroke-linejoin="miter" fill="none" stroke="#1414cc" d="M7.73656 61.58206 15.34761 62.27751 27.90126 63.67836 37.95168 65.07922 45.77716 66.48009 51.65613 67.88095 55.86691 69.2818 58.68787 70.68265 60.39738 72.08351 61.27385 73.48438 61.59558 74.88522 61.64098 76.28609 61.68837 77.68695 62.01617 79.08781 62.90274 80.48866 64.62642 81.88953 67.46558 83.29039 71.69862 84.69124 77.60387 86.0921 85.45969 87.49295 95.5445 88.89381 108.1366 90.29466 123.51436 91.69553 141.9562 93.09639 155.99994 93.99966"/>
<path transform="matrix(-.9958,.09094545,.09094,.99585977,9.832571,75.82153)" d="M4.676 0C4.10176 .14711 1.5776 .98082 0 1.88808V-1.88808C1.5776-.98082 4.10176-.14711 4.676 0Z" fill="#1414cc"/>
<path transform="matrix(-.9958,.09094545,.09094,.99585977,9.832571,75.82153)" stroke-width="1.49442" stroke-linecap="butt" stroke-miterlimit="10" stroke-linejoin="miter" fill="none" stroke="#1414cc" d="M4.676 0C4.10176 .14711 1.5776 .98082 0 1.88808V-1.88808C1.5776-.98082 4.10176-.14711 4.676 0Z"/>
<path transform="matrix(.9979,-.06415384,-.06415,-.99795988,158.09592,43.401994)" d="M4.676 0C4.10176 .14711 1.5776 .98082 0 1.88808V-1.88808C1.5776-.98082 4.10176-.14711 4.676 0Z" fill="#1414cc"/>
<path transform="matrix(.9979,-.06415384,-.06415,-.99795988,158.09592,43.401994)" stroke-width="1.49442" stroke-linecap="butt" stroke-miterlimit="10" stroke-linejoin="miter" fill="none" stroke="#1414cc" d="M4.676 0C4.10176 .14711 1.5776 .98082 0 1.88808V-1.88808C1.5776-.98082 4.10176-.14711 4.676 0Z"/>
</g>
<use data-text="x" xlink:href="#font_4_1" transform="matrix(9.9626,0,0,-9.963197,157.293,66.06801)"/>
<use data-text="y" xlink:href="#font_4_2" transform="matrix(9.9626,0,0,-9.963197,87.823,9.576622)"/>
</svg>
