<svg xmlns="http://www.w3.org/2000/svg" xmlns:xlink="http://www.w3.org/1999/xlink" xmlns:inkscape="http://www.inkscape.org/namespaces/inkscape" version="1.1" width="157" height="157" viewBox="0 0 157 157">
<defs>
<path id="font_1_1" d="M.6589966 .23046875C.6759949 .23046875 .69400027 .23046875 .69400027 .25045777 .69400027 .27046205 .6759949 .27046205 .6589966 .27046205H.117996219C.100997928 .27046205 .08299255 .27046205 .08299255 .25045777 .08299255 .23046875 .100997928 .23046875 .117996219 .23046875H.6589966Z"/>
<path id="font_2_5" d="M.13198853 .327713V.35173036C.13198853 .6047821 .2559967 .64100649 .30699159 .64100649 .33099366 .64100649 .37298585 .634964 .394989 .6007538 .37998963 .6007538 .33999635 .6007538 .33999635 .5557556 .33999635 .524765 .3639984 .5097656 .38598634 .5097656 .4019928 .5097656 .43199159 .51875308 .43199159 .5577545 .43199159 .6178589 .3880005 .6660156 .30499269 .6660156 .1769867 .6660156 .041992189 .5367584 .041992189 .31570436 .041992189 .048553468 .1579895-.022460938 .25099183-.022460938 .3619995-.022460938 .45700074 .07156372 .45700074 .2036438 .45700074 .33070375 .36799623 .4267578 .25698854 .4267578 .18899536 .4267578 .1519928 .37573243 .13198853 .327713M.25099183 .0055389406C.18798828 .0055389406 .1579895 .06556702 .1519928 .080566409 .13398743 .127594 .13398743 .2076416 .13398743 .22564698 .13398743 .30369569 .1659851 .40374757 .2559967 .40374757 .27198792 .40374757 .31799317 .40374757 .34899903 .34172059 .36698915 .30470277 .36698915 .2536621 .36698915 .20463562 .36698915 .15661621 .36698915 .10658264 .34999085 .0705719 .31999208 .010528564 .27398683 .0055389406 .25099183 .0055389406Z"/>
<path id="font_2_4" d="M.2939911 .16503906V.07800293C.2939911 .041992189 .2919922 .0309906 .21798706 .0309906H.19699097V0C.23799134 .0029907227 .2899933 .0029907227 .33198548 .0029907227 .37399293 .0029907227 .4269867 .0029907227 .46798707 0V.0309906H.44699098C.37298585 .0309906 .37098695 .041992189 .37098695 .07800293V.16503906H.47099305V.19602967H.37098695V.65075686C.37098695 .67074587 .37098695 .6767578 .35499574 .6767578 .34599305 .6767578 .34298707 .6767578 .33499146 .66474917L.027999878 .19602967V.16503906H.2939911M.2999878 .19602967H.055999757L.2999878 .5688019V.19602967Z"/>
<path id="font_2_3" d="M.1269989 .07699585 .23298645 .18003845C.3889923 .31811524 .44898988 .3721466 .44898988 .47216798 .44898988 .5860901 .35899354 .6660156 .23699951 .6660156 .12399292 .6660156 .049987794 .57411196 .049987794 .48516847 .049987794 .4291687 .099990848 .4291687 .102996829 .4291687 .11999512 .4291687 .15499878 .44117738 .15499878 .48217774 .15499878 .5081787 .13699341 .5341797 .101989749 .5341797 .09399414 .5341797 .09199524 .5341797 .08898926 .5331726 .11199951 .59806826 .1659851 .63500979 .22399903 .63500979 .31498719 .63500979 .35798646 .5541382 .35798646 .47216798 .35798646 .39215089 .30799867 .31311036 .25299073 .25108338L.06098938 .036987306C.049987794 .025985718 .049987794 .023986817 .049987794 0H.42099L.44898988 .17404175H.42399598C.4189911 .14402771 .4119873 .1000061 .4019928 .084991458 .394989 .07699585 .32899476 .07699585 .30699159 .07699585H.1269989Z"/>
<path id="font_2_6" d="M.16299439 .4569702C.116989139 .486969 .11299133 .52098086 .11299133 .5379791 .11299133 .598999 .17799378 .64100649 .24899292 .64100649 .32199098 .64100649 .38598634 .58898928 .38598634 .51698306 .38598634 .45996095 .34700013 .4119568 .2869873 .37695313L.16299439 .4569702M.30899049 .36193849C.3809967 .3989563 .42999269 .45095826 .42999269 .51698306 .42999269 .6090088 .34098817 .6660156 .25 .6660156 .1499939 .6660156 .068984989 .59199526 .068984989 .49897767 .068984989 .4809723 .070999149 .43595887 .11299133 .38894654 .12399292 .37695313 .16099549 .35194398 .18598938 .33494569 .12799073 .30592347 .041992189 .24984741 .041992189 .15072632 .041992189 .04458618 .14399719-.022460938 .24899292-.022460938 .3619995-.022460938 .45700074 .06060791 .45700074 .16773987 .45700074 .20379639 .44599916 .24885559 .4079895 .2909088 .3889923 .31193543 .37298585 .3219452 .30899049 .36193849M.20899964 .3199463 .33198548 .24183655C.3600006 .2228241 .40699769 .19277954 .40699769 .13169861 .40699769 .05760193 .33198548 .0055389406 .25 .0055389406 .1639862 .0055389406 .09199524 .067611698 .09199524 .15072632 .09199524 .20880127 .12399292 .27288819 .20899964 .3199463Z"/>
<path id="font_2_1" d="M.45999146 .31976319C.45999146 .39982606 .45498658 .47988893 .41999818 .5539398 .37399293 .65000918 .2919922 .6660156 .25 .6660156 .18998719 .6660156 .116989139 .64001467 .07598877 .54693606 .04399109 .47789 .038986207 .39982606 .038986207 .31976319 .038986207 .24472046 .042999269 .15464783 .083999637 .07859802 .1269989-.0024719239 .19999695-.022460938 .24899292-.022460938 .30299378-.022460938 .3789978-.0014648438 .4229889 .09359741 .45498658 .16265869 .45999146 .2407074 .45999146 .31976319M.24899292-.00047302247C.20999146-.00047302247 .15098572 .024551392 .1329956 .12062073 .12199402 .18066406 .12199402 .2727356 .12199402 .3317871 .12199402 .39582826 .12199402 .46188355 .12998963 .5159149 .14898682 .63500979 .22399903 .64401248 .24899292 .64401248 .28199769 .64401248 .34799195 .6259918 .36698915 .52693179 .3769989 .47088624 .3769989 .39482118 .3769989 .3317871 .3769989 .25672914 .3769989 .18867493 .3659973 .12461853 .35099793 .029556275 .2939911-.00047302247 .24899292-.00047302247Z"/>
<path id="font_2_2" d="M.2939911 .64004519C.2939911 .66400149 .2939911 .6660156 .2709961 .6660156 .20899964 .60227969 .12098694 .60227969 .08898926 .60227969V.57128909C.10899353 .57128909 .16799927 .57128909 .21998596 .5972748V.07902527C.21998596 .042999269 .21699524 .0309906 .1269989 .0309906H.09498596V0C.12998963 .0029907227 .21699524 .0029907227 .25698854 .0029907227 .29699708 .0029907227 .38398744 .0029907227 .4189911 0V.0309906H.3869934C.29699708 .0309906 .2939911 .041992189 .2939911 .07902527V.64004519Z"/>
<clipPath id="clip_3">
<path transform="matrix(1.00003,0,0,-1.00008,2.0964967,155.39516)" d="M0 0H153.57646V153.58618H0Z"/>
</clipPath>
<path id="font_4_1" d="M.33399964 .30233766C.33999635 .32835389 .36299134 .42037965 .43299867 .42037965 .43798829 .42037965 .46199037 .42037965 .48298646 .40734864 .45498658 .402359 .43499757 .37734986 .43499757 .35334779 .43499757 .33735658 .44599916 .31835938 .47299195 .31835938 .49499513 .31835938 .5269928 .3363495 .5269928 .37635804 .5269928 .42837525 .46798707 .4423828 .43399049 .4423828 .37599183 .4423828 .34098817 .38935853 .32899476 .36634828 .3039856 .43237306 .25 .4423828 .22099304 .4423828 .116989139 .4423828 .05999756 .3133545 .05999756 .28834535 .05999756 .27833558 .069992069 .27833558 .07199097 .27833558 .07998657 .27833558 .08299255 .28033448 .084991458 .28933717 .11898804 .39535523 .18499756 .42037965 .21899414 .42037965 .23799134 .42037965 .272995 .4113617 .272995 .35334779 .272995 .32235719 .2559967 .25532533 .21899414 .11528015 .20298767 .053268434 .16799927 .011245728 .12399292 .011245728 .117996219 .011245728 .09498596 .011245728 .07398987 .024276734 .09899902 .029266358 .12098694 .05027771 .12098694 .07827759 .12098694 .105270389 .09899902 .11328125 .083999637 .11328125 .053985597 .11328125 .0289917 .08728027 .0289917 .055267335 .0289917 .009246826 .07899475-.0107421879 .12298584-.0107421879 .18899536-.0107421879 .22499085 .059280397 .22799683 .0652771 .23999024 .028274537 .27598573-.0107421879 .33599855-.0107421879 .43899537-.0107421879 .49598695 .118270877 .49598695 .14328003 .49598695 .1532898 .4869995 .1532898 .48399354 .1532898 .47499085 .1532898 .47299195 .14929199 .47099305 .14228821 .43798829 .03527832 .36999513 .011245728 .33799745 .011245728 .29899598 .011245728 .2829895 .043273927 .2829895 .07727051 .2829895 .09927368 .2889862 .121276859 .2999878 .16529846L.33399964 .30233766Z"/>
<path id="font_4_2" d="M.48599244 .38136292C.48999024 .39537049 .48999024 .39736939 .48999024 .40437318 .48999024 .42237855 .47599793 .43138124 .46099855 .43138124 .45098878 .43138124 .43499757 .42536927 .42599488 .41036988 .42399598 .405365 .41600038 .37435914 .4119873 .35635377 .40499879 .33035279 .397995 .30334474 .3919983 .27633668L.34700013 .09628296C.34298707 .08126831 .2999878 .011245728 .23399353 .011245728 .18299866 .011245728 .17199707 .055267335 .17199707 .0922699 .17199707 .1382904 .18899536 .20030213 .22299195 .28833009 .23899842 .3293457 .24299622 .3403473 .24299622 .36035157 .24299622 .405365 .21099854 .4423828 .16099549 .4423828 .06599426 .4423828 .0289917 .29733277 .0289917 .28833009 .0289917 .27833558 .038986207 .27833558 .040985109 .27833558 .050994874 .27833558 .051986696 .28033448 .056991579 .29634095 .083999637 .3903656 .12399292 .42037965 .1579895 .42037965 .1659851 .42037965 .18299866 .42037965 .18299866 .3883667 .18299866 .36335755 .17298889 .3373413 .1659851 .31834413 .12599182 .21231079 .10798645 .1552887 .10798645 .10827637 .10798645 .019256592 .17098999-.0107421879 .22999573-.0107421879 .2689972-.0107421879 .30299378 .0062561037 .33099366 .03425598 .31799317-.017745972 .30599977-.06674194 .2659912-.11973572 .23999024-.15385437 .20199585-.18309021 .1559906-.18309021 .14199829-.18309021 .09700012-.18005371 .07998657-.14074707 .09599304-.14074707 .10899353-.14074707 .12298584-.1287384 .1329956-.11973572 .14299011-.10673523 .14299011-.08773804 .14299011-.056747438 .115997318-.052734376 .10598755-.052734376 .08299255-.052734376 .049987794-.068740848 .049987794-.11773682 .049987794-.16796875 .09399414-.20507813 .1559906-.20507813 .25898744-.20507813 .3619995-.11373901 .3899994-.00074768069L.48599244 .38136292Z"/>
</defs>
<path transform="matrix(1.00003,0,0,-1.00008,2.0964967,155.39516)" stroke-width=".3985" stroke-linecap="butt" stroke-miterlimit="10" stroke-linejoin="miter" fill="none" stroke="#404040" d="M0 0H153.57646V153.58618H0Z"/>
<path transform="matrix(1.00003,0,0,-1.00008,2.0964967,155.39516)" stroke-width=".3985" stroke-linecap="butt" stroke-miterlimit="10" stroke-linejoin="miter" fill="none" stroke="#cccccc" d="M9.59853 0V153.58618M28.79558 0V153.58618M47.99265 0V153.58618M67.1897 0V153.58618M86.38675 0V153.58618M105.58382 0V153.58618M124.78087 0V153.58618M143.97794 0V153.58618"/>
<path transform="matrix(1.00003,0,0,-1.00008,2.0964967,155.39516)" stroke-width=".3985" stroke-linecap="butt" stroke-miterlimit="10" stroke-linejoin="miter" fill="none" stroke="#cccccc" d="M19.19705 0V153.58618M38.3941 0V153.58618M57.59117 0V153.58618M95.98529 0V153.58618M115.18234 0V153.58618M134.3794 0V153.58618"/>
<path transform="matrix(1.00003,0,0,-1.00008,2.0964967,155.39516)" stroke-width=".3985" stroke-linecap="butt" stroke-miterlimit="10" stroke-linejoin="miter" fill="none" stroke="#cccccc" d="M0 4.79956H153.57646M0 9.59914H153.57646M0 14.3987H153.57646M0 19.19827H153.57646M0 23.99783H153.57646M0 28.79741H153.57646M0 33.59697H153.57646M0 38.39655H153.57646M0 43.1961H153.57646M0 47.99568H153.57646M0 52.79524H153.57646M0 57.59482H153.57646M0 62.39438H153.57646M0 67.19395H153.57646M0 71.99352H153.57646M0 76.79309H153.57646M0 81.59265H153.57646M0 86.39223H153.57646M0 91.1918H153.57646M0 95.99136H153.57646M0 100.79094H153.57646M0 105.5905H153.57646M0 110.39008H153.57646M0 115.18964H153.57646M0 119.98921H153.57646M0 124.78877H153.57646M0 129.58835H153.57646M0 134.38791H153.57646M0 139.18749H153.57646M0 143.98705H153.57646M0 148.78662H153.57646"/>
<path transform="matrix(1.00003,0,0,-1.00008,2.0964967,155.39516)" stroke-width=".3985" stroke-linecap="butt" stroke-miterlimit="10" stroke-linejoin="miter" fill="none" stroke="#cccccc" d="M0 9.59914H153.57646M0 19.19827H153.57646M0 28.79741H153.57646M0 38.39655H153.57646M0 47.99568H153.57646M0 57.59482H153.57646M0 67.19395H153.57646M0 86.39223H153.57646M0 95.99136H153.57646M0 105.5905H153.57646M0 115.18964H153.57646M0 124.78877H153.57646M0 134.38791H153.57646M0 143.98705H153.57646"/>
<path transform="matrix(1.00003,0,0,-1.00008,2.0964967,155.39516)" stroke-width=".19925" stroke-linecap="butt" stroke-miterlimit="10" stroke-linejoin="miter" fill="none" stroke="#7f807f" d="M9.59853 75.3757V78.21048M28.79558 75.3757V78.21048M47.99265 75.3757V78.21048M67.1897 75.3757V78.21048M86.38675 75.3757V78.21048M105.58382 75.3757V78.21048M124.78087 75.3757V78.21048M143.97794 75.3757V78.21048"/>
<path transform="matrix(1.00003,0,0,-1.00008,2.0964967,155.39516)" stroke-width=".19925" stroke-linecap="butt" stroke-miterlimit="10" stroke-linejoin="miter" fill="none" stroke="#7f807f" d="M19.19705 74.66722V78.91895M38.3941 74.66722V78.91895M57.59117 74.66722V78.91895M95.98529 74.66722V78.91895M115.18234 74.66722V78.91895M134.3794 74.66722V78.91895"/>
<path transform="matrix(1.00003,0,0,-1.00008,2.0964967,155.39516)" stroke-width=".19925" stroke-linecap="butt" stroke-miterlimit="10" stroke-linejoin="miter" fill="none" stroke="#7f807f" d="M75.37073 4.79956H78.20572M75.37073 9.59914H78.20572M75.37073 14.3987H78.20572M75.37073 19.19827H78.20572M75.37073 23.99783H78.20572M75.37073 28.79741H78.20572M75.37073 33.59697H78.20572M75.37073 38.39655H78.20572M75.37073 43.1961H78.20572M75.37073 47.99568H78.20572M75.37073 52.79524H78.20572M75.37073 57.59482H78.20572M75.37073 62.39438H78.20572M75.37073 67.19395H78.20572M75.37073 71.99352H78.20572M75.37073 76.79309H78.20572M75.37073 81.59265H78.20572M75.37073 86.39223H78.20572M75.37073 91.1918H78.20572M75.37073 95.99136H78.20572M75.37073 100.79094H78.20572M75.37073 105.5905H78.20572M75.37073 110.39008H78.20572M75.37073 115.18964H78.20572M75.37073 119.98921H78.20572M75.37073 124.78877H78.20572M75.37073 129.58835H78.20572M75.37073 134.38791H78.20572M75.37073 139.18749H78.20572M75.37073 143.98705H78.20572M75.37073 148.78662H78.20572"/>
<path transform="matrix(1.00003,0,0,-1.00008,2.0964967,155.39516)" stroke-width=".19925" stroke-linecap="butt" stroke-miterlimit="10" stroke-linejoin="miter" fill="none" stroke="#7f807f" d="M74.6622 9.59914H78.91423M74.6622 19.19827H78.91423M74.6622 28.79741H78.91423M74.6622 38.39655H78.91423M74.6622 47.99568H78.91423M74.6622 57.59482H78.91423M74.6622 67.19395H78.91423M74.6622 86.39223H78.91423M74.6622 95.99136H78.91423M74.6622 105.5905H78.91423M74.6622 115.18964H78.91423M74.6622 124.78877H78.91423M74.6622 134.38791H78.91423M74.6622 143.98705H78.91423"/>
<path transform="matrix(1.00003,0,0,-1.00008,2.0964967,155.39516)" stroke-width=".3985" stroke-linecap="butt" stroke-miterlimit="10" stroke-linejoin="miter" fill="none" stroke="#000000" d="M0 76.79309H151.58394"/>
<path transform="matrix(1.00003,0,0,-1.00008,153.68498,78.595928)" d="M1.99252 0-1.19551 1.59401 0 0-1.19551-1.59401"/>
<path transform="matrix(1.00003,0,0,-1.00008,2.0964967,155.39516)" stroke-width=".3985" stroke-linecap="butt" stroke-miterlimit="10" stroke-linejoin="miter" fill="none" stroke="#000000" d="M76.78822 0V151.59366"/>
<path transform="matrix(0,-1.00008,-1.00003,-0,78.887027,3.7893677)" d="M1.99252 0-1.19551 1.59401 0 0-1.19551-1.59401"/>
<use data-text="&#x2212;" xlink:href="#font_1_1" transform="matrix(9.962899,0,0,-9.963397,14.928879,90.66298)"/>
<use data-text="6" xlink:href="#font_2_5" transform="matrix(9.962899,0,0,-9.963397,22.678109,90.66298)"/>
<use data-text="&#x2212;" xlink:href="#font_1_1" transform="matrix(9.962899,0,0,-9.963397,34.126459,90.66298)"/>
<use data-text="4" xlink:href="#font_2_4" transform="matrix(9.962899,0,0,-9.963397,41.875688,90.66298)"/>
<use data-text="&#x2212;" xlink:href="#font_1_1" transform="matrix(9.962899,0,0,-9.963397,53.324037,90.66298)"/>
<use data-text="2" xlink:href="#font_2_3" transform="matrix(9.962899,0,0,-9.963397,61.073266,90.66298)"/>
<use data-text="2" xlink:href="#font_2_3" transform="matrix(9.962899,0,0,-9.963397,95.59431,90.66298)"/>
<use data-text="4" xlink:href="#font_2_4" transform="matrix(9.962899,0,0,-9.963397,114.791889,90.66298)"/>
<use data-text="6" xlink:href="#font_2_5" transform="matrix(9.962899,0,0,-9.963397,133.98947,90.66298)"/>
<use data-text="&#x2212;" xlink:href="#font_1_1" transform="matrix(9.962899,0,0,-9.963397,55.529104,148.5906)"/>
<use data-text="2" xlink:href="#font_2_3" transform="matrix(9.962899,0,0,-9.963397,63.27833,148.5906)"/>
<use data-text="8" xlink:href="#font_2_6" transform="matrix(9.962899,0,0,-9.963397,68.25978,148.5906)"/>
<use data-text="&#x2212;" xlink:href="#font_1_1" transform="matrix(9.962899,0,0,-9.963397,55.529104,138.99085)"/>
<use data-text="2" xlink:href="#font_2_3" transform="matrix(9.962899,0,0,-9.963397,63.27833,138.99085)"/>
<use data-text="4" xlink:href="#font_2_4" transform="matrix(9.962899,0,0,-9.963397,68.25978,138.99085)"/>
<use data-text="&#x2212;" xlink:href="#font_1_1" transform="matrix(9.962899,0,0,-9.963397,55.529104,129.39109)"/>
<use data-text="2" xlink:href="#font_2_3" transform="matrix(9.962899,0,0,-9.963397,63.27833,129.39109)"/>
<use data-text="0" xlink:href="#font_2_1" transform="matrix(9.962899,0,0,-9.963397,68.25978,129.39109)"/>
<use data-text="&#x2212;" xlink:href="#font_1_1" transform="matrix(9.962899,0,0,-9.963397,55.529104,119.791309)"/>
<use data-text="1" xlink:href="#font_2_2" transform="matrix(9.962899,0,0,-9.963397,63.27833,119.791309)"/>
<use data-text="6" xlink:href="#font_2_5" transform="matrix(9.962899,0,0,-9.963397,68.25978,119.791309)"/>
<use data-text="&#x2212;" xlink:href="#font_1_1" transform="matrix(9.962899,0,0,-9.963397,55.529104,110.19054)"/>
<use data-text="1" xlink:href="#font_2_2" transform="matrix(9.962899,0,0,-9.963397,63.27833,110.19054)"/>
<use data-text="2" xlink:href="#font_2_3" transform="matrix(9.962899,0,0,-9.963397,68.25978,110.19054)"/>
<use data-text="&#x2212;" xlink:href="#font_1_1" transform="matrix(9.962899,0,0,-9.963397,60.51025,100.590778)"/>
<use data-text="8" xlink:href="#font_2_6" transform="matrix(9.962899,0,0,-9.963397,68.259479,100.590778)"/>
<use data-text="&#x2212;" xlink:href="#font_1_1" transform="matrix(9.962899,0,0,-9.963397,60.51025,90.991008)"/>
<use data-text="4" xlink:href="#font_2_4" transform="matrix(9.962899,0,0,-9.963397,68.259479,90.991008)"/>
<use data-text="4" xlink:href="#font_2_4" transform="matrix(9.962899,0,0,-9.963397,68.25949,72.206508)"/>
<use data-text="8" xlink:href="#font_2_6" transform="matrix(9.962899,0,0,-9.963397,68.25949,62.606737)"/>
<use data-text="1" xlink:href="#font_2_2" transform="matrix(9.962899,0,0,-9.963397,63.278337,53.006975)"/>
<use data-text="2" xlink:href="#font_2_3" transform="matrix(9.962899,0,0,-9.963397,68.25979,53.006975)"/>
<use data-text="1" xlink:href="#font_2_2" transform="matrix(9.962899,0,0,-9.963397,63.278337,43.407205)"/>
<use data-text="6" xlink:href="#font_2_5" transform="matrix(9.962899,0,0,-9.963397,68.25979,43.407205)"/>
<use data-text="2" xlink:href="#font_2_3" transform="matrix(9.962899,0,0,-9.963397,63.278337,33.806428)"/>
<use data-text="0" xlink:href="#font_2_1" transform="matrix(9.962899,0,0,-9.963397,68.25979,33.806428)"/>
<use data-text="2" xlink:href="#font_2_3" transform="matrix(9.962899,0,0,-9.963397,63.278337,24.206665)"/>
<use data-text="4" xlink:href="#font_2_4" transform="matrix(9.962899,0,0,-9.963397,68.25979,24.206665)"/>
<use data-text="2" xlink:href="#font_2_3" transform="matrix(9.962899,0,0,-9.963397,63.278337,14.606903)"/>
<use data-text="8" xlink:href="#font_2_6" transform="matrix(9.962899,0,0,-9.963397,68.25979,14.606903)"/>
<g clip-path="url(#clip_3)">
<path transform="matrix(1.00003,0,0,-1.00008,2.0964967,155.39516)" stroke-width="1.49442" stroke-linecap="butt" stroke-miterlimit="10" stroke-linejoin="miter" fill="none" stroke="#1414cc" d="M24.48993 7.74857C27.3404 58.35368 27.3404 58.35368 28.60263 74.43837 29.86488 90.52304 31.88913 107.65775 33.15138 115.93147 34.41364 124.20518 36.43787 131.19373 37.70012 134.06966 38.96237 136.9456 40.98662 137.23903 42.24887 136.65933 43.51112 136.07964 45.53535 132.4104 46.7976 129.89156 48.05986 127.3727 50.0841 121.82681 51.34636 118.50516 52.60861 115.18352 54.63284 109.27414 55.8951 105.95142 57.15735 102.6287 59.1816 97.3685 60.44385 94.5572 61.7061 91.74593 63.73033 87.72058 64.99258 85.68954 66.25484 83.65852 68.27908 81.0991 69.54134 79.91891 70.80359 78.73872 72.82782 77.59506 74.09007 77.18353 75.35233 76.77202 77.37656 76.78528 78.63881 76.95294 79.90106 77.1206 81.92531 77.89644 83.18756 78.39203 84.44981 78.88763 86.47404 79.969 87.7363 80.52492 88.99855 81.08084 91.0228 82.021 92.28505 82.39874 93.5473 82.7765 95.57153 83.21187 96.83379 83.2476 98.09604 83.28334 100.12029 83.00645 101.38254 82.65643 102.64479 82.30641 104.66902 81.33882 105.93127 80.72478 107.19353 80.11073 109.21777 78.77605 110.48003 78.23083 111.74226 77.68561 113.76651 76.68225 115.02876 76.79517 116.291 76.9081 118.31526 77.38232 119.57751 79.0447 120.83975 80.70705 122.864 84.32585 124.12625 88.77646 125.38849 93.22707 127.41273 102.25105 128.67498 111.12161 129.93723 119.99216 133.22373 152.70929 132.4486 144.99166"/>
<path transform="matrix(-.056211689,.9984599,.99841,.056214498,26.587162,147.64595)" d="M4.676 0C4.10176 .14711 1.5776 .98082 0 1.88808V-1.88808C1.5776-.98082 4.10176-.14711 4.676 0Z" fill="#1414cc"/>
<path transform="matrix(-.056211689,.9984599,.99841,.056214498,26.587162,147.64595)" stroke-width="1.49442" stroke-linecap="butt" stroke-miterlimit="10" stroke-linejoin="miter" fill="none" stroke="#1414cc" d="M4.676 0C4.10176 .14711 1.5776 .98082 0 1.88808V-1.88808C1.5776-.98082 4.10176-.14711 4.676 0Z"/>
<path transform="matrix(.099933009,-.99502959,-.99497988,-.099938,134.54906,10.391922)" d="M4.676 0C4.10176 .14711 1.5776 .98082 0 1.88808V-1.88808C1.5776-.98082 4.10176-.14711 4.676 0Z" fill="#1414cc"/>
<path transform="matrix(.099933009,-.99502959,-.99497988,-.099938,134.54906,10.391922)" stroke-width="1.49442" stroke-linecap="butt" stroke-miterlimit="10" stroke-linejoin="miter" fill="none" stroke="#1414cc" d="M4.676 0C4.10176 .14711 1.5776 .98082 0 1.88808V-1.88808C1.5776-.98082 4.10176-.14711 4.676 0Z"/>
</g>
<path transform="matrix(1.00003,0,0,-1.00008,2.0964967,155.39516)" d="M49.9852 127.18857C49.9852 128.28903 49.09311 129.18112 47.99265 129.18112 46.89217 129.18112 46.00009 128.28903 46.00009 127.18857 46.00009 126.08809 46.89217 125.19601 47.99265 125.19601 49.09311 125.19601 49.9852 126.08809 49.9852 127.18857ZM47.99265 127.18857" fill="#1414cc"/>
<path transform="matrix(1.00003,0,0,-1.00008,2.0964967,155.39516)" stroke-width=".3985" stroke-linecap="butt" stroke-miterlimit="10" stroke-linejoin="miter" fill="none" stroke="#1414cc" d="M49.9852 127.18857C49.9852 128.28903 49.09311 129.18112 47.99265 129.18112 46.89217 129.18112 46.00009 128.28903 46.00009 127.18857 46.00009 126.08809 46.89217 125.19601 47.99265 125.19601 49.09311 125.19601 49.9852 126.08809 49.9852 127.18857ZM47.99265 127.18857"/>
<path transform="matrix(1.00003,0,0,-1.00008,2.0964967,155.39516)" stroke-width=".3985" stroke-linecap="butt" stroke-miterlimit="10" stroke-linejoin="miter" fill="none" stroke="#1414cc" d=""/>
<use data-text="x" xlink:href="#font_4_1" transform="matrix(9.962899,0,0,-9.963397,146.48484,75.065738)"/>
<use data-text="y" xlink:href="#font_4_2" transform="matrix(9.962899,0,0,-9.963397,82.41991,9.573502)"/>
</svg>
