<svg xmlns="http://www.w3.org/2000/svg" xmlns:xlink="http://www.w3.org/1999/xlink" xmlns:inkscape="http://www.inkscape.org/namespaces/inkscape" version="1.1" width="228" height="191" viewBox="0 0 228 191">
<defs>
<path id="font_1_1" d="M.6589966 .23046875C.6759949 .23046875 .69400027 .23046875 .69400027 .25045777 .69400027 .27046205 .6759949 .27046205 .6589966 .27046205H.117996219C.100997928 .27046205 .08299255 .27046205 .08299255 .25045777 .08299255 .23046875 .100997928 .23046875 .117996219 .23046875H.6589966Z"/>
<path id="font_2_3" d="M.13198853 .327713V.35173036C.13198853 .6047821 .2559967 .64100649 .30699159 .64100649 .33099366 .64100649 .37298585 .634964 .394989 .6007538 .37998963 .6007538 .33999635 .6007538 .33999635 .5557556 .33999635 .524765 .3639984 .5097656 .38598634 .5097656 .4019928 .5097656 .43199159 .51875308 .43199159 .5577545 .43199159 .6178589 .3880005 .6660156 .30499269 .6660156 .1769867 .6660156 .041992189 .5367584 .041992189 .31570436 .041992189 .048553468 .1579895-.022460938 .25099183-.022460938 .3619995-.022460938 .45700074 .07156372 .45700074 .2036438 .45700074 .33070375 .36799623 .4267578 .25698854 .4267578 .18899536 .4267578 .1519928 .37573243 .13198853 .327713M.25099183 .0055389406C.18798828 .0055389406 .1579895 .06556702 .1519928 .080566409 .13398743 .127594 .13398743 .2076416 .13398743 .22564698 .13398743 .30369569 .1659851 .40374757 .2559967 .40374757 .27198792 .40374757 .31799317 .40374757 .34899903 .34172059 .36698915 .30470277 .36698915 .2536621 .36698915 .20463562 .36698915 .15661621 .36698915 .10658264 .34999085 .0705719 .31999208 .010528564 .27398683 .0055389406 .25099183 .0055389406Z"/>
<path id="font_2_2" d="M.2939911 .16503906V.07800293C.2939911 .041992189 .2919922 .0309906 .21798706 .0309906H.19699097V0C.23799134 .0029907227 .2899933 .0029907227 .33198548 .0029907227 .37399293 .0029907227 .4269867 .0029907227 .46798707 0V.0309906H.44699098C.37298585 .0309906 .37098695 .041992189 .37098695 .07800293V.16503906H.47099305V.19602967H.37098695V.65075686C.37098695 .67074587 .37098695 .6767578 .35499574 .6767578 .34599305 .6767578 .34298707 .6767578 .33499146 .66474917L.027999878 .19602967V.16503906H.2939911M.2999878 .19602967H.055999757L.2999878 .5688019V.19602967Z"/>
<path id="font_2_1" d="M.1269989 .07699585 .23298645 .18003845C.3889923 .31811524 .44898988 .3721466 .44898988 .47216798 .44898988 .5860901 .35899354 .6660156 .23699951 .6660156 .12399292 .6660156 .049987794 .57411196 .049987794 .48516847 .049987794 .4291687 .099990848 .4291687 .102996829 .4291687 .11999512 .4291687 .15499878 .44117738 .15499878 .48217774 .15499878 .5081787 .13699341 .5341797 .101989749 .5341797 .09399414 .5341797 .09199524 .5341797 .08898926 .5331726 .11199951 .59806826 .1659851 .63500979 .22399903 .63500979 .31498719 .63500979 .35798646 .5541382 .35798646 .47216798 .35798646 .39215089 .30799867 .31311036 .25299073 .25108338L.06098938 .036987306C.049987794 .025985718 .049987794 .023986817 .049987794 0H.42099L.44898988 .17404175H.42399598C.4189911 .14402771 .4119873 .1000061 .4019928 .084991458 .394989 .07699585 .32899476 .07699585 .30699159 .07699585H.1269989Z"/>
<clipPath id="clip_3">
<path transform="matrix(1.00005,0,0,-1,2.0961457,188.96302)" d="M0 0H224.1623V187.16675H0Z"/>
</clipPath>
<path id="font_4_1" d="M.33399964 .30233766C.33999635 .32835389 .36299134 .42037965 .43299867 .42037965 .43798829 .42037965 .46199037 .42037965 .48298646 .40734864 .45498658 .402359 .43499757 .37734986 .43499757 .35334779 .43499757 .33735658 .44599916 .31835938 .47299195 .31835938 .49499513 .31835938 .5269928 .3363495 .5269928 .37635804 .5269928 .42837525 .46798707 .4423828 .43399049 .4423828 .37599183 .4423828 .34098817 .38935853 .32899476 .36634828 .3039856 .43237306 .25 .4423828 .22099304 .4423828 .116989139 .4423828 .05999756 .3133545 .05999756 .28834535 .05999756 .27833558 .069992069 .27833558 .07199097 .27833558 .07998657 .27833558 .08299255 .28033448 .084991458 .28933717 .11898804 .39535523 .18499756 .42037965 .21899414 .42037965 .23799134 .42037965 .272995 .4113617 .272995 .35334779 .272995 .32235719 .2559967 .25532533 .21899414 .11528015 .20298767 .053268434 .16799927 .011245728 .12399292 .011245728 .117996219 .011245728 .09498596 .011245728 .07398987 .024276734 .09899902 .029266358 .12098694 .05027771 .12098694 .07827759 .12098694 .105270389 .09899902 .11328125 .083999637 .11328125 .053985597 .11328125 .0289917 .08728027 .0289917 .055267335 .0289917 .009246826 .07899475-.0107421879 .12298584-.0107421879 .18899536-.0107421879 .22499085 .059280397 .22799683 .0652771 .23999024 .028274537 .27598573-.0107421879 .33599855-.0107421879 .43899537-.0107421879 .49598695 .118270877 .49598695 .14328003 .49598695 .1532898 .4869995 .1532898 .48399354 .1532898 .47499085 .1532898 .47299195 .14929199 .47099305 .14228821 .43798829 .03527832 .36999513 .011245728 .33799745 .011245728 .29899598 .011245728 .2829895 .043273927 .2829895 .07727051 .2829895 .09927368 .2889862 .121276859 .2999878 .16529846L.33399964 .30233766Z"/>
<path id="font_4_2" d="M.48599244 .38136292C.48999024 .39537049 .48999024 .39736939 .48999024 .40437318 .48999024 .42237855 .47599793 .43138124 .46099855 .43138124 .45098878 .43138124 .43499757 .42536927 .42599488 .41036988 .42399598 .405365 .41600038 .37435914 .4119873 .35635377 .40499879 .33035279 .397995 .30334474 .3919983 .27633668L.34700013 .09628296C.34298707 .08126831 .2999878 .011245728 .23399353 .011245728 .18299866 .011245728 .17199707 .055267335 .17199707 .0922699 .17199707 .1382904 .18899536 .20030213 .22299195 .28833009 .23899842 .3293457 .24299622 .3403473 .24299622 .36035157 .24299622 .405365 .21099854 .4423828 .16099549 .4423828 .06599426 .4423828 .0289917 .29733277 .0289917 .28833009 .0289917 .27833558 .038986207 .27833558 .040985109 .27833558 .050994874 .27833558 .051986696 .28033448 .056991579 .29634095 .083999637 .3903656 .12399292 .42037965 .1579895 .42037965 .1659851 .42037965 .18299866 .42037965 .18299866 .3883667 .18299866 .36335755 .17298889 .3373413 .1659851 .31834413 .12599182 .21231079 .10798645 .1552887 .10798645 .10827637 .10798645 .019256592 .17098999-.0107421879 .22999573-.0107421879 .2689972-.0107421879 .30299378 .0062561037 .33099366 .03425598 .31799317-.017745972 .30599977-.06674194 .2659912-.11973572 .23999024-.15385437 .20199585-.18309021 .1559906-.18309021 .14199829-.18309021 .09700012-.18005371 .07998657-.14074707 .09599304-.14074707 .10899353-.14074707 .12298584-.1287384 .1329956-.11973572 .14299011-.10673523 .14299011-.08773804 .14299011-.056747438 .115997318-.052734376 .10598755-.052734376 .08299255-.052734376 .049987794-.068740848 .049987794-.11773682 .049987794-.16796875 .09399414-.20507813 .1559906-.20507813 .25898744-.20507813 .3619995-.11373901 .3899994-.00074768069L.48599244 .38136292Z"/>
</defs>
<path transform="matrix(1.00005,0,0,-1,2.0961457,188.96302)" stroke-width=".3985" stroke-linecap="butt" stroke-miterlimit="10" stroke-linejoin="miter" fill="none" stroke="#404040" d="M0 0H224.1623V187.16675H0Z"/>
<path transform="matrix(1.00005,0,0,-1,2.0961457,188.96302)" stroke-width=".3985" stroke-linecap="butt" stroke-miterlimit="10" stroke-linejoin="miter" fill="none" stroke="#cccccc" d="M14.01013 0V187.16675M28.02028 0V187.16675M42.03043 0V187.16675M56.04057 0V187.16675M70.0507 0V187.16675M84.06085 0V187.16675M98.071 0V187.16675M112.08115 0V187.16675M126.09128 0V187.16675M140.10143 0V187.16675M154.11157 0V187.16675M168.12172 0V187.16675M182.13185 0V187.16675M196.142 0V187.16675M210.15215 0V187.16675"/>
<path transform="matrix(1.00005,0,0,-1,2.0961457,188.96302)" stroke-width=".3985" stroke-linecap="butt" stroke-miterlimit="10" stroke-linejoin="miter" fill="none" stroke="#cccccc" d="M28.02028 0V187.16675M56.04057 0V187.16675M84.06085 0V187.16675M140.10143 0V187.16675M168.12172 0V187.16675M196.142 0V187.16675"/>
<path transform="matrix(1.00005,0,0,-1,2.0961457,188.96302)" stroke-width=".3985" stroke-linecap="butt" stroke-miterlimit="10" stroke-linejoin="miter" fill="none" stroke="#cccccc" d="M0 11.69792H224.1623M0 23.39584H224.1623M0 35.09377H224.1623M0 46.79169H224.1623M0 58.48961H224.1623M0 70.18753H224.1623M0 81.88545H224.1623M0 93.58337H224.1623M0 105.2813H224.1623M0 116.97922H224.1623M0 128.67714H224.1623M0 140.37506H224.1623M0 152.07299H224.1623M0 163.7709H224.1623M0 175.46883H224.1623"/>
<path transform="matrix(1.00005,0,0,-1,2.0961457,188.96302)" stroke-width=".3985" stroke-linecap="butt" stroke-miterlimit="10" stroke-linejoin="miter" fill="none" stroke="#cccccc" d="M0 23.39584H224.1623M0 46.79169H224.1623M0 70.18753H224.1623M0 116.97922H224.1623M0 140.37506H224.1623M0 163.7709H224.1623"/>
<path transform="matrix(1.00005,0,0,-1,2.0961457,188.96302)" stroke-width=".19925" stroke-linecap="butt" stroke-miterlimit="10" stroke-linejoin="miter" fill="none" stroke="#7f807f" d="M14.01013 92.16599V95.00076M28.02028 92.16599V95.00076M42.03043 92.16599V95.00076M56.04057 92.16599V95.00076M70.0507 92.16599V95.00076M84.06085 92.16599V95.00076M98.071 92.16599V95.00076M112.08115 92.16599V95.00076M126.09128 92.16599V95.00076M140.10143 92.16599V95.00076M154.11157 92.16599V95.00076M168.12172 92.16599V95.00076M182.13185 92.16599V95.00076M196.142 92.16599V95.00076M210.15215 92.16599V95.00076"/>
<path transform="matrix(1.00005,0,0,-1,2.0961457,188.96302)" stroke-width=".19925" stroke-linecap="butt" stroke-miterlimit="10" stroke-linejoin="miter" fill="none" stroke="#7f807f" d="M28.02028 91.45749V95.70923M56.04057 91.45749V95.70923M84.06085 91.45749V95.70923M140.10143 91.45749V95.70923M168.12172 91.45749V95.70923M196.142 91.45749V95.70923"/>
<path transform="matrix(1.00005,0,0,-1,2.0961457,188.96302)" stroke-width=".19925" stroke-linecap="butt" stroke-miterlimit="10" stroke-linejoin="miter" fill="none" stroke="#7f807f" d="M110.66377 11.69792H113.4985M110.66377 23.39584H113.4985M110.66377 35.09377H113.4985M110.66377 46.79169H113.4985M110.66377 58.48961H113.4985M110.66377 70.18753H113.4985M110.66377 81.88545H113.4985M110.66377 93.58337H113.4985M110.66377 105.2813H113.4985M110.66377 116.97922H113.4985M110.66377 128.67714H113.4985M110.66377 140.37506H113.4985M110.66377 152.07299H113.4985M110.66377 163.7709H113.4985M110.66377 175.46883H113.4985"/>
<path transform="matrix(1.00005,0,0,-1,2.0961457,188.96302)" stroke-width=".19925" stroke-linecap="butt" stroke-miterlimit="10" stroke-linejoin="miter" fill="none" stroke="#7f807f" d="M109.95529 23.39584H114.20697M109.95529 46.79169H114.20697M109.95529 70.18753H114.20697M109.95529 116.97922H114.20697M109.95529 140.37506H114.20697M109.95529 163.7709H114.20697"/>
<path transform="matrix(1.00005,0,0,-1,2.0961457,188.96302)" stroke-width=".3985" stroke-linecap="butt" stroke-miterlimit="10" stroke-linejoin="miter" fill="none" stroke="#000000" d="M0 93.58337H222.16976"/>
<path transform="matrix(1.00005,0,0,-1,224.277,95.37965)" d="M1.99252 0-1.19551 1.59401 0 0-1.19551-1.59401"/>
<path transform="matrix(1.00005,0,0,-1,2.0961457,188.96302)" stroke-width=".3985" stroke-linecap="butt" stroke-miterlimit="10" stroke-linejoin="miter" fill="none" stroke="#000000" d="M112.08115 0V185.17423"/>
<path transform="matrix(0,-1,-1.00005,-0,114.18289,3.7887879)" d="M1.99252 0-1.19551 1.59401 0 0-1.19551-1.59401"/>
<use data-text="&#x2212;" xlink:href="#font_1_1" transform="matrix(9.963098,0,0,-9.9626,23.752228,107.446018)"/>
<use data-text="6" xlink:href="#font_2_3" transform="matrix(9.963098,0,0,-9.9626,31.501618,107.446018)"/>
<use data-text="&#x2212;" xlink:href="#font_1_1" transform="matrix(9.963098,0,0,-9.9626,51.773626,107.446018)"/>
<use data-text="4" xlink:href="#font_2_2" transform="matrix(9.963098,0,0,-9.9626,59.523015,107.446018)"/>
<use data-text="&#x2212;" xlink:href="#font_1_1" transform="matrix(9.963098,0,0,-9.9626,79.79603,107.446018)"/>
<use data-text="2" xlink:href="#font_2_1" transform="matrix(9.963098,0,0,-9.9626,87.54542,107.446018)"/>
<use data-text="2" xlink:href="#font_2_1" transform="matrix(9.963098,0,0,-9.9626,139.714,107.446018)"/>
<use data-text="4" xlink:href="#font_2_2" transform="matrix(9.963098,0,0,-9.9626,167.73542,107.446018)"/>
<use data-text="6" xlink:href="#font_2_3" transform="matrix(9.963098,0,0,-9.9626,195.75682,107.446018)"/>
<use data-text="&#x2212;" xlink:href="#font_1_1" transform="matrix(9.963098,0,0,-9.9626,95.805828,168.36202)"/>
<use data-text="6" xlink:href="#font_2_3" transform="matrix(9.963098,0,0,-9.9626,103.555217,168.36202)"/>
<use data-text="&#x2212;" xlink:href="#font_1_1" transform="matrix(9.963098,0,0,-9.9626,95.805828,144.966)"/>
<use data-text="4" xlink:href="#font_2_2" transform="matrix(9.963098,0,0,-9.9626,103.555217,144.966)"/>
<use data-text="&#x2212;" xlink:href="#font_1_1" transform="matrix(9.963098,0,0,-9.9626,95.805828,121.571018)"/>
<use data-text="2" xlink:href="#font_2_1" transform="matrix(9.963098,0,0,-9.9626,103.555217,121.571018)"/>
<use data-text="2" xlink:href="#font_2_1" transform="matrix(9.963098,0,0,-9.9626,103.555217,75.194019)"/>
<use data-text="4" xlink:href="#font_2_2" transform="matrix(9.963098,0,0,-9.9626,103.555217,51.79802)"/>
<use data-text="6" xlink:href="#font_2_3" transform="matrix(9.963098,0,0,-9.9626,103.555217,28.402009)"/>
<g clip-path="url(#clip_3)">
<path transform="matrix(1.00005,0,0,-1,2.0961457,188.96302)" stroke-width="1.49442" stroke-linecap="butt" stroke-miterlimit="10" stroke-linejoin="miter" fill="none" stroke="#1414cc" d="M6.77751 70.06096C2.10881 67.46245 2.10881 67.46245 2.91876 67.9133 3.7287 68.36414 5.02759 69.08714 5.83754 69.538 6.64748 69.98883 7.94637 70.71182 8.75632 71.16267 9.56627 71.61351 10.86513 72.33652 11.67508 72.78737 12.48503 73.23822 13.78392 73.96123 14.59386 74.41206 15.40381 74.86292 16.7027 75.58592 17.51263 76.03676 18.32259 76.48761 19.62146 77.21062 20.43141 77.66145 21.24135 78.1123 22.54024 78.8353 23.35019 79.28613 24.16013 79.73698 25.45901 80.45999 26.26897 80.91083 27.07892 81.36168 28.37778 82.08469 29.18773 82.53554 29.99768 82.98637 31.29657 83.70937 32.1065 84.16022 32.91646 84.61105 34.21535 85.33406 35.02528 85.78491 35.83524 86.23575 37.13411 86.95876 37.94406 87.4096 38.754 87.86044 40.05289 88.58344 40.86284 89.03429 41.67278 89.48514 42.97166 90.20815 43.78162 90.659 44.59155 91.10985 45.89043 91.83284 46.70038 92.28368 47.51033 92.73453 48.80922 93.45753 49.61916 93.90837 50.42911 94.35922 51.728 95.08223 52.53793 95.53307 53.34789 95.98392 54.64676 96.70692 55.4567 97.15776 56.26665 97.60861 57.56554 98.3316 58.37549 98.78246 59.18542 99.23329 60.48431 99.9563 61.29427 100.40715 62.1042 100.85799 63.40308 101.581 64.21303 102.03185 65.02298 102.48268 66.32185 103.20567 67.1318 103.65652 67.94176 104.10736 70.05058 105.28122 68.22667 104.26604"/>
<path transform="matrix(-.8737936,.48633,.4863543,.87375,8.873995,118.902057)" d="M4.676 0C4.10176 .14711 1.5776 .98082 0 1.88808V-1.88808C1.5776-.98082 4.10176-.14711 4.676 0Z" fill="#1414cc"/>
<path transform="matrix(-.8737936,.48633,.4863543,.87375,8.873995,118.902057)" stroke-width="1.49442" stroke-linecap="butt" stroke-miterlimit="10" stroke-linejoin="miter" fill="none" stroke="#1414cc" d="M4.676 0C4.10176 .14711 1.5776 .98082 0 1.88808V-1.88808C1.5776-.98082 4.10176-.14711 4.676 0Z"/>
<path transform="matrix(.8737936,-.48633,-.4863543,-.87375,69.67331,85.06036)" d="M4.92212 0C4.92212 1.15286 3.98753 2.08745 2.83466 2.08745 1.6818 2.08745 .74721 1.15286 .74721 0 .74721-1.15286 1.6818-2.08745 2.83466-2.08745 3.98753-2.08745 4.92212-1.15286 4.92212 0ZM2.83466 0" fill="#1414cc"/>
<path transform="matrix(.8737936,-.48633,-.4863543,-.87375,69.67331,85.06036)" stroke-width="1.49442" stroke-linecap="butt" stroke-miterlimit="10" stroke-linejoin="miter" fill="none" stroke="#1414cc" d="M4.92212 0C4.92212 1.15286 3.98753 2.08745 2.83466 2.08745 1.6818 2.08745 .74721 1.15286 .74721 0 .74721-1.15286 1.6818-2.08745 2.83466-2.08745 3.98753-2.08745 4.92212-1.15286 4.92212 0ZM2.83466 0"/>
<path transform="matrix(1.00005,0,0,-1,2.0961457,188.96302)" stroke-width="1.49442" stroke-linecap="butt" stroke-miterlimit="10" stroke-linejoin="miter" fill="none" stroke="#1414cc" d="M72.13818 46.79169C71.73776 46.79169 71.73776 46.79169 72.38571 46.79169 73.03368 46.79169 74.07277 46.79169 74.72073 46.79169 75.36868 46.79169 76.40779 46.79169 77.05576 46.79169 77.7037 46.79169 78.7428 46.79169 79.39076 46.79169 80.03871 46.79169 81.07782 46.79169 81.72577 46.79169 82.37372 46.79169 83.41284 46.79169 84.06079 46.79169 84.70874 46.79169 85.74785 46.79169 86.3958 46.79169 87.04375 46.79169 88.08286 46.79169 88.7308 46.79169 89.37877 46.79169 90.41788 46.79169 91.06583 46.79169 91.71379 46.79169 92.75288 46.79169 93.40085 46.79169 94.0488 46.79169 95.08789 46.79169 95.73586 46.79169 96.3838 46.79169 97.42291 46.79169 98.07088 46.79169 98.71883 46.79169 99.75793 46.79169 100.40588 46.79169 101.05383 46.79169 102.09294 46.79169 102.74089 46.79169 103.38884 46.79169 104.42796 46.79169 105.07591 46.79169 105.72386 46.79169 106.76297 46.79169 107.41092 46.79169 108.05888 46.79169 109.09798 46.79169 109.74593 46.79169 110.39389 46.79169 111.433 46.79169 112.08096 46.79169 112.72891 46.79169 113.768 46.79169 114.41597 46.79169 115.06392 46.79169 116.10303 46.79169 116.75099 46.79169 117.39894 46.79169 118.43805 46.79169 119.086 46.79169 119.73395 46.79169 120.77306 46.79169 121.421 46.79169 122.06895 46.79169 123.10808 46.79169 123.75603 46.79169 124.40398 46.79169 126.09103 46.79169 124.00357 46.79169"/>
<path transform="matrix(-1.00005,-0,0,1,74.985179,142.17133)" d="M4.92212 0C4.92212 1.15286 3.98753 2.08745 2.83466 2.08745 1.6818 2.08745 .74721 1.15286 .74721 0 .74721-1.15286 1.6818-2.08745 2.83466-2.08745 3.98753-2.08745 4.92212-1.15286 4.92212 0ZM2.83466 0" fill="#ffffff"/>
<path transform="matrix(-1.00005,-0,0,1,74.985179,142.17133)" stroke-width="1.49442" stroke-linecap="butt" stroke-miterlimit="10" stroke-linejoin="miter" fill="none" stroke="#1414cc" d="M4.92212 0C4.92212 1.15286 3.98753 2.08745 2.83466 2.08745 1.6818 2.08745 .74721 1.15286 .74721 0 .74721-1.15286 1.6818-2.08745 2.83466-2.08745 3.98753-2.08745 4.92212-1.15286 4.92212 0ZM2.83466 0"/>
<path transform="matrix(1.00005,0,0,-1,125.358669,142.17133)" d="M4.92212 0C4.92212 1.15286 3.98753 2.08745 2.83466 2.08745 1.6818 2.08745 .74721 1.15286 .74721 0 .74721-1.15286 1.6818-2.08745 2.83466-2.08745 3.98753-2.08745 4.92212-1.15286 4.92212 0ZM2.83466 0" fill="#ffffff"/>
<path transform="matrix(1.00005,0,0,-1,125.358669,142.17133)" stroke-width="1.49442" stroke-linecap="butt" stroke-miterlimit="10" stroke-linejoin="miter" fill="none" stroke="#1414cc" d="M4.92212 0C4.92212 1.15286 3.98753 2.08745 2.83466 2.08745 1.6818 2.08745 .74721 1.15286 .74721 0 .74721-1.15286 1.6818-2.08745 2.83466-2.08745 3.98753-2.08745 4.92212-1.15286 4.92212 0ZM2.83466 0"/>
<path transform="matrix(1.00005,0,0,-1,2.0961457,188.96302)" stroke-width="1.49442" stroke-linecap="butt" stroke-miterlimit="10" stroke-linejoin="miter" fill="none" stroke="#1414cc" d="M141.17385 126.88629C142.42115 124.8034 142.42115 124.8034 143.31208 123.3156 144.20299 121.82779 145.63178 119.44188 146.5227 117.95407 147.41365 116.46628 148.84243 114.08034 149.73337 112.59253 150.62432 111.10474 152.05309 108.71881 152.94402 107.231 153.83495 105.74321 155.26372 103.35727 156.15465 101.86946 157.0456 100.38167 158.47437 97.99574 159.36531 96.50797 160.25626 95.02017 161.68503 92.63423 162.57596 91.14644 163.46689 89.65863 164.89566 87.27266 165.78659 85.78487 166.67754 84.29706 168.10631 81.91113 168.99726 80.42334 169.8882 78.93553 171.31697 76.5496 172.2079 75.06181 173.09883 73.57402 174.5276 71.1881 175.41854 69.7003 176.30948 68.21251 177.73825 65.82658 178.6292 64.33878 179.52014 62.85098 180.94892 60.46501 181.83985 58.9772 182.73078 57.48941 184.15955 55.10349 185.05048 53.61568 185.94142 52.12788 187.3702 49.74194 188.26114 48.25415 189.15209 46.76637 190.58086 44.38043 191.47179 42.89265 192.36272 41.40486 193.79149 39.01892 194.68242 37.53113 195.57337 36.04332 197.00214 33.65735 197.89308 32.16956 198.78403 30.68175 200.2128 28.29584 201.10373 26.80803 201.99466 25.32022 203.42343 22.93431 204.31436 21.4465 205.2053 19.9587 206.63408 17.57278 207.52503 16.08498 208.41597 14.59717 209.84474 12.21126 210.73567 10.72345 211.6266 9.23566 213.05538 6.8497 213.94632 5.3619 214.83725 3.8741 217.15697 .00038 213.17192 6.65504"/>
<path transform="matrix(-.5137757,-.85791,-.85795286,.51375,143.66094,62.717767)" d="M4.92212 0C4.92212 1.15286 3.98753 2.08745 2.83466 2.08745 1.6818 2.08745 .74721 1.15286 .74721 0 .74721-1.15286 1.6818-2.08745 2.83466-2.08745 3.98753-2.08745 4.92212-1.15286 4.92212 0ZM2.83466 0" fill="#1414cc"/>
<path transform="matrix(-.5137757,-.85791,-.85795286,.51375,143.66094,62.717767)" stroke-width="1.49442" stroke-linecap="butt" stroke-miterlimit="10" stroke-linejoin="miter" fill="none" stroke="#1414cc" d="M4.92212 0C4.92212 1.15286 3.98753 2.08745 2.83466 2.08745 1.6818 2.08745 .74721 1.15286 .74721 0 .74721-1.15286 1.6818-2.08745 2.83466-2.08745 3.98753-2.08745 4.92212-1.15286 4.92212 0ZM2.83466 0"/>
<path transform="matrix(.5137757,.85791,.85795286,-.51375,215.2787,182.30797)" d="M4.676 0C4.10176 .14711 1.5776 .98082 0 1.88808V-1.88808C1.5776-.98082 4.10176-.14711 4.676 0Z" fill="#1414cc"/>
<path transform="matrix(.5137757,.85791,.85795286,-.51375,215.2787,182.30797)" stroke-width="1.49442" stroke-linecap="butt" stroke-miterlimit="10" stroke-linejoin="miter" fill="none" stroke="#1414cc" d="M4.676 0C4.10176 .14711 1.5776 .98082 0 1.88808V-1.88808C1.5776-.98082 4.10176-.14711 4.676 0Z"/>
</g>
<use data-text="x" xlink:href="#font_4_1" transform="matrix(9.963098,0,0,-9.9626,217.10889,91.83801)"/>
<use data-text="y" xlink:href="#font_4_2" transform="matrix(9.963098,0,0,-9.9626,117.72992,9.606018)"/>
</svg>
