<svg xmlns="http://www.w3.org/2000/svg" xmlns:xlink="http://www.w3.org/1999/xlink" xmlns:inkscape="http://www.inkscape.org/namespaces/inkscape" version="1.1" width="211" height="139" viewBox="0 0 211 139">
<defs>
<clipPath id="clip_1">
<path transform="matrix(1.00003,0,0,-1.00006,2.0964967,136.97226)" d="M0 0H207.16039V135.16687H0Z"/>
</clipPath>
<path id="font_2_1" d="M.644989 .68193057C.6409912 .70692446 .6359863 .7109375 .61099246 .7109375 .58898928 .7109375 .58099368 .70692446 .5669861 .68592837L.17399597 .08502197C.1619873 .06600952 .1499939 .04798889 .07699585 .04699707 .06298828 .04699707 .04499817 .04699707 .04499817 .017990113 .04499817 .009994507 .051986696 0 .06399536 0 .09399414 0 .12799073 .0029907227 .15899658 .0029907227 .19599915 .0029907227 .23399353 0 .269989 0 .2769928 0 .29699708 0 .29699708 .0289917 .29699708 .04699707 .2789917 .04699707 .2709961 .04699707 .2630005 .04699707 .23498535 .04699707 .21299744 .057998659L.30499269 .19810486H.57499697L.59799197 .052001954C.57899478 .04798889 .5479889 .04699707 .5329895 .04699707 .5130005 .04699707 .49598695 .04699707 .49598695 .017990113 .49598695 .004989624 .5069885 0 .5179901 0 .5509949 0 .6339874 .0029907227 .6669922 .0029907227 .6899872 .0029907227 .71299746 .0019989014 .73599246 .0019989014 .7589874 .0019989014 .7829895 0 .80599978 0 .8149872 0 .83399966 0 .83399966 .0289917 .83399966 .04699707 .81900027 .04699707 .7939911 .04699707 .7799988 .04699707 .7689972 .04699707 .7549896 .04798889 .7429962 .04899597 .74198916 .049987794 .7389984 .06700134L.644989 .68193057M.5239868 .5329895 .56799319 .24511719H.33599855L.5239868 .5329895Z"/>
<path id="font_2_2" d="M.16299439 .066986087C.15899658 .050994874 .1579895 .049987794 .13999939 .04798889 .12298584 .04699707 .102996829 .04699707 .08699036 .04699707 .06098938 .04699707 .05899048 .04699707 .054992677 .04499817 .042999269 .037994386 .042999269 .021987915 .042999269 .017990113 .042999269 0 .06098938 0 .07699585 0H.5009918C.70999148 0 .80400088 .13195801 .80400088 .22091675 .80400088 .3068695 .72898867 .34985353 .6369934 .35786439 .7969971 .38684083 .85398867 .47973634 .85398867 .5466461 .85398867 .6285553 .7819977 .6855469 .6409912 .6855469H.23999024C.21998596 .6855469 .20298767 .6855469 .20298767 .6565399 .20298767 .63853457 .21598816 .63853457 .24499512 .63853457 .2659912 .63853457 .2849884 .6375427 .30599977 .63653567L.16299439 .066986087M.43099977 .6205597C.43499757 .6355438 .43598939 .63653567 .44198609 .6375427 .45098878 .63853457 .45799256 .63853457 .46899415 .63853457H.6179962C.6380005 .63853457 .71899417 .63853457 .71899417 .551651 .71899417 .48173524 .6629944 .37486268 .5269928 .37486268H.36898805L.43099977 .6205597M.31199647 .04699707C.29699708 .04699707 .29499818 .04699707 .28799439 .04798889L.3600006 .3388672H.5549927C.58099368 .3388672 .6649933 .3388672 .6649933 .23690796 .6649933 .15994263 .6139984 .04699707 .47200013 .04699707H.31199647Z"/>
<path id="font_2_3" d="M.85198977 .67311099C.8529968 .67811587 .8549957 .6831207 .8549957 .68911746 .8549957 .703125 .84098818 .703125 .8299866 .703125L.7369995 .63113406C.69099429 .68211367 .6230011 .703125 .55400088 .703125 .23199463 .703125 .054992677 .45820619 .054992677 .2532959 .054992677 .06437683 .20599365-.016601563 .3809967-.016601563 .46499635-.016601563 .5499878 .009384155 .6259918 .06536865 .72299197 .13734436 .7409973 .22930908 .7409973 .2342987 .7409973 .24829102 .72698977 .24829102 .71798709 .24829102 .69898989 .24829102 .69799807 .24629212 .69299319 .22930908 .6519928 .10235596 .5219879 .030395508 .4079895 .030395508 .34700013 .030395508 .29299928 .044387819 .2519989 .07637024 .19799805 .11735535 .19400025 .185318 .19400025 .21231079 .19400025 .24130249 .20999146 .42822267 .30899049 .5441742 .36299134 .60813906 .45999146 .6561127 .56999209 .6561127 .69200137 .6561127 .7429962 .5641632 .7429962 .4761963 .7429962 .46520997 .73999026 .4512024 .73999026 .4412079 .73999026 .42622376 .7529907 .42622376 .7669983 .42622376 .78900149 .42622376 .7899933 .42721559 .79499819 .44821168L.85198977 .67311099Z"/>
<path id="font_2_4" d="M.16299439 .066970828C.15899658 .050994874 .1579895 .049987794 .13999939 .04798889 .12298584 .04699707 .102996829 .04699707 .08699036 .04699707 .06098938 .04699707 .05899048 .04699707 .054992677 .04499817 .042999269 .037994386 .042999269 .021987915 .042999269 .017990113 .042999269 0 .06098938 0 .07699585 0H.46798707C.7549896 0 .9149933 .23583985 .9149933 .4386902 .9149933 .611557 .7879944 .6855469 .6389923 .6855469H.23999024C.21998596 .6855469 .20298767 .6855469 .20298767 .6565399 .20298767 .63853457 .21598816 .63853457 .24499512 .63853457 .2659912 .63853457 .2849884 .6375427 .30599977 .63653567L.16299439 .066970828M.43598939 .62054446C.43998719 .6355438 .44099427 .63653567 .44699098 .6375427 .45599366 .63853457 .46299745 .63853457 .47399903 .63853457H.58799746C.61698916 .63853457 .6839905 .6355438 .7319946 .5975647 .7819977 .555603 .7819977 .49664308 .7819977 .47366334 .7819977 .40371705 .7449951 .26582337 .71798709 .20986939 .6599884 .09295654 .55599978 .04699707 .44099427 .04699707H.31698609C.3019867 .04699707 .2999878 .04699707 .29299928 .04798889L.43598939 .62054446Z"/>
<path id="font_3_1" d="M.33399964 .30233766C.33999635 .32835389 .36299134 .42037965 .43299867 .42037965 .43798829 .42037965 .46199037 .42037965 .48298646 .40734864 .45498658 .402359 .43499757 .37734986 .43499757 .35334779 .43499757 .33735658 .44599916 .31835938 .47299195 .31835938 .49499513 .31835938 .5269928 .3363495 .5269928 .37635804 .5269928 .42837525 .46798707 .4423828 .43399049 .4423828 .37599183 .4423828 .34098817 .38935853 .32899476 .36634828 .3039856 .43237306 .25 .4423828 .22099304 .4423828 .116989139 .4423828 .05999756 .3133545 .05999756 .28834535 .05999756 .27833558 .069992069 .27833558 .07199097 .27833558 .07998657 .27833558 .08299255 .28033448 .084991458 .28933717 .11898804 .39535523 .18499756 .42037965 .21899414 .42037965 .23799134 .42037965 .272995 .4113617 .272995 .35334779 .272995 .32235719 .2559967 .25532533 .21899414 .11528015 .20298767 .053268434 .16799927 .011245728 .12399292 .011245728 .117996219 .011245728 .09498596 .011245728 .07398987 .024276734 .09899902 .029266358 .12098694 .05027771 .12098694 .07827759 .12098694 .105270389 .09899902 .11328125 .083999637 .11328125 .053985597 .11328125 .0289917 .08728027 .0289917 .055267335 .0289917 .009246826 .07899475-.0107421879 .12298584-.0107421879 .18899536-.0107421879 .22499085 .059280397 .22799683 .0652771 .23999024 .028274537 .27598573-.0107421879 .33599855-.0107421879 .43899537-.0107421879 .49598695 .118270877 .49598695 .14328003 .49598695 .1532898 .4869995 .1532898 .48399354 .1532898 .47499085 .1532898 .47299195 .14929199 .47099305 .14228821 .43798829 .03527832 .36999513 .011245728 .33799745 .011245728 .29899598 .011245728 .2829895 .043273927 .2829895 .07727051 .2829895 .09927368 .2889862 .121276859 .2999878 .16529846L.33399964 .30233766Z"/>
<path id="font_3_2" d="M.48599244 .38136292C.48999024 .39537049 .48999024 .39736939 .48999024 .40437318 .48999024 .42237855 .47599793 .43138124 .46099855 .43138124 .45098878 .43138124 .43499757 .42536927 .42599488 .41036988 .42399598 .405365 .41600038 .37435914 .4119873 .35635377 .40499879 .33035279 .397995 .30334474 .3919983 .27633668L.34700013 .09628296C.34298707 .08126831 .2999878 .011245728 .23399353 .011245728 .18299866 .011245728 .17199707 .055267335 .17199707 .0922699 .17199707 .1382904 .18899536 .20030213 .22299195 .28833009 .23899842 .3293457 .24299622 .3403473 .24299622 .36035157 .24299622 .405365 .21099854 .4423828 .16099549 .4423828 .06599426 .4423828 .0289917 .29733277 .0289917 .28833009 .0289917 .27833558 .038986207 .27833558 .040985109 .27833558 .050994874 .27833558 .051986696 .28033448 .056991579 .29634095 .083999637 .3903656 .12399292 .42037965 .1579895 .42037965 .1659851 .42037965 .18299866 .42037965 .18299866 .3883667 .18299866 .36335755 .17298889 .3373413 .1659851 .31834413 .12599182 .21231079 .10798645 .1552887 .10798645 .10827637 .10798645 .019256592 .17098999-.0107421879 .22999573-.0107421879 .2689972-.0107421879 .30299378 .0062561037 .33099366 .03425598 .31799317-.017745972 .30599977-.06674194 .2659912-.11973572 .23999024-.15385437 .20199585-.18309021 .1559906-.18309021 .14199829-.18309021 .09700012-.18005371 .07998657-.14074707 .09599304-.14074707 .10899353-.14074707 .12298584-.1287384 .1329956-.11973572 .14299011-.10673523 .14299011-.08773804 .14299011-.056747438 .115997318-.052734376 .10598755-.052734376 .08299255-.052734376 .049987794-.068740848 .049987794-.11773682 .049987794-.16796875 .09399414-.20507813 .1559906-.20507813 .25898744-.20507813 .3619995-.11373901 .3899994-.00074768069L.48599244 .38136292Z"/>
</defs>
<path transform="matrix(1.00003,0,0,-1.00006,2.0964967,136.97226)" stroke-width=".3985" stroke-linecap="butt" stroke-miterlimit="10" stroke-linejoin="miter" fill="none" stroke="#404040" d="M0 0H207.16039V135.16687H0Z"/>
<path transform="matrix(1.00003,0,0,-1.00006,2.0964967,136.97226)" stroke-width=".3985" stroke-linecap="butt" stroke-miterlimit="10" stroke-linejoin="miter" fill="none" stroke="#cccccc" d="M0 0V135.16687M17.26335 0V135.16687M34.52672 0V135.16687M51.79008 0V135.16687M69.05345 0V135.16687M86.31682 0V135.16687M103.58018 0V135.16687M120.84355 0V135.16687M138.10692 0V135.16687M155.37029 0V135.16687M172.63365 0V135.16687M189.89702 0V135.16687M207.16039 0V135.16687"/>
<path transform="matrix(1.00003,0,0,-1.00006,2.0964967,136.97226)" stroke-width=".3985" stroke-linecap="butt" stroke-miterlimit="10" stroke-linejoin="miter" fill="none" stroke="#cccccc" d=""/>
<path transform="matrix(1.00003,0,0,-1.00006,2.0964967,136.97226)" stroke-width=".3985" stroke-linecap="butt" stroke-miterlimit="10" stroke-linejoin="miter" fill="none" stroke="#cccccc" d="M0 0H207.16039M0 19.30954H207.16039M0 38.6191H207.16039M0 57.92865H207.16039M0 77.2382H207.16039M0 96.54776H207.16039M0 115.85732H207.16039M0 135.16687H207.16039"/>
<path transform="matrix(1.00003,0,0,-1.00006,2.0964967,136.97226)" stroke-width=".3985" stroke-linecap="butt" stroke-miterlimit="10" stroke-linejoin="miter" fill="none" stroke="#cccccc" d=""/>
<path transform="matrix(1.00003,0,0,-1.00006,2.0964967,136.97226)" stroke-width=".19925" stroke-linecap="butt" stroke-miterlimit="10" stroke-linejoin="miter" fill="none" stroke="#7f807f" d="M0 17.89215V20.72694M17.26335 17.89215V20.72694M34.52672 17.89215V20.72694M51.79008 17.89215V20.72694M69.05345 17.89215V20.72694M86.31682 17.89215V20.72694M103.58018 17.89215V20.72694M120.84355 17.89215V20.72694M138.10692 17.89215V20.72694M155.37029 17.89215V20.72694M172.63365 17.89215V20.72694M189.89702 17.89215V20.72694M207.16039 17.89215V20.72694"/>
<path transform="matrix(1.00003,0,0,-1.00006,2.0964967,136.97226)" stroke-width=".19925" stroke-linecap="butt" stroke-miterlimit="10" stroke-linejoin="miter" fill="none" stroke="#7f807f" d=""/>
<path transform="matrix(1.00003,0,0,-1.00006,2.0964967,136.97226)" stroke-width=".19925" stroke-linecap="butt" stroke-miterlimit="10" stroke-linejoin="miter" fill="none" stroke="#7f807f" d="M102.16275 0H104.99765M102.16275 19.30954H104.99765M102.16275 38.6191H104.99765M102.16275 57.92865H104.99765M102.16275 77.2382H104.99765M102.16275 96.54776H104.99765M102.16275 115.85732H104.99765M102.16275 135.16687H104.99765"/>
<path transform="matrix(1.00003,0,0,-1.00006,2.0964967,136.97226)" stroke-width=".19925" stroke-linecap="butt" stroke-miterlimit="10" stroke-linejoin="miter" fill="none" stroke="#7f807f" d=""/>
<path transform="matrix(1.00003,0,0,-1.00006,2.0964967,136.97226)" stroke-width=".3985" stroke-linecap="butt" stroke-miterlimit="10" stroke-linejoin="miter" fill="none" stroke="#000000" d="M0 19.30954H205.16786"/>
<path transform="matrix(1.00003,0,0,-1.00006,207.27053,117.66156)" d="M1.99252 0-1.19551 1.59401 0 0-1.19551-1.59401"/>
<path transform="matrix(1.00003,0,0,-1.00006,2.0964967,136.97226)" stroke-width=".3985" stroke-linecap="butt" stroke-miterlimit="10" stroke-linejoin="miter" fill="none" stroke="#000000" d="M103.58018 0V133.17435"/>
<path transform="matrix(0,-1.00006,-1.00003,-0,105.67979,3.7899323)" d="M1.99252 0-1.19551 1.59401 0 0-1.19551-1.59401"/>
<g clip-path="url(#clip_1)">
<path transform="matrix(1.00003,0,0,-1.00006,2.0964967,136.97226)" stroke-width="1.49442" stroke-linecap="butt" stroke-miterlimit="10" stroke-linejoin="miter" fill="none" stroke="#1414cc" d="M78.0527 127.21178C80.24341 117.74553 80.24341 117.74553 81.7564 112.06528 83.2694 106.38504 85.69576 98.39243 87.20874 93.82935 88.72173 89.26625 91.14809 82.84375 92.66109 79.17764 94.17407 75.51154 96.60043 70.35167 98.11342 67.40652 99.62642 64.46138 102.05278 60.31636 103.56577 57.95105 105.07875 55.58572 107.50511 52.25914 109.01811 50.35892 110.5311 48.4587 112.95746 45.78305 114.47044 44.25555 115.98344 42.72806 118.4098 40.57715 119.92279 39.34976 121.43578 38.12239 123.86214 36.39566 125.37514 35.40945 126.88812 34.42326 129.31449 33.03403 130.82747 32.24191 132.34047 31.4498 134.76683 30.3366 136.27982 29.70041 137.7928 29.06421 140.21916 28.16801 141.73217 27.65668 143.24515 27.14534 145.67151 26.42606 147.1845 26.01497 148.6975 25.60388 151.12384 25.02399 152.63684 24.69382 154.14983 24.36365 156.57619 23.8999 158.08919 23.63527 159.60218 23.37064 162.02854 22.99907 163.54152 22.78645 165.05452 22.57384 167.48085 22.27388 168.99385 22.10284 170.50684 21.93181 172.9332 21.69104 174.4462 21.55363 175.95919 21.41621 178.38555 21.22278 179.89853 21.11238 181.41153 21.00198 183.83788 20.84662 185.35088 20.75793 186.86386 20.66924 189.29022 20.5444 190.80323 20.47314 192.31621 20.4019 194.74257 20.30159 196.25556 20.24435 197.76856 20.18712 200.1949 20.10654 201.7079 20.06055 203.22089 20.01457 207.16025 19.9129 199.4065 20.11281"/>
<path transform="matrix(-.22543676,-.9742884,-.97425928,.22544351,80.15156,9.752869)" d="M4.676 0C4.10176 .14711 1.5776 .98082 0 1.88808V-1.88808C1.5776-.98082 4.10176-.14711 4.676 0Z" fill="#1414cc"/>
<path transform="matrix(-.22543676,-.9742884,-.97425928,.22544351,80.15156,9.752869)" stroke-width="1.49442" stroke-linecap="butt" stroke-miterlimit="10" stroke-linejoin="miter" fill="none" stroke="#1414cc" d="M4.676 0C4.10176 .14711 1.5776 .98082 0 1.88808V-1.88808C1.5776-.98082 4.10176-.14711 4.676 0Z"/>
<path transform="matrix(.99963006,.025771546,.025770775,-.99965998,201.50897,116.858249)" d="M4.676 0C4.10176 .14711 1.5776 .98082 0 1.88808V-1.88808C1.5776-.98082 4.10176-.14711 4.676 0Z" fill="#1414cc"/>
<path transform="matrix(.99963006,.025771546,.025770775,-.99965998,201.50897,116.858249)" stroke-width="1.49442" stroke-linecap="butt" stroke-miterlimit="10" stroke-linejoin="miter" fill="none" stroke="#1414cc" d="M4.676 0C4.10176 .14711 1.5776 .98082 0 1.88808V-1.88808C1.5776-.98082 4.10176-.14711 4.676 0Z"/>
<path transform="matrix(1.00003,0,0,-1.00006,2.0964967,136.97226)" stroke-width="1.49442" stroke-linecap="butt" stroke-miterlimit="10" stroke-linejoin="miter" fill="none" stroke="#008c0d" d="M7.75645 19.39125C3.6379 19.37593 3.6379 19.37593 5.03511 19.38252 6.43234 19.38913 8.67302 19.401 10.07025 19.4101 11.46748 19.41919 13.70816 19.43556 15.1054 19.44807 16.50262 19.4606 18.7433 19.48315 20.14053 19.50041 21.53777 19.51765 23.77844 19.54874 25.17567 19.57251 26.57289 19.59628 28.81358 19.63908 30.21082 19.67184 31.60803 19.7046 33.84872 19.76353 35.24594 19.80867 36.64317 19.8538 38.88383 19.935 40.28107 19.9972 41.6783 20.05939 43.91898 20.17125 45.31621 20.25693 46.71344 20.3426 48.95412 20.49673 50.35135 20.61478 51.74858 20.73282 53.98926 20.94513 55.38649 21.10776 56.7837 21.27039 59.0244 21.56291 60.42163 21.787 61.81885 22.01108 64.05954 22.41434 65.45676 22.7228 66.85399 23.03127 69.09467 23.58514 70.4919 24.01025 71.88913 24.43536 74.12979 25.20033 75.52702 25.78673 76.92426 26.37312 79.16493 27.42897 80.56216 28.23672 81.9594 29.04448 84.20007 30.49597 85.5973 31.60857 86.99454 32.72118 89.23521 34.72275 90.63245 36.2556 92.02966 37.78845 94.27036 40.54517 95.66757 42.65633 97.0648 44.7675 99.30548 48.56401 100.70271 51.47154 102.09995 54.37906 104.34062 59.6058 105.73785 63.61185 107.13509 67.61789 109.37576 74.82431 110.773 80.34435 112.17023 85.86438 114.4109 95.7911 115.80814 103.39648 117.20537 111.00188 120.84326 135.15874 119.68831 127.48878"/>
<path transform="matrix(-.99998006,.0037102225,.0037101117,1.0000099,9.8532,117.57983)" d="M4.676 0C4.10176 .14711 1.5776 .98082 0 1.88808V-1.88808C1.5776-.98082 4.10176-.14711 4.676 0Z" fill="#008c0d"/>
<path transform="matrix(-.99998006,.0037102225,.0037101117,1.0000099,9.8532,117.57983)" stroke-width="1.49442" stroke-linecap="butt" stroke-miterlimit="10" stroke-linejoin="miter" fill="none" stroke="#008c0d" d="M4.676 0C4.10176 .14711 1.5776 .98082 0 1.88808V-1.88808C1.5776-.98082 4.10176-.14711 4.676 0Z"/>
<path transform="matrix(.14890448,-.9888593,-.9888297,-.14890893,121.78839,9.475838)" d="M4.676 0C4.10176 .14711 1.5776 .98082 0 1.88808V-1.88808C1.5776-.98082 4.10176-.14711 4.676 0Z" fill="#008c0d"/>
<path transform="matrix(.14890448,-.9888593,-.9888297,-.14890893,121.78839,9.475838)" stroke-width="1.49442" stroke-linecap="butt" stroke-miterlimit="10" stroke-linejoin="miter" fill="none" stroke="#008c0d" d="M4.676 0C4.10176 .14711 1.5776 .98082 0 1.88808V-1.88808C1.5776-.98082 4.10176-.14711 4.676 0Z"/>
<path transform="matrix(1.00003,0,0,-1.00006,2.0964967,136.97226)" stroke-width="1.49442" stroke-linecap="butt" stroke-miterlimit="10" stroke-linejoin="miter" fill="none" stroke="#8014b3" d="M7.72958 23.34363C4.5266 23.07701 4.5266 23.07701 6.26515 23.23787 8.00371 23.39874 10.79175 23.67279 12.53032 23.85925 14.26888 24.04572 17.05693 24.36578 18.79549 24.58182 20.53404 24.79785 23.3221 25.16605 25.06065 25.41638 26.79921 25.6667 29.58725 26.09564 31.3258 26.38611 33.06438 26.67657 35.85243 27.17384 37.59099 27.50992 39.32954 27.846 42.11758 28.41917 43.85616 28.80829 45.59471 29.1974 48.38277 29.86324 50.12132 30.31444 51.85988 30.76566 54.64793 31.53783 56.38649 32.06041 58.12505 32.583 60.91309 33.47585 62.65164 34.08096 64.39021 34.68607 67.17827 35.72064 68.91682 36.42166 70.65538 37.1227 73.44342 38.32097 75.18199 39.1335 76.92055 39.94603 79.7086 41.3362 81.44716 42.27786 83.18571 43.21954 85.97377 44.8298 87.71233 45.92043 89.45088 47.01105 92.23892 48.87512 93.97748 50.1384 95.71605 51.40167 98.5041 53.56313 100.24266 55.02525 101.98122 56.48738 104.76926 58.98253 106.50781 60.67639 108.24638 62.37025 111.03444 65.26968 112.773 67.2335 114.51155 69.19733 117.29959 72.55528 119.03816 74.83028 120.77672 77.10527 123.56477 80.99442 125.30333 83.63008 127.04189 86.26573 129.82994 90.77261 131.5685 93.82626 133.30706 96.87991 136.0951 102.1012 137.83365 105.6387 139.57222 109.17622 142.36028 115.22401 144.09883 119.32222 145.83739 123.42043 150.364 135.17575 147.57674 127.93724"/>
<path transform="matrix(-.9965199,.08301498,.0830125,.9965497,9.826309,113.62723)" d="M4.676 0C4.10176 .14711 1.5776 .98082 0 1.88808V-1.88808C1.5776-.98082 4.10176-.14711 4.676 0Z" fill="#8014b3"/>
<path transform="matrix(-.9965199,.08301498,.0830125,.9965497,9.826309,113.62723)" stroke-width="1.49442" stroke-linecap="butt" stroke-miterlimit="10" stroke-linejoin="miter" fill="none" stroke="#8014b3" d="M4.676 0C4.10176 .14711 1.5776 .98082 0 1.88808V-1.88808C1.5776-.98082 4.10176-.14711 4.676 0Z"/>
<path transform="matrix(.3593408,-.93323597,-.933208,-.35935156,149.67768,9.027351)" d="M4.676 0C4.10176 .14711 1.5776 .98082 0 1.88808V-1.88808C1.5776-.98082 4.10176-.14711 4.676 0Z" fill="#8014b3"/>
<path transform="matrix(.3593408,-.93323597,-.933208,-.35935156,149.67768,9.027351)" stroke-width="1.49442" stroke-linecap="butt" stroke-miterlimit="10" stroke-linejoin="miter" fill="none" stroke="#8014b3" d="M4.676 0C4.10176 .14711 1.5776 .98082 0 1.88808V-1.88808C1.5776-.98082 4.10176-.14711 4.676 0Z"/>
<path transform="matrix(1.00003,0,0,-1.00006,2.0964967,136.97226)" stroke-width="1.49442" stroke-linecap="butt" stroke-miterlimit="10" stroke-linejoin="miter" fill="none" stroke="#e61ae6" d="M7.58994 40.30804C5.09306 39.7821 5.09306 39.7821 7.04918 40.21541 9.0053 40.64871 12.14227 41.36676 14.09839 41.8322 16.0545 42.29764 19.19147 43.06854 21.14758 43.57007 23.1037 44.0716 26.24068 44.90675 28.1968 45.44695 30.15291 45.98714 33.28987 46.88138 35.24599 47.46344 37.2021 48.04552 40.33908 49.01425 42.2952 49.64215 44.25131 50.27003 47.38829 51.31352 49.34439 51.98883 51.3005 52.66412 54.43748 53.78177 56.3936 54.50932 58.34972 55.23686 61.4867 56.44794 63.44281 57.23254 65.39893 58.01714 68.53589 59.31932 70.492 60.1643 72.44812 61.00928 75.5851 62.41241 77.54121 63.32257 79.49733 64.23273 82.6343 65.74414 84.59041 66.72415 86.54652 67.70416 89.6835 69.33028 91.63962 70.38582 93.59573 71.44138 96.73271 73.19608 98.68881 74.33192 100.64493 75.46777 103.78189 77.34845 105.738 78.5723 107.69412 79.79614 110.8311 81.8327 112.78722 83.15268 114.74332 84.47267 117.8803 86.66418 119.83641 88.08594 121.79253 89.50769 124.9295 91.8681 126.88562 93.39972 128.84174 94.93134 131.9787 97.4743 133.93482 99.1248 135.89093 100.77528 139.02791 103.51755 140.98403 105.29535 142.94014 107.07317 146.0771 110.0232 148.03322 111.93803 149.98934 113.85287 153.12631 117.03333 155.08243 119.09628 157.03855 121.15926 160.17552 124.58418 162.13164 126.80655 164.08774 129.02892 169.18083 135.11356 164.20215 129.16574"/>
<path transform="matrix(-.9785194,.20613235,.2061262,.97854867,9.686665,96.661808)" d="M4.676 0C4.10176 .14711 1.5776 .98082 0 1.88808V-1.88808C1.5776-.98082 4.10176-.14711 4.676 0Z" fill="#e61ae6"/>
<path transform="matrix(-.9785194,.20613235,.2061262,.97854867,9.686665,96.661808)" stroke-width="1.49442" stroke-linecap="butt" stroke-miterlimit="10" stroke-linejoin="miter" fill="none" stroke="#e61ae6" d="M4.676 0C4.10176 .14711 1.5776 .98082 0 1.88808V-1.88808C1.5776-.98082 4.10176-.14711 4.676 0Z"/>
<path transform="matrix(.64186927,-.766826,-.766803,-.6418885,166.30358,7.798767)" d="M4.676 0C4.10176 .14711 1.5776 .98082 0 1.88808V-1.88808C1.5776-.98082 4.10176-.14711 4.676 0Z" fill="#e61ae6"/>
<path transform="matrix(.64186927,-.766826,-.766803,-.6418885,166.30358,7.798767)" stroke-width="1.49442" stroke-linecap="butt" stroke-miterlimit="10" stroke-linejoin="miter" fill="none" stroke="#e61ae6" d="M4.676 0C4.10176 .14711 1.5776 .98082 0 1.88808V-1.88808C1.5776-.98082 4.10176-.14711 4.676 0Z"/>
<use data-text="A" xlink:href="#font_2_1" transform="matrix(9.962899,0,0,-9.963197,70.273548,14.870934)" fill="#1414cc"/>
<use data-text="B" xlink:href="#font_2_2" transform="matrix(9.962899,0,0,-9.963197,123.56615,14.870934)" fill="#008c0d"/>
<use data-text="C" xlink:href="#font_2_3" transform="matrix(9.962899,0,0,-9.963197,139.24262,14.870934)" fill="#8014b3"/>
<use data-text="D" xlink:href="#font_2_4" transform="matrix(9.962899,0,0,-9.963197,169.90253,14.870934)" fill="#e61ae6"/>
</g>
<use data-text="x" xlink:href="#font_3_1" transform="matrix(9.962899,0,0,-9.963197,200.07845,114.138889)"/>
<use data-text="y" xlink:href="#font_3_2" transform="matrix(9.962899,0,0,-9.963197,109.21972,9.578621)"/>
</svg>
