<svg xmlns="http://www.w3.org/2000/svg" xmlns:xlink="http://www.w3.org/1999/xlink" xmlns:inkscape="http://www.inkscape.org/namespaces/inkscape" version="1.1" width="211" height="139" viewBox="0 0 211 139">
<defs>
<clipPath id="clip_1">
<path transform="matrix(1.00006,0,0,-1,2.0959855,136.955)" d="M0 0H207.16648V135.15775H0Z"/>
</clipPath>
<path id="font_2_1" d="M.644989 .68193057C.6409912 .70692446 .6359863 .7109375 .61099246 .7109375 .58898928 .7109375 .58099368 .70692446 .5669861 .68592837L.17399597 .08502197C.1619873 .06600952 .1499939 .04798889 .07699585 .04699707 .06298828 .04699707 .04499817 .04699707 .04499817 .017990113 .04499817 .009994507 .051986696 0 .06399536 0 .09399414 0 .12799073 .0029907227 .15899658 .0029907227 .19599915 .0029907227 .23399353 0 .269989 0 .2769928 0 .29699708 0 .29699708 .0289917 .29699708 .04699707 .2789917 .04699707 .2709961 .04699707 .2630005 .04699707 .23498535 .04699707 .21299744 .057998659L.30499269 .19810486H.57499697L.59799197 .052001954C.57899478 .04798889 .5479889 .04699707 .5329895 .04699707 .5130005 .04699707 .49598695 .04699707 .49598695 .017990113 .49598695 .004989624 .5069885 0 .5179901 0 .5509949 0 .6339874 .0029907227 .6669922 .0029907227 .6899872 .0029907227 .71299746 .0019989014 .73599246 .0019989014 .7589874 .0019989014 .7829895 0 .80599978 0 .8149872 0 .83399966 0 .83399966 .0289917 .83399966 .04699707 .81900027 .04699707 .7939911 .04699707 .7799988 .04699707 .7689972 .04699707 .7549896 .04798889 .7429962 .04899597 .74198916 .049987794 .7389984 .06700134L.644989 .68193057M.5239868 .5329895 .56799319 .24511719H.33599855L.5239868 .5329895Z"/>
<path id="font_2_2" d="M.16299439 .066986087C.15899658 .050994874 .1579895 .049987794 .13999939 .04798889 .12298584 .04699707 .102996829 .04699707 .08699036 .04699707 .06098938 .04699707 .05899048 .04699707 .054992677 .04499817 .042999269 .037994386 .042999269 .021987915 .042999269 .017990113 .042999269 0 .06098938 0 .07699585 0H.5009918C.70999148 0 .80400088 .13195801 .80400088 .22091675 .80400088 .3068695 .72898867 .34985353 .6369934 .35786439 .7969971 .38684083 .85398867 .47973634 .85398867 .5466461 .85398867 .6285553 .7819977 .6855469 .6409912 .6855469H.23999024C.21998596 .6855469 .20298767 .6855469 .20298767 .6565399 .20298767 .63853457 .21598816 .63853457 .24499512 .63853457 .2659912 .63853457 .2849884 .6375427 .30599977 .63653567L.16299439 .066986087M.43099977 .6205597C.43499757 .6355438 .43598939 .63653567 .44198609 .6375427 .45098878 .63853457 .45799256 .63853457 .46899415 .63853457H.6179962C.6380005 .63853457 .71899417 .63853457 .71899417 .551651 .71899417 .48173524 .6629944 .37486268 .5269928 .37486268H.36898805L.43099977 .6205597M.31199647 .04699707C.29699708 .04699707 .29499818 .04699707 .28799439 .04798889L.3600006 .3388672H.5549927C.58099368 .3388672 .6649933 .3388672 .6649933 .23690796 .6649933 .15994263 .6139984 .04699707 .47200013 .04699707H.31199647Z"/>
<path id="font_2_3" d="M.85198977 .67311099C.8529968 .67811587 .8549957 .6831207 .8549957 .68911746 .8549957 .703125 .84098818 .703125 .8299866 .703125L.7369995 .63113406C.69099429 .68211367 .6230011 .703125 .55400088 .703125 .23199463 .703125 .054992677 .45820619 .054992677 .2532959 .054992677 .06437683 .20599365-.016601563 .3809967-.016601563 .46499635-.016601563 .5499878 .009384155 .6259918 .06536865 .72299197 .13734436 .7409973 .22930908 .7409973 .2342987 .7409973 .24829102 .72698977 .24829102 .71798709 .24829102 .69898989 .24829102 .69799807 .24629212 .69299319 .22930908 .6519928 .10235596 .5219879 .030395508 .4079895 .030395508 .34700013 .030395508 .29299928 .044387819 .2519989 .07637024 .19799805 .11735535 .19400025 .185318 .19400025 .21231079 .19400025 .24130249 .20999146 .42822267 .30899049 .5441742 .36299134 .60813906 .45999146 .6561127 .56999209 .6561127 .69200137 .6561127 .7429962 .5641632 .7429962 .4761963 .7429962 .46520997 .73999026 .4512024 .73999026 .4412079 .73999026 .42622376 .7529907 .42622376 .7669983 .42622376 .78900149 .42622376 .7899933 .42721559 .79499819 .44821168L.85198977 .67311099Z"/>
<path id="font_2_4" d="M.16299439 .066970828C.15899658 .050994874 .1579895 .049987794 .13999939 .04798889 .12298584 .04699707 .102996829 .04699707 .08699036 .04699707 .06098938 .04699707 .05899048 .04699707 .054992677 .04499817 .042999269 .037994386 .042999269 .021987915 .042999269 .017990113 .042999269 0 .06098938 0 .07699585 0H.46798707C.7549896 0 .9149933 .23583985 .9149933 .4386902 .9149933 .611557 .7879944 .6855469 .6389923 .6855469H.23999024C.21998596 .6855469 .20298767 .6855469 .20298767 .6565399 .20298767 .63853457 .21598816 .63853457 .24499512 .63853457 .2659912 .63853457 .2849884 .6375427 .30599977 .63653567L.16299439 .066970828M.43598939 .62054446C.43998719 .6355438 .44099427 .63653567 .44699098 .6375427 .45599366 .63853457 .46299745 .63853457 .47399903 .63853457H.58799746C.61698916 .63853457 .6839905 .6355438 .7319946 .5975647 .7819977 .555603 .7819977 .49664308 .7819977 .47366334 .7819977 .40371705 .7449951 .26582337 .71798709 .20986939 .6599884 .09295654 .55599978 .04699707 .44099427 .04699707H.31698609C.3019867 .04699707 .2999878 .04699707 .29299928 .04798889L.43598939 .62054446Z"/>
<path id="font_3_1" d="M.33399964 .30233766C.33999635 .32835389 .36299134 .42037965 .43299867 .42037965 .43798829 .42037965 .46199037 .42037965 .48298646 .40734864 .45498658 .402359 .43499757 .37734986 .43499757 .35334779 .43499757 .33735658 .44599916 .31835938 .47299195 .31835938 .49499513 .31835938 .5269928 .3363495 .5269928 .37635804 .5269928 .42837525 .46798707 .4423828 .43399049 .4423828 .37599183 .4423828 .34098817 .38935853 .32899476 .36634828 .3039856 .43237306 .25 .4423828 .22099304 .4423828 .116989139 .4423828 .05999756 .3133545 .05999756 .28834535 .05999756 .27833558 .069992069 .27833558 .07199097 .27833558 .07998657 .27833558 .08299255 .28033448 .084991458 .28933717 .11898804 .39535523 .18499756 .42037965 .21899414 .42037965 .23799134 .42037965 .272995 .4113617 .272995 .35334779 .272995 .32235719 .2559967 .25532533 .21899414 .11528015 .20298767 .053268434 .16799927 .011245728 .12399292 .011245728 .117996219 .011245728 .09498596 .011245728 .07398987 .024276734 .09899902 .029266358 .12098694 .05027771 .12098694 .07827759 .12098694 .105270389 .09899902 .11328125 .083999637 .11328125 .053985597 .11328125 .0289917 .08728027 .0289917 .055267335 .0289917 .009246826 .07899475-.0107421879 .12298584-.0107421879 .18899536-.0107421879 .22499085 .059280397 .22799683 .0652771 .23999024 .028274537 .27598573-.0107421879 .33599855-.0107421879 .43899537-.0107421879 .49598695 .118270877 .49598695 .14328003 .49598695 .1532898 .4869995 .1532898 .48399354 .1532898 .47499085 .1532898 .47299195 .14929199 .47099305 .14228821 .43798829 .03527832 .36999513 .011245728 .33799745 .011245728 .29899598 .011245728 .2829895 .043273927 .2829895 .07727051 .2829895 .09927368 .2889862 .121276859 .2999878 .16529846L.33399964 .30233766Z"/>
<path id="font_3_2" d="M.48599244 .38136292C.48999024 .39537049 .48999024 .39736939 .48999024 .40437318 .48999024 .42237855 .47599793 .43138124 .46099855 .43138124 .45098878 .43138124 .43499757 .42536927 .42599488 .41036988 .42399598 .405365 .41600038 .37435914 .4119873 .35635377 .40499879 .33035279 .397995 .30334474 .3919983 .27633668L.34700013 .09628296C.34298707 .08126831 .2999878 .011245728 .23399353 .011245728 .18299866 .011245728 .17199707 .055267335 .17199707 .0922699 .17199707 .1382904 .18899536 .20030213 .22299195 .28833009 .23899842 .3293457 .24299622 .3403473 .24299622 .36035157 .24299622 .405365 .21099854 .4423828 .16099549 .4423828 .06599426 .4423828 .0289917 .29733277 .0289917 .28833009 .0289917 .27833558 .038986207 .27833558 .040985109 .27833558 .050994874 .27833558 .051986696 .28033448 .056991579 .29634095 .083999637 .3903656 .12399292 .42037965 .1579895 .42037965 .1659851 .42037965 .18299866 .42037965 .18299866 .3883667 .18299866 .36335755 .17298889 .3373413 .1659851 .31834413 .12599182 .21231079 .10798645 .1552887 .10798645 .10827637 .10798645 .019256592 .17098999-.0107421879 .22999573-.0107421879 .2689972-.0107421879 .30299378 .0062561037 .33099366 .03425598 .31799317-.017745972 .30599977-.06674194 .2659912-.11973572 .23999024-.15385437 .20199585-.18309021 .1559906-.18309021 .14199829-.18309021 .09700012-.18005371 .07998657-.14074707 .09599304-.14074707 .10899353-.14074707 .12298584-.1287384 .1329956-.11973572 .14299011-.10673523 .14299011-.08773804 .14299011-.056747438 .115997318-.052734376 .10598755-.052734376 .08299255-.052734376 .049987794-.068740848 .049987794-.11773682 .049987794-.16796875 .09399414-.20507813 .1559906-.20507813 .25898744-.20507813 .3619995-.11373901 .3899994-.00074768069L.48599244 .38136292Z"/>
</defs>
<path transform="matrix(1.00006,0,0,-1,2.0959855,136.955)" stroke-width=".3985" stroke-linecap="butt" stroke-miterlimit="10" stroke-linejoin="miter" fill="none" stroke="#404040" d="M0 0H207.16648V135.15775H0Z"/>
<path transform="matrix(1.00006,0,0,-1,2.0959855,136.955)" stroke-width=".3985" stroke-linecap="butt" stroke-miterlimit="10" stroke-linejoin="miter" fill="none" stroke="#cccccc" d="M0 0V135.15775M29.5952 0V135.15775M59.19041 0V135.15775M88.78563 0V135.15775M118.38084 0V135.15775M147.97605 0V135.15775M177.57126 0V135.15775M207.16648 0V135.15775"/>
<path transform="matrix(1.00006,0,0,-1,2.0959855,136.955)" stroke-width=".3985" stroke-linecap="butt" stroke-miterlimit="10" stroke-linejoin="miter" fill="none" stroke="#cccccc" d=""/>
<path transform="matrix(1.00006,0,0,-1,2.0959855,136.955)" stroke-width=".3985" stroke-linecap="butt" stroke-miterlimit="10" stroke-linejoin="miter" fill="none" stroke="#cccccc" d="M0 0H207.16648M0 11.26314H207.16648M0 22.52629H207.16648M0 33.78943H207.16648M0 45.05258H207.16648M0 56.31572H207.16648M0 67.57887H207.16648M0 78.84201H207.16648M0 90.10516H207.16648M0 101.3683H207.16648M0 112.63145H207.16648M0 123.89459H207.16648M0 135.15775H207.16648"/>
<path transform="matrix(1.00006,0,0,-1,2.0959855,136.955)" stroke-width=".3985" stroke-linecap="butt" stroke-miterlimit="10" stroke-linejoin="miter" fill="none" stroke="#cccccc" d=""/>
<path transform="matrix(1.00006,0,0,-1,2.0959855,136.955)" stroke-width=".19925" stroke-linecap="butt" stroke-miterlimit="10" stroke-linejoin="miter" fill="none" stroke="#7f807f" d="M0 66.16139V68.99634M29.5952 66.16139V68.99634M59.19041 66.16139V68.99634M88.78563 66.16139V68.99634M118.38084 66.16139V68.99634M147.97605 66.16139V68.99634M177.57126 66.16139V68.99634M207.16648 66.16139V68.99634"/>
<path transform="matrix(1.00006,0,0,-1,2.0959855,136.955)" stroke-width=".19925" stroke-linecap="butt" stroke-miterlimit="10" stroke-linejoin="miter" fill="none" stroke="#7f807f" d=""/>
<path transform="matrix(1.00006,0,0,-1,2.0959855,136.955)" stroke-width=".19925" stroke-linecap="butt" stroke-miterlimit="10" stroke-linejoin="miter" fill="none" stroke="#7f807f" d="M28.17776 0H31.01263M28.17776 11.26314H31.01263M28.17776 22.52629H31.01263M28.17776 33.78943H31.01263M28.17776 45.05258H31.01263M28.17776 56.31572H31.01263M28.17776 67.57887H31.01263M28.17776 78.84201H31.01263M28.17776 90.10516H31.01263M28.17776 101.3683H31.01263M28.17776 112.63145H31.01263M28.17776 123.89459H31.01263M28.17776 135.15775H31.01263"/>
<path transform="matrix(1.00006,0,0,-1,2.0959855,136.955)" stroke-width=".19925" stroke-linecap="butt" stroke-miterlimit="10" stroke-linejoin="miter" fill="none" stroke="#7f807f" d=""/>
<path transform="matrix(1.00006,0,0,-1,2.0959855,136.955)" stroke-width=".3985" stroke-linecap="butt" stroke-miterlimit="10" stroke-linejoin="miter" fill="none" stroke="#000000" d="M0 67.57887H205.17395"/>
<path transform="matrix(1.00006,0,0,-1,207.28223,69.37613)" d="M1.99252 0-1.19551 1.59401 0 0-1.19551-1.59401"/>
<path transform="matrix(1.00006,0,0,-1,2.0959855,136.955)" stroke-width=".3985" stroke-linecap="butt" stroke-miterlimit="10" stroke-linejoin="miter" fill="none" stroke="#000000" d="M29.5952 0V133.16522"/>
<path transform="matrix(0,-1,-1.00006,-0,31.692959,3.7897797)" d="M1.99252 0-1.19551 1.59401 0 0-1.19551-1.59401"/>
<g clip-path="url(#clip_1)">
<path transform="matrix(1.00006,0,0,-1,2.0959855,136.955)" stroke-width="1.49442" stroke-linecap="butt" stroke-miterlimit="10" stroke-linejoin="miter" fill="none" stroke="#8014b3" d="M29.99408 7.95573 31.42984 39.06924 33.22304 46.0595 35.01625 50.17618 36.80943 53.10707 38.60265 55.38268 40.39584 57.2438 42.18906 58.81894 43.98225 60.18382 45.77547 61.38777 47.56865 62.46498 49.36186 63.4401 51.15506 64.3306 52.94827 65.14937 54.74149 65.90825 56.53467 66.61473 58.32788 67.27518 60.12108 67.89597 61.91429 68.48138 63.70749 69.0351 65.5007 69.56032 67.29388 70.05983 69.0871 70.53615 70.8803 70.99156 72.67351 71.42697 74.4667 71.84508 76.25992 72.24725 78.0531 72.63359 79.84631 73.00554 81.63951 73.3649 83.43272 73.71295 85.22592 74.0484 87.01912 74.37279 88.81232 74.68979 90.60553 74.9954 92.39873 75.29242 94.19194 75.58113 95.98514 75.86174 97.77834 76.13506 99.57153 76.40132 101.36475 76.66058 103.15794 76.91383 104.95116 77.16063 106.74435 77.40146 108.53755 77.63722 110.33075 77.8674 112.12396 78.0929 113.91716 78.3132 115.71037 78.52832 117.50356 78.74007 119.29677 78.94698 121.08997 79.14949 122.88318 79.34895 124.67638 79.5437 126.46959 79.73573 128.26277 79.9235 130.05599 80.10776 131.84918 80.28955 133.6424 80.4675 135.4356 80.64207 137.2288 80.8152 139.02199 80.98392 140.8152 81.15118 142.6084 81.31473 144.40161 81.47566 146.19481 81.63515 147.988 81.79251 149.78122 81.94647 151.57442 82.09842 153.36763 82.2481 155.16083 82.39531 156.95404 82.54059 158.74723 82.68398 160.54044 82.82556 162.33364 82.96477 164.12685 83.10252 165.92005 83.23802 167.71326 83.3725 169.50644 83.50484 171.29965 83.63525 173.09285 83.764 174.88607 83.89128 176.67926 84.01709 178.47246 84.14154 180.26566 84.26408 182.05887 84.3856 183.85207 84.50534 185.64528 84.62383 187.43848 84.74095 189.23168 84.85721 191.02487 84.97107 192.81809 85.08415 194.61128 85.19644 196.4045 85.30705 198.1977 85.41653 199.99089 85.525 201.78409 85.63222 203.5773 85.73888 205.3705 85.84396 199.42015 85.50078"/>
<path transform="matrix(-.046082766,.99889,.9989499,.04608,32.091867,128.99927)" d="M4.676 0C4.10176 .14711 1.5776 .98082 0 1.88808V-1.88808C1.5776-.98082 4.10176-.14711 4.676 0Z" fill="#8014b3"/>
<path transform="matrix(-.046082766,.99889,.9989499,.04608,32.091867,128.99927)" stroke-width="1.49442" stroke-linecap="butt" stroke-miterlimit="10" stroke-linejoin="miter" fill="none" stroke="#8014b3" d="M4.676 0C4.10176 .14711 1.5776 .98082 0 1.88808V-1.88808C1.5776-.98082 4.10176-.14711 4.676 0Z"/>
<path transform="matrix(.99834987,-.0576,-.057603454,-.99829,201.5281,51.454225)" d="M4.676 0C4.10176 .14711 1.5776 .98082 0 1.88808V-1.88808C1.5776-.98082 4.10176-.14711 4.676 0Z" fill="#8014b3"/>
<path transform="matrix(.99834987,-.0576,-.057603454,-.99829,201.5281,51.454225)" stroke-width="1.49442" stroke-linecap="butt" stroke-miterlimit="10" stroke-linejoin="miter" fill="none" stroke="#8014b3" d="M4.676 0C4.10176 .14711 1.5776 .98082 0 1.88808V-1.88808C1.5776-.98082 4.10176-.14711 4.676 0Z"/>
<path transform="matrix(1.00006,0,0,-1,2.0959855,136.955)" stroke-width="1.49442" stroke-linecap="butt" stroke-miterlimit="10" stroke-linejoin="miter" fill="none" stroke="#008c0d" d="M31.56668 8.0002 32.61925 19.15297 34.40027 28.98343 36.1813 35.676 37.96236 40.75792 39.7434 44.85547 41.52444 48.28824 43.30547 51.24257 45.0865 53.83557 46.86755 56.14508 48.64859 58.2292 50.42964 60.12411 52.21066 61.86586 53.9917 63.47716 55.77275 64.9728 57.55379 66.37045 59.33484 67.68246 61.11586 68.91634 62.8969 70.08344 64.67793 71.18982 66.45898 72.2418 68.24002 73.24243 70.02106 74.19899 71.80208 75.11378 73.58313 75.99153 75.36417 76.83435 77.1452 77.64384 78.92624 78.42538 80.70726 79.17754 82.48831 79.90503 84.26935 80.60603 86.05038 81.28711 87.83142 81.94737 89.61246 82.5886 91.3935 83.20918 93.17453 83.81187 94.95557 84.39879 96.73662 84.96938 98.51764 85.52567 100.29868 86.06743 102.07971 86.59544 103.86076 87.1105 105.6418 87.61386 107.42282 88.10516 109.20386 88.58575 110.9849 89.0543 112.76595 89.51384 114.54698 89.96436 116.328 90.40588 118.10904 90.83725 119.89009 91.2585 121.67113 91.6741 123.45216 92.0807 125.23318 92.47942 127.01424 92.87138 128.79528 93.25545 130.57631 93.63277 132.35735 94.00446 134.13837 94.36826 135.91942 94.7298 137.70046 95.08008 139.48149 95.42587 141.26253 95.76714 143.04357 96.10503 144.8246 96.43054 146.60564 96.75717 148.38668 97.08267 150.16773 97.39915 151.94875 97.71002 153.72978 98.01752 155.51082 98.31824 157.29186 98.61671 159.0729 98.91068 160.85393 99.20126 162.63497 99.48735 164.416 99.77007 166.19705 100.04825 167.97809 100.3242 169.75911 100.59564 171.54015 100.86371 173.3212 101.12839 175.10224 101.3897 176.88327 101.64876 178.66429 101.90329 180.44533 102.15558 182.22638 102.4045 184.00742 102.65117 185.78845 102.89444 187.56949 103.13324 189.35053 103.37314 191.13156 103.60855 192.9126 103.84056 194.69364 104.07031 196.47469 104.29897 198.2557 104.52423 200.03675 104.74725 201.81778 104.96687 203.59882 105.18651 205.37987 105.40276 199.45853 104.69958"/>
<path transform="matrix(-.09392563,.99551,.99556967,.09392,33.66456,128.95479)" d="M4.676 0C4.10176 .14711 1.5776 .98082 0 1.88808V-1.88808C1.5776-.98082 4.10176-.14711 4.676 0Z" fill="#008c0d"/>
<path transform="matrix(-.09392563,.99551,.99556967,.09392,33.66456,128.95479)" stroke-width="1.49442" stroke-linecap="butt" stroke-miterlimit="10" stroke-linejoin="miter" fill="none" stroke="#008c0d" d="M4.676 0C4.10176 .14711 1.5776 .98082 0 1.88808V-1.88808C1.5776-.98082 4.10176-.14711 4.676 0Z"/>
<path transform="matrix(.99303957,-.11795,-.11795707,-.99298,201.56647,32.255426)" d="M4.676 0C4.10176 .14711 1.5776 .98082 0 1.88808V-1.88808C1.5776-.98082 4.10176-.14711 4.676 0Z" fill="#008c0d"/>
<path transform="matrix(.99303957,-.11795,-.11795707,-.99298,201.56647,32.255426)" stroke-width="1.49442" stroke-linecap="butt" stroke-miterlimit="10" stroke-linejoin="miter" fill="none" stroke="#008c0d" d="M4.676 0C4.10176 .14711 1.5776 .98082 0 1.88808V-1.88808C1.5776-.98082 4.10176-.14711 4.676 0Z"/>
<path transform="matrix(1.00006,0,0,-1,2.0959855,136.955)" stroke-width="1.49442" stroke-linecap="butt" stroke-miterlimit="10" stroke-linejoin="miter" fill="none" stroke="#e61ae6" d="M30.61328 127.03389 31.85754 109.36063 33.64636 99.89284 35.43518 93.95264 37.22401 89.60844 39.01285 86.18445 40.80167 83.36023 42.59048 80.95284 44.3793 78.85666 46.16812 77.00082 47.95695 75.33635 49.74577 73.82654 51.53459 72.44409 53.32343 71.1691 55.11224 69.98816 56.90108 68.88722 58.6899 67.85655 60.47871 66.88681 62.26753 65.97215 64.05635 65.1058 65.84518 64.2836 67.634 63.50047 69.42282 62.75418 71.21165 62.04044 73.00047 61.35765 74.78929 60.70056 76.57813 60.07018 78.36694 59.46353 80.15575 58.87718 81.94458 58.31346 83.7334 57.76797 85.52222 57.23839 87.31105 56.7284 89.09987 56.23012 90.8887 55.74907 92.67752 55.28163 94.46634 54.82774 96.25516 54.38521 98.04398 53.95462 99.8328 53.53586 101.62163 53.12666 103.41045 52.72841 105.19926 52.33904 106.9881 51.95935 108.77692 51.58835 110.56573 51.2259 112.35457 50.86998 114.14337 50.52196 115.9322 50.18292 117.72102 49.84955 119.50984 49.52292 121.29868 49.20303 123.0875 48.8888 124.87631 48.5813 126.66515 48.27834 128.45397 47.98325 130.24279 47.69264 132.0316 47.40544 133.82042 47.12386 135.60926 46.84679 137.39807 46.57535 139.18689 46.30954 140.97573 46.04597 142.76454 45.78693 144.55336 45.53014 146.3422 45.28122 148.131 45.0323 149.91982 44.78787 151.70865 44.5491 153.49747 44.31258 155.28629 44.08057 157.07512 43.84966 158.86394 43.62328 160.65277 43.4014 162.44159 43.1795 164.23041 42.96326 166.01923 42.74812 167.80805 42.53638 169.59687 42.32689 171.3857 42.12077 173.17452 41.91803 174.96334 41.7153 176.75217 41.51819 178.54099 41.3222 180.32982 41.12737 182.11862 40.93475 183.90744 40.74553 185.69628 40.55856 187.48509 40.37274 189.27391 40.19139 191.06275 40.01007 192.85157 39.83209 194.64038 39.65526 196.42922 39.47955 198.21804 39.3061 200.00684 39.13379 201.79567 38.96371 203.58449 38.79703 205.37332 38.63031 199.43776 39.17136"/>
<path transform="matrix(-.07020421,-.99751,-.9975698,.0702,32.71112,9.921135)" d="M4.676 0C4.10176 .14711 1.5776 .98082 0 1.88808V-1.88808C1.5776-.98082 4.10176-.14711 4.676 0Z" fill="#e61ae6"/>
<path transform="matrix(-.07020421,-.99751,-.9975698,.0702,32.71112,9.921135)" stroke-width="1.49442" stroke-linecap="butt" stroke-miterlimit="10" stroke-linejoin="miter" fill="none" stroke="#e61ae6" d="M4.676 0C4.10176 .14711 1.5776 .98082 0 1.88808V-1.88808C1.5776-.98082 4.10176-.14711 4.676 0Z"/>
<path transform="matrix(.9958797,.0908,.09080545,-.99582,201.54569,97.783649)" d="M4.676 0C4.10176 .14711 1.5776 .98082 0 1.88808V-1.88808C1.5776-.98082 4.10176-.14711 4.676 0Z" fill="#e61ae6"/>
<path transform="matrix(.9958797,.0908,.09080545,-.99582,201.54569,97.783649)" stroke-width="1.49442" stroke-linecap="butt" stroke-miterlimit="10" stroke-linejoin="miter" fill="none" stroke="#e61ae6" d="M4.676 0C4.10176 .14711 1.5776 .98082 0 1.88808V-1.88808C1.5776-.98082 4.10176-.14711 4.676 0Z"/>
<path transform="matrix(1.00006,0,0,-1,2.0959855,136.955)" stroke-width="1.49442" stroke-linecap="butt" stroke-miterlimit="10" stroke-linejoin="miter" fill="none" stroke="#1414cc" d="M37.03651 8.23785 37.17635 9.1096 38.54248 16.22118 39.90862 22.3224 41.27477 27.6572 42.64091 32.4115 44.00706 36.68665 45.3732 40.57399 46.73933 44.1389 48.10548 47.42953 49.47163 50.48615 50.83778 53.33717 52.20392 56.01048 53.57007 58.53568 54.93622 60.91559 56.30235 63.16989 57.6685 65.31172 59.03464 67.35005 60.4008 69.29823 61.76694 71.16138 63.13307 72.94733 64.49922 74.66226 65.86536 76.3096 67.2315 77.89624 68.59764 79.42725 69.96379 80.90485 71.32993 82.33267 72.69606 83.71501 74.06221 85.05655 75.42834 86.35475 76.7945 87.61656 78.16063 88.84097 79.52676 90.0306 80.89291 91.18866 82.25905 92.3153 83.6252 93.41426 84.99133 94.48404 86.35748 95.52892 87.72362 96.55037 89.08975 97.55516 90.4559 98.52931 91.82204 99.48251 93.18819 100.41443 94.55432 101.32751 95.92046 102.22057 97.2866 103.09584 98.65274 103.95308 100.01889 104.795 101.38503 105.62013 102.75117 106.42804 104.11731 107.2231 105.48344 108.00273 106.8496 108.76785 108.21573 109.52158 109.58188 110.26213 110.94801 110.98701 112.31415 111.70222 113.6803 112.40619 115.04643 113.09662 116.41258 113.7769 117.77872 114.44707 119.14487 115.10934 120.511 115.75809 121.87714 116.39783 123.2433 117.02858 124.60944 117.65031 125.97559 118.26302 127.34172 118.86897 128.70786 119.46365 130.074 120.04822 131.44014 120.62941 132.80629 121.19931 134.17243 121.76697 135.53856 122.32225 136.90471 122.86964 138.27085 123.41478 139.637 123.94978 141.00313 124.48251 142.36928 125.00851 143.73542 125.52213 145.10155 126.03459 146.4677 126.53806 147.83383 127.03813 149.19998 127.53258 150.56612 128.02141 151.93225 128.50235 153.2984 128.9799 154.66454 129.45069 156.03069 129.91699 157.39682 130.37879 158.76297 130.83382 160.1291 131.28772 161.49524 131.73487 162.86139 132.17638 164.22753 132.61339 165.59368 133.04814 166.95981 133.47615 168.32595 133.90189 169.6921 134.322 163.63909 132.47595"/>
<path transform="matrix(-.15810947,.98738,.9874392,.1581,39.134737,128.71715)" d="M4.676 0C4.10176 .14711 1.5776 .98082 0 1.88808V-1.88808C1.5776-.98082 4.10176-.14711 4.676 0Z" fill="#1414cc"/>
<path transform="matrix(-.15810947,.98738,.9874392,.1581,39.134737,128.71715)" stroke-width="1.49442" stroke-linecap="butt" stroke-miterlimit="10" stroke-linejoin="miter" fill="none" stroke="#1414cc" d="M4.676 0C4.10176 .14711 1.5776 .98082 0 1.88808V-1.88808C1.5776-.98082 4.10176-.14711 4.676 0Z"/>
<path transform="matrix(.95652738,-.29172,-.2917375,-.95647,165.74488,4.4790499)" d="M4.676 0C4.10176 .14711 1.5776 .98082 0 1.88808V-1.88808C1.5776-.98082 4.10176-.14711 4.676 0Z" fill="#1414cc"/>
<path transform="matrix(.95652738,-.29172,-.2917375,-.95647,165.74488,4.4790499)" stroke-width="1.49442" stroke-linecap="butt" stroke-miterlimit="10" stroke-linejoin="miter" fill="none" stroke="#1414cc" d="M4.676 0C4.10176 .14711 1.5776 .98082 0 1.88808V-1.88808C1.5776-.98082 4.10176-.14711 4.676 0Z"/>
<use data-text="A" xlink:href="#font_2_1" transform="matrix(9.963197,0,0,-9.9626,175.34638,10.847)" fill="#1414cc"/>
<use data-text="B" xlink:href="#font_2_2" transform="matrix(9.963197,0,0,-9.9626,189.91925,30.557)" fill="#008c0d"/>
<use data-text="C" xlink:href="#font_2_3" transform="matrix(9.963197,0,0,-9.9626,190.05927,61.531)" fill="#8014b3"/>
<use data-text="D" xlink:href="#font_2_4" transform="matrix(9.963197,0,0,-9.9626,189.64423,106.583)" fill="#e61ae6"/>
</g>
<use data-text="x" xlink:href="#font_3_1" transform="matrix(9.963197,0,0,-9.9626,200.09986,65.843)"/>
<use data-text="y" xlink:href="#font_3_2" transform="matrix(9.963197,0,0,-9.9626,35.21897,9.587006)"/>
</svg>
