<svg xmlns="http://www.w3.org/2000/svg" xmlns:xlink="http://www.w3.org/1999/xlink" xmlns:inkscape="http://www.inkscape.org/namespaces/inkscape" version="1.1" width="228" height="191" viewBox="0 0 228 191">
<defs>
<path id="font_1_1" d="M.6589966 .23046875C.6759949 .23046875 .69400027 .23046875 .69400027 .25045777 .69400027 .27046205 .6759949 .27046205 .6589966 .27046205H.117996219C.100997928 .27046205 .08299255 .27046205 .08299255 .25045777 .08299255 .23046875 .100997928 .23046875 .117996219 .23046875H.6589966Z"/>
<path id="font_2_3" d="M.13198853 .327713V.35173036C.13198853 .6047821 .2559967 .64100649 .30699159 .64100649 .33099366 .64100649 .37298585 .634964 .394989 .6007538 .37998963 .6007538 .33999635 .6007538 .33999635 .5557556 .33999635 .524765 .3639984 .5097656 .38598634 .5097656 .4019928 .5097656 .43199159 .51875308 .43199159 .5577545 .43199159 .6178589 .3880005 .6660156 .30499269 .6660156 .1769867 .6660156 .041992189 .5367584 .041992189 .31570436 .041992189 .048553468 .1579895-.022460938 .25099183-.022460938 .3619995-.022460938 .45700074 .07156372 .45700074 .2036438 .45700074 .33070375 .36799623 .4267578 .25698854 .4267578 .18899536 .4267578 .1519928 .37573243 .13198853 .327713M.25099183 .0055389406C.18798828 .0055389406 .1579895 .06556702 .1519928 .080566409 .13398743 .127594 .13398743 .2076416 .13398743 .22564698 .13398743 .30369569 .1659851 .40374757 .2559967 .40374757 .27198792 .40374757 .31799317 .40374757 .34899903 .34172059 .36698915 .30470277 .36698915 .2536621 .36698915 .20463562 .36698915 .15661621 .36698915 .10658264 .34999085 .0705719 .31999208 .010528564 .27398683 .0055389406 .25099183 .0055389406Z"/>
<path id="font_2_2" d="M.2939911 .16503906V.07800293C.2939911 .041992189 .2919922 .0309906 .21798706 .0309906H.19699097V0C.23799134 .0029907227 .2899933 .0029907227 .33198548 .0029907227 .37399293 .0029907227 .4269867 .0029907227 .46798707 0V.0309906H.44699098C.37298585 .0309906 .37098695 .041992189 .37098695 .07800293V.16503906H.47099305V.19602967H.37098695V.65075686C.37098695 .67074587 .37098695 .6767578 .35499574 .6767578 .34599305 .6767578 .34298707 .6767578 .33499146 .66474917L.027999878 .19602967V.16503906H.2939911M.2999878 .19602967H.055999757L.2999878 .5688019V.19602967Z"/>
<path id="font_2_1" d="M.1269989 .07699585 .23298645 .18003845C.3889923 .31811524 .44898988 .3721466 .44898988 .47216798 .44898988 .5860901 .35899354 .6660156 .23699951 .6660156 .12399292 .6660156 .049987794 .57411196 .049987794 .48516847 .049987794 .4291687 .099990848 .4291687 .102996829 .4291687 .11999512 .4291687 .15499878 .44117738 .15499878 .48217774 .15499878 .5081787 .13699341 .5341797 .101989749 .5341797 .09399414 .5341797 .09199524 .5341797 .08898926 .5331726 .11199951 .59806826 .1659851 .63500979 .22399903 .63500979 .31498719 .63500979 .35798646 .5541382 .35798646 .47216798 .35798646 .39215089 .30799867 .31311036 .25299073 .25108338L.06098938 .036987306C.049987794 .025985718 .049987794 .023986817 .049987794 0H.42099L.44898988 .17404175H.42399598C.4189911 .14402771 .4119873 .1000061 .4019928 .084991458 .394989 .07699585 .32899476 .07699585 .30699159 .07699585H.1269989Z"/>
<clipPath id="clip_3">
<path transform="matrix(1.00005,0,0,-1,2.0961457,188.96302)" d="M0 0H224.1623V187.16675H0Z"/>
</clipPath>
<path id="font_4_72" d="M.33399964 0V.04399109H.31599427C.25099183 .04399109 .25099183 .052993776 .25099183 .08401489V.69433596L.08299255 .6826172V.63861086C.15699768 .63861086 .1659851 .6316223 .1659851 .5826416V.083969119C.1659851 .052993776 .1659851 .04399109 .100997928 .04399109H.08299255V0C.125 .0029907227 .1659851 .0039978029 .20799256 .0039978029 .25 .0039978029 .2919922 .0029907227 .33399964 0Z"/>
<path id="font_4_81" d="M.61499026 .21324158C.61499026 .33824159 .49699403 .4482422 .33999635 .4482422 .18299866 .4482422 .06498718 .33824159 .06498718 .21324158 .06498718 .09324646 .18399048-.0107421879 .33999635-.0107421879 .49699403-.0107421879 .61499026 .09324646 .61499026 .21324158M.5149994 .22323609C.5149994 .17424011 .5149994 .025253296 .33999635 .025253296 .16499329 .025253296 .16499329 .17424011 .16499329 .22323609 .16499329 .26823426 .16499329 .41523744 .33999635 .41523744 .5149994 .41523744 .5149994 .26823426 .5149994 .22323609Z"/>
<path id="font_4_43" d="M.5469971 .12023926C.5469971 .13424683 .5319977 .13424683 .526001 .13424683 .5099945 .13424683 .5089874 .13124085 .5039978 .11924744 .46998597 .036254884 .39698792 .025253296 .35299684 .025253296 .2669983 .025253296 .17199707 .08325195 .17199707 .21723938 .17199707 .26124574 .18099976 .3162384 .21798706 .3582306 .2659912 .41223146 .32499696 .41223146 .35598756 .41223146 .38598634 .41223146 .4139862 .41223146 .44898988 .40322877 .43499757 .39323426 .4269867 .37722779 .4269867 .35923768 .4269867 .3262329 .45199586 .3062439 .47999574 .3062439 .5039978 .3062439 .5329895 .3222351 .5329895 .3602295 .5329895 .4452362 .42199708 .4482422 .35198976 .4482422 .1559906 .4482422 .07199097 .3162384 .07199097 .21624756 .07199097 .09225464 .18899536-.0107421879 .33999635-.0107421879 .5130005-.0107421879 .5469971 .11125183 .5469971 .12023926Z"/>
<path id="font_4_28" d="M.6349945 .090148929V.14515686H.59298709V.09214783C.59298709 .08213806 .59298709 .038131715 .5529938 .038131715 .5130005 .038131715 .5130005 .08213806 .5130005 .09214783V.2972107C.5130005 .39323426 .4119873 .4482422 .28799439 .4482422 .22698975 .4482422 .11099243 .4452362 .11099243 .36021424 .11099243 .32321168 .13899231 .30619813 .1639862 .30619813 .19099427 .30619813 .21699524 .32521058 .21699524 .3592224 .21699524 .3832245 .20298767 .39822389 .19400025 .40423585 .22698975 .41523744 .2749939 .41523744 .28599549 .41523744 .37098695 .41523744 .42399598 .3682251 .42399598 .2962036V.27020265C.32699586 .26519776 .272995 .26219178 .19599915 .23518372 .12998963 .21217346 .07199097 .17016602 .07199097 .105148319 .07199097 .011245728 .18798828-.0107421879 .2679901-.0107421879 .34498597-.0107421879 .40499879 .020248414 .43598939 .071243289 .43998719 .036132814 .46299745-.005859375 .5139923-.005859375 .5209961-.005859375 .6349945-.005859375 .6349945 .09013367V.090148929M.42399598 .14213562C.42399598 .03224182 .3039856 .022247315 .2789917 .022247315 .21998596 .022247315 .1639862 .053253175 .1639862 .10523987 .1639862 .13824463 .18499756 .23022461 .42399598 .24023438V.14213562Z"/>
<path id="font_4_75" d="M1.0309906 0V.04399109H1.0130005C.94799807 .04399109 .94799807 .052978517 .94799807 .08395386V.3017578C.94799807 .42536927 .85398867 .4423828 .7789917 .4423828 .68099978 .4423828 .6239929 .39328004 .59599307 .34902955 .57099917 .44137574 .46899415 .4423828 .43199159 .4423828 .32899476 .4423828 .2709961 .3872528 .24598694 .34399415V.4423828L.08198547 .43066407V.3866577C.1559906 .3866577 .16499329 .3796692 .16499329 .330719V.08395386C.16499329 .052978517 .16499329 .04399109 .099990848 .04399109H.08198547V0C.125 .0029907227 .16699219 .0039978029 .20999146 .0039978029 .2519989 .0039978029 .29499818 .0029907227 .33699037 0V.04399109H.31900025C.2539978 .04399109 .2539978 .052978517 .2539978 .08395386V.25775147C.2539978 .36914063 .35598756 .40937806 .42099 .40937806 .49398805 .40937806 .5119934 .36813355 .5119934 .30274964V.08395386C.5119934 .052978517 .5119934 .04399109 .44699098 .04399109H.42900086V0C.47200013 .0029907227 .5139923 .0039978029 .5569916 .0039978029 .598999 .0039978029 .6419983 .0029907227 .6839905 0V.04399109H.66600039C.6009979 .04399109 .6009979 .052978517 .6009979 .08395386V.25775147C.6009979 .36914063 .7029877 .40937806 .7679901 .40937806 .84098818 .40937806 .85899356 .36813355 .85899356 .30274964V.08395386C.85899356 .052978517 .85899356 .04399109 .7939911 .04399109H.776001V0C.81900027 .0029907227 .86099246 .0039978029 .9039917 .0039978029 .94599917 .0039978029 .9889984 .0029907227 1.0309906 0Z"/>
<path id="font_4_66" d="M.32598878 0V.04399109C.25898744 .04399109 .25099183 .04399109 .25099183 .08403015V.4423828L.08699036 .43066407V.3866577C.1579895 .3866577 .1659851 .3796692 .1659851 .33070375V.08395386C.1659851 .052978517 .1659851 .04399109 .100997928 .04399109H.08299255V0C.12399292 .0029907227 .1659851 .0039978029 .20698548 .0039978029 .24499512 .0039978029 .2889862 .0029907227 .32598878 0M.2619934 .6000519C.2619934 .63404849 .23498535 .6610565 .20098877 .6610565 .16799927 .6610565 .13999939 .63404849 .13999939 .6000519 .13999939 .5660553 .16699219 .5390625 .20098877 .5390625 .23399353 .5390625 .2619934 .5660553 .2619934 .6000519Z"/>
<path id="font_4_77" d="M.68299868 0V.04399109H.6649933C.59999087 .04399109 .59999087 .052978517 .59999087 .08395386V.3017578C.59999087 .41236878 .5249939 .4423828 .43199159 .4423828 .32499696 .4423828 .2689972 .3832245 .24598694 .34399415V.4423828L.08198547 .43066407V.3866577C.1559906 .3866577 .16499329 .3796692 .16499329 .330719V.08395386C.16499329 .052978517 .16499329 .04399109 .099990848 .04399109H.08198547V0C.125 .0029907227 .16699219 .0039978029 .20999146 .0039978029 .2519989 .0039978029 .29499818 .0029907227 .33699037 0V.04399109H.31900025C.2539978 .04399109 .2539978 .052978517 .2539978 .08395386V.25775147C.2539978 .3713379 .35798646 .40937806 .41999818 .40937806 .49398805 .40937806 .5109863 .36732484 .5109863 .30326844V.08403015C.5109863 .053009035 .5109863 .04399109 .44599916 .04399109H.42799378V0C.47099305 .0029907227 .5130005 .0039978029 .55599978 .0039978029 .59799197 .0039978029 .6409912 .0029907227 .68299868 0Z"/>
<path id="font_4_116" d="M.6629944 0V.04399109H.6439972C.58898928 .04399109 .5779877 .051986696 .56599429 .0599823 .55599978 .066970828 .43998719 .18685913 .394989 .23280335 .5179901 .35968019 .5439911 .38565064 .6409912 .3866577V.43066407C.6119995 .4286499 .58399966 .426651 .54499819 .426651 .5099945 .426651 .46899415 .42765809 .43399049 .43066407V.3866577C.45199586 .3846588 .45298768 .36767579 .45298768 .36767579 .45298768 .34968568 .44299317 .33970643 .4149933 .31173707L.36499024 .2637787C.31900025 .30773927 .2669983 .35868836 .2669983 .3686676 .2669983 .38565064 .2889862 .3866577 .29299928 .3866577V.43066407C.2519989 .42765809 .17399597 .426651 .16899109 .426651 .1289978 .426651 .099990848 .426651 .057998659 .43066407V.3866577H.07699585C.13999939 .3866577 .14099121 .3846588 .19499207 .33070375L.31298829 .21182251C.30599977 .20584107 .21899414 .11791992 .20399475 .10493469 .17599488 .07896423 .13899231 .04499817 .051986696 .04399109V0C.08099365 .0019989014 .10899353 .0039978029 .147995 .0039978029 .18299866 .0039978029 .22399903 .0029907227 .25898744 0V.04399109C.24398804 .04598999 .24099732 .05697632 .24099732 .06297302 .24099732 .079956058 .25498963 .094940189 .25898744 .09893799L.34199525 .18086243C.3769989 .14689636 .41999818 .10493469 .44499208 .07696533 .45298768 .066970828 .45399476 .066970828 .45399476 .0619812 .45399476 .04499817 .43199159 .04399109 .42799378 .04399109V0C.46899415 .0029907227 .5469971 .0039978029 .5519867 .0039978029 .59199526 .0039978029 .62098696 .0039978029 .6629944 0Z"/>
<path id="font_5_1" d="M.33399964 .30233766C.33999635 .32835389 .36299134 .42037965 .43299867 .42037965 .43798829 .42037965 .46199037 .42037965 .48298646 .40734864 .45498658 .402359 .43499757 .37734986 .43499757 .35334779 .43499757 .33735658 .44599916 .31835938 .47299195 .31835938 .49499513 .31835938 .5269928 .3363495 .5269928 .37635804 .5269928 .42837525 .46798707 .4423828 .43399049 .4423828 .37599183 .4423828 .34098817 .38935853 .32899476 .36634828 .3039856 .43237306 .25 .4423828 .22099304 .4423828 .116989139 .4423828 .05999756 .3133545 .05999756 .28834535 .05999756 .27833558 .069992069 .27833558 .07199097 .27833558 .07998657 .27833558 .08299255 .28033448 .084991458 .28933717 .11898804 .39535523 .18499756 .42037965 .21899414 .42037965 .23799134 .42037965 .272995 .4113617 .272995 .35334779 .272995 .32235719 .2559967 .25532533 .21899414 .11528015 .20298767 .053268434 .16799927 .011245728 .12399292 .011245728 .117996219 .011245728 .09498596 .011245728 .07398987 .024276734 .09899902 .029266358 .12098694 .05027771 .12098694 .07827759 .12098694 .105270389 .09899902 .11328125 .083999637 .11328125 .053985597 .11328125 .0289917 .08728027 .0289917 .055267335 .0289917 .009246826 .07899475-.0107421879 .12298584-.0107421879 .18899536-.0107421879 .22499085 .059280397 .22799683 .0652771 .23999024 .028274537 .27598573-.0107421879 .33599855-.0107421879 .43899537-.0107421879 .49598695 .118270877 .49598695 .14328003 .49598695 .1532898 .4869995 .1532898 .48399354 .1532898 .47499085 .1532898 .47299195 .14929199 .47099305 .14228821 .43798829 .03527832 .36999513 .011245728 .33799745 .011245728 .29899598 .011245728 .2829895 .043273927 .2829895 .07727051 .2829895 .09927368 .2889862 .121276859 .2999878 .16529846L.33399964 .30233766Z"/>
<path id="font_5_2" d="M.48599244 .38136292C.48999024 .39537049 .48999024 .39736939 .48999024 .40437318 .48999024 .42237855 .47599793 .43138124 .46099855 .43138124 .45098878 .43138124 .43499757 .42536927 .42599488 .41036988 .42399598 .405365 .41600038 .37435914 .4119873 .35635377 .40499879 .33035279 .397995 .30334474 .3919983 .27633668L.34700013 .09628296C.34298707 .08126831 .2999878 .011245728 .23399353 .011245728 .18299866 .011245728 .17199707 .055267335 .17199707 .0922699 .17199707 .1382904 .18899536 .20030213 .22299195 .28833009 .23899842 .3293457 .24299622 .3403473 .24299622 .36035157 .24299622 .405365 .21099854 .4423828 .16099549 .4423828 .06599426 .4423828 .0289917 .29733277 .0289917 .28833009 .0289917 .27833558 .038986207 .27833558 .040985109 .27833558 .050994874 .27833558 .051986696 .28033448 .056991579 .29634095 .083999637 .3903656 .12399292 .42037965 .1579895 .42037965 .1659851 .42037965 .18299866 .42037965 .18299866 .3883667 .18299866 .36335755 .17298889 .3373413 .1659851 .31834413 .12599182 .21231079 .10798645 .1552887 .10798645 .10827637 .10798645 .019256592 .17098999-.0107421879 .22999573-.0107421879 .2689972-.0107421879 .30299378 .0062561037 .33099366 .03425598 .31799317-.017745972 .30599977-.06674194 .2659912-.11973572 .23999024-.15385437 .20199585-.18309021 .1559906-.18309021 .14199829-.18309021 .09700012-.18005371 .07998657-.14074707 .09599304-.14074707 .10899353-.14074707 .12298584-.1287384 .1329956-.11973572 .14299011-.10673523 .14299011-.08773804 .14299011-.056747438 .115997318-.052734376 .10598755-.052734376 .08299255-.052734376 .049987794-.068740848 .049987794-.11773682 .049987794-.16796875 .09399414-.20507813 .1559906-.20507813 .25898744-.20507813 .3619995-.11373901 .3899994-.00074768069L.48599244 .38136292Z"/>
</defs>
<path transform="matrix(1.00005,0,0,-1,2.0961457,188.96302)" stroke-width=".3985" stroke-linecap="butt" stroke-miterlimit="10" stroke-linejoin="miter" fill="none" stroke="#404040" d="M0 0H224.1623V187.16675H0Z"/>
<path transform="matrix(1.00005,0,0,-1,2.0961457,188.96302)" stroke-width=".3985" stroke-linecap="butt" stroke-miterlimit="10" stroke-linejoin="miter" fill="none" stroke="#cccccc" d="M14.01013 0V187.16675M28.02028 0V187.16675M42.03043 0V187.16675M56.04057 0V187.16675M70.0507 0V187.16675M84.06085 0V187.16675M98.071 0V187.16675M112.08115 0V187.16675M126.09128 0V187.16675M140.10143 0V187.16675M154.11157 0V187.16675M168.12172 0V187.16675M182.13185 0V187.16675M196.142 0V187.16675M210.15215 0V187.16675"/>
<path transform="matrix(1.00005,0,0,-1,2.0961457,188.96302)" stroke-width=".3985" stroke-linecap="butt" stroke-miterlimit="10" stroke-linejoin="miter" fill="none" stroke="#cccccc" d="M28.02028 0V187.16675M56.04057 0V187.16675M84.06085 0V187.16675M140.10143 0V187.16675M168.12172 0V187.16675M196.142 0V187.16675"/>
<path transform="matrix(1.00005,0,0,-1,2.0961457,188.96302)" stroke-width=".3985" stroke-linecap="butt" stroke-miterlimit="10" stroke-linejoin="miter" fill="none" stroke="#cccccc" d="M0 11.69792H224.1623M0 23.39584H224.1623M0 35.09377H224.1623M0 46.79169H224.1623M0 58.48961H224.1623M0 70.18753H224.1623M0 81.88545H224.1623M0 93.58337H224.1623M0 105.2813H224.1623M0 116.97922H224.1623M0 128.67714H224.1623M0 140.37506H224.1623M0 152.07299H224.1623M0 163.7709H224.1623M0 175.46883H224.1623"/>
<path transform="matrix(1.00005,0,0,-1,2.0961457,188.96302)" stroke-width=".3985" stroke-linecap="butt" stroke-miterlimit="10" stroke-linejoin="miter" fill="none" stroke="#cccccc" d="M0 23.39584H224.1623M0 46.79169H224.1623M0 70.18753H224.1623M0 116.97922H224.1623M0 140.37506H224.1623M0 163.7709H224.1623"/>
<path transform="matrix(1.00005,0,0,-1,2.0961457,188.96302)" stroke-width=".19925" stroke-linecap="butt" stroke-miterlimit="10" stroke-linejoin="miter" fill="none" stroke="#7f807f" d="M14.01013 92.16599V95.00076M28.02028 92.16599V95.00076M42.03043 92.16599V95.00076M56.04057 92.16599V95.00076M70.0507 92.16599V95.00076M84.06085 92.16599V95.00076M98.071 92.16599V95.00076M112.08115 92.16599V95.00076M126.09128 92.16599V95.00076M140.10143 92.16599V95.00076M154.11157 92.16599V95.00076M168.12172 92.16599V95.00076M182.13185 92.16599V95.00076M196.142 92.16599V95.00076M210.15215 92.16599V95.00076"/>
<path transform="matrix(1.00005,0,0,-1,2.0961457,188.96302)" stroke-width=".19925" stroke-linecap="butt" stroke-miterlimit="10" stroke-linejoin="miter" fill="none" stroke="#7f807f" d="M28.02028 91.45749V95.70923M56.04057 91.45749V95.70923M84.06085 91.45749V95.70923M140.10143 91.45749V95.70923M168.12172 91.45749V95.70923M196.142 91.45749V95.70923"/>
<path transform="matrix(1.00005,0,0,-1,2.0961457,188.96302)" stroke-width=".19925" stroke-linecap="butt" stroke-miterlimit="10" stroke-linejoin="miter" fill="none" stroke="#7f807f" d="M110.66377 11.69792H113.4985M110.66377 23.39584H113.4985M110.66377 35.09377H113.4985M110.66377 46.79169H113.4985M110.66377 58.48961H113.4985M110.66377 70.18753H113.4985M110.66377 81.88545H113.4985M110.66377 93.58337H113.4985M110.66377 105.2813H113.4985M110.66377 116.97922H113.4985M110.66377 128.67714H113.4985M110.66377 140.37506H113.4985M110.66377 152.07299H113.4985M110.66377 163.7709H113.4985M110.66377 175.46883H113.4985"/>
<path transform="matrix(1.00005,0,0,-1,2.0961457,188.96302)" stroke-width=".19925" stroke-linecap="butt" stroke-miterlimit="10" stroke-linejoin="miter" fill="none" stroke="#7f807f" d="M109.95529 23.39584H114.20697M109.95529 46.79169H114.20697M109.95529 70.18753H114.20697M109.95529 116.97922H114.20697M109.95529 140.37506H114.20697M109.95529 163.7709H114.20697"/>
<path transform="matrix(1.00005,0,0,-1,2.0961457,188.96302)" stroke-width=".3985" stroke-linecap="butt" stroke-miterlimit="10" stroke-linejoin="miter" fill="none" stroke="#000000" d="M0 93.58337H222.16976"/>
<path transform="matrix(1.00005,0,0,-1,224.277,95.37965)" d="M1.99252 0-1.19551 1.59401 0 0-1.19551-1.59401"/>
<path transform="matrix(1.00005,0,0,-1,2.0961457,188.96302)" stroke-width=".3985" stroke-linecap="butt" stroke-miterlimit="10" stroke-linejoin="miter" fill="none" stroke="#000000" d="M112.08115 0V185.17423"/>
<path transform="matrix(0,-1,-1.00005,-0,114.18289,3.7887879)" d="M1.99252 0-1.19551 1.59401 0 0-1.19551-1.59401"/>
<use data-text="&#x2212;" xlink:href="#font_1_1" transform="matrix(9.963098,0,0,-9.9626,23.752228,107.446018)"/>
<use data-text="6" xlink:href="#font_2_3" transform="matrix(9.963098,0,0,-9.9626,31.501618,107.446018)"/>
<use data-text="&#x2212;" xlink:href="#font_1_1" transform="matrix(9.963098,0,0,-9.9626,51.773626,107.446018)"/>
<use data-text="4" xlink:href="#font_2_2" transform="matrix(9.963098,0,0,-9.9626,59.523015,107.446018)"/>
<use data-text="&#x2212;" xlink:href="#font_1_1" transform="matrix(9.963098,0,0,-9.9626,79.79603,107.446018)"/>
<use data-text="2" xlink:href="#font_2_1" transform="matrix(9.963098,0,0,-9.9626,87.54542,107.446018)"/>
<use data-text="2" xlink:href="#font_2_1" transform="matrix(9.963098,0,0,-9.9626,139.714,107.446018)"/>
<use data-text="4" xlink:href="#font_2_2" transform="matrix(9.963098,0,0,-9.9626,167.73542,107.446018)"/>
<use data-text="6" xlink:href="#font_2_3" transform="matrix(9.963098,0,0,-9.9626,195.75682,107.446018)"/>
<use data-text="&#x2212;" xlink:href="#font_1_1" transform="matrix(9.963098,0,0,-9.9626,95.805828,168.36202)"/>
<use data-text="6" xlink:href="#font_2_3" transform="matrix(9.963098,0,0,-9.9626,103.555217,168.36202)"/>
<use data-text="&#x2212;" xlink:href="#font_1_1" transform="matrix(9.963098,0,0,-9.9626,95.805828,144.966)"/>
<use data-text="4" xlink:href="#font_2_2" transform="matrix(9.963098,0,0,-9.9626,103.555217,144.966)"/>
<use data-text="&#x2212;" xlink:href="#font_1_1" transform="matrix(9.963098,0,0,-9.9626,95.805828,121.571018)"/>
<use data-text="2" xlink:href="#font_2_1" transform="matrix(9.963098,0,0,-9.9626,103.555217,121.571018)"/>
<use data-text="2" xlink:href="#font_2_1" transform="matrix(9.963098,0,0,-9.9626,103.555217,75.194019)"/>
<use data-text="4" xlink:href="#font_2_2" transform="matrix(9.963098,0,0,-9.9626,103.555217,51.79802)"/>
<use data-text="6" xlink:href="#font_2_3" transform="matrix(9.963098,0,0,-9.9626,103.555217,28.402009)"/>
<g clip-path="url(#clip_3)">
<path transform="matrix(1.00005,0,0,-1,2.0961457,188.96302)" stroke-width="1.49442" stroke-linecap="butt" stroke-miterlimit="10" stroke-linejoin="miter" fill="none" stroke="#1414cc" d="M56.04057 148.17632C56.04057 148.17632 58.99292 129.01946 60.12685 123.71277 61.26076 118.40607 63.07921 112.6222 64.21312 109.9293 65.34703 107.2364 67.1655 105.04778 68.29941 104.30421 69.43332 103.56065 71.25177 103.95842 72.38568 104.5702 73.5196 105.18199 75.33804 107.26997 76.47197 108.71356 77.60588 110.15717 79.42435 113.1523 80.55826 114.97466 81.69217 116.79701 83.51062 120.02934 84.64453 121.84789 85.77844 123.66641 87.5969 126.57889 88.7308 128.0815 89.86473 129.5841 91.68318 131.73268 92.8171 132.67774 93.95102 133.6228 95.76945 134.67653 96.90338 134.89289 98.0373 135.10924 99.85574 134.85015 100.98965 134.23712 102.12357 133.6241 103.94203 131.94725 105.07594 130.47464 106.20985 129.00202 108.0283 125.91545 109.16222 123.62352 110.29614 121.33157 112.11458 116.95639 113.2485 113.95587 114.38242 110.95535 116.20088 105.52567 117.3348 101.99777 118.4687 98.46988 120.28716 92.33281 121.42107 88.52924 122.55498 84.72565 124.37344 78.34131 125.50735 74.58421 126.64128 70.82712 128.45972 64.76866 129.59363 61.45068 130.72756 58.13272 132.54599 53.08632 133.67992 50.6706 134.81383 48.25485 136.6323 45.01967 137.7662 44.03976 138.90012 43.05986 140.71857 42.54808 141.85248 43.60805 142.98639 44.66803 144.80484 47.90495 145.93875 51.67935 147.07268 55.45374 148.89113 63.57745 150.02506 70.81125 151.15897 78.04504 154.11133 103.81558 154.11133 103.81558"/>
<use data-text="l" xlink:href="#font_4_72" transform="matrix(4.981549,0,0,-4.9813,40.147047,91.23201)" fill="#1414cc"/>
<use data-text="o" xlink:href="#font_4_81" transform="matrix(4.981549,0,0,-4.9813,42.154607,91.23201)" fill="#1414cc"/>
<use data-text="c" xlink:href="#font_4_43" transform="matrix(4.981549,0,0,-4.9813,45.7214,91.23201)" fill="#1414cc"/>
<use data-text="a" xlink:href="#font_4_28" transform="matrix(4.981549,0,0,-4.9813,48.765127,91.23201)" fill="#1414cc"/>
<use data-text="l" xlink:href="#font_4_72" transform="matrix(4.981549,0,0,-4.9813,52.15756,91.23201)" fill="#1414cc"/>
<use data-text="m" xlink:href="#font_4_75" transform="matrix(4.981549,0,0,-4.9813,56.516408,91.23201)" fill="#1414cc"/>
<use data-text="i" xlink:href="#font_4_66" transform="matrix(4.981549,0,0,-4.9813,61.981168,91.23201)" fill="#1414cc"/>
<use data-text="n" xlink:href="#font_4_77" transform="matrix(4.981549,0,0,-4.9813,63.988729,91.23201)" fill="#1414cc"/>
<use data-text="l" xlink:href="#font_4_72" transform="matrix(4.981549,0,0,-4.9813,91.76163,39.85501)" fill="#1414cc"/>
<use data-text="o" xlink:href="#font_4_81" transform="matrix(4.981549,0,0,-4.9813,93.76919,39.85501)" fill="#1414cc"/>
<use data-text="c" xlink:href="#font_4_43" transform="matrix(4.981549,0,0,-4.9813,97.33598,39.85501)" fill="#1414cc"/>
<use data-text="a" xlink:href="#font_4_28" transform="matrix(4.981549,0,0,-4.9813,100.37971,39.85501)" fill="#1414cc"/>
<use data-text="l" xlink:href="#font_4_72" transform="matrix(4.981549,0,0,-4.9813,103.77214,39.85501)" fill="#1414cc"/>
<use data-text="m" xlink:href="#font_4_75" transform="matrix(4.981549,0,0,-4.9813,92.56166,46.845018)" fill="#1414cc"/>
<use data-text="a" xlink:href="#font_4_28" transform="matrix(4.981549,0,0,-4.9813,98.02642,46.845018)" fill="#1414cc"/>
<use data-text="x" xlink:href="#font_4_116" transform="matrix(4.981549,0,0,-4.9813,101.41885,46.845018)" fill="#1414cc"/>
<use data-text="l" xlink:href="#font_4_72" transform="matrix(4.981549,0,0,-4.9813,149.4315,149.72101)" fill="#1414cc"/>
<use data-text="o" xlink:href="#font_4_81" transform="matrix(4.981549,0,0,-4.9813,151.43906,149.72101)" fill="#1414cc"/>
<use data-text="c" xlink:href="#font_4_43" transform="matrix(4.981549,0,0,-4.9813,155.00586,149.72101)" fill="#1414cc"/>
<use data-text="a" xlink:href="#font_4_28" transform="matrix(4.981549,0,0,-4.9813,158.04959,149.72101)" fill="#1414cc"/>
<use data-text="l" xlink:href="#font_4_72" transform="matrix(4.981549,0,0,-4.9813,161.44202,149.72101)" fill="#1414cc"/>
<use data-text="m" xlink:href="#font_4_75" transform="matrix(4.981549,0,0,-4.9813,165.80088,149.72101)" fill="#1414cc"/>
<use data-text="i" xlink:href="#font_4_66" transform="matrix(4.981549,0,0,-4.9813,171.26563,149.72101)" fill="#1414cc"/>
<use data-text="n" xlink:href="#font_4_77" transform="matrix(4.981549,0,0,-4.9813,173.2732,149.72101)" fill="#1414cc"/>
</g>
<path transform="matrix(1.00005,0,0,-1,2.0961457,188.96302)" d="M58.03313 148.17757C58.03313 149.27805 57.14104 150.17012 56.04057 150.17012 54.9401 150.17012 54.04802 149.27805 54.04802 148.17757 54.04802 147.0771 54.9401 146.18502 56.04057 146.18502 57.14104 146.18502 58.03313 147.0771 58.03313 148.17757ZM56.04057 148.17757" fill="#1414cc"/>
<path transform="matrix(1.00005,0,0,-1,2.0961457,188.96302)" stroke-width=".3985" stroke-linecap="butt" stroke-miterlimit="10" stroke-linejoin="miter" fill="none" stroke="#1414cc" d="M58.03313 148.17757C58.03313 149.27805 57.14104 150.17012 56.04057 150.17012 54.9401 150.17012 54.04802 149.27805 54.04802 148.17757 54.04802 147.0771 54.9401 146.18502 56.04057 146.18502 57.14104 146.18502 58.03313 147.0771 58.03313 148.17757ZM56.04057 148.17757"/>
<path transform="matrix(1.00005,0,0,-1,2.0961457,188.96302)" d="M72.04326 103.81905C72.04326 104.91951 71.15118 105.8116 70.0507 105.8116 68.95024 105.8116 68.05815 104.91951 68.05815 103.81905 68.05815 102.71858 68.95024 101.82649 70.0507 101.82649 71.15118 101.82649 72.04326 102.71858 72.04326 103.81905ZM70.0507 103.81905" fill="#1414cc"/>
<path transform="matrix(1.00005,0,0,-1,2.0961457,188.96302)" stroke-width=".3985" stroke-linecap="butt" stroke-miterlimit="10" stroke-linejoin="miter" fill="none" stroke="#1414cc" d="M72.04326 103.81905C72.04326 104.91951 71.15118 105.8116 70.0507 105.8116 68.95024 105.8116 68.05815 104.91951 68.05815 103.81905 68.05815 102.71858 68.95024 101.82649 70.0507 101.82649 71.15118 101.82649 72.04326 102.71858 72.04326 103.81905ZM70.0507 103.81905"/>
<path transform="matrix(1.00005,0,0,-1,2.0961457,188.96302)" d="M100.06355 135.0174C100.06355 136.11788 99.17146 137.00995 98.071 137.00995 96.97052 137.00995 96.07845 136.11788 96.07845 135.0174 96.07845 133.91693 96.97052 133.02484 98.071 133.02484 99.17146 133.02484 100.06355 133.91693 100.06355 135.0174ZM98.071 135.0174" fill="#1414cc"/>
<path transform="matrix(1.00005,0,0,-1,2.0961457,188.96302)" stroke-width=".3985" stroke-linecap="butt" stroke-miterlimit="10" stroke-linejoin="miter" fill="none" stroke="#1414cc" d="M100.06355 135.0174C100.06355 136.11788 99.17146 137.00995 98.071 137.00995 96.97052 137.00995 96.07845 136.11788 96.07845 135.0174 96.07845 133.91693 96.97052 133.02484 98.071 133.02484 99.17146 133.02484 100.06355 133.91693 100.06355 135.0174ZM98.071 135.0174"/>
<path transform="matrix(1.00005,0,0,-1,2.0961457,188.96302)" d="M142.09398 42.89627C142.09398 43.99673 141.20189 44.88882 140.10143 44.88882 139.00096 44.88882 138.10887 43.99673 138.10887 42.89627 138.10887 41.79579 139.00096 40.90372 140.10143 40.90372 141.20189 40.90372 142.09398 41.79579 142.09398 42.89627ZM140.10143 42.89627" fill="#1414cc"/>
<path transform="matrix(1.00005,0,0,-1,2.0961457,188.96302)" stroke-width=".3985" stroke-linecap="butt" stroke-miterlimit="10" stroke-linejoin="miter" fill="none" stroke="#1414cc" d="M142.09398 42.89627C142.09398 43.99673 141.20189 44.88882 140.10143 44.88882 139.00096 44.88882 138.10887 43.99673 138.10887 42.89627 138.10887 41.79579 139.00096 40.90372 140.10143 40.90372 141.20189 40.90372 142.09398 41.79579 142.09398 42.89627ZM140.10143 42.89627"/>
<path transform="matrix(1.00005,0,0,-1,2.0961457,188.96302)" d="M156.10413 103.8015C156.10413 104.90198 155.21204 105.79405 154.11157 105.79405 153.0111 105.79405 152.11902 104.90198 152.11902 103.8015 152.11902 102.70103 153.0111 101.80894 154.11157 101.80894 155.21204 101.80894 156.10413 102.70103 156.10413 103.8015ZM154.11157 103.8015" fill="#1414cc"/>
<path transform="matrix(1.00005,0,0,-1,2.0961457,188.96302)" stroke-width=".3985" stroke-linecap="butt" stroke-miterlimit="10" stroke-linejoin="miter" fill="none" stroke="#1414cc" d="M156.10413 103.8015C156.10413 104.90198 155.21204 105.79405 154.11157 105.79405 153.0111 105.79405 152.11902 104.90198 152.11902 103.8015 152.11902 102.70103 153.0111 101.80894 154.11157 101.80894 155.21204 101.80894 156.10413 102.70103 156.10413 103.8015ZM154.11157 103.8015"/>
<path transform="matrix(1.00005,0,0,-1,2.0961457,188.96302)" stroke-width=".3985" stroke-linecap="butt" stroke-miterlimit="10" stroke-linejoin="miter" fill="none" stroke="#1414cc" d=""/>
<use data-text="x" xlink:href="#font_5_1" transform="matrix(9.963098,0,0,-9.9626,217.10889,91.83801)"/>
<use data-text="y" xlink:href="#font_5_2" transform="matrix(9.963098,0,0,-9.9626,117.72992,9.606018)"/>
</svg>
