<svg xmlns="http://www.w3.org/2000/svg" xmlns:xlink="http://www.w3.org/1999/xlink" xmlns:inkscape="http://www.inkscape.org/namespaces/inkscape" version="1.1" width="101" height="100" viewBox="0 0 101 100">
<defs>
<clipPath id="clip_1">
<path transform="matrix(1,0,0,-1.00006,2.0960007,98.68896)" d="M0 0H96.88524V96.88524H0Z"/>
</clipPath>
<path id="font_2_1" d="M.44099427 .7259979C.44099427 .72698977 .44400025 .73098757 .44400025 .73599246 .44400025 .73999026 .44198609 .75 .4269867 .75 .40699769 .75 .1499939 .58999636 .1499939 .25 .1499939-.08900452 .40699769-.25 .4269867-.25 .44198609-.25 .44400025-.2400055 .44400025-.23600769 .44400025-.2290039 .43998719-.22601319 .43598939-.2230072 .25898744-.08200073 .22698975 .12098694 .22698975 .25 .22698975 .49499513 .33999635 .6559906 .44099427 .7259979Z"/>
<path id="font_2_4" d="M.397995 .63591006C.397995 .6660156 .394989 .6660156 .3619995 .6660156 .29100038 .6016083 .17999268 .6016083 .1599884 .6016083H.14299011V.5576172H.1599884C.18299866 .5576172 .24798584 .5606079 .30599977 .58561709V.08596802C.30599977 .054977418 .30599977 .04399109 .19999695 .04399109H.1499939V0C.20498657 .0039978029 .2939911 .0039978029 .35198976 .0039978029 .4099884 .0039978029 .49899293 .0039978029 .55400088 0V.04399109H.5039978C.397995 .04399109 .397995 .054977418 .397995 .08596802V.63591006Z"/>
<path id="font_3_1" d="M.269989 .01399231C.269989-.08216858 .21798706-.13726807 .19099427-.15931702 .18099976-.16732788 .1789856-.16934204 .1789856-.17634583 .1789856-.18234253 .18798828-.19433594 .19699097-.19433594 .20999146-.19433594 .3039856-.1162262 .3039856 .008987427 .3039856 .07699585 .27398683 .12199402 .22898865 .12199402 .19099427 .12199402 .16799927 .09199524 .16799927 .06098938 .16799927 .0289917 .19099427 0 .22898865 0 .24398804 0 .25898744 .0039978029 .269989 .01399231Z"/>
<path id="font_2_3" d="M.6009979 .31976319C.6009979 .3918152 .6009979 .6660156 .33999635 .6660156 .07899475 .6660156 .07899475 .3918152 .07899475 .31976319 .07899475 .2467041 .07899475-.022460938 .33999635-.022460938 .6009979-.022460938 .6009979 .2467041 .6009979 .31976319M.33999635 .010528564C.30299378 .010528564 .21899414 .023544312 .19400025 .12461853 .17999268 .17866516 .1789856 .24971009 .1789856 .33177186 .1789856 .405838 .1789856 .47488404 .19499207 .5319214 .21998596 .6159973 .29699708 .63301089 .33999635 .63301089 .4139862 .63301089 .46699525 .5949707 .4869995 .5249176 .5009918 .47387696 .5009918 .39082337 .5009918 .33177186 .5009918 .26371766 .5009918 .18266297 .48599244 .12261963 .45999146 .025543213 .37998963 .010528564 .33999635 .010528564Z"/>
<path id="font_2_2" d="M.3909912 .25C.3909912 .58898928 .13398743 .75 .11399841 .75 .09799194 .75 .09799194 .73799136 .09799194 .73599246 .09799194 .73498538 .09799194 .72898867 .10398865 .72299197 .2539978 .60398867 .31399537 .42999269 .31399537 .25 .31399537 .1599884 .29699708 .06599426 .2630005-.01600647 .21499634-.13000489 .1519928-.18501282 .102996829-.2250061 .099990848-.227005 .09799194-.23200989 .09799194-.23600769 .09799194-.23800659 .09799194-.25 .11399841-.25 .13398743-.25 .3909912-.0900116 .3909912 .25Z"/>
<path id="font_3_2" d="M.31498719 .6563263C.31900025 .67033389 .31900025 .67233279 .31900025 .6773224 .31900025 .69433596 .3039856 .69433596 .28799439 .69332888L.16499329 .6843262C.147995 .68333438 .1459961 .6823273 .14099121 .67832949 .13699341 .6733246 .13398743 .6613312 .13398743 .6553345 .13398743 .6383209 .1499939 .6383209 .1639862 .6383209 .16499329 .6383209 .18299866 .6383209 .19799805 .636322 .21699524 .6343231 .21798706 .6313324 .21798706 .6233368 .21798706 .6173401 .20799256 .5783386 .20199585 .5563507L.11898804 .22131348C.11399841 .20030213 .11099243 .18431092 .11099243 .16229248 .11099243 .058258058 .18499756-.0107421879 .2809906-.0107421879 .42599488-.0107421879 .5629883 .12928772 .5629883 .2683258 .5629883 .3673706 .4909973 .4423828 .3880005 .4423828 .34599305 .4423828 .29699708 .42637635 .24798584 .3883667L.31498719 .6563263M.2829895 .023254395C.23999024 .023254395 .19099427 .04925537 .19099427 .13027954 .19099427 .16229248 .19898987 .19430542 .20698548 .22831726 .20999146 .24032593 .22698975 .30534364 .22799683 .31134034 .23098755 .3213501 .30099488 .40837098 .3849945 .40837098 .42799378 .40837098 .47299195 .38237 .47299195 .3063507 .47299195 .2693329 .45399476 .17530823 .42199708 .11727905 .3880005 .058258058 .33198548 .023254395 .2829895 .023254395Z"/>
<path id="font_4_1" d="M.33399964 .30233766C.33999635 .32835389 .36299134 .42037965 .43299867 .42037965 .43798829 .42037965 .46199037 .42037965 .48298646 .40734864 .45498658 .402359 .43499757 .37734986 .43499757 .35334779 .43499757 .33735658 .44599916 .31835938 .47299195 .31835938 .49499513 .31835938 .5269928 .3363495 .5269928 .37635804 .5269928 .42837525 .46798707 .4423828 .43399049 .4423828 .37599183 .4423828 .34098817 .38935853 .32899476 .36634828 .3039856 .43237306 .25 .4423828 .22099304 .4423828 .116989139 .4423828 .05999756 .3133545 .05999756 .28834535 .05999756 .27833558 .069992069 .27833558 .07199097 .27833558 .07998657 .27833558 .08299255 .28033448 .084991458 .28933717 .11898804 .39535523 .18499756 .42037965 .21899414 .42037965 .23799134 .42037965 .272995 .4113617 .272995 .35334779 .272995 .32235719 .2559967 .25532533 .21899414 .11528015 .20298767 .053268434 .16799927 .011245728 .12399292 .011245728 .117996219 .011245728 .09498596 .011245728 .07398987 .024276734 .09899902 .029266358 .12098694 .05027771 .12098694 .07827759 .12098694 .105270389 .09899902 .11328125 .083999637 .11328125 .053985597 .11328125 .0289917 .08728027 .0289917 .055267335 .0289917 .009246826 .07899475-.0107421879 .12298584-.0107421879 .18899536-.0107421879 .22499085 .059280397 .22799683 .0652771 .23999024 .028274537 .27598573-.0107421879 .33599855-.0107421879 .43899537-.0107421879 .49598695 .118270877 .49598695 .14328003 .49598695 .1532898 .4869995 .1532898 .48399354 .1532898 .47499085 .1532898 .47299195 .14929199 .47099305 .14228821 .43798829 .03527832 .36999513 .011245728 .33799745 .011245728 .29899598 .011245728 .2829895 .043273927 .2829895 .07727051 .2829895 .09927368 .2889862 .121276859 .2999878 .16529846L.33399964 .30233766Z"/>
<path id="font_4_2" d="M.48599244 .38136292C.48999024 .39537049 .48999024 .39736939 .48999024 .40437318 .48999024 .42237855 .47599793 .43138124 .46099855 .43138124 .45098878 .43138124 .43499757 .42536927 .42599488 .41036988 .42399598 .405365 .41600038 .37435914 .4119873 .35635377 .40499879 .33035279 .397995 .30334474 .3919983 .27633668L.34700013 .09628296C.34298707 .08126831 .2999878 .011245728 .23399353 .011245728 .18299866 .011245728 .17199707 .055267335 .17199707 .0922699 .17199707 .1382904 .18899536 .20030213 .22299195 .28833009 .23899842 .3293457 .24299622 .3403473 .24299622 .36035157 .24299622 .405365 .21099854 .4423828 .16099549 .4423828 .06599426 .4423828 .0289917 .29733277 .0289917 .28833009 .0289917 .27833558 .038986207 .27833558 .040985109 .27833558 .050994874 .27833558 .051986696 .28033448 .056991579 .29634095 .083999637 .3903656 .12399292 .42037965 .1579895 .42037965 .1659851 .42037965 .18299866 .42037965 .18299866 .3883667 .18299866 .36335755 .17298889 .3373413 .1659851 .31834413 .12599182 .21231079 .10798645 .1552887 .10798645 .10827637 .10798645 .019256592 .17098999-.0107421879 .22999573-.0107421879 .2689972-.0107421879 .30299378 .0062561037 .33099366 .03425598 .31799317-.017745972 .30599977-.06674194 .2659912-.11973572 .23999024-.15385437 .20199585-.18309021 .1559906-.18309021 .14199829-.18309021 .09700012-.18005371 .07998657-.14074707 .09599304-.14074707 .10899353-.14074707 .12298584-.1287384 .1329956-.11973572 .14299011-.10673523 .14299011-.08773804 .14299011-.056747438 .115997318-.052734376 .10598755-.052734376 .08299255-.052734376 .049987794-.068740848 .049987794-.11773682 .049987794-.16796875 .09399414-.20507813 .1559906-.20507813 .25898744-.20507813 .3619995-.11373901 .3899994-.00074768069L.48599244 .38136292Z"/>
</defs>
<path transform="matrix(1,0,0,-1.00006,2.0960007,98.68896)" stroke-width=".3985" stroke-linecap="butt" stroke-miterlimit="10" stroke-linejoin="miter" fill="none" stroke="#404040" d="M0 0H96.88524V96.88524H0Z"/>
<path transform="matrix(1,0,0,-1.00006,2.0960007,98.68896)" stroke-width=".3985" stroke-linecap="butt" stroke-miterlimit="10" stroke-linejoin="miter" fill="none" stroke="#cccccc" d=""/>
<path transform="matrix(1,0,0,-1.00006,2.0960007,98.68896)" stroke-width=".3985" stroke-linecap="butt" stroke-miterlimit="10" stroke-linejoin="miter" fill="none" stroke="#cccccc" d=""/>
<path transform="matrix(1,0,0,-1.00006,2.0960007,98.68896)" stroke-width=".3985" stroke-linecap="butt" stroke-miterlimit="10" stroke-linejoin="miter" fill="none" stroke="#cccccc" d=""/>
<path transform="matrix(1,0,0,-1.00006,2.0960007,98.68896)" stroke-width=".3985" stroke-linecap="butt" stroke-miterlimit="10" stroke-linejoin="miter" fill="none" stroke="#cccccc" d=""/>
<path transform="matrix(1,0,0,-1.00006,2.0960007,98.68896)" stroke-width=".19925" stroke-linecap="butt" stroke-miterlimit="10" stroke-linejoin="miter" fill="none" stroke="#7f807f" d=""/>
<path transform="matrix(1,0,0,-1.00006,2.0960007,98.68896)" stroke-width=".19925" stroke-linecap="butt" stroke-miterlimit="10" stroke-linejoin="miter" fill="none" stroke="#7f807f" d=""/>
<path transform="matrix(1,0,0,-1.00006,2.0960007,98.68896)" stroke-width=".19925" stroke-linecap="butt" stroke-miterlimit="10" stroke-linejoin="miter" fill="none" stroke="#7f807f" d=""/>
<path transform="matrix(1,0,0,-1.00006,2.0960007,98.68896)" stroke-width=".19925" stroke-linecap="butt" stroke-miterlimit="10" stroke-linejoin="miter" fill="none" stroke="#7f807f" d=""/>
<path transform="matrix(1,0,0,-1.00006,2.0960007,98.68896)" stroke-width=".3985" stroke-linecap="butt" stroke-miterlimit="10" stroke-linejoin="miter" fill="none" stroke="#000000" d="M0 48.44261H94.89272"/>
<path transform="matrix(1,0,0,-1.00006,96.98872,50.243444)" d="M1.99252 0-1.19551 1.59401 0 0-1.19551-1.59401"/>
<path transform="matrix(1,0,0,-1.00006,2.0960007,98.68896)" stroke-width=".3985" stroke-linecap="butt" stroke-miterlimit="10" stroke-linejoin="miter" fill="none" stroke="#000000" d="M48.44261 0V94.89272"/>
<path transform="matrix(0,-1.00006,-1,-0,50.538614,3.7905427)" d="M1.99252 0-1.19551 1.59401 0 0-1.19551-1.59401"/>
<g clip-path="url(#clip_1)">
<path transform="matrix(1,0,0,-1.00006,2.0960007,98.68896)" stroke-width="1.49442" stroke-linecap="butt" stroke-miterlimit="10" stroke-linejoin="miter" fill="none" stroke="#1414cc" d="M48.77939 8.02327 49.05978 18.4873 49.5478 25.27573 50.0358 29.53464 50.5238 32.6487 51.01181 35.10312 51.49982 37.12827 51.98781 38.85428 52.47581 40.35713 52.96382 41.68753 53.45183 42.88083 53.93982 43.96327 54.42781 44.95442 54.91583 45.8687 55.40382 46.71513 55.89183 47.50458 56.37982 48.24352 56.86784 48.93877 57.35583 49.59453 57.84384 50.2156 58.33185 50.80516 58.81985 51.36668 59.30785 51.90157 59.79585 52.41328 60.28386 52.90288 60.77187 53.37392 61.25986 53.82588 61.74786 54.26088 62.23587 54.6812 62.72388 55.08546 63.21187 55.47649 63.69987 55.85603 64.18788 56.22185 64.67589 56.57912 65.16388 56.92393 65.65189 57.259 66.1399 57.58461 66.6279 57.90176 67.11589 58.21034 67.6039 58.5107 68.0919 58.804 68.5799 59.08957 69.0679 59.36876 69.5559 59.64102 70.04391 59.90697 70.5319 60.16734 71.01991 60.42247 71.5079 60.67114 71.99593 60.91498 72.48392 61.15395 72.97192 61.38647 73.45993 61.61739 73.94794 61.84265 74.43593 62.06306 74.92393 62.27864 75.41194 62.49179 75.89995 62.70009 76.38794 62.90596 76.87595 63.10782 77.36395 63.30643 77.85196 63.50099 78.33995 63.69154 78.82796 63.88046 79.31596 64.06616 79.80397 64.25024 80.29196 64.42868 80.77997 64.6071 81.26797 64.78232 81.75597 64.95348 82.24397 65.12302 82.73196 65.29095 83.21999 65.45485 83.70798 65.61713 84.19598 65.777 84.68398 65.93524 85.172 66.09026 85.65999 66.24446 86.148 66.39626 86.63599 66.54642 87.12401 66.69417 87.612 66.84032 88.1 66.98483 88.588 67.12613 89.07602 67.26822 89.56401 67.4079 90.05202 67.54434 90.54002 67.67998 91.02803 67.81401 91.51602 67.94722 92.00403 68.07802 92.49203 68.20801 92.98004 68.33719 93.46803 68.46313 93.95604 68.58908 94.44405 68.7118 94.93205 68.83534 95.42004 68.95807 95.90804 69.07756 96.39606 69.19624 89.34431 67.49329"/>
<path transform="matrix(-.02676,.99964997,.99959,.026761605,50.87539,90.6652)" d="M4.676 0C4.10176 .14711 1.5776 .98082 0 1.88808V-1.88808C1.5776-.98082 4.10176-.14711 4.676 0Z" fill="#1414cc"/>
<path transform="matrix(-.02676,.99964997,.99959,.026761605,50.87539,90.6652)" stroke-width="1.49442" stroke-linecap="butt" stroke-miterlimit="10" stroke-linejoin="miter" fill="none" stroke="#1414cc" d="M4.676 0C4.10176 .14711 1.5776 .98082 0 1.88808V-1.88808C1.5776-.98082 4.10176-.14711 4.676 0Z"/>
<path transform="matrix(.97202,-.23475409,-.23474,-.97207829,91.4403,31.19162)" d="M4.676 0C4.10176 .14711 1.5776 .98082 0 1.88808V-1.88808C1.5776-.98082 4.10176-.14711 4.676 0Z" fill="#1414cc"/>
<path transform="matrix(.97202,-.23475409,-.23474,-.97207829,91.4403,31.19162)" stroke-width="1.49442" stroke-linecap="butt" stroke-miterlimit="10" stroke-linejoin="miter" fill="none" stroke="#1414cc" d="M4.676 0C4.10176 .14711 1.5776 .98082 0 1.88808V-1.88808C1.5776-.98082 4.10176-.14711 4.676 0Z"/>
<use data-text="(" xlink:href="#font_2_1" transform="matrix(4.9813,0,0,-4.9815986,56.827,57.54449)"/>
<use data-text="1" xlink:href="#font_2_4" transform="matrix(4.9813,0,0,-4.9815986,59.521886,57.54449)"/>
<use data-text="," xlink:href="#font_3_1" transform="matrix(4.9813,0,0,-4.9815986,62.915998,57.54449)"/>
<use data-text="0" xlink:href="#font_2_3" transform="matrix(4.9813,0,0,-4.9815986,66.42099,57.54449)"/>
<use data-text=")" xlink:href="#font_2_2" transform="matrix(4.9813,0,0,-4.9815986,69.80827,57.54449)"/>
<use data-text="(" xlink:href="#font_2_1" transform="matrix(4.9813,0,0,-4.9815986,54.926004,37.35928)"/>
<use data-text="b" xlink:href="#font_3_2" transform="matrix(4.9813,0,0,-4.9815986,57.624,37.35928)"/>
<use data-text="," xlink:href="#font_3_1" transform="matrix(4.9813,0,0,-4.9815986,60.77716,37.35928)"/>
<use data-text="1" xlink:href="#font_2_4" transform="matrix(4.9813,0,0,-4.9815986,64.285,37.35928)"/>
<use data-text=")" xlink:href="#font_2_2" transform="matrix(4.9813,0,0,-4.9815986,67.67229,37.35928)"/>
</g>
<path transform="matrix(1,0,0,-1.00006,2.0960007,98.68896)" d="M58.50894 48.44261C58.50894 49.54309 57.61685 50.43517 56.51639 50.43517 55.41591 50.43517 54.52383 49.54309 54.52383 48.44261 54.52383 47.34215 55.41591 46.45006 56.51639 46.45006 57.61685 46.45006 58.50894 47.34215 58.50894 48.44261ZM56.51639 48.44261" fill="#1414cc"/>
<path transform="matrix(1,0,0,-1.00006,2.0960007,98.68896)" stroke-width=".3985" stroke-linecap="butt" stroke-miterlimit="10" stroke-linejoin="miter" fill="none" stroke="#1414cc" d="M58.50894 48.44261C58.50894 49.54309 57.61685 50.43517 56.51639 50.43517 55.41591 50.43517 54.52383 49.54309 54.52383 48.44261 54.52383 47.34215 55.41591 46.45006 56.51639 46.45006 57.61685 46.45006 58.50894 47.34215 58.50894 48.44261ZM56.51639 48.44261"/>
<path transform="matrix(1,0,0,-1.00006,2.0960007,98.68896)" d="M66.58272 56.51639C66.58272 57.61685 65.69063 58.50894 64.59016 58.50894 63.48969 58.50894 62.59761 57.61685 62.59761 56.51639 62.59761 55.41591 63.48969 54.52383 64.59016 54.52383 65.69063 54.52383 66.58272 55.41591 66.58272 56.51639ZM64.59016 56.51639" fill="#1414cc"/>
<path transform="matrix(1,0,0,-1.00006,2.0960007,98.68896)" stroke-width=".3985" stroke-linecap="butt" stroke-miterlimit="10" stroke-linejoin="miter" fill="none" stroke="#1414cc" d="M66.58272 56.51639C66.58272 57.61685 65.69063 58.50894 64.59016 58.50894 63.48969 58.50894 62.59761 57.61685 62.59761 56.51639 62.59761 55.41591 63.48969 54.52383 64.59016 54.52383 65.69063 54.52383 66.58272 55.41591 66.58272 56.51639ZM64.59016 56.51639"/>
<path transform="matrix(1,0,0,-1.00006,2.0960007,98.68896)" stroke-width=".3985" stroke-linecap="butt" stroke-miterlimit="10" stroke-linejoin="miter" fill="none" stroke="#1414cc" d=""/>
<use data-text="x" xlink:href="#font_4_1" transform="matrix(9.9626,0,0,-9.963197,89.788,46.71384)"/>
<use data-text="y" xlink:href="#font_4_2" transform="matrix(9.9626,0,0,-9.963197,54.067,9.590614)"/>
</svg>
