<svg xmlns="http://www.w3.org/2000/svg" xmlns:xlink="http://www.w3.org/1999/xlink" xmlns:inkscape="http://www.inkscape.org/namespaces/inkscape" version="1.1" width="228" height="191" viewBox="0 0 228 191">
<defs>
<path id="font_1_1" d="M.6589966 .23046875C.6759949 .23046875 .69400027 .23046875 .69400027 .25045777 .69400027 .27046205 .6759949 .27046205 .6589966 .27046205H.117996219C.100997928 .27046205 .08299255 .27046205 .08299255 .25045777 .08299255 .23046875 .100997928 .23046875 .117996219 .23046875H.6589966Z"/>
<path id="font_2_3" d="M.13198853 .327713V.35173036C.13198853 .6047821 .2559967 .64100649 .30699159 .64100649 .33099366 .64100649 .37298585 .634964 .394989 .6007538 .37998963 .6007538 .33999635 .6007538 .33999635 .5557556 .33999635 .524765 .3639984 .5097656 .38598634 .5097656 .4019928 .5097656 .43199159 .51875308 .43199159 .5577545 .43199159 .6178589 .3880005 .6660156 .30499269 .6660156 .1769867 .6660156 .041992189 .5367584 .041992189 .31570436 .041992189 .048553468 .1579895-.022460938 .25099183-.022460938 .3619995-.022460938 .45700074 .07156372 .45700074 .2036438 .45700074 .33070375 .36799623 .4267578 .25698854 .4267578 .18899536 .4267578 .1519928 .37573243 .13198853 .327713M.25099183 .0055389406C.18798828 .0055389406 .1579895 .06556702 .1519928 .080566409 .13398743 .127594 .13398743 .2076416 .13398743 .22564698 .13398743 .30369569 .1659851 .40374757 .2559967 .40374757 .27198792 .40374757 .31799317 .40374757 .34899903 .34172059 .36698915 .30470277 .36698915 .2536621 .36698915 .20463562 .36698915 .15661621 .36698915 .10658264 .34999085 .0705719 .31999208 .010528564 .27398683 .0055389406 .25099183 .0055389406Z"/>
<path id="font_2_2" d="M.2939911 .16503906V.07800293C.2939911 .041992189 .2919922 .0309906 .21798706 .0309906H.19699097V0C.23799134 .0029907227 .2899933 .0029907227 .33198548 .0029907227 .37399293 .0029907227 .4269867 .0029907227 .46798707 0V.0309906H.44699098C.37298585 .0309906 .37098695 .041992189 .37098695 .07800293V.16503906H.47099305V.19602967H.37098695V.65075686C.37098695 .67074587 .37098695 .6767578 .35499574 .6767578 .34599305 .6767578 .34298707 .6767578 .33499146 .66474917L.027999878 .19602967V.16503906H.2939911M.2999878 .19602967H.055999757L.2999878 .5688019V.19602967Z"/>
<path id="font_2_1" d="M.1269989 .07699585 .23298645 .18003845C.3889923 .31811524 .44898988 .3721466 .44898988 .47216798 .44898988 .5860901 .35899354 .6660156 .23699951 .6660156 .12399292 .6660156 .049987794 .57411196 .049987794 .48516847 .049987794 .4291687 .099990848 .4291687 .102996829 .4291687 .11999512 .4291687 .15499878 .44117738 .15499878 .48217774 .15499878 .5081787 .13699341 .5341797 .101989749 .5341797 .09399414 .5341797 .09199524 .5341797 .08898926 .5331726 .11199951 .59806826 .1659851 .63500979 .22399903 .63500979 .31498719 .63500979 .35798646 .5541382 .35798646 .47216798 .35798646 .39215089 .30799867 .31311036 .25299073 .25108338L.06098938 .036987306C.049987794 .025985718 .049987794 .023986817 .049987794 0H.42099L.44898988 .17404175H.42399598C.4189911 .14402771 .4119873 .1000061 .4019928 .084991458 .394989 .07699585 .32899476 .07699585 .30699159 .07699585H.1269989Z"/>
<clipPath id="clip_3">
<path transform="matrix(1.00005,0,0,-1,2.0961457,188.96302)" d="M0 0H224.1623V187.16675H0Z"/>
</clipPath>
<path id="font_4_1" d="M.33399964 .30233766C.33999635 .32835389 .36299134 .42037965 .43299867 .42037965 .43798829 .42037965 .46199037 .42037965 .48298646 .40734864 .45498658 .402359 .43499757 .37734986 .43499757 .35334779 .43499757 .33735658 .44599916 .31835938 .47299195 .31835938 .49499513 .31835938 .5269928 .3363495 .5269928 .37635804 .5269928 .42837525 .46798707 .4423828 .43399049 .4423828 .37599183 .4423828 .34098817 .38935853 .32899476 .36634828 .3039856 .43237306 .25 .4423828 .22099304 .4423828 .116989139 .4423828 .05999756 .3133545 .05999756 .28834535 .05999756 .27833558 .069992069 .27833558 .07199097 .27833558 .07998657 .27833558 .08299255 .28033448 .084991458 .28933717 .11898804 .39535523 .18499756 .42037965 .21899414 .42037965 .23799134 .42037965 .272995 .4113617 .272995 .35334779 .272995 .32235719 .2559967 .25532533 .21899414 .11528015 .20298767 .053268434 .16799927 .011245728 .12399292 .011245728 .117996219 .011245728 .09498596 .011245728 .07398987 .024276734 .09899902 .029266358 .12098694 .05027771 .12098694 .07827759 .12098694 .105270389 .09899902 .11328125 .083999637 .11328125 .053985597 .11328125 .0289917 .08728027 .0289917 .055267335 .0289917 .009246826 .07899475-.0107421879 .12298584-.0107421879 .18899536-.0107421879 .22499085 .059280397 .22799683 .0652771 .23999024 .028274537 .27598573-.0107421879 .33599855-.0107421879 .43899537-.0107421879 .49598695 .118270877 .49598695 .14328003 .49598695 .1532898 .4869995 .1532898 .48399354 .1532898 .47499085 .1532898 .47299195 .14929199 .47099305 .14228821 .43798829 .03527832 .36999513 .011245728 .33799745 .011245728 .29899598 .011245728 .2829895 .043273927 .2829895 .07727051 .2829895 .09927368 .2889862 .121276859 .2999878 .16529846L.33399964 .30233766Z"/>
<path id="font_4_2" d="M.48599244 .38136292C.48999024 .39537049 .48999024 .39736939 .48999024 .40437318 .48999024 .42237855 .47599793 .43138124 .46099855 .43138124 .45098878 .43138124 .43499757 .42536927 .42599488 .41036988 .42399598 .405365 .41600038 .37435914 .4119873 .35635377 .40499879 .33035279 .397995 .30334474 .3919983 .27633668L.34700013 .09628296C.34298707 .08126831 .2999878 .011245728 .23399353 .011245728 .18299866 .011245728 .17199707 .055267335 .17199707 .0922699 .17199707 .1382904 .18899536 .20030213 .22299195 .28833009 .23899842 .3293457 .24299622 .3403473 .24299622 .36035157 .24299622 .405365 .21099854 .4423828 .16099549 .4423828 .06599426 .4423828 .0289917 .29733277 .0289917 .28833009 .0289917 .27833558 .038986207 .27833558 .040985109 .27833558 .050994874 .27833558 .051986696 .28033448 .056991579 .29634095 .083999637 .3903656 .12399292 .42037965 .1579895 .42037965 .1659851 .42037965 .18299866 .42037965 .18299866 .3883667 .18299866 .36335755 .17298889 .3373413 .1659851 .31834413 .12599182 .21231079 .10798645 .1552887 .10798645 .10827637 .10798645 .019256592 .17098999-.0107421879 .22999573-.0107421879 .2689972-.0107421879 .30299378 .0062561037 .33099366 .03425598 .31799317-.017745972 .30599977-.06674194 .2659912-.11973572 .23999024-.15385437 .20199585-.18309021 .1559906-.18309021 .14199829-.18309021 .09700012-.18005371 .07998657-.14074707 .09599304-.14074707 .10899353-.14074707 .12298584-.1287384 .1329956-.11973572 .14299011-.10673523 .14299011-.08773804 .14299011-.056747438 .115997318-.052734376 .10598755-.052734376 .08299255-.052734376 .049987794-.068740848 .049987794-.11773682 .049987794-.16796875 .09399414-.20507813 .1559906-.20507813 .25898744-.20507813 .3619995-.11373901 .3899994-.00074768069L.48599244 .38136292Z"/>
</defs>
<path transform="matrix(1.00005,0,0,-1,2.0961457,188.96302)" stroke-width=".3985" stroke-linecap="butt" stroke-miterlimit="10" stroke-linejoin="miter" fill="none" stroke="#404040" d="M0 0H224.1623V187.16675H0Z"/>
<path transform="matrix(1.00005,0,0,-1,2.0961457,188.96302)" stroke-width=".3985" stroke-linecap="butt" stroke-miterlimit="10" stroke-linejoin="miter" fill="none" stroke="#cccccc" d="M14.01013 0V187.16675M28.02028 0V187.16675M42.03043 0V187.16675M56.04057 0V187.16675M70.0507 0V187.16675M84.06085 0V187.16675M98.071 0V187.16675M112.08115 0V187.16675M126.09128 0V187.16675M140.10143 0V187.16675M154.11157 0V187.16675M168.12172 0V187.16675M182.13185 0V187.16675M196.142 0V187.16675M210.15215 0V187.16675"/>
<path transform="matrix(1.00005,0,0,-1,2.0961457,188.96302)" stroke-width=".3985" stroke-linecap="butt" stroke-miterlimit="10" stroke-linejoin="miter" fill="none" stroke="#cccccc" d="M28.02028 0V187.16675M56.04057 0V187.16675M84.06085 0V187.16675M140.10143 0V187.16675M168.12172 0V187.16675M196.142 0V187.16675"/>
<path transform="matrix(1.00005,0,0,-1,2.0961457,188.96302)" stroke-width=".3985" stroke-linecap="butt" stroke-miterlimit="10" stroke-linejoin="miter" fill="none" stroke="#cccccc" d="M0 11.69792H224.1623M0 23.39584H224.1623M0 35.09377H224.1623M0 46.79169H224.1623M0 58.48961H224.1623M0 70.18753H224.1623M0 81.88545H224.1623M0 93.58337H224.1623M0 105.2813H224.1623M0 116.97922H224.1623M0 128.67714H224.1623M0 140.37506H224.1623M0 152.07299H224.1623M0 163.7709H224.1623M0 175.46883H224.1623"/>
<path transform="matrix(1.00005,0,0,-1,2.0961457,188.96302)" stroke-width=".3985" stroke-linecap="butt" stroke-miterlimit="10" stroke-linejoin="miter" fill="none" stroke="#cccccc" d="M0 23.39584H224.1623M0 46.79169H224.1623M0 70.18753H224.1623M0 116.97922H224.1623M0 140.37506H224.1623M0 163.7709H224.1623"/>
<path transform="matrix(1.00005,0,0,-1,2.0961457,188.96302)" stroke-width=".19925" stroke-linecap="butt" stroke-miterlimit="10" stroke-linejoin="miter" fill="none" stroke="#7f807f" d="M14.01013 92.16599V95.00076M28.02028 92.16599V95.00076M42.03043 92.16599V95.00076M56.04057 92.16599V95.00076M70.0507 92.16599V95.00076M84.06085 92.16599V95.00076M98.071 92.16599V95.00076M112.08115 92.16599V95.00076M126.09128 92.16599V95.00076M140.10143 92.16599V95.00076M154.11157 92.16599V95.00076M168.12172 92.16599V95.00076M182.13185 92.16599V95.00076M196.142 92.16599V95.00076M210.15215 92.16599V95.00076"/>
<path transform="matrix(1.00005,0,0,-1,2.0961457,188.96302)" stroke-width=".19925" stroke-linecap="butt" stroke-miterlimit="10" stroke-linejoin="miter" fill="none" stroke="#7f807f" d="M28.02028 91.45749V95.70923M56.04057 91.45749V95.70923M84.06085 91.45749V95.70923M140.10143 91.45749V95.70923M168.12172 91.45749V95.70923M196.142 91.45749V95.70923"/>
<path transform="matrix(1.00005,0,0,-1,2.0961457,188.96302)" stroke-width=".19925" stroke-linecap="butt" stroke-miterlimit="10" stroke-linejoin="miter" fill="none" stroke="#7f807f" d="M110.66377 11.69792H113.4985M110.66377 23.39584H113.4985M110.66377 35.09377H113.4985M110.66377 46.79169H113.4985M110.66377 58.48961H113.4985M110.66377 70.18753H113.4985M110.66377 81.88545H113.4985M110.66377 93.58337H113.4985M110.66377 105.2813H113.4985M110.66377 116.97922H113.4985M110.66377 128.67714H113.4985M110.66377 140.37506H113.4985M110.66377 152.07299H113.4985M110.66377 163.7709H113.4985M110.66377 175.46883H113.4985"/>
<path transform="matrix(1.00005,0,0,-1,2.0961457,188.96302)" stroke-width=".19925" stroke-linecap="butt" stroke-miterlimit="10" stroke-linejoin="miter" fill="none" stroke="#7f807f" d="M109.95529 23.39584H114.20697M109.95529 46.79169H114.20697M109.95529 70.18753H114.20697M109.95529 116.97922H114.20697M109.95529 140.37506H114.20697M109.95529 163.7709H114.20697"/>
<path transform="matrix(1.00005,0,0,-1,2.0961457,188.96302)" stroke-width=".3985" stroke-linecap="butt" stroke-miterlimit="10" stroke-linejoin="miter" fill="none" stroke="#000000" d="M0 93.58337H222.16976"/>
<path transform="matrix(1.00005,0,0,-1,224.277,95.37965)" d="M1.99252 0-1.19551 1.59401 0 0-1.19551-1.59401"/>
<path transform="matrix(1.00005,0,0,-1,2.0961457,188.96302)" stroke-width=".3985" stroke-linecap="butt" stroke-miterlimit="10" stroke-linejoin="miter" fill="none" stroke="#000000" d="M112.08115 0V185.17423"/>
<path transform="matrix(0,-1,-1.00005,-0,114.18289,3.7887879)" d="M1.99252 0-1.19551 1.59401 0 0-1.19551-1.59401"/>
<use data-text="&#x2212;" xlink:href="#font_1_1" transform="matrix(9.963098,0,0,-9.9626,23.752228,107.446018)"/>
<use data-text="6" xlink:href="#font_2_3" transform="matrix(9.963098,0,0,-9.9626,31.501618,107.446018)"/>
<use data-text="&#x2212;" xlink:href="#font_1_1" transform="matrix(9.963098,0,0,-9.9626,51.773626,107.446018)"/>
<use data-text="4" xlink:href="#font_2_2" transform="matrix(9.963098,0,0,-9.9626,59.523015,107.446018)"/>
<use data-text="&#x2212;" xlink:href="#font_1_1" transform="matrix(9.963098,0,0,-9.9626,79.79603,107.446018)"/>
<use data-text="2" xlink:href="#font_2_1" transform="matrix(9.963098,0,0,-9.9626,87.54542,107.446018)"/>
<use data-text="2" xlink:href="#font_2_1" transform="matrix(9.963098,0,0,-9.9626,139.714,107.446018)"/>
<use data-text="4" xlink:href="#font_2_2" transform="matrix(9.963098,0,0,-9.9626,167.73542,107.446018)"/>
<use data-text="6" xlink:href="#font_2_3" transform="matrix(9.963098,0,0,-9.9626,195.75682,107.446018)"/>
<use data-text="&#x2212;" xlink:href="#font_1_1" transform="matrix(9.963098,0,0,-9.9626,95.805828,168.36202)"/>
<use data-text="6" xlink:href="#font_2_3" transform="matrix(9.963098,0,0,-9.9626,103.555217,168.36202)"/>
<use data-text="&#x2212;" xlink:href="#font_1_1" transform="matrix(9.963098,0,0,-9.9626,95.805828,144.966)"/>
<use data-text="4" xlink:href="#font_2_2" transform="matrix(9.963098,0,0,-9.9626,103.555217,144.966)"/>
<use data-text="&#x2212;" xlink:href="#font_1_1" transform="matrix(9.963098,0,0,-9.9626,95.805828,121.571018)"/>
<use data-text="2" xlink:href="#font_2_1" transform="matrix(9.963098,0,0,-9.9626,103.555217,121.571018)"/>
<use data-text="2" xlink:href="#font_2_1" transform="matrix(9.963098,0,0,-9.9626,103.555217,75.194019)"/>
<use data-text="4" xlink:href="#font_2_2" transform="matrix(9.963098,0,0,-9.9626,103.555217,51.79802)"/>
<use data-text="6" xlink:href="#font_2_3" transform="matrix(9.963098,0,0,-9.9626,103.555217,28.402009)"/>
<g clip-path="url(#clip_3)">
<path transform="matrix(1.00005,0,0,-1,2.0961457,188.96302)" stroke-width="1.49442" stroke-linecap="butt" stroke-miterlimit="10" stroke-linejoin="miter" fill="none" stroke="#1414cc" d="M7.55515 179.93975C6.22557 183.27033 6.22557 183.27033 6.81941 181.7828 7.41327 180.29528 8.36563 177.90973 8.95947 176.4222 9.55333 174.93465 10.50568 172.54915 11.09952 171.06162 11.69337 169.5741 12.6457 167.1886 13.23956 165.70107 13.83342 164.21355 14.78577 161.82804 15.37962 160.3405 15.97346 158.85298 16.92581 156.46749 17.51967 154.97995 18.11351 153.49242 19.06586 151.10689 19.65971 149.61934 20.25356 148.13179 21.20592 145.7463 21.79976 144.25878 22.39362 142.77124 23.34596 140.38574 23.9398 138.89823 24.53366 137.41069 25.48601 135.02518 26.07985 133.53766 26.6737 132.05013 27.62607 129.66463 28.21991 128.17708 28.81377 126.68954 29.7661 124.304 30.35995 122.81647 30.95381 121.32895 31.90614 118.94345 32.5 117.45592 33.09384 115.96838 34.0462 113.58289 34.64006 112.09535 35.2339 110.60782 36.18625 108.22234 36.7801 106.7348 37.37395 105.24727 38.3263 102.86177 38.92014 101.37424 39.51399 99.88669 40.46635 97.50114 41.0602 96.01363 41.65405 94.5261 42.6064 92.1406 43.20024 90.65306 43.7941 89.16554 44.74644 86.78003 45.34029 85.2925 45.93414 83.80498 46.88649 81.41946 47.48035 79.93193 48.0742 78.44441 49.02654 76.0589 49.62039 74.57137 50.21423 73.08383 51.16658 70.69832 51.76044 69.21078 52.35428 67.72325 53.30664 65.33775 53.9005 63.85022 54.49434 62.36269 56.04054 58.48965 55.26663 60.42824"/>
<path transform="matrix(-.3707585,-.92868,-.9287264,.37074,9.651683,9.02327)" d="M4.676 0C4.10176 .14711 1.5776 .98082 0 1.88808V-1.88808C1.5776-.98082 4.10176-.14711 4.676 0Z" fill="#1414cc"/>
<path transform="matrix(-.3707585,-.92868,-.9287264,.37074,9.651683,9.02327)" stroke-width="1.49442" stroke-linecap="butt" stroke-miterlimit="10" stroke-linejoin="miter" fill="none" stroke="#1414cc" d="M4.676 0C4.10176 .14711 1.5776 .98082 0 1.88808V-1.88808C1.5776-.98082 4.10176-.14711 4.676 0Z"/>
<path transform="matrix(.3707585,.92868,.9287264,-.37074,57.0885,127.84085)" d="M4.92212 0C4.92212 1.15286 3.98753 2.08745 2.83466 2.08745 1.6818 2.08745 .74721 1.15286 .74721 0 .74721-1.15286 1.6818-2.08745 2.83466-2.08745 3.98753-2.08745 4.92212-1.15286 4.92212 0ZM2.83466 0" fill="#1414cc"/>
<path transform="matrix(.3707585,.92868,.9287264,-.37074,57.0885,127.84085)" stroke-width="1.49442" stroke-linecap="butt" stroke-miterlimit="10" stroke-linejoin="miter" fill="none" stroke="#1414cc" d="M4.92212 0C4.92212 1.15286 3.98753 2.08745 2.83466 2.08745 1.6818 2.08745 .74721 1.15286 .74721 0 .74721-1.15286 1.6818-2.08745 2.83466-2.08745 3.98753-2.08745 4.92212-1.15286 4.92212 0ZM2.83466 0"/>
<path transform="matrix(1.00005,0,0,-1,2.0961457,188.96302)" stroke-width="1.49442" stroke-linecap="butt" stroke-miterlimit="10" stroke-linejoin="miter" fill="none" stroke="#1414cc" d="M57.8097 106.3892C58.57117 106.86601 58.57117 106.86601 59.5431 107.47466 60.51505 108.0833 62.0737 109.05937 63.04564 109.66801 64.01758 110.27664 65.57623 111.25272 66.54817 111.86136 67.52011 112.47 69.07877 113.44609 70.0507 114.05473 71.02264 114.66338 72.5813 115.63945 73.55324 116.2481 74.52518 116.85674 76.08385 117.83281 77.05579 118.44145 78.02773 119.0501 79.58638 120.02617 80.55832 120.63481 81.53026 121.24345 83.08891 122.21953 84.06085 122.82817 85.03279 123.43681 86.59145 124.41289 87.56339 125.02153 88.53532 125.63017 90.09398 126.60625 91.06592 127.21489 92.03786 127.82353 93.59653 128.7996 94.56847 129.40825 95.5404 130.01689 97.09906 130.99298 98.071 131.60163 99.04294 132.21027 100.6016 133.18634 101.57353 133.79499 102.54547 134.40361 104.10413 135.37969 105.07607 135.98833 106.048 136.59697 107.60666 137.57305 108.5786 138.18169 109.55054 138.79033 111.1092 139.76642 112.08115 140.37506 113.05307 140.9837 114.61174 141.95978 115.58368 142.56842 116.55562 143.17707 118.11427 144.15314 119.08621 144.76178 120.05815 145.37042 121.6168 146.3465 122.58875 146.95513 123.56068 147.56377 125.11934 148.53986 126.09128 149.1485 127.06322 149.75714 128.62187 150.73322 129.59381 151.34186 130.56575 151.9505 132.12442 152.92658 133.09636 153.53522 134.0683 154.14386 135.62696 155.11994 136.59889 155.72858 137.57083 156.33722 140.10143 157.92195 138.33229 156.81404"/>
<path transform="matrix(-.84754237,.53075,.5307765,.8475,60.542024,82.17723)" d="M4.92212 0C4.92212 1.15286 3.98753 2.08745 2.83466 2.08745 1.6818 2.08745 .74721 1.15286 .74721 0 .74721-1.15286 1.6818-2.08745 2.83466-2.08745 3.98753-2.08745 4.92212-1.15286 4.92212 0ZM2.83466 0" fill="#ffffff"/>
<path transform="matrix(-.84754237,.53075,.5307765,.8475,60.542024,82.17723)" stroke-width="1.49442" stroke-linecap="butt" stroke-miterlimit="10" stroke-linejoin="miter" fill="none" stroke="#1414cc" d="M4.92212 0C4.92212 1.15286 3.98753 2.08745 2.83466 2.08745 1.6818 2.08745 .74721 1.15286 .74721 0 .74721-1.15286 1.6818-2.08745 2.83466-2.08745 3.98753-2.08745 4.92212-1.15286 4.92212 0ZM2.83466 0"/>
<path transform="matrix(.84754237,-.53075,-.5307765,-.8475,139.80205,32.545564)" d="M4.92212 0C4.92212 1.15286 3.98753 2.08745 2.83466 2.08745 1.6818 2.08745 .74721 1.15286 .74721 0 .74721-1.15286 1.6818-2.08745 2.83466-2.08745 3.98753-2.08745 4.92212-1.15286 4.92212 0ZM2.83466 0" fill="#ffffff"/>
<path transform="matrix(.84754237,-.53075,-.5307765,-.8475,139.80205,32.545564)" stroke-width="1.49442" stroke-linecap="butt" stroke-miterlimit="10" stroke-linejoin="miter" fill="none" stroke="#1414cc" d="M4.92212 0C4.92212 1.15286 3.98753 2.08745 2.83466 2.08745 1.6818 2.08745 .74721 1.15286 .74721 0 .74721-1.15286 1.6818-2.08745 2.83466-2.08745 3.98753-2.08745 4.92212-1.15286 4.92212 0ZM2.83466 0"/>
<path transform="matrix(1.00005,0,0,-1,2.0961457,188.96302)" stroke-width="1.49442" stroke-linecap="butt" stroke-miterlimit="10" stroke-linejoin="miter" fill="none" stroke="#1414cc" d="M155.71389 127.33936C156.22039 126.91634 156.22039 126.91634 157.03034 126.24007 157.84029 125.56378 159.13916 124.47926 159.94911 123.80301 160.75907 123.12674 162.05796 122.0422 162.86789 121.36595 163.67784 120.68968 164.97672 119.60516 165.78665 118.92888 166.5966 118.25261 167.8955 117.16809 168.70545 116.4918 169.51538 115.81554 170.81427 114.73102 171.62422 114.05475 172.43416 113.3785 173.73303 112.29396 174.54299 111.61769 175.35292 110.94142 176.65181 109.85689 177.46176 109.18062 178.27172 108.50435 179.5706 107.41982 180.38054 106.74356 181.19049 106.06729 182.48937 104.98276 183.2993 104.3065 184.10926 103.63023 185.40814 102.5457 186.21808 101.86943 187.02803 101.19318 188.32692 100.10864 189.13687 99.43237 189.94681 98.75612 191.24568 97.67159 192.05564 96.99532 192.86557 96.31906 194.16446 95.23453 194.97441 94.55826 195.78437 93.88199 197.08324 92.79745 197.89319 92.12119 198.70314 91.44492 200.00202 90.36038 200.81195 89.68411 201.6219 89.00783 202.92079 87.92331 203.73073 87.24706 204.54068 86.57079 205.83957 85.48625 206.64952 84.81 207.45946 84.13373 208.75833 83.0492 209.56829 82.37292 210.37822 81.69667 211.67711 80.61214 212.48706 79.93587 213.29701 79.25961 214.59589 78.17506 215.40584 77.49881 216.21579 76.82256 217.51467 75.738 218.3246 75.06175 219.13455 74.3855 220.43344 73.30095 221.24338 72.6247 222.05333 71.94843 224.16217 70.18764 218.20809 75.15874"/>
<path transform="matrix(-.7676383,-.64087,-.640902,.7676,158.3914,62.102525)" d="M4.92212 0C4.92212 1.15286 3.98753 2.08745 2.83466 2.08745 1.6818 2.08745 .74721 1.15286 .74721 0 .74721-1.15286 1.6818-2.08745 2.83466-2.08745 3.98753-2.08745 4.92212-1.15286 4.92212 0ZM2.83466 0" fill="#1414cc"/>
<path transform="matrix(-.7676383,-.64087,-.640902,.7676,158.3914,62.102525)" stroke-width="1.49442" stroke-linecap="butt" stroke-miterlimit="10" stroke-linejoin="miter" fill="none" stroke="#1414cc" d="M4.92212 0C4.92212 1.15286 3.98753 2.08745 2.83466 2.08745 1.6818 2.08745 .74721 1.15286 .74721 0 .74721-1.15286 1.6818-2.08745 2.83466-2.08745 3.98753-2.08745 4.92212-1.15286 4.92212 0ZM2.83466 0"/>
<path transform="matrix(.7676383,.64087,.640902,-.7676,220.31511,113.804279)" d="M4.676 0C4.10176 .14711 1.5776 .98082 0 1.88808V-1.88808C1.5776-.98082 4.10176-.14711 4.676 0Z" fill="#1414cc"/>
<path transform="matrix(.7676383,.64087,.640902,-.7676,220.31511,113.804279)" stroke-width="1.49442" stroke-linecap="butt" stroke-miterlimit="10" stroke-linejoin="miter" fill="none" stroke="#1414cc" d="M4.676 0C4.10176 .14711 1.5776 .98082 0 1.88808V-1.88808C1.5776-.98082 4.10176-.14711 4.676 0Z"/>
</g>
<use data-text="x" xlink:href="#font_4_1" transform="matrix(9.963098,0,0,-9.9626,217.10889,91.83801)"/>
<use data-text="y" xlink:href="#font_4_2" transform="matrix(9.963098,0,0,-9.9626,117.72992,9.606018)"/>
</svg>
