<svg xmlns="http://www.w3.org/2000/svg" xmlns:xlink="http://www.w3.org/1999/xlink" xmlns:inkscape="http://www.inkscape.org/namespaces/inkscape" version="1.1" width="332" height="140" viewBox="0 0 332 140">
<defs>
<path id="font_1_3" d="M.1269989 .07699585 .23298645 .18003845C.3889923 .31811524 .44898988 .3721466 .44898988 .47216798 .44898988 .5860901 .35899354 .6660156 .23699951 .6660156 .12399292 .6660156 .049987794 .57411196 .049987794 .48516847 .049987794 .4291687 .099990848 .4291687 .102996829 .4291687 .11999512 .4291687 .15499878 .44117738 .15499878 .48217774 .15499878 .5081787 .13699341 .5341797 .101989749 .5341797 .09399414 .5341797 .09199524 .5341797 .08898926 .5331726 .11199951 .59806826 .1659851 .63500979 .22399903 .63500979 .31498719 .63500979 .35798646 .5541382 .35798646 .47216798 .35798646 .39215089 .30799867 .31311036 .25299073 .25108338L.06098938 .036987306C.049987794 .025985718 .049987794 .023986817 .049987794 0H.42099L.44898988 .17404175H.42399598C.4189911 .14402771 .4119873 .1000061 .4019928 .084991458 .394989 .07699585 .32899476 .07699585 .30699159 .07699585H.1269989Z"/>
<path id="font_1_4" d="M.2939911 .16503906V.07800293C.2939911 .041992189 .2919922 .0309906 .21798706 .0309906H.19699097V0C.23799134 .0029907227 .2899933 .0029907227 .33198548 .0029907227 .37399293 .0029907227 .4269867 .0029907227 .46798707 0V.0309906H.44699098C.37298585 .0309906 .37098695 .041992189 .37098695 .07800293V.16503906H.47099305V.19602967H.37098695V.65075686C.37098695 .67074587 .37098695 .6767578 .35499574 .6767578 .34599305 .6767578 .34298707 .6767578 .33499146 .66474917L.027999878 .19602967V.16503906H.2939911M.2999878 .19602967H.055999757L.2999878 .5688019V.19602967Z"/>
<path id="font_1_5" d="M.13198853 .327713V.35173036C.13198853 .6047821 .2559967 .64100649 .30699159 .64100649 .33099366 .64100649 .37298585 .634964 .394989 .6007538 .37998963 .6007538 .33999635 .6007538 .33999635 .5557556 .33999635 .524765 .3639984 .5097656 .38598634 .5097656 .4019928 .5097656 .43199159 .51875308 .43199159 .5577545 .43199159 .6178589 .3880005 .6660156 .30499269 .6660156 .1769867 .6660156 .041992189 .5367584 .041992189 .31570436 .041992189 .048553468 .1579895-.022460938 .25099183-.022460938 .3619995-.022460938 .45700074 .07156372 .45700074 .2036438 .45700074 .33070375 .36799623 .4267578 .25698854 .4267578 .18899536 .4267578 .1519928 .37573243 .13198853 .327713M.25099183 .0055389406C.18798828 .0055389406 .1579895 .06556702 .1519928 .080566409 .13398743 .127594 .13398743 .2076416 .13398743 .22564698 .13398743 .30369569 .1659851 .40374757 .2559967 .40374757 .27198792 .40374757 .31799317 .40374757 .34899903 .34172059 .36698915 .30470277 .36698915 .2536621 .36698915 .20463562 .36698915 .15661621 .36698915 .10658264 .34999085 .0705719 .31999208 .010528564 .27398683 .0055389406 .25099183 .0055389406Z"/>
<path id="font_1_6" d="M.16299439 .4569702C.116989139 .486969 .11299133 .52098086 .11299133 .5379791 .11299133 .598999 .17799378 .64100649 .24899292 .64100649 .32199098 .64100649 .38598634 .58898928 .38598634 .51698306 .38598634 .45996095 .34700013 .4119568 .2869873 .37695313L.16299439 .4569702M.30899049 .36193849C.3809967 .3989563 .42999269 .45095826 .42999269 .51698306 .42999269 .6090088 .34098817 .6660156 .25 .6660156 .1499939 .6660156 .068984989 .59199526 .068984989 .49897767 .068984989 .4809723 .070999149 .43595887 .11299133 .38894654 .12399292 .37695313 .16099549 .35194398 .18598938 .33494569 .12799073 .30592347 .041992189 .24984741 .041992189 .15072632 .041992189 .04458618 .14399719-.022460938 .24899292-.022460938 .3619995-.022460938 .45700074 .06060791 .45700074 .16773987 .45700074 .20379639 .44599916 .24885559 .4079895 .2909088 .3889923 .31193543 .37298585 .3219452 .30899049 .36193849M.20899964 .3199463 .33198548 .24183655C.3600006 .2228241 .40699769 .19277954 .40699769 .13169861 .40699769 .05760193 .33198548 .0055389406 .25 .0055389406 .1639862 .0055389406 .09199524 .067611698 .09199524 .15072632 .09199524 .20880127 .12399292 .27288819 .20899964 .3199463Z"/>
<path id="font_1_2" d="M.2939911 .64004519C.2939911 .66400149 .2939911 .6660156 .2709961 .6660156 .20899964 .60227969 .12098694 .60227969 .08898926 .60227969V.57128909C.10899353 .57128909 .16799927 .57128909 .21998596 .5972748V.07902527C.21998596 .042999269 .21699524 .0309906 .1269989 .0309906H.09498596V0C.12998963 .0029907227 .21699524 .0029907227 .25698854 .0029907227 .29699708 .0029907227 .38398744 .0029907227 .4189911 0V.0309906H.3869934C.29699708 .0309906 .2939911 .041992189 .2939911 .07902527V.64004519Z"/>
<path id="font_1_1" d="M.45999146 .31976319C.45999146 .39982606 .45498658 .47988893 .41999818 .5539398 .37399293 .65000918 .2919922 .6660156 .25 .6660156 .18998719 .6660156 .116989139 .64001467 .07598877 .54693606 .04399109 .47789 .038986207 .39982606 .038986207 .31976319 .038986207 .24472046 .042999269 .15464783 .083999637 .07859802 .1269989-.0024719239 .19999695-.022460938 .24899292-.022460938 .30299378-.022460938 .3789978-.0014648438 .4229889 .09359741 .45498658 .16265869 .45999146 .2407074 .45999146 .31976319M.24899292-.00047302247C.20999146-.00047302247 .15098572 .024551392 .1329956 .12062073 .12199402 .18066406 .12199402 .2727356 .12199402 .3317871 .12199402 .39582826 .12199402 .46188355 .12998963 .5159149 .14898682 .63500979 .22399903 .64401248 .24899292 .64401248 .28199769 .64401248 .34799195 .6259918 .36698915 .52693179 .3769989 .47088624 .3769989 .39482118 .3769989 .3317871 .3769989 .25672914 .3769989 .18867493 .3659973 .12461853 .35099793 .029556275 .2939911-.00047302247 .24899292-.00047302247Z"/>
<path id="font_2_1" d="M.6589966 .23046875C.6759949 .23046875 .69400027 .23046875 .69400027 .25045777 .69400027 .27046205 .6759949 .27046205 .6589966 .27046205H.117996219C.100997928 .27046205 .08299255 .27046205 .08299255 .25045777 .08299255 .23046875 .100997928 .23046875 .117996219 .23046875H.6589966Z"/>
<clipPath id="clip_3">
<path transform="matrix(1.00008,0,0,-1.00003,30.932282,127.03533)" d="M0 0H295.32579V125.23389H0Z"/>
</clipPath>
<path id="font_4_1" d="M.31399537 .3856659H.43199159C.45298768 .3856659 .45399476 .3866577 .45899964 .39065553 .46398927 .39465333 .46699525 .4076538 .46699525 .4136505 .46699525 .43066407 .45199586 .43066407 .43499757 .43066407H.32499696L.34599305 .51356509C.35198976 .5395355 .3639984 .5844879 .3639984 .5904846 .3639984 .60746768 .35099793 .62545779 .32699586 .62545779 .30999757 .62545779 .28599549 .6144562 .27799989 .58747866 .272995 .5704956 .2849884 .61746218 .23799134 .43066407H.11898804C.09899902 .43066407 .083999637 .43066407 .083999637 .40264894 .083999637 .3856659 .09799194 .3856659 .115997318 .3856659H.22698975L.16799927 .15104676C.16299439 .1290741 .15499878 .09812927 .15499878 .08615112 .15499878 .02923584 .20799256-.0107421879 .27799989-.0107421879 .39898683-.0107421879 .47299195 .12408447 .47299195 .14405823 .47299195 .15803528 .45599366 .15803528 .45199586 .15803528 .43598939 .15803528 .43399049 .15403748 .42900086 .14105225 .3959961 .06916809 .33399964 .023254395 .28199769 .023254395 .25 .023254395 .23999024 .046218873 .23999024 .076156619 .23999024 .09213257 .24099732 .09513855 .24299622 .10411072L.31399537 .3856659Z"/>
<path id="font_5_45" d="M.27598573 .009994507C.27598573 .07299805 .24899292 .12199402 .20098877 .12199402 .1619873 .12199402 .13999939 .09199524 .13999939 .06098938 .13999939 .02999878 .1619873 0 .20098877 0 .22698975 0 .24299622 .01499939 .24299622 .01499939 .24299622-.057113649 .21398926-.11720276 .1599884-.16229248 .1519928-.16929627 .15098572-.17030335 .15098572-.17730713 .15098572-.18632508 .16099549-.19433594 .16799927-.19433594 .18199158-.19433594 .27598573-.11621094 .27598573 .009994507Z"/>
<path id="font_5_63" d="M.68299868 0V.04399109H.6649933C.59999087 .04399109 .59999087 .052978517 .59999087 .08395386V.3018036C.59999087 .41236878 .5249939 .4423828 .43199159 .4423828 .31698609 .4423828 .2649994 .37419129 .25 .35105897V.69433596L.08198547 .6826172V.63861086C.1559906 .63861086 .16499329 .6316376 .16499329 .5828247V.08395386C.16499329 .052978517 .16499329 .04399109 .099990848 .04399109H.08198547V0C.125 .0029907227 .16699219 .0039978029 .20999146 .0039978029 .2519989 .0039978029 .29499818 .0029907227 .33699037 0V.04399109H.31900025C.2539978 .04399109 .2539978 .052978517 .2539978 .08395386V.2578125C.2539978 .37117005 .35798646 .40937806 .41999818 .40937806 .49398805 .40937806 .5109863 .36715699 .5109863 .30281068V.08395386C.5109863 .052978517 .5109863 .04399109 .44599916 .04399109H.42799378V0C.47099305 .0029907227 .5130005 .0039978029 .55599978 .0039978029 .59799197 .0039978029 .6409912 .0029907227 .68299868 0Z"/>
<path id="font_5_81" d="M.61499026 .21324158C.61499026 .33824159 .49699403 .4482422 .33999635 .4482422 .18299866 .4482422 .06498718 .33824159 .06498718 .21324158 .06498718 .09324646 .18399048-.0107421879 .33999635-.0107421879 .49699403-.0107421879 .61499026 .09324646 .61499026 .21324158M.5149994 .22323609C.5149994 .17424011 .5149994 .025253296 .33999635 .025253296 .16499329 .025253296 .16499329 .17424011 .16499329 .22323609 .16499329 .26823426 .16499329 .41523744 .33999635 .41523744 .5149994 .41523744 .5149994 .26823426 .5149994 .22323609Z"/>
<path id="font_5_109" d="M.68299868 .00024414063V.04425049C.60899356 .04425049 .59999087 .051254274 .59999087 .1002655V.4423828L.42799378 .43138124V.38737489C.5019989 .38737489 .5109863 .3803711 .5109863 .33135987V.16828919C.5109863 .07626343 .44198609 .022247315 .3600006 .022247315 .2579956 .022247315 .2539978 .06326294 .2539978 .11427307V.4423828L.08198547 .43138124V.38737489C.15899658 .38737489 .16499329 .379364 .16499329 .32835389V.11027527C.17399597-.0017547608 .2869873-.0107421879 .35198976-.0107421879 .43598939-.0107421879 .4850006 .027252198 .5149994 .07426453V-.0107421879L.68299868 .00024414063Z"/>
<path id="font_5_96" d="M.47898866 .37338258C.47898866 .41137696 .44299317 .4423828 .3899994 .4423828 .33999635 .44171144 .27598573 .41571046 .23699951 .33171083H.23599243V.4423828L.07598877 .43066407V.3866577C.1499939 .3866577 .15899658 .3796692 .15899658 .33070375V.08395386C.15899658 .052978517 .15899658 .04399109 .09399414 .04399109H.07598877V0C.117996219 .0029907227 .16299439 .0039978029 .20498657 .0039978029L.34799195 0V.04399109H.32099916C.24398804 .04399109 .24398804 .053985597 .24398804 .084991458V.22399903C.24398804 .31698609 .29699708 .40699769 .3919983 .40899659 .3919983 .40899659 .37799073 .394989 .37799073 .37298585 .37799073 .33699037 .4059906 .32199098 .42799378 .32199098 .45298768 .32199098 .47898866 .33898927 .47898866 .37298585V.37338258Z"/>
<path id="font_5_98" d="M.47799684 .12625122C.47799684 .17124939 .45298768 .20423889 .4149933 .22824097 .375 .25323487 .34498597 .25723268 .26098634 .27023316 .19699097 .28024293 .11999512 .29223634 .11999512 .3452301 .11999512 .38023377 .15899658 .41822816 .2679901 .41822816 .35099793 .41822816 .39898683 .38523866 .40499879 .3162384 .4059906 .301239 .40699769 .2952423 .42599488 .2952423 .44699098 .2952423 .44699098 .30223084 .44699098 .3232422V.42022706C.44699098 .4372406 .44699098 .4482422 .43099977 .4482422 .42599488 .4482422 .42199708 .4472351 .4139862 .4412384 .4099884 .4372406 .3919983 .42123414 .3880005 .42123414 .3880005 .42123414 .3849945 .42123414 .3789978 .42523194 .35598756 .43823243 .31900025 .4482422 .2689972 .4482422 .10398865 .4482422 .069992069 .37223817 .069992069 .3262329 .069992069 .23223877 .18598938 .21424866 .27799989 .20024109 .33599855 .1912384 .42799378 .1772461 .42799378 .10925293 .42799378 .07424927 .39898683 .022247315 .27799989 .022247315 .20999146 .022247315 .14399719 .04725647 .11399841 .15324402 .10899353 .17124939 .10798645 .17424011 .09098816 .17424011 .069992069 .17424011 .069992069 .1662445 .069992069 .14524842V.01725769C.069992069 .00024414063 .069992069-.0107421879 .085998538-.0107421879 .09399414-.0107421879 .09498596-.009750366 .11399841 .009246826L.13999939 .03425598C.18998719-.009750366 .25299073-.0107421879 .27799989-.0107421879 .44499208-.0107421879 .47799684 .07624817 .47799684 .12625122Z"/>
<path id="font_5_28" d="M.6349945 .090148929V.14515686H.59298709V.09214783C.59298709 .08213806 .59298709 .038131715 .5529938 .038131715 .5130005 .038131715 .5130005 .08213806 .5130005 .09214783V.2972107C.5130005 .39323426 .4119873 .4482422 .28799439 .4482422 .22698975 .4482422 .11099243 .4452362 .11099243 .36021424 .11099243 .32321168 .13899231 .30619813 .1639862 .30619813 .19099427 .30619813 .21699524 .32521058 .21699524 .3592224 .21699524 .3832245 .20298767 .39822389 .19400025 .40423585 .22698975 .41523744 .2749939 .41523744 .28599549 .41523744 .37098695 .41523744 .42399598 .3682251 .42399598 .2962036V.27020265C.32699586 .26519776 .272995 .26219178 .19599915 .23518372 .12998963 .21217346 .07199097 .17016602 .07199097 .105148319 .07199097 .011245728 .18798828-.0107421879 .2679901-.0107421879 .34498597-.0107421879 .40499879 .020248414 .43598939 .071243289 .43998719 .036132814 .46299745-.005859375 .5139923-.005859375 .5209961-.005859375 .6349945-.005859375 .6349945 .09013367V.090148929M.42399598 .14213562C.42399598 .03224182 .3039856 .022247315 .2789917 .022247315 .21998596 .022247315 .1639862 .053253175 .1639862 .10523987 .1639862 .13824463 .18499756 .23022461 .42399598 .24023438V.14213562Z"/>
<path id="font_5_55" d="M.46798707 .6269989C.46798707 .6700592 .4249878 .7050781 .35798646 .7050781 .269989 .7050781 .16699219 .6490326 .16699219 .5398407V.43066407H.069992069V.3866577H.16699219V.08395386C.16699219 .052978517 .16699219 .04399109 .101989749 .04399109H.083999637V0C.12599182 .0029907227 .17098999 .0039978029 .21299744 .0039978029L.35598756 0V.04399109H.32899476C.2519989 .04399109 .2519989 .053985597 .2519989 .08494568V.3866577H.3939972V.43066407H.24798584V.5388489C.24798584 .6329956 .30999757 .67207339 .35598756 .67207339 .36299134 .67207339 .3829956 .6700592 .3829956 .6670685L.3809967 .6650543C.375 .6589966 .36499024 .6469879 .36499024 .6259918 .36499024 .59799197 .3849945 .57499697 .41600038 .57499697 .44898988 .57499697 .46798707 .59799197 .46798707 .6269989Z"/>
<path id="font_5_105" d="M.44400025 .12608338V.18099976H.4019928V.1290741C.4019928 .05419922 .35798646 .025253296 .32299806 .025253296 .24598694 .025253296 .24598694 .1051178 .24598694 .12608338V.3866577H.4229889V.43066407H.24598694V.6142578H.20399475C.20298767 .52046206 .15299988 .4226532 .050994874 .41966249V.3866577H.15699768V.12608338C.15699768 .012252808 .25099183-.0107421879 .31298829-.0107421879 .3880005-.011001587 .44400025 .04399109 .44400025 .12599182V.12608338Z"/>
<path id="font_5_50" d="M.5469971 .119155887C.5469971 .13623047 .5309906 .13623047 .526001 .13623047 .5109863 .13623047 .5089874 .1322174 .5029907 .11816406 .47499085 .049209596 .40098573 .025253296 .34498597 .025253296 .2639923 .025253296 .21899414 .07017517 .20399475 .0871582 .16499329 .13522339 .16499329 .19847107 .16499329 .22558594H.5169983C.5379944 .22558594 .5469971 .22558594 .5469971 .24957276 .5469971 .31645204 .5109863 .4482422 .32398988 .4482422 .17199707 .4482422 .06498718 .3390503 .06498718 .21984864 .06498718 .09310913 .18699646-.0107421879 .33898927-.0107421879 .49798585-.0107421879 .5469971 .100097659 .5469971 .11906433V.119155887M.46998597 .25585938H.16699219C.1789856 .38816834 .27598573 .41523744 .32299806 .41523744 .46199037 .41523744 .46899415 .28492738 .46998597 .25585938Z"/>
<path id="font_5_75" d="M1.0309906 0V.04399109H1.0130005C.94799807 .04399109 .94799807 .052978517 .94799807 .08395386V.3017578C.94799807 .42536927 .85398867 .4423828 .7789917 .4423828 .68099978 .4423828 .6239929 .39328004 .59599307 .34902955 .57099917 .44137574 .46899415 .4423828 .43199159 .4423828 .32899476 .4423828 .2709961 .3872528 .24598694 .34399415V.4423828L.08198547 .43066407V.3866577C.1559906 .3866577 .16499329 .3796692 .16499329 .330719V.08395386C.16499329 .052978517 .16499329 .04399109 .099990848 .04399109H.08198547V0C.125 .0029907227 .16699219 .0039978029 .20999146 .0039978029 .2519989 .0039978029 .29499818 .0029907227 .33699037 0V.04399109H.31900025C.2539978 .04399109 .2539978 .052978517 .2539978 .08395386V.25775147C.2539978 .36914063 .35598756 .40937806 .42099 .40937806 .49398805 .40937806 .5119934 .36813355 .5119934 .30274964V.08395386C.5119934 .052978517 .5119934 .04399109 .44699098 .04399109H.42900086V0C.47200013 .0029907227 .5139923 .0039978029 .5569916 .0039978029 .598999 .0039978029 .6419983 .0029907227 .6839905 0V.04399109H.66600039C.6009979 .04399109 .6009979 .052978517 .6009979 .08395386V.25775147C.6009979 .36914063 .7029877 .40937806 .7679901 .40937806 .84098818 .40937806 .85899356 .36813355 .85899356 .30274964V.08395386C.85899356 .052978517 .85899356 .04399109 .7939911 .04399109H.776001V0C.81900027 .0029907227 .86099246 .0039978029 .9039917 .0039978029 .94599917 .0039978029 .9889984 .0029907227 1.0309906 0Z"/>
<path id="font_5_66" d="M.32598878 0V.04399109C.25898744 .04399109 .25099183 .04399109 .25099183 .08403015V.4423828L.08699036 .43066407V.3866577C.1579895 .3866577 .1659851 .3796692 .1659851 .33070375V.08395386C.1659851 .052978517 .1659851 .04399109 .100997928 .04399109H.08299255V0C.12399292 .0029907227 .1659851 .0039978029 .20698548 .0039978029 .24499512 .0039978029 .2889862 .0029907227 .32598878 0M.2619934 .6000519C.2619934 .63404849 .23498535 .6610565 .20098877 .6610565 .16799927 .6610565 .13999939 .63404849 .13999939 .6000519 .13999939 .5660553 .16699219 .5390625 .20098877 .5390625 .23399353 .5390625 .2619934 .5660553 .2619934 .6000519Z"/>
<path id="font_5_47" d="M.6729889 0V.04399109C.598999 .04399109 .58999636 .050994874 .58999636 .10002136V.69433596L.42199708 .6826172V.63861086C.49598695 .63861086 .5049896 .6316376 .5049896 .5828247V.3883667C.48298646 .40737916 .42900086 .4423828 .34599305 .4423828 .19599915 .4423828 .07199097 .34135438 .07199097 .21531677 .07199097 .0942688 .18499756-.0107421879 .33399964-.0107421879 .41600038-.0107421879 .47299195 .025253296 .5009918 .04925537V-.0107421879L.6729889 0M.5009918 .10899353C.45298768 .03526306 .3789978 .022247315 .33999635 .022247315 .2899933 .022247315 .23999024 .042266847 .20698548 .08628845 .1749878 .12731934 .17199707 .18435669 .17199707 .21539307 .17199707 .24240113 .17399597 .30845643 .21699524 .3544922 .2519989 .39048768 .3039856 .40948487 .35299684 .40948487 .38198854 .40948487 .45298768 .40348817 .5009918 .33546449V.10899353Z"/>
<path id="font_5_77" d="M.68299868 0V.04399109H.6649933C.59999087 .04399109 .59999087 .052978517 .59999087 .08395386V.3017578C.59999087 .41236878 .5249939 .4423828 .43199159 .4423828 .32499696 .4423828 .2689972 .3832245 .24598694 .34399415V.4423828L.08198547 .43066407V.3866577C.1559906 .3866577 .16499329 .3796692 .16499329 .330719V.08395386C.16499329 .052978517 .16499329 .04399109 .099990848 .04399109H.08198547V0C.125 .0029907227 .16699219 .0039978029 .20999146 .0039978029 .2519989 .0039978029 .29499818 .0029907227 .33699037 0V.04399109H.31900025C.2539978 .04399109 .2539978 .052978517 .2539978 .08395386V.25775147C.2539978 .3713379 .35798646 .40937806 .41999818 .40937806 .49398805 .40937806 .5109863 .36732484 .5109863 .30326844V.08403015C.5109863 .053009035 .5109863 .04399109 .44599916 .04399109H.42799378V0C.47099305 .0029907227 .5130005 .0039978029 .55599978 .0039978029 .59799197 .0039978029 .6409912 .0029907227 .68299868 0Z"/>
<path id="font_5_59" d="M.6349945 .39611817C.6349945 .42211915 .6139984 .453125 .56599429 .453125 .5419922 .453125 .4889984 .44812013 .43598939 .40711976 .41299439 .42137147 .36799623 .4423828 .30599977 .4423828 .18798828 .4423828 .10598755 .3723755 .10598755 .29537965 .10598755 .2443695 .14299011 .2073822 .1579895 .19537354 .13398743 .16638184 .12799073 .1363678 .12799073 .11437988 .12799073 .06137085 .1619873 .028381348 .17098999 .021377564 .12098694 .007980347 .06298828-.024032593 .06298828-.077041629 .06298828-.15605164 .19499207-.20605469 .33999635-.20605469 .47399903-.20605469 .61698916-.1620636 .61698916-.075042728 .61698916-.030029297 .59098818 .017974854 .5419922 .041992189 .47499085 .074035648 .41099549 .074035648 .3039856 .074035648 .2789917 .07398987 .23498535 .07398987 .22999573 .07498169 .18199158 .08303833 .17098999 .12226868 .17098999 .14138794 .17098999 .16142273 .18099976 .1774292 .18399048 .1774292 .18399048 .1774292 .18798828 .17643738 .19099427 .1754303 .23098755 .1544342 .269989 .1484375 .30499269 .1484375 .4229889 .1484375 .5049896 .21842957 .5049896 .29542542 .5049896 .34321595 .47200013 .37817384 .45999146 .38916017 .5079956 .41812135 .5529938 .41911317 .56900027 .42012025 .56599429 .41612245 .5609894 .41012574 .5609894 .39614869 .5609894 .37617494 .57398989 .3591919 .59799197 .3591919 .621994 .3591919 .6349945 .37617494 .6349945 .39614869V.39611817M.4169922 .2952881C.4169922 .24035645 .3929901 .181427 .30599977 .181427 .21798706 .181427 .19400025 .23934937 .19400025 .2952881 .19400025 .35031129 .21798706 .40937806 .30499269 .40937806 .3929901 .40937806 .4169922 .35131837 .4169922 .29525758V.2952881M.5479889-.07701111C.5479889-.1260376 .45899964-.17306519 .33999635-.17306519 .22499085-.17306519 .13198853-.12902832 .13198853-.07600403 .13198853-.04498291 .16699219-.001953125 .24198914-.001953125H.30699159C.40699769-.001953125 .5479889-.001953125 .5479889-.07701111Z"/>
<path id="font_4_2" d="M.6619873 .3733673C.66600039 .3883667 .66600039 .39537049 .66600039 .39637757 .66600039 .41838075 .647995 .43138124 .6289978 .43138124 .58898928 .43138124 .58099368 .39637757 .57398989 .3693695L.5529938 .28633119 .5219879 .16130066C.5179901 .14828491 .5130005 .12728882 .5119934 .121276859 .5109863 .11727905 .45700074 .023254395 .37199403 .023254395 .32598878 .023254395 .2899933 .04525757 .2899933 .10928345 .2899933 .16429138 .31999208 .23731995 .34899903 .30934144 .35398866 .3213501 .36099244 .33735658 .36099244 .35435487 .36099244 .40338136 .31399537 .4423828 .2519989 .4423828 .14698792 .4423828 .09098816 .3143463 .09098816 .28733827 .09098816 .2733307 .10699463 .2733307 .11199951 .2733307 .1289978 .2733307 .12998963 .27833558 .1349945 .29333497 .1559906 .36236573 .20298767 .40837098 .24798584 .40837098 .2669983 .40837098 .27799989 .39736939 .27799989 .37036134 .27799989 .35035707 .27198792 .3363495 .2649994 .31834413 .21598816 .1993103 .20698548 .16329956 .20698548 .123291019 .20698548 .012252808 .2999878-.0107421879 .36698915-.0107421879 .42399598-.0107421879 .46598817 .01725769 .4909973 .038253786 .47698976-.01777649 .46598817-.061904909 .4189911-.10990906 .3959961-.13290406 .34899903-.17108155 .2869873-.17108155 .2689972-.17108155 .23199463-.1680603 .20899964-.14691162 .2539978-.13591004 .25898744-.09690857 .25898744-.0868988 .25898744-.057907106 .23599243-.045898439 .21499634-.045898439 .18598938-.045898439 .1519928-.06990051 .1519928-.11590576 .1519928-.16604615 .20298767-.20507813 .2869873-.20507813 .40098573-.20507813 .5359955-.12890625 .56799319-.00074768069L.6619873 .3733673Z"/>
<path id="font_5_35" d="M.6769867 .2163086C.6769867 .3363495 .56599429 .4423828 .4149933 .4423828 .36099244 .4423828 .2979889 .42837525 .24398804 .3863678V.69433596L.07598877 .68333438V.639328C.1499939 .639328 .15899658 .6323242 .15899658 .5833435V.00024414063H.20098877C.20899964 .013244629 .21699524 .027252198 .22399903 .040252687 .22698975 .04626465 .23098755 .053253175 .23498535 .059265138 .27799989 .013244629 .33898927-.0107421879 .4019928-.0107421879 .55400088-.0107421879 .6769867 .091278079 .6769867 .2163086M.57699587 .2163086C.57699587 .15829468 .56399539 .107284549 .5249939 .07026672 .49299623 .040252687 .44400025 .022247315 .3959961 .022247315 .32798768 .022247315 .27598573 .060256959 .24798584 .106277469V.3343506C.28199769 .38336183 .34799195 .40937806 .4079895 .40937806 .526001 .40937806 .57699587 .32234193 .57699587 .2163086Z"/>
<path id="font_5_112" d="M.6579895 .3866577V.43066407C.6319885 .4286499 .60598757 .426651 .57099917 .426651 .57099917 .426651 .5049896 .42765809 .46899415 .43066407V.3866577C.49598695 .3856659 .5130005 .3736725 .5130005 .350708 .5130005 .34072877 .5079956 .33073426 .5079956 .33073426L.3809967 .083114627 .24398804 .3497162C.24198914 .353714 .23899842 .35969544 .23899842 .36569215 .23899842 .3866577 .272995 .3866577 .29299928 .3866577V.43066407C.24699402 .42765809 .1749878 .426651 .16799927 .426651 .12799073 .426651 .09799194 .426651 .055999757 .43066407V.3866577C.115997318 .3866577 .12998963 .3866577 .14498902 .3567047L.32199098 .01222229C.32899476-.0017700195 .33399964-.0107421879 .35699464-.0107421879 .37998963-.0107421879 .3849945-.00076293948 .3919983 .01222229L.5529938 .3267517C.56999209 .35969544 .59599307 .3856659 .6579895 .3866577Z"/>
<path id="font_6_2" d="M.18598938 .32769776C.18699646 .37371827 .18798828 .4528656 .22399903 .51808169 .25299073 .5720825 .31799317 .628006 .41099549 .628006 .42999269 .628006 .47499085 .6260071 .5049896 .6020813 .4889984 .5980835 .46299745 .5830841 .46299745 .5490875 .46299745 .51708987 .4869995 .49609376 .5159912 .49609376 .5329895 .49609376 .56900027 .5050812 .56900027 .5520935 .56900027 .6060791 .5309906 .6660156 .4099884 .6660156 .23799134 .6660156 .07998657 .52508547 .07998657 .317688 .07998657 .078567508 .19699097-.022460938 .34298707-.022460938 .44198609-.022460938 .4889984 .014526367 .522995 .042541505 .58699038 .095565799 .59999087 .15460205 .59999087 .20463562 .59999087 .26565553 .5799866 .314682 .5279999 .36071778 .48399354 .40072633 .43798829 .42773438 .35099793 .42773438 .29299928 .42773438 .22799683 .39971925 .18598938 .32769776M.34298707 .01852417C.18899536 .01852417 .18899536 .18461609 .18899536 .2266388 .18899536 .30368043 .24398804 .39372254 .34899903 .39372254 .3999939 .39372254 .43199159 .38072206 .46299745 .34069825 .49299623 .30368043 .49398805 .2616577 .49398805 .20562744 .49398805 .14759827 .49398805 .109573367 .46199037 .06956482 .43399049 .0365448 .39898683 .01852417 .34298707 .01852417Z"/>
<path id="font_6_1" d="M.19599915 .55078127C.24899292 .53778079 .2939911 .53778079 .30499269 .53778079 .37298585 .53778079 .4229889 .55778506 .44898988 .57177737 .47299195 .583786 .54100039 .6267853 .54100039 .64878848 .54100039 .66378787 .5299988 .66578677 .5269928 .66578677 .5249939 .66578677 .522995 .66578677 .5119934 .66078189 .47399903 .6477814 .4119873 .63378909 .34599305 .63378909 .2889862 .63378909 .23399353 .64378359 .18099976 .66178897 .16999817 .66578677 .16799927 .66578677 .1659851 .66578677 .1519928 .66578677 .1519928 .6537781 .1519928 .63778689V.33763124C.1519928 .32061769 .1519928 .30760194 .17098999 .30760194 .18199158 .30760194 .18299866 .30960084 .19198609 .32061769 .22999573 .36468507 .2829895 .38671876 .35099793 .38671876 .40899659 .38671876 .44099427 .35266114 .45498658 .33163453 .47799684 .2975769 .48298646 .2525177 .48298646 .20446778 .48298646 .16246033 .47898866 .10646057 .43998719 .067489627 .394989 .021530152 .33799745 .01852417 .31599427 .01852417 .25099183 .01852417 .17799378 .04650879 .14698792 .10546875 .18899536 .10845947 .20298767 .13845825 .20298767 .1614685 .20298767 .19346619 .1789856 .21746826 .14698792 .21746826 .125 .21746826 .09098816 .20446778 .09098816 .15846253 .09098816 .0605011 .18699646-.022460938 .31799317-.022460938 .46699525-.022460938 .58898928 .07748413 .58898928 .20146179 .58898928 .3146057 .49198915 .41970826 .35299684 .41970826 .2899933 .41970826 .23899842 .40371705 .19599915 .37068177V.55078127Z"/>
<path id="font_7_1" d="M.61099246 .25C.61099246 .3841095 .5019989 .49316407 .36799623 .49316407 .23399353 .49316407 .125 .3841095 .125 .25 .125 .115875247 .23399353 .0068359377 .36799623 .0068359377 .5019989 .0068359377 .61099246 .115875247 .61099246 .25M.36799623 .06283569C.2649994 .06283569 .18099976 .14689636 .18099976 .25 .18099976 .35308839 .2649994 .43714906 .36799623 .43714906 .47099305 .43714906 .5549927 .35308839 .5549927 .25 .5549927 .14689636 .47099305 .06283569 .36799623 .06283569Z"/>
<path id="font_5_54" d="M.7839966 .44114686 .7509918 .6787567H.08299255V.6347656H.11299133C.19400025 .6347656 .19400025 .6247711 .19400025 .59384158V.08503723C.19400025 .054000856 .19400025 .04399109 .11299133 .04399109H.08299255V0L.2519989 .0039978029C.30899049 .0039978029 .3829956 .0039978029 .43899537 0V.04399109H.3959961C.2999878 .04399109 .2999878 .054000856 .2999878 .08604431V.31829835H.4119873C.5119934 .31829835 .5369873 .29527284 .5369873 .20117188H.57899478V.47906495H.5369873C.5369873 .3852539 .5119934 .3623047 .4119873 .3623047H.2999878V.5968323C.2999878 .6277771 .2999878 .6347656 .34899903 .6347656H.5149994C.673996 .6347656 .7220001 .59584048 .74198916 .44114686H.7839966Z"/>
</defs>
<path transform="matrix(1.00008,0,0,-1.00003,30.932282,127.03533)" stroke-width=".3985" stroke-linecap="butt" stroke-miterlimit="10" stroke-linejoin="miter" fill="none" stroke="#404040" d="M0 0H295.32579V125.23389H0Z"/>
<path transform="matrix(1.00008,0,0,-1.00003,30.932282,127.03533)" stroke-width=".3985" stroke-linecap="butt" stroke-miterlimit="10" stroke-linejoin="miter" fill="none" stroke="#cccccc" d="M0 0V125.23389M12.30524 0V125.23389M24.61047 0V125.23389M36.91571 0V125.23389M49.22096 0V125.23389M61.5262 0V125.23389M73.83144 0V125.23389M86.13669 0V125.23389M98.44193 0V125.23389M110.74716 0V125.23389M123.05241 0V125.23389M135.35765 0V125.23389M147.66289 0V125.23389M159.96813 0V125.23389M172.27338 0V125.23389M184.57862 0V125.23389M196.88385 0V125.23389M209.1891 0V125.23389M221.49434 0V125.23389M233.79958 0V125.23389M246.10483 0V125.23389M258.41007 0V125.23389M270.7153 0V125.23389M283.02055 0V125.23389M295.32579 0V125.23389"/>
<path transform="matrix(1.00008,0,0,-1.00003,30.932282,127.03533)" stroke-width=".3985" stroke-linecap="butt" stroke-miterlimit="10" stroke-linejoin="miter" fill="none" stroke="#cccccc" d="M24.61047 0V125.23389M49.22096 0V125.23389M73.83144 0V125.23389M98.44193 0V125.23389M123.05241 0V125.23389M147.66289 0V125.23389M172.27338 0V125.23389M196.88385 0V125.23389M221.49434 0V125.23389M246.10483 0V125.23389M270.7153 0V125.23389M295.32579 0V125.23389"/>
<path transform="matrix(1.00008,0,0,-1.00003,30.932282,127.03533)" stroke-width=".3985" stroke-linecap="butt" stroke-miterlimit="10" stroke-linejoin="miter" fill="none" stroke="#cccccc" d="M0 10.43616H295.32579M0 31.30847H295.32579M0 52.18079H295.32579M0 73.0531H295.32579M0 93.92542H295.32579M0 114.79773H295.32579"/>
<path transform="matrix(1.00008,0,0,-1.00003,30.932282,127.03533)" stroke-width=".3985" stroke-linecap="butt" stroke-miterlimit="10" stroke-linejoin="miter" fill="none" stroke="#cccccc" d="M0 20.87231H295.32579M0 41.74463H295.32579M0 83.48926H295.32579M0 104.36157H295.32579"/>
<path transform="matrix(1.00008,0,0,-1.00003,30.932282,127.03533)" stroke-width=".19925" stroke-linecap="butt" stroke-miterlimit="10" stroke-linejoin="miter" fill="none" stroke="#7f807f" d="M0 61.19948V64.03441M12.30524 61.19948V64.03441M24.61047 61.19948V64.03441M36.91571 61.19948V64.03441M49.22096 61.19948V64.03441M61.5262 61.19948V64.03441M73.83144 61.19948V64.03441M86.13669 61.19948V64.03441M98.44193 61.19948V64.03441M110.74716 61.19948V64.03441M123.05241 61.19948V64.03441M135.35765 61.19948V64.03441M147.66289 61.19948V64.03441M159.96813 61.19948V64.03441M172.27338 61.19948V64.03441M184.57862 61.19948V64.03441M196.88385 61.19948V64.03441M209.1891 61.19948V64.03441M221.49434 61.19948V64.03441M233.79958 61.19948V64.03441M246.10483 61.19948V64.03441M258.41007 61.19948V64.03441M270.7153 61.19948V64.03441M283.02055 61.19948V64.03441M295.32579 61.19948V64.03441"/>
<path transform="matrix(1.00008,0,0,-1.00003,30.932282,127.03533)" stroke-width=".19925" stroke-linecap="butt" stroke-miterlimit="10" stroke-linejoin="miter" fill="none" stroke="#7f807f" d="M24.61047 60.49097V64.7429M49.22096 60.49097V64.7429M73.83144 60.49097V64.7429M98.44193 60.49097V64.7429M123.05241 60.49097V64.7429M147.66289 60.49097V64.7429M172.27338 60.49097V64.7429M196.88385 60.49097V64.7429M221.49434 60.49097V64.7429M246.10483 60.49097V64.7429M270.7153 60.49097V64.7429M295.32579 60.49097V64.7429"/>
<path transform="matrix(1.00008,0,0,-1.00003,30.932282,127.03533)" stroke-width=".19925" stroke-linecap="butt" stroke-miterlimit="10" stroke-linejoin="miter" fill="none" stroke="#7f807f" d="M-1.41765 10.43616H1.41766M-1.41765 31.30847H1.41766M-1.41765 52.18079H1.41766M-1.41765 73.0531H1.41766M-1.41765 93.92542H1.41766M-1.41765 114.79773H1.41766"/>
<path transform="matrix(1.00008,0,0,-1.00003,30.932282,127.03533)" stroke-width=".19925" stroke-linecap="butt" stroke-miterlimit="10" stroke-linejoin="miter" fill="none" stroke="#7f807f" d="M-2.1263 20.87231H2.1263M-2.1263 41.74463H2.1263M-2.1263 83.48926H2.1263M-2.1263 104.36157H2.1263"/>
<path transform="matrix(1.00008,0,0,-1.00003,30.932282,127.03533)" stroke-width=".3985" stroke-linecap="butt" stroke-miterlimit="10" stroke-linejoin="miter" fill="none" stroke="#000000" d="M0 62.61694H293.33329"/>
<path transform="matrix(1.00008,0,0,-1.00003,324.28904,64.41651)" d="M1.99252 0-1.19551 1.59401 0 0-1.19551-1.59401"/>
<path transform="matrix(1.00008,0,0,-1.00003,30.932282,127.03533)" stroke-width=".3985" stroke-linecap="butt" stroke-miterlimit="10" stroke-linejoin="miter" fill="none" stroke="#000000" d="M0 0V123.24136"/>
<path transform="matrix(0,-1.00003,-1.00008,-0,30.932282,3.790268)" d="M1.99252 0-1.19551 1.59401 0 0-1.19551-1.59401"/>
<use data-text="2" xlink:href="#font_1_3" transform="matrix(9.963397,0,0,-9.962899,53.054056,76.48282)"/>
<use data-text="4" xlink:href="#font_1_4" transform="matrix(9.963397,0,0,-9.962899,77.666019,76.48282)"/>
<use data-text="6" xlink:href="#font_1_5" transform="matrix(9.963397,0,0,-9.962899,102.27899,76.48282)"/>
<use data-text="8" xlink:href="#font_1_6" transform="matrix(9.963397,0,0,-9.962899,126.89095,76.48282)"/>
<use data-text="1" xlink:href="#font_1_2" transform="matrix(9.963397,0,0,-9.962899,149.01273,76.48282)"/>
<use data-text="0" xlink:href="#font_1_1" transform="matrix(9.963397,0,0,-9.962899,153.99442,76.48282)"/>
<use data-text="1" xlink:href="#font_1_2" transform="matrix(9.963397,0,0,-9.962899,173.6247,76.48282)"/>
<use data-text="2" xlink:href="#font_1_3" transform="matrix(9.963397,0,0,-9.962899,178.60639,76.48282)"/>
<use data-text="1" xlink:href="#font_1_2" transform="matrix(9.963397,0,0,-9.962899,198.23767,76.48282)"/>
<use data-text="4" xlink:href="#font_1_4" transform="matrix(9.963397,0,0,-9.962899,203.21936,76.48282)"/>
<use data-text="1" xlink:href="#font_1_2" transform="matrix(9.963397,0,0,-9.962899,222.84963,76.48282)"/>
<use data-text="6" xlink:href="#font_1_5" transform="matrix(9.963397,0,0,-9.962899,227.83132,76.48282)"/>
<use data-text="1" xlink:href="#font_1_2" transform="matrix(9.963397,0,0,-9.962899,247.4626,76.48282)"/>
<use data-text="8" xlink:href="#font_1_6" transform="matrix(9.963397,0,0,-9.962899,252.44429,76.48282)"/>
<use data-text="2" xlink:href="#font_1_3" transform="matrix(9.963397,0,0,-9.962899,272.0746,76.48282)"/>
<use data-text="0" xlink:href="#font_1_1" transform="matrix(9.963397,0,0,-9.962899,277.05628,76.48282)"/>
<use data-text="2" xlink:href="#font_1_3" transform="matrix(9.963397,0,0,-9.962899,296.68757,76.48282)"/>
<use data-text="2" xlink:href="#font_1_3" transform="matrix(9.963397,0,0,-9.962899,301.66926,76.48282)"/>
<use data-text="2" xlink:href="#font_1_3" transform="matrix(9.963397,0,0,-9.962899,321.2995,76.48282)"/>
<use data-text="4" xlink:href="#font_1_4" transform="matrix(9.963397,0,0,-9.962899,326.2812,76.48282)"/>
<use data-text="&#x2212;" xlink:href="#font_2_1" transform="matrix(9.963397,0,0,-9.962899,12.55481,108.95779)"/>
<use data-text="4" xlink:href="#font_1_4" transform="matrix(9.963397,0,0,-9.962899,20.304429,108.95779)"/>
<use data-text="&#x2212;" xlink:href="#font_2_1" transform="matrix(9.963397,0,0,-9.962899,12.55481,88.08416)"/>
<use data-text="2" xlink:href="#font_1_3" transform="matrix(9.963397,0,0,-9.962899,20.304429,88.08416)"/>
<use data-text="2" xlink:href="#font_1_3" transform="matrix(9.963397,0,0,-9.962899,20.304429,46.75392)"/>
<use data-text="4" xlink:href="#font_1_4" transform="matrix(9.963397,0,0,-9.962899,20.304429,25.881295)"/>
<g clip-path="url(#clip_3)">
<path transform="matrix(1.00008,0,0,-1.00003,30.932282,127.03533)" stroke-width="1.49442" stroke-linecap="butt" stroke-miterlimit="10" stroke-linejoin="miter" fill="none" stroke="#1414cc" d="M0 31.30847H12.30524 24.61047 36.91571 49.22096 61.5262L73.83144 57.39886 86.13669 83.48926H98.44193 110.74716 123.05241 135.35765 147.66289 159.96813 172.27338 184.57862 196.88385 209.1891 221.49434 233.79958 246.10483L258.41007 70.44406 270.7153 57.39886 283.02055 44.35367 295.32579 31.30847"/>
</g>
<path transform="matrix(1.00008,0,0,-1.00003,30.932282,127.03533)" d="M1.99255 31.30847C1.99255 32.40894 1.10046 33.30103 0 33.30103-1.10046 33.30103-1.99255 32.40894-1.99255 31.30847-1.99255 30.208-1.10046 29.31592 0 29.31592 1.10046 29.31592 1.99255 30.208 1.99255 31.30847ZM0 31.30847" fill="#1414cc"/>
<path transform="matrix(1.00008,0,0,-1.00003,30.932282,127.03533)" stroke-width=".3985" stroke-linecap="butt" stroke-miterlimit="10" stroke-linejoin="miter" fill="none" stroke="#1414cc" d="M1.99255 31.30847C1.99255 32.40894 1.10046 33.30103 0 33.30103-1.10046 33.30103-1.99255 32.40894-1.99255 31.30847-1.99255 30.208-1.10046 29.31592 0 29.31592 1.10046 29.31592 1.99255 30.208 1.99255 31.30847ZM0 31.30847"/>
<path transform="matrix(1.00008,0,0,-1.00003,30.932282,127.03533)" d="M63.51875 31.30847C63.51875 32.40894 62.62666 33.30103 61.5262 33.30103 60.42574 33.30103 59.53365 32.40894 59.53365 31.30847 59.53365 30.208 60.42574 29.31592 61.5262 29.31592 62.62666 29.31592 63.51875 30.208 63.51875 31.30847ZM61.5262 31.30847" fill="#1414cc"/>
<path transform="matrix(1.00008,0,0,-1.00003,30.932282,127.03533)" stroke-width=".3985" stroke-linecap="butt" stroke-miterlimit="10" stroke-linejoin="miter" fill="none" stroke="#1414cc" d="M63.51875 31.30847C63.51875 32.40894 62.62666 33.30103 61.5262 33.30103 60.42574 33.30103 59.53365 32.40894 59.53365 31.30847 59.53365 30.208 60.42574 29.31592 61.5262 29.31592 62.62666 29.31592 63.51875 30.208 63.51875 31.30847ZM61.5262 31.30847"/>
<path transform="matrix(1.00008,0,0,-1.00003,30.932282,127.03533)" d="M88.12924 83.48926C88.12924 84.58972 87.23715 85.48181 86.13669 85.48181 85.03621 85.48181 84.14413 84.58972 84.14413 83.48926 84.14413 82.3888 85.03621 81.4967 86.13669 81.4967 87.23715 81.4967 88.12924 82.3888 88.12924 83.48926ZM86.13669 83.48926" fill="#1414cc"/>
<path transform="matrix(1.00008,0,0,-1.00003,30.932282,127.03533)" stroke-width=".3985" stroke-linecap="butt" stroke-miterlimit="10" stroke-linejoin="miter" fill="none" stroke="#1414cc" d="M88.12924 83.48926C88.12924 84.58972 87.23715 85.48181 86.13669 85.48181 85.03621 85.48181 84.14413 84.58972 84.14413 83.48926 84.14413 82.3888 85.03621 81.4967 86.13669 81.4967 87.23715 81.4967 88.12924 82.3888 88.12924 83.48926ZM86.13669 83.48926"/>
<path transform="matrix(1.00008,0,0,-1.00003,30.932282,127.03533)" d="M248.09738 83.48926C248.09738 84.58972 247.20529 85.48181 246.10483 85.48181 245.00435 85.48181 244.11228 84.58972 244.11228 83.48926 244.11228 82.3888 245.00435 81.4967 246.10483 81.4967 247.20529 81.4967 248.09738 82.3888 248.09738 83.48926ZM246.10483 83.48926" fill="#1414cc"/>
<path transform="matrix(1.00008,0,0,-1.00003,30.932282,127.03533)" stroke-width=".3985" stroke-linecap="butt" stroke-miterlimit="10" stroke-linejoin="miter" fill="none" stroke="#1414cc" d="M248.09738 83.48926C248.09738 84.58972 247.20529 85.48181 246.10483 85.48181 245.00435 85.48181 244.11228 84.58972 244.11228 83.48926 244.11228 82.3888 245.00435 81.4967 246.10483 81.4967 247.20529 81.4967 248.09738 82.3888 248.09738 83.48926ZM246.10483 83.48926"/>
<path transform="matrix(1.00008,0,0,-1.00003,30.932282,127.03533)" d="M297.31834 31.30847C297.31834 32.40894 296.42625 33.30103 295.32579 33.30103 294.2253 33.30103 293.33326 32.40894 293.33326 31.30847 293.33326 30.208 294.2253 29.31592 295.32579 29.31592 296.42625 29.31592 297.31834 30.208 297.31834 31.30847ZM295.32579 31.30847" fill="#1414cc"/>
<path transform="matrix(1.00008,0,0,-1.00003,30.932282,127.03533)" stroke-width=".3985" stroke-linecap="butt" stroke-miterlimit="10" stroke-linejoin="miter" fill="none" stroke="#1414cc" d="M297.31834 31.30847C297.31834 32.40894 296.42625 33.30103 295.32579 33.30103 294.2253 33.30103 293.33326 32.40894 293.33326 31.30847 293.33326 30.208 294.2253 29.31592 295.32579 29.31592 296.42625 29.31592 297.31834 30.208 297.31834 31.30847ZM295.32579 31.30847"/>
<path transform="matrix(1.00008,0,0,-1.00003,30.932282,127.03533)" stroke-width=".3985" stroke-linecap="butt" stroke-miterlimit="10" stroke-linejoin="miter" fill="none" stroke="#1414cc" d=""/>
<use data-text="t" xlink:href="#font_4_1" transform="matrix(4.9816987,0,0,-4.9814498,144.20835,137.86167)"/>
<use data-text="," xlink:href="#font_5_45" transform="matrix(4.9816987,0,0,-4.9814498,147.01657,137.86167)"/>
<use data-text="h" xlink:href="#font_5_63" transform="matrix(4.9816987,0,0,-4.9814498,151.37056,137.86167)"/>
<use data-text="o" xlink:href="#font_5_81" transform="matrix(4.9816987,0,0,-4.9814498,155.10684,137.86167)"/>
<use data-text="u" xlink:href="#font_5_109" transform="matrix(4.9816987,0,0,-4.9814498,158.49939,137.86167)"/>
<use data-text="r" xlink:href="#font_5_96" transform="matrix(4.9816987,0,0,-4.9814498,162.23566,137.86167)"/>
<use data-text="s" xlink:href="#font_5_98" transform="matrix(4.9816987,0,0,-4.9814498,164.93575,137.86167)"/>
<use data-text="a" xlink:href="#font_5_28" transform="matrix(4.9816987,0,0,-4.9814498,170.02207,137.86167)"/>
<use data-text="f" xlink:href="#font_5_55" transform="matrix(4.9816987,0,0,-4.9814498,173.41461,137.86167)"/>
<use data-text="t" xlink:href="#font_5_105" transform="matrix(4.9816987,0,0,-4.9814498,175.59659,137.86167)"/>
<use data-text="e" xlink:href="#font_5_50" transform="matrix(4.9816987,0,0,-4.9814498,178.29668,137.86167)"/>
<use data-text="r" xlink:href="#font_5_96" transform="matrix(4.9816987,0,0,-4.9814498,181.3405,137.86167)"/>
<use data-text="m" xlink:href="#font_5_75" transform="matrix(4.9816987,0,0,-4.9814498,186.39194,137.86167)"/>
<use data-text="i" xlink:href="#font_5_66" transform="matrix(4.9816987,0,0,-4.9814498,191.86185,137.86167)"/>
<use data-text="d" xlink:href="#font_5_47" transform="matrix(4.9816987,0,0,-4.9814498,193.86946,137.86167)"/>
<use data-text="n" xlink:href="#font_5_77" transform="matrix(4.9816987,0,0,-4.9814498,197.60575,137.86167)"/>
<use data-text="i" xlink:href="#font_5_66" transform="matrix(4.9816987,0,0,-4.9814498,201.34201,137.86167)"/>
<use data-text="g" xlink:href="#font_5_59" transform="matrix(4.9816987,0,0,-4.9814498,203.34964,137.86167)"/>
<use data-text="h" xlink:href="#font_5_63" transform="matrix(4.9816987,0,0,-4.9814498,206.74219,137.86167)"/>
<use data-text="t" xlink:href="#font_5_105" transform="matrix(4.9816987,0,0,-4.9814498,210.30908,137.86167)"/>
<use data-text="y" xlink:href="#font_4_2" transform="matrix(0,-4.9814498,-4.9816987,-0,5.68425,97.09744)"/>
<use data-text="," xlink:href="#font_5_45" transform="matrix(0,-4.9814498,-4.9816987,-0,5.68425,93.27933)"/>
<use data-text="d" xlink:href="#font_5_47" transform="matrix(0,-4.9814498,-4.9816987,-0,5.68425,88.92555)"/>
<use data-text="e" xlink:href="#font_5_50" transform="matrix(0,-4.9814498,-4.9816987,-0,5.68425,85.18945)"/>
<use data-text="g" xlink:href="#font_5_59" transform="matrix(0,-4.9814498,-4.9816987,-0,5.68425,82.14578)"/>
<use data-text="r" xlink:href="#font_5_96" transform="matrix(0,-4.9814498,-4.9816987,-0,5.68425,78.74844)"/>
<use data-text="e" xlink:href="#font_5_50" transform="matrix(0,-4.9814498,-4.9816987,-0,5.68425,76.04849)"/>
<use data-text="e" xlink:href="#font_5_50" transform="matrix(0,-4.9814498,-4.9816987,-0,5.68425,73.00482)"/>
<use data-text="s" xlink:href="#font_5_98" transform="matrix(0,-4.9814498,-4.9816987,-0,5.68425,69.96115)"/>
<use data-text="a" xlink:href="#font_5_28" transform="matrix(0,-4.9814498,-4.9816987,-0,5.68425,64.87508)"/>
<use data-text="b" xlink:href="#font_5_35" transform="matrix(0,-4.9814498,-4.9816987,-0,5.68425,61.48271)"/>
<use data-text="o" xlink:href="#font_5_81" transform="matrix(0,-4.9814498,-4.9816987,-0,5.68425,57.572267)"/>
<use data-text="v" xlink:href="#font_5_112" transform="matrix(0,-4.9814498,-4.9816987,-0,5.68425,54.34926)"/>
<use data-text="e" xlink:href="#font_5_50" transform="matrix(0,-4.9814498,-4.9816987,-0,5.68425,50.96187)"/>
<use data-text="6" xlink:href="#font_6_2" transform="matrix(0,-4.9814498,-4.9816987,-0,5.68425,45.5719)"/>
<use data-text="5" xlink:href="#font_6_1" transform="matrix(0,-4.9814498,-4.9816987,-0,5.68425,42.184526)"/>
<use data-text="&#x25e6;" xlink:href="#font_7_1" transform="matrix(0,-4.9814498,-4.9816987,-0,3.673088,38.791704)"/>
<use data-text="F" xlink:href="#font_5_54" transform="matrix(0,-4.9814498,-4.9816987,-0,5.68425,34.626588)"/>
</svg>
