<svg xmlns="http://www.w3.org/2000/svg" xmlns:xlink="http://www.w3.org/1999/xlink" xmlns:inkscape="http://www.inkscape.org/namespaces/inkscape" version="1.1" width="228" height="191" viewBox="0 0 228 191">
<defs>
<path id="font_1_1" d="M.6589966 .23046875C.6759949 .23046875 .69400027 .23046875 .69400027 .25045777 .69400027 .27046205 .6759949 .27046205 .6589966 .27046205H.117996219C.100997928 .27046205 .08299255 .27046205 .08299255 .25045777 .08299255 .23046875 .100997928 .23046875 .117996219 .23046875H.6589966Z"/>
<path id="font_2_5" d="M.13198853 .327713V.35173036C.13198853 .6047821 .2559967 .64100649 .30699159 .64100649 .33099366 .64100649 .37298585 .634964 .394989 .6007538 .37998963 .6007538 .33999635 .6007538 .33999635 .5557556 .33999635 .524765 .3639984 .5097656 .38598634 .5097656 .4019928 .5097656 .43199159 .51875308 .43199159 .5577545 .43199159 .6178589 .3880005 .6660156 .30499269 .6660156 .1769867 .6660156 .041992189 .5367584 .041992189 .31570436 .041992189 .048553468 .1579895-.022460938 .25099183-.022460938 .3619995-.022460938 .45700074 .07156372 .45700074 .2036438 .45700074 .33070375 .36799623 .4267578 .25698854 .4267578 .18899536 .4267578 .1519928 .37573243 .13198853 .327713M.25099183 .0055389406C.18798828 .0055389406 .1579895 .06556702 .1519928 .080566409 .13398743 .127594 .13398743 .2076416 .13398743 .22564698 .13398743 .30369569 .1659851 .40374757 .2559967 .40374757 .27198792 .40374757 .31799317 .40374757 .34899903 .34172059 .36698915 .30470277 .36698915 .2536621 .36698915 .20463562 .36698915 .15661621 .36698915 .10658264 .34999085 .0705719 .31999208 .010528564 .27398683 .0055389406 .25099183 .0055389406Z"/>
<path id="font_2_4" d="M.2939911 .16503906V.07800293C.2939911 .041992189 .2919922 .0309906 .21798706 .0309906H.19699097V0C.23799134 .0029907227 .2899933 .0029907227 .33198548 .0029907227 .37399293 .0029907227 .4269867 .0029907227 .46798707 0V.0309906H.44699098C.37298585 .0309906 .37098695 .041992189 .37098695 .07800293V.16503906H.47099305V.19602967H.37098695V.65075686C.37098695 .67074587 .37098695 .6767578 .35499574 .6767578 .34599305 .6767578 .34298707 .6767578 .33499146 .66474917L.027999878 .19602967V.16503906H.2939911M.2999878 .19602967H.055999757L.2999878 .5688019V.19602967Z"/>
<path id="font_2_3" d="M.1269989 .07699585 .23298645 .18003845C.3889923 .31811524 .44898988 .3721466 .44898988 .47216798 .44898988 .5860901 .35899354 .6660156 .23699951 .6660156 .12399292 .6660156 .049987794 .57411196 .049987794 .48516847 .049987794 .4291687 .099990848 .4291687 .102996829 .4291687 .11999512 .4291687 .15499878 .44117738 .15499878 .48217774 .15499878 .5081787 .13699341 .5341797 .101989749 .5341797 .09399414 .5341797 .09199524 .5341797 .08898926 .5331726 .11199951 .59806826 .1659851 .63500979 .22399903 .63500979 .31498719 .63500979 .35798646 .5541382 .35798646 .47216798 .35798646 .39215089 .30799867 .31311036 .25299073 .25108338L.06098938 .036987306C.049987794 .025985718 .049987794 .023986817 .049987794 0H.42099L.44898988 .17404175H.42399598C.4189911 .14402771 .4119873 .1000061 .4019928 .084991458 .394989 .07699585 .32899476 .07699585 .30699159 .07699585H.1269989Z"/>
<clipPath id="clip_3">
<path transform="matrix(1.00005,0,0,-1,2.0961457,188.96302)" d="M0 0H224.1623V187.16675H0Z"/>
</clipPath>
<path id="font_4_2" d="M.33399964 .30233766C.33999635 .32835389 .36299134 .42037965 .43299867 .42037965 .43798829 .42037965 .46199037 .42037965 .48298646 .40734864 .45498658 .402359 .43499757 .37734986 .43499757 .35334779 .43499757 .33735658 .44599916 .31835938 .47299195 .31835938 .49499513 .31835938 .5269928 .3363495 .5269928 .37635804 .5269928 .42837525 .46798707 .4423828 .43399049 .4423828 .37599183 .4423828 .34098817 .38935853 .32899476 .36634828 .3039856 .43237306 .25 .4423828 .22099304 .4423828 .116989139 .4423828 .05999756 .3133545 .05999756 .28834535 .05999756 .27833558 .069992069 .27833558 .07199097 .27833558 .07998657 .27833558 .08299255 .28033448 .084991458 .28933717 .11898804 .39535523 .18499756 .42037965 .21899414 .42037965 .23799134 .42037965 .272995 .4113617 .272995 .35334779 .272995 .32235719 .2559967 .25532533 .21899414 .11528015 .20298767 .053268434 .16799927 .011245728 .12399292 .011245728 .117996219 .011245728 .09498596 .011245728 .07398987 .024276734 .09899902 .029266358 .12098694 .05027771 .12098694 .07827759 .12098694 .105270389 .09899902 .11328125 .083999637 .11328125 .053985597 .11328125 .0289917 .08728027 .0289917 .055267335 .0289917 .009246826 .07899475-.0107421879 .12298584-.0107421879 .18899536-.0107421879 .22499085 .059280397 .22799683 .0652771 .23999024 .028274537 .27598573-.0107421879 .33599855-.0107421879 .43899537-.0107421879 .49598695 .118270877 .49598695 .14328003 .49598695 .1532898 .4869995 .1532898 .48399354 .1532898 .47499085 .1532898 .47299195 .14929199 .47099305 .14228821 .43798829 .03527832 .36999513 .011245728 .33799745 .011245728 .29899598 .011245728 .2829895 .043273927 .2829895 .07727051 .2829895 .09927368 .2889862 .121276859 .2999878 .16529846L.33399964 .30233766Z"/>
<path id="font_4_3" d="M.48599244 .38136292C.48999024 .39537049 .48999024 .39736939 .48999024 .40437318 .48999024 .42237855 .47599793 .43138124 .46099855 .43138124 .45098878 .43138124 .43499757 .42536927 .42599488 .41036988 .42399598 .405365 .41600038 .37435914 .4119873 .35635377 .40499879 .33035279 .397995 .30334474 .3919983 .27633668L.34700013 .09628296C.34298707 .08126831 .2999878 .011245728 .23399353 .011245728 .18299866 .011245728 .17199707 .055267335 .17199707 .0922699 .17199707 .1382904 .18899536 .20030213 .22299195 .28833009 .23899842 .3293457 .24299622 .3403473 .24299622 .36035157 .24299622 .405365 .21099854 .4423828 .16099549 .4423828 .06599426 .4423828 .0289917 .29733277 .0289917 .28833009 .0289917 .27833558 .038986207 .27833558 .040985109 .27833558 .050994874 .27833558 .051986696 .28033448 .056991579 .29634095 .083999637 .3903656 .12399292 .42037965 .1579895 .42037965 .1659851 .42037965 .18299866 .42037965 .18299866 .3883667 .18299866 .36335755 .17298889 .3373413 .1659851 .31834413 .12599182 .21231079 .10798645 .1552887 .10798645 .10827637 .10798645 .019256592 .17098999-.0107421879 .22999573-.0107421879 .2689972-.0107421879 .30299378 .0062561037 .33099366 .03425598 .31799317-.017745972 .30599977-.06674194 .2659912-.11973572 .23999024-.15385437 .20199585-.18309021 .1559906-.18309021 .14199829-.18309021 .09700012-.18005371 .07998657-.14074707 .09599304-.14074707 .10899353-.14074707 .12298584-.1287384 .1329956-.11973572 .14299011-.10673523 .14299011-.08773804 .14299011-.056747438 .115997318-.052734376 .10598755-.052734376 .08299255-.052734376 .049987794-.068740848 .049987794-.11773682 .049987794-.16796875 .09399414-.20507813 .1559906-.20507813 .25898744-.20507813 .3619995-.11373901 .3899994-.00074768069L.48599244 .38136292Z"/>
<path id="font_2_6" d="M.68699648 .32714845C.70199587 .32714845 .72099307 .32714845 .72099307 .34713746 .72099307 .36714173 .70199587 .36714173 .6879883 .36714173H.08898926C.07499695 .36714173 .055999757 .36714173 .055999757 .34713746 .055999757 .32714845 .07499695 .32714845 .08999634 .32714845H.68699648M.6879883 .13284302C.70199587 .13284302 .72099307 .13284302 .72099307 .15284729 .72099307 .17285156 .70199587 .17285156 .68699648 .17285156H.08999634C.07499695 .17285156 .055999757 .17285156 .055999757 .15284729 .055999757 .13284302 .07499695 .13284302 .08898926 .13284302H.6879883Z"/>
<path id="font_4_1" d="M.2869873 .68333438C.2869873 .6843262 .2869873 .69433596 .27398683 .69433596 .25099183 .69433596 .17799378 .6863251 .1519928 .6843262 .14399719 .68333438 .1329956 .6823273 .1329956 .6643219 .1329956 .6523285 .14199829 .6523285 .15699768 .6523285 .20498657 .6523285 .20698548 .6453247 .20698548 .6353302L.20399475 .6153412 .05899048 .039260866C.054992677 .025253296 .054992677 .023254395 .054992677 .01725769 .054992677-.0057525637 .07499695-.0107421879 .083999637-.0107421879 .099990848-.0107421879 .115997318 .0012512207 .12098694 .015258789L.13999939 .091278079 .1619873 .18130493C.16799927 .2033081 .17399597 .22531128 .1789856 .24832154 .18099976 .25431825 .18899536 .28733827 .18998719 .29333497 .19299317 .30233766 .22399903 .35835267 .2579956 .38536073 .27999879 .4013672 .31098939 .42037965 .35398866 .42037965 .39698792 .42037965 .4079895 .3863678 .4079895 .35035707 .4079895 .29634095 .36999513 .18730164 .34599305 .12628174 .33799745 .103271488 .33299256 .091278079 .33299256 .0712738 .33299256 .024261475 .36799623-.0107421879 .4149933-.0107421879 .5089874-.0107421879 .54599 .13528443 .54599 .14329529 .54599 .1532898 .5369873 .1532898 .5339966 .1532898 .5239868 .1532898 .5239868 .15029907 .5189972 .13528443 .5039978 .08227539 .47200013 .011245728 .4169922 .011245728 .3999939 .011245728 .3929901 .021255494 .3929901 .044265748 .3929901 .0692749 .4019928 .09327698 .41099549 .11528015 .4269867 .15829468 .47200013 .2773285 .47200013 .3353424 .47200013 .4003601 .43199159 .4423828 .35699464 .4423828 .2939911 .4423828 .24598694 .41137696 .20899964 .36535646L.2869873 .68333438Z"/>
<path id="font_2_1" d="M.33099366-.2400055C.33099366-.23701477 .33099366-.23500061 .31399537-.21800232 .18899536-.0920105 .15699768 .09700012 .15699768 .25 .15699768 .42399598 .19499207 .59799197 .31799317 .72299197 .33099366 .73498538 .33099366 .7369995 .33099366 .73999026 .33099366 .746994 .32699586 .75 .32099916 .75 .31098939 .75 .22099304 .6819916 .1619873 .5549927 .11099243 .44499208 .09899902 .33399964 .09899902 .25 .09899902 .17199707 .10998535 .050994874 .16499329-.06201172 .22499085-.18501282 .31098939-.25 .32099916-.25 .32699586-.25 .33099366-.24700928 .33099366-.2400055Z"/>
<path id="font_2_2" d="M.2889862 .25C.2889862 .32798768 .27799989 .44898988 .22299195 .56199648 .16299439 .68499758 .07699585 .75 .066986087 .75 .06098938 .75 .056991579 .74598696 .056991579 .73999026 .056991579 .7369995 .056991579 .73498538 .07598877 .71699526 .17399597 .6179962 .23098755 .45899964 .23098755 .25 .23098755 .07899475 .19400025-.09700012 .069992069-.2230072 .056991579-.23500061 .056991579-.23701477 .056991579-.2400055 .056991579-.2460022 .06098938-.25 .066986087-.25 .07699585-.25 .16699219-.18200684 .22599793-.055007936 .2769928 .054992677 .2889862 .16600037 .2889862 .25Z"/>
</defs>
<path transform="matrix(1.00005,0,0,-1,2.0961457,188.96302)" stroke-width=".3985" stroke-linecap="butt" stroke-miterlimit="10" stroke-linejoin="miter" fill="none" stroke="#404040" d="M0 0H224.1623V187.16675H0Z"/>
<path transform="matrix(1.00005,0,0,-1,2.0961457,188.96302)" stroke-width=".3985" stroke-linecap="butt" stroke-miterlimit="10" stroke-linejoin="miter" fill="none" stroke="#cccccc" d="M14.01013 0V187.16675M28.02028 0V187.16675M42.03043 0V187.16675M56.04057 0V187.16675M70.0507 0V187.16675M84.06085 0V187.16675M98.071 0V187.16675M112.08115 0V187.16675M126.09128 0V187.16675M140.10143 0V187.16675M154.11157 0V187.16675M168.12172 0V187.16675M182.13185 0V187.16675M196.142 0V187.16675M210.15215 0V187.16675"/>
<path transform="matrix(1.00005,0,0,-1,2.0961457,188.96302)" stroke-width=".3985" stroke-linecap="butt" stroke-miterlimit="10" stroke-linejoin="miter" fill="none" stroke="#cccccc" d="M28.02028 0V187.16675M56.04057 0V187.16675M84.06085 0V187.16675M140.10143 0V187.16675M168.12172 0V187.16675M196.142 0V187.16675"/>
<path transform="matrix(1.00005,0,0,-1,2.0961457,188.96302)" stroke-width=".3985" stroke-linecap="butt" stroke-miterlimit="10" stroke-linejoin="miter" fill="none" stroke="#cccccc" d="M0 11.69792H224.1623M0 23.39584H224.1623M0 35.09377H224.1623M0 46.79169H224.1623M0 58.48961H224.1623M0 70.18753H224.1623M0 81.88545H224.1623M0 93.58337H224.1623M0 105.2813H224.1623M0 116.97922H224.1623M0 128.67714H224.1623M0 140.37506H224.1623M0 152.07299H224.1623M0 163.7709H224.1623M0 175.46883H224.1623"/>
<path transform="matrix(1.00005,0,0,-1,2.0961457,188.96302)" stroke-width=".3985" stroke-linecap="butt" stroke-miterlimit="10" stroke-linejoin="miter" fill="none" stroke="#cccccc" d="M0 23.39584H224.1623M0 46.79169H224.1623M0 70.18753H224.1623M0 116.97922H224.1623M0 140.37506H224.1623M0 163.7709H224.1623"/>
<path transform="matrix(1.00005,0,0,-1,2.0961457,188.96302)" stroke-width=".19925" stroke-linecap="butt" stroke-miterlimit="10" stroke-linejoin="miter" fill="none" stroke="#7f807f" d="M14.01013 92.16599V95.00076M28.02028 92.16599V95.00076M42.03043 92.16599V95.00076M56.04057 92.16599V95.00076M70.0507 92.16599V95.00076M84.06085 92.16599V95.00076M98.071 92.16599V95.00076M112.08115 92.16599V95.00076M126.09128 92.16599V95.00076M140.10143 92.16599V95.00076M154.11157 92.16599V95.00076M168.12172 92.16599V95.00076M182.13185 92.16599V95.00076M196.142 92.16599V95.00076M210.15215 92.16599V95.00076"/>
<path transform="matrix(1.00005,0,0,-1,2.0961457,188.96302)" stroke-width=".19925" stroke-linecap="butt" stroke-miterlimit="10" stroke-linejoin="miter" fill="none" stroke="#7f807f" d="M28.02028 91.45749V95.70923M56.04057 91.45749V95.70923M84.06085 91.45749V95.70923M140.10143 91.45749V95.70923M168.12172 91.45749V95.70923M196.142 91.45749V95.70923"/>
<path transform="matrix(1.00005,0,0,-1,2.0961457,188.96302)" stroke-width=".19925" stroke-linecap="butt" stroke-miterlimit="10" stroke-linejoin="miter" fill="none" stroke="#7f807f" d="M110.66377 11.69792H113.4985M110.66377 23.39584H113.4985M110.66377 35.09377H113.4985M110.66377 46.79169H113.4985M110.66377 58.48961H113.4985M110.66377 70.18753H113.4985M110.66377 81.88545H113.4985M110.66377 93.58337H113.4985M110.66377 105.2813H113.4985M110.66377 116.97922H113.4985M110.66377 128.67714H113.4985M110.66377 140.37506H113.4985M110.66377 152.07299H113.4985M110.66377 163.7709H113.4985M110.66377 175.46883H113.4985"/>
<path transform="matrix(1.00005,0,0,-1,2.0961457,188.96302)" stroke-width=".19925" stroke-linecap="butt" stroke-miterlimit="10" stroke-linejoin="miter" fill="none" stroke="#7f807f" d="M109.95529 23.39584H114.20697M109.95529 46.79169H114.20697M109.95529 70.18753H114.20697M109.95529 116.97922H114.20697M109.95529 140.37506H114.20697M109.95529 163.7709H114.20697"/>
<path transform="matrix(1.00005,0,0,-1,2.0961457,188.96302)" stroke-width=".3985" stroke-linecap="butt" stroke-miterlimit="10" stroke-linejoin="miter" fill="none" stroke="#000000" d="M0 93.58337H222.16976"/>
<path transform="matrix(1.00005,0,0,-1,224.277,95.37965)" d="M1.99252 0-1.19551 1.59401 0 0-1.19551-1.59401"/>
<path transform="matrix(1.00005,0,0,-1,2.0961457,188.96302)" stroke-width=".3985" stroke-linecap="butt" stroke-miterlimit="10" stroke-linejoin="miter" fill="none" stroke="#000000" d="M112.08115 0V185.17423"/>
<path transform="matrix(0,-1,-1.00005,-0,114.18289,3.7887879)" d="M1.99252 0-1.19551 1.59401 0 0-1.19551-1.59401"/>
<use data-text="&#x2212;" xlink:href="#font_1_1" transform="matrix(9.963098,0,0,-9.9626,23.752228,107.446018)"/>
<use data-text="6" xlink:href="#font_2_5" transform="matrix(9.963098,0,0,-9.9626,31.501618,107.446018)"/>
<use data-text="&#x2212;" xlink:href="#font_1_1" transform="matrix(9.963098,0,0,-9.9626,51.773626,107.446018)"/>
<use data-text="4" xlink:href="#font_2_4" transform="matrix(9.963098,0,0,-9.9626,59.523015,107.446018)"/>
<use data-text="&#x2212;" xlink:href="#font_1_1" transform="matrix(9.963098,0,0,-9.9626,79.79603,107.446018)"/>
<use data-text="2" xlink:href="#font_2_3" transform="matrix(9.963098,0,0,-9.9626,87.54542,107.446018)"/>
<use data-text="2" xlink:href="#font_2_3" transform="matrix(9.963098,0,0,-9.9626,139.714,107.446018)"/>
<use data-text="4" xlink:href="#font_2_4" transform="matrix(9.963098,0,0,-9.9626,167.73542,107.446018)"/>
<use data-text="6" xlink:href="#font_2_5" transform="matrix(9.963098,0,0,-9.9626,195.75682,107.446018)"/>
<use data-text="&#x2212;" xlink:href="#font_1_1" transform="matrix(9.963098,0,0,-9.9626,95.805828,168.36202)"/>
<use data-text="6" xlink:href="#font_2_5" transform="matrix(9.963098,0,0,-9.9626,103.555217,168.36202)"/>
<use data-text="&#x2212;" xlink:href="#font_1_1" transform="matrix(9.963098,0,0,-9.9626,95.805828,144.966)"/>
<use data-text="4" xlink:href="#font_2_4" transform="matrix(9.963098,0,0,-9.9626,103.555217,144.966)"/>
<use data-text="&#x2212;" xlink:href="#font_1_1" transform="matrix(9.963098,0,0,-9.9626,95.805828,121.571018)"/>
<use data-text="2" xlink:href="#font_2_3" transform="matrix(9.963098,0,0,-9.9626,103.555217,121.571018)"/>
<use data-text="2" xlink:href="#font_2_3" transform="matrix(9.963098,0,0,-9.9626,103.555217,75.194019)"/>
<use data-text="4" xlink:href="#font_2_4" transform="matrix(9.963098,0,0,-9.9626,103.555217,51.79802)"/>
<use data-text="6" xlink:href="#font_2_5" transform="matrix(9.963098,0,0,-9.9626,103.555217,28.402009)"/>
<g clip-path="url(#clip_3)">
<path transform="matrix(1.00005,0,0,-1,2.0961457,188.96302)" stroke-width="1.49442" stroke-linecap="butt" stroke-miterlimit="10" stroke-linejoin="miter" fill="none" stroke="#008c0d" d="M15.6124 24.73369 16.81216 25.73543 19.6142 28.07501 22.41623 30.4146 25.21825 32.75418 28.02028 35.09377 30.82231 39.77293 33.62434 44.4521 36.42636 49.13127 39.2284 53.81044 42.03043 58.48961 44.83246 63.16878 47.63448 67.84795 50.43651 72.52711 53.23854 77.20628 56.04057 81.88545 58.84259 84.22504 61.64462 86.56462 64.44666 88.9042 67.24869 91.24379 70.0507 93.58337 72.85274 92.41357 75.65477 91.24367 78.4568 90.07399 81.25882 88.90408 84.06085 87.7344 86.86288 86.56462 89.66492 85.3947 92.46693 84.22504 95.26897 83.05511 98.071 81.88545 100.87303 73.46295 103.67505 66.9121 106.47708 62.23293 109.27911 59.42545 112.08115 58.48961 114.88316 58.02168 117.6852 56.61792 120.48723 54.27834 123.28926 51.00293 126.09128 46.79169 128.89331 51.00293 131.69535 54.27834 134.49738 56.61792 137.2994 58.02168 140.10143 58.48961 142.90346 59.42545 145.70549 62.23293 148.5075 66.9121 151.30954 73.46295 154.11157 81.88545 156.9136 82.35336 159.71562 83.75711 162.51766 86.0967 165.31969 89.37212 168.12172 93.58337 170.92374 98.73044 173.72577 104.81337 176.5278 111.83212 179.32984 119.7867 182.13185 128.67714H184.93389 187.73592 190.53795 193.33997 194.05452"/>
<path transform="matrix(-.76759836,.6409,.640932,.76756,18.282864,163.75043)" d="M4.92212 0C4.92212 1.15286 3.98753 2.08745 2.83466 2.08745 1.6818 2.08745 .74721 1.15286 .74721 0 .74721-1.15286 1.6818-2.08745 2.83466-2.08745 3.98753-2.08745 4.92212-1.15286 4.92212 0ZM2.83466 0" fill="#ffffff"/>
<path transform="matrix(-.76759836,.6409,.640932,.76756,18.282864,163.75043)" stroke-width="1.49442" stroke-linecap="butt" stroke-miterlimit="10" stroke-linejoin="miter" fill="none" stroke="#008c0d" d="M4.92212 0C4.92212 1.15286 3.98753 2.08745 2.83466 2.08745 1.6818 2.08745 .74721 1.15286 .74721 0 .74721-1.15286 1.6818-2.08745 2.83466-2.08745 3.98753-2.08745 4.92212-1.15286 4.92212 0ZM2.83466 0"/>
<path transform="matrix(1.00005,0,0,-1,195.41312,60.285875)" d="M4.92212 0C4.92212 1.15286 3.98753 2.08745 2.83466 2.08745 1.6818 2.08745 .74721 1.15286 .74721 0 .74721-1.15286 1.6818-2.08745 2.83466-2.08745 3.98753-2.08745 4.92212-1.15286 4.92212 0ZM2.83466 0" fill="#008c0d"/>
<path transform="matrix(1.00005,0,0,-1,195.41312,60.285875)" stroke-width="1.49442" stroke-linecap="butt" stroke-miterlimit="10" stroke-linejoin="miter" fill="none" stroke="#008c0d" d="M4.92212 0C4.92212 1.15286 3.98753 2.08745 2.83466 2.08745 1.6818 2.08745 .74721 1.15286 .74721 0 .74721-1.15286 1.6818-2.08745 2.83466-2.08745 3.98753-2.08745 4.92212-1.15286 4.92212 0ZM2.83466 0"/>
</g>
<use data-text="x" xlink:href="#font_4_2" transform="matrix(9.963098,0,0,-9.9626,217.10889,91.83801)"/>
<use data-text="y" xlink:href="#font_4_3" transform="matrix(9.963098,0,0,-9.9626,117.72992,9.606018)"/>
<path transform="matrix(1.00005,0,0,-1,2.0961457,188.96302)" d="M149.12995 166.28672H219.47882V183.22336H149.12995Z" fill="#ffffff"/>
<path transform="matrix(1.00005,0,0,-1,2.0961457,188.96302)" stroke-width=".3985" stroke-linecap="butt" stroke-miterlimit="10" stroke-linejoin="miter" fill="none" stroke="#000000" d="M149.12995 166.28672H219.47882V183.22336H149.12995Z"/>
<path transform="matrix(1.00005,0,0,-1,157.05789,14.208008)" stroke-width="1.49442" stroke-linecap="butt" stroke-miterlimit="10" stroke-linejoin="miter" fill="none" stroke="#008c0d" d="M2.08746 0H8.50412 14.92078"/>
<path transform="matrix(-1.00005,-0,0,1,159.8927,14.208008)" d="M4.92212 0C4.92212 1.15286 3.98753 2.08745 2.83466 2.08745 1.6818 2.08745 .74721 1.15286 .74721 0 .74721-1.15286 1.6818-2.08745 2.83466-2.08745 3.98753-2.08745 4.92212-1.15286 4.92212 0ZM2.83466 0" fill="#ffffff"/>
<path transform="matrix(-1.00005,-0,0,1,159.8927,14.208008)" stroke-width="1.49442" stroke-linecap="butt" stroke-miterlimit="10" stroke-linejoin="miter" fill="none" stroke="#008c0d" d="M4.92212 0C4.92212 1.15286 3.98753 2.08745 2.83466 2.08745 1.6818 2.08745 .74721 1.15286 .74721 0 .74721-1.15286 1.6818-2.08745 2.83466-2.08745 3.98753-2.08745 4.92212-1.15286 4.92212 0ZM2.83466 0"/>
<path transform="matrix(1.00005,0,0,-1,171.23217,14.208008)" d="M4.92212 0C4.92212 1.15286 3.98753 2.08745 2.83466 2.08745 1.6818 2.08745 .74721 1.15286 .74721 0 .74721-1.15286 1.6818-2.08745 2.83466-2.08745 3.98753-2.08745 4.92212-1.15286 4.92212 0ZM2.83466 0" fill="#008c0d"/>
<path transform="matrix(1.00005,0,0,-1,171.23217,14.208008)" stroke-width="1.49442" stroke-linecap="butt" stroke-miterlimit="10" stroke-linejoin="miter" fill="none" stroke="#008c0d" d="M4.92212 0C4.92212 1.15286 3.98753 2.08745 2.83466 2.08745 1.6818 2.08745 .74721 1.15286 .74721 0 .74721-1.15286 1.6818-2.08745 2.83466-2.08745 3.98753-2.08745 4.92212-1.15286 4.92212 0ZM2.83466 0"/>
<use data-text="y" xlink:href="#font_4_3" transform="matrix(9.963098,0,0,-9.9626,178.89398,17.197007)"/>
<use data-text="=" xlink:href="#font_2_6" transform="matrix(9.963098,0,0,-9.9626,186.90338,17.197007)"/>
<use data-text="h" xlink:href="#font_4_1" transform="matrix(9.963098,0,0,-9.9626,197.41992,17.197007)"/>
<use data-text="(" xlink:href="#font_2_1" transform="matrix(9.963098,0,0,-9.9626,203.16022,17.197007)"/>
<use data-text="x" xlink:href="#font_4_2" transform="matrix(9.963098,0,0,-9.9626,207.0354,17.197007)"/>
<use data-text=")" xlink:href="#font_2_2" transform="matrix(9.963098,0,0,-9.9626,212.7297,17.197007)"/>
</svg>
