<svg xmlns="http://www.w3.org/2000/svg" xmlns:xlink="http://www.w3.org/1999/xlink" xmlns:inkscape="http://www.inkscape.org/namespaces/inkscape" version="1.1" width="234" height="196" viewBox="0 0 234 196">
<defs>
<path id="font_1_1" d="M.6589966 .23046875C.6759949 .23046875 .69400027 .23046875 .69400027 .25045777 .69400027 .27046205 .6759949 .27046205 .6589966 .27046205H.117996219C.100997928 .27046205 .08299255 .27046205 .08299255 .25045777 .08299255 .23046875 .100997928 .23046875 .117996219 .23046875H.6589966Z"/>
<path id="font_2_1" d="M.2939911 .64004519C.2939911 .66400149 .2939911 .6660156 .2709961 .6660156 .20899964 .60227969 .12098694 .60227969 .08898926 .60227969V.57128909C.10899353 .57128909 .16799927 .57128909 .21998596 .5972748V.07902527C.21998596 .042999269 .21699524 .0309906 .1269989 .0309906H.09498596V0C.12998963 .0029907227 .21699524 .0029907227 .25698854 .0029907227 .29699708 .0029907227 .38398744 .0029907227 .4189911 0V.0309906H.3869934C.29699708 .0309906 .2939911 .041992189 .2939911 .07902527V.64004519Z"/>
<path id="font_3_1" d="M.47898866 .4910736C.47898866 .61608889 .43099977 .70410159 .34799195 .70410159 .19898987 .70410159 .04399109 .42607118 .04399109 .20314026 .04399109 .107177738 .07699585-.009765625 .17599488-.009765625 .32199098-.009765625 .47898866 .2611084 .47898866 .4910736M.1559906 .3640747C.20298767 .5660858 .2849884 .6760864 .34700013 .6760864 .40699769 .6760864 .40699769 .5690918 .40699769 .55007937 .40699769 .4940796 .3889923 .41307069 .3769989 .3640747H.1559906M.36799623 .33007813C.32099916 .12916565 .23899842 .018234253 .1769867 .018234253 .12298584 .018234253 .116989139 .09819031 .116989139 .14416504 .116989139 .20713806 .13598633 .28808595 .14698792 .33007813H.36799623Z"/>
<path id="font_4_2" d="M.73098757 .3330078C.74598696 .3330078 .7659912 .3330078 .7659912 .3560028 .7659912 .3789978 .74198916 .3789978 .72698977 .3789978H.09799194C.08299255 .3789978 .05899048 .3789978 .05899048 .3560028 .05899048 .3330078 .07899475 .3330078 .09399414 .3330078H.73098757M.72698977 .12098694C.74198916 .12098694 .7659912 .12098694 .7659912 .14398194 .7659912 .16699219 .74598696 .16699219 .73098757 .16699219H.09399414C.07899475 .16699219 .05899048 .16699219 .05899048 .14398194 .05899048 .12098694 .08299255 .12098694 .09799194 .12098694H.72698977Z"/>
<path id="font_4_1" d="M.4889984 .31877137C.4889984 .42585755 .47799684 .49090577 .44499208 .55496218 .40098573 .6430359 .31999208 .66503909 .2649994 .66503909 .13899231 .66503909 .09298706 .5709839 .07899475 .5429535 .042999269 .4698944 .040985109 .3708191 .040985109 .31877137 .040985109 .25271607 .04399109 .15162659 .09199524 .07156372 .13798523-.0024871827 .21199036-.021484375 .2649994-.021484375 .31298829-.021484375 .39898683-.0064849855 .44898988 .09257507 .48599244 .16464234 .4889984 .2537079 .4889984 .31877137M.2649994 .006515503C.23098755 .006515503 .1619873 .022521973 .14099121 .12760926 .12998963 .18466187 .12998963 .2787323 .12998963 .33078004 .12998963 .3998413 .12998963 .4698944 .14099121 .5249481 .1619873 .6270294 .23999024 .6370239 .2649994 .6370239 .29899598 .6370239 .36799623 .62002566 .3880005 .5289459 .3999939 .4738922 .3999939 .39883424 .3999939 .33078004 .3999939 .27172853 .3999939 .18165589 .3880005 .12561035 .36698915 .020523072 .2979889 .006515503 .2649994 .006515503Z"/>
<path id="font_5_1" d="M.33999635 .35964967H.46299745C.44198609 .2718048 .42900086 .20690918 .42900086 .14201355 .42900086 .09109497 .44299317-.009765625 .48999024-.009765625 .5159912-.009765625 .5389862 .014221191 .5389862 .03617859 .5389862 .045166017 .5339966 .05316162 .5319977 .058151246 .49499513 .1240387 .4889984 .1879425 .4889984 .23886109 .4889984 .25482179 .4889984 .29875184 .5019989 .35964967H.6339874C.6459961 .35964967 .68899539 .35964967 .68899539 .40065003 .68899539 .43066407 .6609955 .43066407 .6439972 .43066407H.24598694C.22599793 .43066407 .18099976 .43066407 .1269989 .380661 .09599304 .3516693 .05999756 .30374146 .05999756 .2937622 .05999756 .27978517 .07398987 .27978517 .07798767 .27978517 .08898926 .27978517 .09098816 .28178407 .09799194 .29077149 .114990238 .31472779 .1539917 .35964967 .23599243 .35964967H.30099488C.2669983 .2358551 .19898987 .10107422 .18598938 .07511902 .1769867 .059143068 .1639862 .034194948 .1639862 .02420044 .1639862 .0032196046 .17999268-.009765625 .19999695-.009765625 .23498535-.009765625 .24699402 .02520752 .2579956 .057144166 .27799989 .12004089 .27799989 .122039798 .2919922 .1759491L.33999635 .35964967Z"/>
<path id="font_6_6" d="M.16299439 .33073426C.1639862 .38076783 .1659851 .46383668 .20098877 .52589419 .24499512 .60191348 .31098939 .6320343 .37098695 .6320343 .3939972 .6320343 .43998719 .62802127 .46398927 .5998993 .4269867 .5939026 .42099 .5679016 .42099 .55189517 .42099 .52589419 .43899537 .50390627 .46899415 .50390627 .49899293 .50390627 .5179901 .52290347 .5179901 .55389407 .5179901 .6149597 .47200013 .66503909 .36999513 .66503909 .21499634 .66503909 .06298828 .52989199 .06298828 .31672669 .06298828 .07354736 .17599488-.021484375 .30799867-.021484375 .34700013-.021484375 .4149933-.015487671 .47599793 .043533327 .5079956 .075546268 .5469971 .11558533 .5469971 .2036438 .5469971 .2376709 .54299929 .30171205 .48199464 .3587494 .44699098 .3907776 .40299989 .42578126 .31799317 .42578126 .24798584 .42578126 .19699097 .3897705 .16299439 .33073426M.30699159 .014511108C.1659851 .014511108 .1659851 .18663025 .1659851 .22566223 .1659851 .3117218 .22299195 .3937683 .31298829 .3937683 .36499024 .3937683 .394989 .37275697 .4189911 .34074403 .44699098 .30171205 .44699098 .25668336 .44699098 .2036438 .44699098 .13459778 .44499208 .10057068 .41099549 .060546876 .3869934 .030517579 .35499574 .014511108 .30699159 .014511108Z"/>
<path id="font_6_4" d="M.56399539 .1640625V.2030487H.44699098V.6448059C.44699098 .6678009 .44699098 .6748047 .42199708 .6748047 .4039917 .6748047 .4019928 .6717987 .3929901 .65979006L.04598999 .2030487V.1640625H.35699464V.08401489C.35699464 .050994874 .35699464 .038986207 .272995 .038986207H.24398804V0C.2639923 .0009918213 .35798646 .0039978029 .4019928 .0039978029 .44599916 .0039978029 .5399933 .0009918213 .55999758 0V.038986207H.5309906C.44699098 .038986207 .44699098 .050994874 .44699098 .08401489V.1640625H.56399539M.3639984 .56585696V.2030487H.08898926L.3639984 .56585696Z"/>
<path id="font_6_3" d="M.2939911 .33203126C.3789978 .33203126 .43598939 .274765 .43598939 .17237854 .43598939 .062408449 .36999513 .014511108 .29699708 .014511108 .269989 .014511108 .16699219 .020492554 .12199402 .07836914 .16099549 .0823822 .1769867 .10836792 .1769867 .13537598 .1769867 .16937256 .15299988 .19238281 .11999512 .19238281 .09298706 .19238281 .06298828 .17536927 .06298828 .13337708 .06298828 .034469606 .17298889-.021484375 .2999878-.021484375 .44799806-.021484375 .5469971 .07337952 .5469971 .17237854 .5469971 .24562073 .4909973 .3229828 .37199403 .35302735 .45098878 .37902833 .5149994 .44306947 .5149994 .5251007 .5149994 .60505679 .42099 .66503909 .30099488 .66503909 .18399048 .66503909 .09498596 .61105349 .09498596 .5290985 .09498596 .48609925 .12799073 .47409059 .147995 .47409059 .17399597 .47409059 .20098877 .49209596 .20098877 .5270996 .20098877 .5580902 .1789856 .5760956 .1519928 .5800934 .19898987 .6320343 .2899933 .6320343 .29899598 .6320343 .34999085 .6320343 .4139862 .60806277 .4139862 .5251007 .4139862 .47009278 .3829956 .37402345 .2829895 .36802674 .2649994 .36701966 .23799134 .36502076 .22898865 .36502076 .21899414 .36402894 .20799256 .36302186 .20799256 .34802247 .20799256 .33203126 .21899414 .33203126 .23599243 .33203126H.2939911Z"/>
<path id="font_6_2" d="M.5379944 .18702698H.5009918C.49899293 .17301941 .4889984 .10699463 .47399903 .09599304 .46699525 .08999634 .38598634 .08999634 .37199403 .08999634H.18499756L.31298829 .19403076C.34700013 .22103882 .43598939 .28504945 .46699525 .31506349 .49699403 .3450775 .5379944 .39608766 .5379944 .46710206 .5379944 .5920563 .4249878 .66503909 .29100038 .66503909 .1619873 .66503909 .07199097 .58006289 .07199097 .48609925 .07199097 .43510438 .114990238 .42910768 .12599182 .42910768 .15098572 .42910768 .17999268 .44709779 .17999268 .48310853 .17999268 .50509646 .16699219 .5371094 .12298584 .5371094 .1459961 .5880585 .20698548 .6260376 .27598573 .6260376 .3809967 .6260376 .43699647 .5480957 .43699647 .46710206 .43699647 .39608766 .3899994 .32305909 .31999208 .25904847L.08299255 .041992189C.07299805 .03199768 .07199097 .0309906 .07199097 0H.5069885L.5379944 .18702698Z"/>
<path id="font_6_5" d="M.16999817 .5549774C.20298767 .54599 .23799134 .5419922 .27198792 .5419922 .2939911 .5419922 .34999085 .5419922 .41299439 .5769806 .42999269 .58699038 .49198915 .6279907 .49198915 .6490326 .49198915 .6620331 .48199464 .66503909 .47799684 .66503909 .47499085 .66503909 .47399903 .66503909 .46299745 .661026 .4269867 .6470337 .37599183 .63298037 .31098939 .63298037 .2619934 .63298037 .20799256 .64201357 .16299439 .6590271 .15299988 .6630249 .14898682 .66503909 .14498902 .66503909 .1309967 .66503909 .1309967 .6540375 .1309967 .6380005V.33787538C.1309967 .32086183 .1309967 .30885316 .14898682 .30885316 .1579895 .30885316 .16099549 .31285096 .16799927 .32086183 .19299317 .35289 .23699951 .38693238 .31498719 .38693238 .43798829 .38693238 .43798829 .23677063 .43798829 .20472718 .43798829 .16567993 .43499757 .10961914 .4019928 .068573 .37098695 .030532837 .32499696 .014511108 .28199769 .014511108 .21299744 .014511108 .14399719 .05255127 .11999512 .11061096 .16899109 .11161804 .1749878 .15066529 .1749878 .16267395 .1749878 .18971253 .1539917 .21372986 .12298584 .21372986 .11399841 .21372986 .07199097 .20872498 .07199097 .15867615 .07199097 .0665741 .15899658-.021484375 .2849884-.021484375 .42199708-.021484375 .5379944 .07557678 .5379944 .20072937 .5379944 .31484986 .44599916 .4189453 .31698609 .4189453 .2519989 .4189453 .20199585 .39793397 .16999817 .37091065V.5549774Z"/>
<path id="font_3_2" d="M.28399659 .36465455H.39898683C.37799073 .2738037 .3600006 .19992066 .3600006 .1260376 .3600006 .11904907 .3600006 .0761261 .37098695 .04017639 .38398744-.0017700195 .3939972-.009765625 .4119873-.009765625 .43399049-.009765625 .45700074 .009231567 .45700074 .033187868 .45700074 .04017639 .45599366 .042175294 .45199586 .05116272 .43099977 .097091678 .41600038 .14500427 .41600038 .22688294 .41600038 .24984741 .41600038 .29177857 .43099977 .36465455H.5519867C.56799319 .36465455 .57899478 .36465455 .58898928 .37265016 .6009979 .38365174 .60398867 .39665223 .60398867 .40264894 .60398867 .43066407 .57899478 .43066407 .56199648 .43066407H.20098877C.17999268 .43066407 .14199829 .43066407 .09298706 .3826599 .056991579 .3466797 .0289917 .300766 .0289917 .29377748 .0289917 .28479005 .035995485 .28178407 .04399109 .28178407 .053985597 .28178407 .055999757 .28479005 .06199646 .2927704 .11099243 .36465455 .16999817 .36465455 .19299317 .36465455H.25099183C.22200012 .25883485 .16899109 .13801575 .13198853 .06513977 .125 .0501709 .114990238 .030197144 .114990238 .021209717 .114990238 .00022888184 .13198853-.009765625 .147995-.009765625 .18598938-.009765625 .19599915 .028198243 .21699524 .110061649L.28399659 .36465455Z"/>
<path id="font_6_7" d="M.57099917 .60369876C.5799866 .6137085 .5799866 .6157074 .5799866 .6437073H.32199098C.2809906 .6437073 .25698854 .64471438 .21798706 .64772036 .16899109 .6507416 .15699768 .65174868 .1519928 .67578127H.114990238L.07899475 .45666505H.115997318C.11898804 .4776764 .1289978 .5366974 .14399719 .547699 .1519928 .55371096 .23799134 .55371096 .25299073 .55371096H.47898866C.46798707 .53970339 .4139862 .4756775 .3899994 .44667054 .29299928 .32962037 .22499085 .1875763 .22499085 .03552246 .22499085 .026519776 .22499085-.021484375 .272995-.021484375 .32199098-.021484375 .32199098 .024520874 .32199098 .037521364V.0655365C.32199098 .25759889 .36299134 .3556366 .41299439 .41566468L.57099917 .60369876Z"/>
<path id="font_6_1" d="M.35899354 .6349335C.35899354 .66503909 .35499574 .66503909 .32499696 .66503909 .25898744 .60058596 .15699768 .60058596 .12098694 .60058596V.5615845C.14698792 .5615845 .21299744 .5615845 .272995 .58958438V.08496094C.272995 .051986696 .272995 .038986207 .16999817 .038986207H.1269989V0C.18199158 .0039978029 .2599945 .0039978029 .31599427 .0039978029 .37199403 .0039978029 .44999696 .0039978029 .5049896 0V.038986207H.46199037C.35899354 .038986207 .35899354 .051986696 .35899354 .08496094V.6349335Z"/>
<path id="font_7_1" d="M.33399964 .30233766C.33999635 .32835389 .36299134 .42037965 .43299867 .42037965 .43798829 .42037965 .46199037 .42037965 .48298646 .40734864 .45498658 .402359 .43499757 .37734986 .43499757 .35334779 .43499757 .33735658 .44599916 .31835938 .47299195 .31835938 .49499513 .31835938 .5269928 .3363495 .5269928 .37635804 .5269928 .42837525 .46798707 .4423828 .43399049 .4423828 .37599183 .4423828 .34098817 .38935853 .32899476 .36634828 .3039856 .43237306 .25 .4423828 .22099304 .4423828 .116989139 .4423828 .05999756 .3133545 .05999756 .28834535 .05999756 .27833558 .069992069 .27833558 .07199097 .27833558 .07998657 .27833558 .08299255 .28033448 .084991458 .28933717 .11898804 .39535523 .18499756 .42037965 .21899414 .42037965 .23799134 .42037965 .272995 .4113617 .272995 .35334779 .272995 .32235719 .2559967 .25532533 .21899414 .11528015 .20298767 .053268434 .16799927 .011245728 .12399292 .011245728 .117996219 .011245728 .09498596 .011245728 .07398987 .024276734 .09899902 .029266358 .12098694 .05027771 .12098694 .07827759 .12098694 .105270389 .09899902 .11328125 .083999637 .11328125 .053985597 .11328125 .0289917 .08728027 .0289917 .055267335 .0289917 .009246826 .07899475-.0107421879 .12298584-.0107421879 .18899536-.0107421879 .22499085 .059280397 .22799683 .0652771 .23999024 .028274537 .27598573-.0107421879 .33599855-.0107421879 .43899537-.0107421879 .49598695 .118270877 .49598695 .14328003 .49598695 .1532898 .4869995 .1532898 .48399354 .1532898 .47499085 .1532898 .47299195 .14929199 .47099305 .14228821 .43798829 .03527832 .36999513 .011245728 .33799745 .011245728 .29899598 .011245728 .2829895 .043273927 .2829895 .07727051 .2829895 .09927368 .2889862 .121276859 .2999878 .16529846L.33399964 .30233766Z"/>
<path id="font_7_2" d="M.48599244 .38136292C.48999024 .39537049 .48999024 .39736939 .48999024 .40437318 .48999024 .42237855 .47599793 .43138124 .46099855 .43138124 .45098878 .43138124 .43499757 .42536927 .42599488 .41036988 .42399598 .405365 .41600038 .37435914 .4119873 .35635377 .40499879 .33035279 .397995 .30334474 .3919983 .27633668L.34700013 .09628296C.34298707 .08126831 .2999878 .011245728 .23399353 .011245728 .18299866 .011245728 .17199707 .055267335 .17199707 .0922699 .17199707 .1382904 .18899536 .20030213 .22299195 .28833009 .23899842 .3293457 .24299622 .3403473 .24299622 .36035157 .24299622 .405365 .21099854 .4423828 .16099549 .4423828 .06599426 .4423828 .0289917 .29733277 .0289917 .28833009 .0289917 .27833558 .038986207 .27833558 .040985109 .27833558 .050994874 .27833558 .051986696 .28033448 .056991579 .29634095 .083999637 .3903656 .12399292 .42037965 .1579895 .42037965 .1659851 .42037965 .18299866 .42037965 .18299866 .3883667 .18299866 .36335755 .17298889 .3373413 .1659851 .31834413 .12599182 .21231079 .10798645 .1552887 .10798645 .10827637 .10798645 .019256592 .17098999-.0107421879 .22999573-.0107421879 .2689972-.0107421879 .30299378 .0062561037 .33099366 .03425598 .31799317-.017745972 .30599977-.06674194 .2659912-.11973572 .23999024-.15385437 .20199585-.18309021 .1559906-.18309021 .14199829-.18309021 .09700012-.18005371 .07998657-.14074707 .09599304-.14074707 .10899353-.14074707 .12298584-.1287384 .1329956-.11973572 .14299011-.10673523 .14299011-.08773804 .14299011-.056747438 .115997318-.052734376 .10598755-.052734376 .08299255-.052734376 .049987794-.068740848 .049987794-.11773682 .049987794-.16796875 .09399414-.20507813 .1559906-.20507813 .25898744-.20507813 .3619995-.11373901 .3899994-.00074768069L.48599244 .38136292Z"/>
</defs>
<path transform="matrix(1.00003,0,0,-1.00005,6.582779,192.31395)" stroke-width=".3985" stroke-linecap="butt" stroke-miterlimit="10" stroke-linejoin="miter" fill="none" stroke="#404040" d="M0 0H224.1623V187.17588H0Z"/>
<path transform="matrix(1.00003,0,0,-1.00005,6.582779,192.31395)" stroke-width=".3985" stroke-linecap="butt" stroke-miterlimit="10" stroke-linejoin="miter" fill="none" stroke="#cccccc" d="M0 0V187.17588M112.08115 0V187.17588M224.1623 0V187.17588"/>
<path transform="matrix(1.00003,0,0,-1.00005,6.582779,192.31395)" stroke-width=".3985" stroke-linecap="butt" stroke-miterlimit="10" stroke-linejoin="miter" fill="none" stroke="#cccccc" d="M0 0V187.17588M224.1623 0V187.17588"/>
<path transform="matrix(1.00003,0,0,-1.00005,6.582779,192.31395)" stroke-width=".3985" stroke-linecap="butt" stroke-miterlimit="10" stroke-linejoin="miter" fill="none" stroke="#cccccc" d="M0 0H224.1623M0 93.58794H224.1623M0 187.17588H224.1623"/>
<path transform="matrix(1.00003,0,0,-1.00005,6.582779,192.31395)" stroke-width=".3985" stroke-linecap="butt" stroke-miterlimit="10" stroke-linejoin="miter" fill="none" stroke="#cccccc" d="M0 0H224.1623M0 187.17588H224.1623"/>
<path transform="matrix(1.00003,0,0,-1.00005,6.582779,192.31395)" stroke-width=".19925" stroke-linecap="butt" stroke-miterlimit="10" stroke-linejoin="miter" fill="none" stroke="#7f807f" d="M0 92.17055V95.00533M112.08115 92.17055V95.00533M224.1623 92.17055V95.00533"/>
<path transform="matrix(1.00003,0,0,-1.00005,6.582779,192.31395)" stroke-width=".19925" stroke-linecap="butt" stroke-miterlimit="10" stroke-linejoin="miter" fill="none" stroke="#7f807f" d="M0 91.46205V95.71379M224.1623 91.46205V95.71379"/>
<path transform="matrix(1.00003,0,0,-1.00005,6.582779,192.31395)" stroke-width=".19925" stroke-linecap="butt" stroke-miterlimit="10" stroke-linejoin="miter" fill="none" stroke="#7f807f" d="M110.66353 0H113.49875M110.66353 93.58794H113.49875M110.66353 187.17588H113.49875"/>
<path transform="matrix(1.00003,0,0,-1.00005,6.582779,192.31395)" stroke-width=".19925" stroke-linecap="butt" stroke-miterlimit="10" stroke-linejoin="miter" fill="none" stroke="#7f807f" d="M109.95493 0H114.20734M109.95493 187.17588H114.20734"/>
<path transform="matrix(1.00003,0,0,-1.00005,6.582779,192.31395)" stroke-width=".3985" stroke-linecap="butt" stroke-miterlimit="10" stroke-linejoin="miter" fill="none" stroke="#000000" d="M0 93.58794H222.16976"/>
<path transform="matrix(1.00003,0,0,-1.00005,228.7592,98.72134)" d="M1.99252 0-1.19551 1.59401 0 0-1.19551-1.59401"/>
<path transform="matrix(1.00003,0,0,-1.00005,6.582779,192.31395)" stroke-width=".3985" stroke-linecap="butt" stroke-miterlimit="10" stroke-linejoin="miter" fill="none" stroke="#000000" d="M112.08115 0V185.18335"/>
<path transform="matrix(0,-1.00005,-1.00003,-0,118.66729,7.121353)" d="M1.99252 0-1.19551 1.59401 0 0-1.19551-1.59401"/>
<use data-text="&#x2212;" xlink:href="#font_1_1" transform="matrix(9.962899,0,0,-9.963098,.21759033,110.78787)"/>
<use data-text="1" xlink:href="#font_2_1" transform="matrix(9.962899,0,0,-9.963098,7.96682,110.78787)"/>
<use data-text="1" xlink:href="#font_2_1" transform="matrix(9.962899,0,0,-9.963098,228.26143,110.78787)"/>
<use data-text="&#x2212;" xlink:href="#font_1_1" transform="matrix(9.962899,0,0,-9.963098,100.290599,195.10909)"/>
<use data-text="1" xlink:href="#font_2_1" transform="matrix(9.962899,0,0,-9.963098,108.039829,195.10909)"/>
<use data-text="1" xlink:href="#font_2_1" transform="matrix(9.962899,0,0,-9.963098,108.039829,8.33876)"/>
<path transform="matrix(1.00003,0,0,-1.00005,6.582779,192.31395)" stroke-width=".3985" stroke-linecap="butt" stroke-miterlimit="10" stroke-linejoin="miter" fill="none" stroke="#000000" d="M224.1623 93.58794C224.1623 145.27579 173.98264 187.17588 112.08115 187.17588 50.17964 187.17588 0 145.27579 0 93.58794 0 41.90009 50.17964 0 112.08115 0 173.98264 0 224.1623 41.90009 224.1623 93.58794ZM112.08115 93.58794"/>
<path transform="matrix(1.00003,0,0,-1.00005,6.582779,192.31395)" stroke-width=".3985" stroke-linecap="butt" stroke-miterlimit="10" stroke-linejoin="miter" fill="none" stroke="#1414cc" d="M224.1623 93.58794"/>
<use data-text="&#x03b8;" xlink:href="#font_3_1" transform="matrix(7.9703395,0,0,-7.970498,207.51982,107.77673)" fill="#1414cc"/>
<use data-text="=" xlink:href="#font_4_2" transform="matrix(7.9703395,0,0,-7.970498,214.05802,107.77673)" fill="#1414cc"/>
<use data-text="0" xlink:href="#font_4_1" transform="matrix(7.9703395,0,0,-7.970498,222.99277,107.77673)" fill="#1414cc"/>
<path transform="matrix(1.00003,0,0,-1.00005,6.582779,192.31395)" stroke-width=".3985" stroke-linecap="butt" stroke-miterlimit="10" stroke-linejoin="miter" fill="none" stroke="#008c0d" stroke-opacity=".2" d="M112.08115 93.58794 209.14342 140.3819"/>
<path transform="matrix(1.00003,0,0,-1.00005,6.582779,192.31395)" stroke-width=".3985" stroke-linecap="butt" stroke-miterlimit="10" stroke-linejoin="miter" fill="none" stroke="#008c0d" d="M209.14342 140.3819"/>
<use data-text="&#x03b8;" xlink:href="#font_3_1" transform="matrix(6.9025528,-3.985249,-3.9851697,-6.9026906,193.93854,66.07051)" fill="#008c0d"/>
<use data-text="=" xlink:href="#font_4_2" transform="matrix(6.9025528,-3.985249,-3.9851697,-6.9026906,199.60083,62.801343)" fill="#008c0d"/>
<use data-text="&#x03c0;" xlink:href="#font_5_1" transform="matrix(5.176936,-2.9889494,-2.98889,-5.1770398,206.7479,54.91155)" fill="#008c0d"/>
<path transform="matrix(.86605599,-.500025,-.500015,-.86607328,19.182152,-32.076253)" stroke-width=".3587" stroke-linecap="butt" stroke-miterlimit="10" stroke-linejoin="miter" fill="none" stroke="#008c0d" d="M118.94-170.375H123.499"/>
<use data-text="6" xlink:href="#font_6_6" transform="matrix(5.176936,-2.9889494,-2.98889,-5.1770398,210.3323,60.21406)" fill="#008c0d"/>
<path transform="matrix(1.00003,0,0,-1.00005,6.582779,192.31395)" stroke-width=".3985" stroke-linecap="butt" stroke-miterlimit="10" stroke-linejoin="miter" fill="none" stroke="#8014b3" stroke-opacity=".2" d="M112.08115 93.58794 191.3225 159.7546"/>
<path transform="matrix(1.00003,0,0,-1.00005,6.582779,192.31395)" stroke-width=".3985" stroke-linecap="butt" stroke-miterlimit="10" stroke-linejoin="miter" fill="none" stroke="#8014b3" d="M191.3225 159.7546"/>
<use data-text="&#x03b8;" xlink:href="#font_3_1" transform="matrix(5.6358268,-5.635939,-5.6358268,-5.635939,180.52109,51.85565)" fill="#8014b3"/>
<use data-text="=" xlink:href="#font_4_2" transform="matrix(5.6358268,-5.635939,-5.6358268,-5.635939,185.14426,47.2324)" fill="#8014b3"/>
<use data-text="&#x03c0;" xlink:href="#font_5_1" transform="matrix(4.2268879,-4.226972,-4.2268879,-4.226972,190.0057,37.761728)" fill="#8014b3"/>
<path transform="matrix(.7071212,-.7071353,-.7071212,-.7071353,-13.679832,2.2854672)" stroke-width=".3587" stroke-linecap="butt" stroke-miterlimit="10" stroke-linejoin="miter" fill="none" stroke="#8014b3" d="M118.94-170.375H123.499"/>
<use data-text="4" xlink:href="#font_6_4" transform="matrix(4.2268879,-4.226972,-4.2268879,-4.226972,194.8403,41.955759)" fill="#8014b3"/>
<path transform="matrix(1.00003,0,0,-1.00005,6.582779,192.31395)" stroke-width=".3985" stroke-linecap="butt" stroke-miterlimit="10" stroke-linejoin="miter" fill="none" stroke="#e61ae6" stroke-opacity=".2" d="M112.08115 93.58794 168.12172 174.63509"/>
<path transform="matrix(1.00003,0,0,-1.00005,6.582779,192.31395)" stroke-width=".3985" stroke-linecap="butt" stroke-miterlimit="10" stroke-linejoin="miter" fill="none" stroke="#e61ae6" d="M168.12172 174.63509"/>
<use data-text="&#x03b8;" xlink:href="#font_3_1" transform="matrix(3.9851697,-6.9026906,-6.9025528,-3.985249,162.90833,40.81823)" fill="#e61ae6"/>
<use data-text="=" xlink:href="#font_4_2" transform="matrix(3.9851697,-6.9026906,-6.9025528,-3.985249,166.17743,35.15584)" fill="#e61ae6"/>
<use data-text="&#x03c0;" xlink:href="#font_5_1" transform="matrix(2.98889,-5.1770398,-5.176936,-2.9889494,168.42209,24.749478)" fill="#e61ae6"/>
<path transform="matrix(.500015,-.86607328,-.86605599,-.500025,-37.507547,43.201509)" stroke-width=".3587" stroke-linecap="butt" stroke-miterlimit="10" stroke-linejoin="miter" fill="none" stroke="#e61ae6" d="M118.94-170.375H123.499"/>
<use data-text="3" xlink:href="#font_6_3" transform="matrix(2.98889,-5.1770398,-5.176936,-2.9889494,174.17749,27.549304)" fill="#e61ae6"/>
<path transform="matrix(1.00003,0,0,-1.00005,6.582779,192.31395)" stroke-width=".3985" stroke-linecap="butt" stroke-miterlimit="10" stroke-linejoin="miter" fill="none" stroke="#ff801a" d="M112.08115 187.17588"/>
<use data-text="&#x03b8;" xlink:href="#font_3_1" transform="matrix(0,7.970498,7.9703395,0,109.31387,8.648788)" fill="#ff801a"/>
<use data-text="=" xlink:href="#font_4_2" transform="matrix(0,7.970498,7.9703395,0,109.31387,15.187111)" fill="#ff801a"/>
<use data-text="&#x03c0;" xlink:href="#font_5_1" transform="matrix(0,5.9778988,5.97778,0,112.57297,25.321625)" fill="#ff801a"/>
<path transform="matrix(0,1.00005,1.00003,0,281.68705,-93.62432)" stroke-width=".3587" stroke-linecap="butt" stroke-miterlimit="10" stroke-linejoin="miter" fill="none" stroke="#ff801a" d="M118.94-170.375H123.499"/>
<use data-text="2" xlink:href="#font_6_2" transform="matrix(0,5.9778988,5.97778,0,106.18877,25.774643)" fill="#ff801a"/>
<path transform="matrix(1.00003,0,0,-1.00005,6.582779,192.31395)" stroke-width=".3985" stroke-linecap="butt" stroke-miterlimit="10" stroke-linejoin="miter" fill="none" stroke="#e61ae6" stroke-opacity=".2" d="M112.08115 93.58794 56.04057 174.63509"/>
<path transform="matrix(1.00003,0,0,-1.00005,6.582779,192.31395)" stroke-width=".3985" stroke-linecap="butt" stroke-miterlimit="10" stroke-linejoin="miter" fill="none" stroke="#e61ae6" d="M56.04057 174.63509"/>
<use data-text="&#x03b8;" xlink:href="#font_3_1" transform="matrix(3.9851697,6.9026906,6.9025528,-3.985249,62.658609,21.714585)" fill="#e61ae6"/>
<use data-text="=" xlink:href="#font_4_2" transform="matrix(3.9851697,6.9026906,6.9025528,-3.985249,65.927707,27.376984)" fill="#e61ae6"/>
<use data-text="2" xlink:href="#font_6_2" transform="matrix(2.98889,5.1770398,5.176936,-2.9889494,73.81734,34.524187)" fill="#e61ae6"/>
<use data-text="&#x03c0;" xlink:href="#font_5_1" transform="matrix(2.98889,5.1770398,5.176936,-2.9889494,75.64389,37.687959)" fill="#e61ae6"/>
<path transform="matrix(.500015,.86607328,.86605599,-.500025,160.8034,-153.04529)" stroke-width=".3587" stroke-linecap="butt" stroke-miterlimit="10" stroke-linejoin="miter" fill="none" stroke="#e61ae6" d="M118.94-170.375H127.152"/>
<use data-text="3" xlink:href="#font_6_3" transform="matrix(2.98889,5.1770398,5.176936,-2.9889494,69.42797,39.690126)" fill="#e61ae6"/>
<path transform="matrix(1.00003,0,0,-1.00005,6.582779,192.31395)" stroke-width=".3985" stroke-linecap="butt" stroke-miterlimit="10" stroke-linejoin="miter" fill="none" stroke="#8014b3" stroke-opacity=".2" d="M112.08115 93.58794 32.83977 159.7546"/>
<path transform="matrix(1.00003,0,0,-1.00005,6.582779,192.31395)" stroke-width=".3985" stroke-linecap="butt" stroke-miterlimit="10" stroke-linejoin="miter" fill="none" stroke="#8014b3" d="M32.83977 159.7546"/>
<use data-text="&#x03b8;" xlink:href="#font_3_1" transform="matrix(5.6358268,5.635939,5.6358268,-5.635939,40.5031,36.449266)" fill="#8014b3"/>
<use data-text="=" xlink:href="#font_4_2" transform="matrix(5.6358268,5.635939,5.6358268,-5.635939,45.126264,41.072526)" fill="#8014b3"/>
<use data-text="3" xlink:href="#font_6_3" transform="matrix(4.2268879,4.226972,4.2268879,-4.226972,54.59674,45.934083)" fill="#8014b3"/>
<use data-text="&#x03c0;" xlink:href="#font_5_1" transform="matrix(4.2268879,4.226972,4.2268879,-4.226972,57.179857,48.517244)" fill="#8014b3"/>
<path transform="matrix(.7071212,.7071353,.7071212,-.7071353,90.072299,-157.75554)" stroke-width=".3587" stroke-linecap="butt" stroke-miterlimit="10" stroke-linejoin="miter" fill="none" stroke="#8014b3" d="M118.94-170.375H127.152"/>
<use data-text="4" xlink:href="#font_6_4" transform="matrix(4.2268879,4.226972,4.2268879,-4.226972,51.694005,52.059999)" fill="#8014b3"/>
<path transform="matrix(1.00003,0,0,-1.00005,6.582779,192.31395)" stroke-width=".3985" stroke-linecap="butt" stroke-miterlimit="10" stroke-linejoin="miter" fill="none" stroke="#008c0d" stroke-opacity=".2" d="M112.08115 93.58794 15.01884 140.3819"/>
<path transform="matrix(1.00003,0,0,-1.00005,6.582779,192.31395)" stroke-width=".3985" stroke-linecap="butt" stroke-miterlimit="10" stroke-linejoin="miter" fill="none" stroke="#008c0d" d="M15.01884 140.3819"/>
<use data-text="&#x03b8;" xlink:href="#font_3_1" transform="matrix(6.9025528,3.985249,3.9851697,-6.9026906,23.65345,55.410966)" fill="#008c0d"/>
<use data-text="=" xlink:href="#font_4_2" transform="matrix(6.9025528,3.985249,3.9851697,-6.9026906,29.315728,58.68013)" fill="#008c0d"/>
<use data-text="5" xlink:href="#font_6_5" transform="matrix(5.176936,2.9889494,2.98889,-5.1770398,39.721887,60.92485)" fill="#008c0d"/>
<use data-text="&#x03c0;" xlink:href="#font_5_1" transform="matrix(5.176936,2.9889494,2.98889,-5.1770398,42.88559,62.751436)" fill="#008c0d"/>
<path transform="matrix(.86605599,.500025,.500015,-.86607328,21.270226,-145.0089)" stroke-width=".3587" stroke-linecap="butt" stroke-miterlimit="10" stroke-linejoin="miter" fill="none" stroke="#008c0d" d="M118.94-170.375H127.152"/>
<use data-text="6" xlink:href="#font_6_6" transform="matrix(5.176936,2.9889494,2.98889,-5.1770398,38.503526,67.59343)" fill="#008c0d"/>
<path transform="matrix(1.00003,0,0,-1.00005,6.582779,192.31395)" stroke-width=".3985" stroke-linecap="butt" stroke-miterlimit="10" stroke-linejoin="miter" fill="none" stroke="#1414cc" d="M0 93.58794"/>
<use data-text="&#x03b8;" xlink:href="#font_3_1" transform="matrix(7.9703395,0,0,-7.970498,10.102882,95.201099)" fill="#1414cc"/>
<use data-text="=" xlink:href="#font_4_2" transform="matrix(7.9703395,0,0,-7.970498,16.641076,95.201099)" fill="#1414cc"/>
<use data-text="&#x03c0;" xlink:href="#font_3_2" transform="matrix(7.9703395,0,0,-7.970498,25.580353,95.201099)" fill="#1414cc"/>
<path transform="matrix(1.00003,0,0,-1.00005,6.582779,192.31395)" stroke-width=".3985" stroke-linecap="butt" stroke-miterlimit="10" stroke-linejoin="miter" fill="none" stroke="#008c0d" stroke-opacity=".2" d="M112.08115 93.58794 15.01884 46.79396"/>
<path transform="matrix(1.00003,0,0,-1.00005,6.582779,192.31395)" stroke-width=".3985" stroke-linecap="butt" stroke-miterlimit="10" stroke-linejoin="miter" fill="none" stroke="#008c0d" d="M15.01884 46.79396"/>
<use data-text="&#x03b8;" xlink:href="#font_3_1" transform="matrix(6.9025528,-3.985249,-3.9851697,-6.9026906,25.6465,145.48348)" fill="#008c0d"/>
<use data-text="=" xlink:href="#font_4_2" transform="matrix(6.9025528,-3.985249,-3.9851697,-6.9026906,31.308777,142.21431)" fill="#008c0d"/>
<use data-text="7" xlink:href="#font_6_7" transform="matrix(5.176936,-2.9889494,-2.98889,-5.1770398,38.45584,134.32453)" fill="#008c0d"/>
<use data-text="&#x03c0;" xlink:href="#font_5_1" transform="matrix(5.176936,-2.9889494,-2.98889,-5.1770398,41.619539,132.49793)" fill="#008c0d"/>
<path transform="matrix(.86605599,-.500025,-.500015,-.86607328,-149.1099,47.336717)" stroke-width=".3587" stroke-linecap="butt" stroke-miterlimit="10" stroke-linejoin="miter" fill="none" stroke="#008c0d" d="M118.94-170.375H127.152"/>
<use data-text="6" xlink:href="#font_6_6" transform="matrix(5.176936,-2.9889494,-2.98889,-5.1770398,43.62169,138.71399)" fill="#008c0d"/>
<path transform="matrix(1.00003,0,0,-1.00005,6.582779,192.31395)" stroke-width=".3985" stroke-linecap="butt" stroke-miterlimit="10" stroke-linejoin="miter" fill="none" stroke="#8014b3" stroke-opacity=".2" d="M112.08115 93.58794 32.83977 27.42126"/>
<path transform="matrix(1.00003,0,0,-1.00005,6.582779,192.31395)" stroke-width=".3985" stroke-linecap="butt" stroke-miterlimit="10" stroke-linejoin="miter" fill="none" stroke="#8014b3" d="M32.83977 27.42126"/>
<use data-text="&#x03b8;" xlink:href="#font_3_1" transform="matrix(5.6358268,-5.635939,-5.6358268,-5.635939,43.321977,163.81125)" fill="#8014b3"/>
<use data-text="=" xlink:href="#font_4_2" transform="matrix(5.6358268,-5.635939,-5.6358268,-5.635939,47.945146,159.18799)" fill="#8014b3"/>
<use data-text="5" xlink:href="#font_6_5" transform="matrix(4.2268879,-4.226972,-4.2268879,-4.226972,52.806596,149.71732)" fill="#8014b3"/>
<use data-text="&#x03c0;" xlink:href="#font_5_1" transform="matrix(4.2268879,-4.226972,-4.2268879,-4.226972,55.38971,147.13416)" fill="#8014b3"/>
<path transform="matrix(.7071212,-.7071353,-.7071212,-.7071353,-150.87895,114.24106)" stroke-width=".3587" stroke-linecap="butt" stroke-miterlimit="10" stroke-linejoin="miter" fill="none" stroke="#8014b3" d="M118.94-170.375H127.152"/>
<use data-text="4" xlink:href="#font_6_4" transform="matrix(4.2268879,-4.226972,-4.2268879,-4.226972,58.93239,152.62012)" fill="#8014b3"/>
<path transform="matrix(1.00003,0,0,-1.00005,6.582779,192.31395)" stroke-width=".3985" stroke-linecap="butt" stroke-miterlimit="10" stroke-linejoin="miter" fill="none" stroke="#e61ae6" stroke-opacity=".2" d="M112.08115 93.58794 56.04057 12.54076"/>
<path transform="matrix(1.00003,0,0,-1.00005,6.582779,192.31395)" stroke-width=".3985" stroke-linecap="butt" stroke-miterlimit="10" stroke-linejoin="miter" fill="none" stroke="#e61ae6" d="M56.04057 12.54076"/>
<use data-text="&#x03b8;" xlink:href="#font_3_1" transform="matrix(3.9851697,-6.9026906,-6.9025528,-3.985249,66.11041,177.72008)" fill="#e61ae6"/>
<use data-text="=" xlink:href="#font_4_2" transform="matrix(3.9851697,-6.9026906,-6.9025528,-3.985249,69.37952,172.05768)" fill="#e61ae6"/>
<use data-text="4" xlink:href="#font_6_4" transform="matrix(2.98889,-5.1770398,-5.176936,-2.9889494,71.62419,161.65132)" fill="#e61ae6"/>
<use data-text="&#x03c0;" xlink:href="#font_5_1" transform="matrix(2.98889,-5.1770398,-5.176936,-2.9889494,73.450748,158.48755)" fill="#e61ae6"/>
<path transform="matrix(.500015,-.86607328,-.86605599,-.500025,-134.30545,180.10335)" stroke-width=".3587" stroke-linecap="butt" stroke-miterlimit="10" stroke-linejoin="miter" fill="none" stroke="#e61ae6" d="M118.94-170.375H127.152"/>
<use data-text="3" xlink:href="#font_6_3" transform="matrix(2.98889,-5.1770398,-5.176936,-2.9889494,78.29263,162.86969)" fill="#e61ae6"/>
<path transform="matrix(1.00003,0,0,-1.00005,6.582779,192.31395)" stroke-width=".3985" stroke-linecap="butt" stroke-miterlimit="10" stroke-linejoin="miter" fill="none" stroke="#ff801a" d="M112.08115 0"/>
<use data-text="&#x03b8;" xlink:href="#font_3_1" transform="matrix(0,7.970498,7.9703395,0,125.31235,162.71248)" fill="#ff801a"/>
<use data-text="=" xlink:href="#font_4_2" transform="matrix(0,7.970498,7.9703395,0,125.31235,169.2508)" fill="#ff801a"/>
<use data-text="3" xlink:href="#font_6_3" transform="matrix(0,5.9778988,5.97778,0,128.57144,179.38532)" fill="#ff801a"/>
<use data-text="&#x03c0;" xlink:href="#font_5_1" transform="matrix(0,5.9778988,5.97778,0,128.57144,183.0385)" fill="#ff801a"/>
<path transform="matrix(0,1.00005,1.00003,0,297.68553,60.43937)" stroke-width=".3587" stroke-linecap="butt" stroke-miterlimit="10" stroke-linejoin="miter" fill="none" stroke="#ff801a" d="M118.94-170.375H127.152"/>
<use data-text="2" xlink:href="#font_6_2" transform="matrix(0,5.9778988,5.97778,0,122.18724,181.66443)" fill="#ff801a"/>
<path transform="matrix(1.00003,0,0,-1.00005,6.582779,192.31395)" stroke-width=".3985" stroke-linecap="butt" stroke-miterlimit="10" stroke-linejoin="miter" fill="none" stroke="#008c0d" stroke-opacity=".2" d="M112.08115 93.58794 209.14342 46.79396"/>
<path transform="matrix(1.00003,0,0,-1.00005,6.582779,192.31395)" stroke-width=".3985" stroke-linecap="butt" stroke-miterlimit="10" stroke-linejoin="miter" fill="none" stroke="#008c0d" d="M209.14342 46.79396"/>
<use data-text="&#x03b8;" xlink:href="#font_3_1" transform="matrix(6.9025528,3.985249,3.9851697,-6.9026906,185.93733,130.61673)" fill="#008c0d"/>
<use data-text="=" xlink:href="#font_4_2" transform="matrix(6.9025528,3.985249,3.9851697,-6.9026906,191.59961,133.8859)" fill="#008c0d"/>
<use data-text="1" xlink:href="#font_6_1" transform="matrix(5.176936,2.9889494,2.98889,-5.1770398,202.00577,136.13062)" fill="#008c0d"/>
<use data-text="1" xlink:href="#font_6_1" transform="matrix(5.176936,2.9889494,2.98889,-5.1770398,205.16889,137.95687)" fill="#008c0d"/>
<use data-text="&#x03c0;" xlink:href="#font_5_1" transform="matrix(5.176936,2.9889494,2.98889,-5.1770398,208.33318,139.7838)" fill="#008c0d"/>
<path transform="matrix(.86605599,.500025,.500015,-.86607328,183.55411,-69.80313)" stroke-width=".3587" stroke-linecap="butt" stroke-miterlimit="10" stroke-linejoin="miter" fill="none" stroke="#008c0d" d="M118.94-170.375H130.805"/>
<use data-text="6" xlink:href="#font_6_6" transform="matrix(5.176936,2.9889494,2.98889,-5.1770398,202.36969,143.71274)" fill="#008c0d"/>
<path transform="matrix(1.00003,0,0,-1.00005,6.582779,192.31395)" stroke-width=".3985" stroke-linecap="butt" stroke-miterlimit="10" stroke-linejoin="miter" fill="none" stroke="#8014b3" stroke-opacity=".2" d="M112.08115 93.58794 191.3225 27.42126"/>
<path transform="matrix(1.00003,0,0,-1.00005,6.582779,192.31395)" stroke-width=".3985" stroke-linecap="butt" stroke-miterlimit="10" stroke-linejoin="miter" fill="none" stroke="#8014b3" d="M191.3225 27.42126"/>
<use data-text="&#x03b8;" xlink:href="#font_3_1" transform="matrix(5.6358268,5.635939,5.6358268,-5.635939,175.57115,145.36972)" fill="#8014b3"/>
<use data-text="=" xlink:href="#font_4_2" transform="matrix(5.6358268,5.635939,5.6358268,-5.635939,180.19432,149.99298)" fill="#8014b3"/>
<use data-text="7" xlink:href="#font_6_7" transform="matrix(4.2268879,4.226972,4.2268879,-4.226972,189.6648,154.85454)" fill="#8014b3"/>
<use data-text="&#x03c0;" xlink:href="#font_5_1" transform="matrix(4.2268879,4.226972,4.2268879,-4.226972,192.24791,157.4377)" fill="#8014b3"/>
<path transform="matrix(.7071212,.7071353,.7071212,-.7071353,225.14035,-48.835084)" stroke-width=".3587" stroke-linecap="butt" stroke-miterlimit="10" stroke-linejoin="miter" fill="none" stroke="#8014b3" d="M118.94-170.375H127.152"/>
<use data-text="4" xlink:href="#font_6_4" transform="matrix(4.2268879,4.226972,4.2268879,-4.226972,186.76206,160.98046)" fill="#8014b3"/>
<path transform="matrix(1.00003,0,0,-1.00005,6.582779,192.31395)" stroke-width=".3985" stroke-linecap="butt" stroke-miterlimit="10" stroke-linejoin="miter" fill="none" stroke="#e61ae6" stroke-opacity=".2" d="M112.08115 93.58794 168.12172 12.54076"/>
<path transform="matrix(1.00003,0,0,-1.00005,6.582779,192.31395)" stroke-width=".3985" stroke-linecap="butt" stroke-miterlimit="10" stroke-linejoin="miter" fill="none" stroke="#e61ae6" d="M168.12172 12.54076"/>
<use data-text="&#x03b8;" xlink:href="#font_3_1" transform="matrix(3.9851697,6.9026906,6.9025528,-3.985249,158.1835,155.13324)" fill="#e61ae6"/>
<use data-text="=" xlink:href="#font_4_2" transform="matrix(3.9851697,6.9026906,6.9025528,-3.985249,161.4526,160.79564)" fill="#e61ae6"/>
<use data-text="5" xlink:href="#font_6_5" transform="matrix(2.98889,5.1770398,5.176936,-2.9889494,169.34224,167.94284)" fill="#e61ae6"/>
<use data-text="&#x03c0;" xlink:href="#font_5_1" transform="matrix(2.98889,5.1770398,5.176936,-2.9889494,171.1688,171.10662)" fill="#e61ae6"/>
<path transform="matrix(.500015,.86607328,.86605599,-.500025,256.3283,-19.626629)" stroke-width=".3587" stroke-linecap="butt" stroke-miterlimit="10" stroke-linejoin="miter" fill="none" stroke="#e61ae6" d="M118.94-170.375H127.152"/>
<use data-text="3" xlink:href="#font_6_3" transform="matrix(2.98889,5.1770398,5.176936,-2.9889494,164.95288,173.10878)" fill="#e61ae6"/>
<path transform="matrix(1.00003,0,0,-1.00005,6.582779,192.31395)" d="M226.15485 93.58794C226.15485 94.6884 225.26276 95.58049 224.1623 95.58049 223.06182 95.58049 222.16974 94.6884 222.16974 93.58794 222.16974 92.48746 223.06182 91.59538 224.1623 91.59538 225.26276 91.59538 226.15485 92.48746 226.15485 93.58794ZM224.1623 93.58794" fill="#1414cc"/>
<path transform="matrix(1.00003,0,0,-1.00005,6.582779,192.31395)" stroke-width=".3985" stroke-linecap="butt" stroke-miterlimit="10" stroke-linejoin="miter" fill="none" stroke="#1414cc" d="M226.15485 93.58794C226.15485 94.6884 225.26276 95.58049 224.1623 95.58049 223.06182 95.58049 222.16974 94.6884 222.16974 93.58794 222.16974 92.48746 223.06182 91.59538 224.1623 91.59538 225.26276 91.59538 226.15485 92.48746 226.15485 93.58794ZM224.1623 93.58794"/>
<path transform="matrix(1.00003,0,0,-1.00005,6.582779,192.31395)" stroke-width=".3985" stroke-linecap="butt" stroke-miterlimit="10" stroke-linejoin="miter" fill="none" stroke="#1414cc" d=""/>
<path transform="matrix(1.00003,0,0,-1.00005,6.582779,192.31395)" d="M211.13597 140.3819C211.13597 141.48238 210.24388 142.37445 209.14342 142.37445 208.04294 142.37445 207.15087 141.48238 207.15087 140.3819 207.15087 139.28144 208.04294 138.38935 209.14342 138.38935 210.24388 138.38935 211.13597 139.28144 211.13597 140.3819ZM209.14342 140.3819" fill="#008c0d"/>
<path transform="matrix(1.00003,0,0,-1.00005,6.582779,192.31395)" stroke-width=".3985" stroke-linecap="butt" stroke-miterlimit="10" stroke-linejoin="miter" fill="none" stroke="#008c0d" d="M211.13597 140.3819C211.13597 141.48238 210.24388 142.37445 209.14342 142.37445 208.04294 142.37445 207.15087 141.48238 207.15087 140.3819 207.15087 139.28144 208.04294 138.38935 209.14342 138.38935 210.24388 138.38935 211.13597 139.28144 211.13597 140.3819ZM209.14342 140.3819"/>
<path transform="matrix(1.00003,0,0,-1.00005,6.582779,192.31395)" stroke-width=".3985" stroke-linecap="butt" stroke-miterlimit="10" stroke-linejoin="miter" fill="none" stroke="#008c0d" d=""/>
<path transform="matrix(1.00003,0,0,-1.00005,6.582779,192.31395)" d="M193.31505 159.7546C193.31505 160.85506 192.42298 161.74715 191.3225 161.74715 190.22203 161.74715 189.32994 160.85506 189.32994 159.7546 189.32994 158.65412 190.22203 157.76204 191.3225 157.76204 192.42298 157.76204 193.31505 158.65412 193.31505 159.7546ZM191.3225 159.7546" fill="#8014b3"/>
<path transform="matrix(1.00003,0,0,-1.00005,6.582779,192.31395)" stroke-width=".3985" stroke-linecap="butt" stroke-miterlimit="10" stroke-linejoin="miter" fill="none" stroke="#8014b3" d="M193.31505 159.7546C193.31505 160.85506 192.42298 161.74715 191.3225 161.74715 190.22203 161.74715 189.32994 160.85506 189.32994 159.7546 189.32994 158.65412 190.22203 157.76204 191.3225 157.76204 192.42298 157.76204 193.31505 158.65412 193.31505 159.7546ZM191.3225 159.7546"/>
<path transform="matrix(1.00003,0,0,-1.00005,6.582779,192.31395)" stroke-width=".3985" stroke-linecap="butt" stroke-miterlimit="10" stroke-linejoin="miter" fill="none" stroke="#8014b3" d=""/>
<path transform="matrix(1.00003,0,0,-1.00005,6.582779,192.31395)" d="M170.11428 174.63509C170.11428 175.73557 169.22219 176.62764 168.12172 176.62764 167.02124 176.62764 166.12917 175.73557 166.12917 174.63509 166.12917 173.53462 167.02124 172.64253 168.12172 172.64253 169.22219 172.64253 170.11428 173.53462 170.11428 174.63509ZM168.12172 174.63509" fill="#e61ae6"/>
<path transform="matrix(1.00003,0,0,-1.00005,6.582779,192.31395)" stroke-width=".3985" stroke-linecap="butt" stroke-miterlimit="10" stroke-linejoin="miter" fill="none" stroke="#e61ae6" d="M170.11428 174.63509C170.11428 175.73557 169.22219 176.62764 168.12172 176.62764 167.02124 176.62764 166.12917 175.73557 166.12917 174.63509 166.12917 173.53462 167.02124 172.64253 168.12172 172.64253 169.22219 172.64253 170.11428 173.53462 170.11428 174.63509ZM168.12172 174.63509"/>
<path transform="matrix(1.00003,0,0,-1.00005,6.582779,192.31395)" stroke-width=".3985" stroke-linecap="butt" stroke-miterlimit="10" stroke-linejoin="miter" fill="none" stroke="#e61ae6" d=""/>
<path transform="matrix(1.00003,0,0,-1.00005,6.582779,192.31395)" d="M114.0737 187.17588C114.0737 188.27634 113.18161 189.16843 112.08115 189.16843 110.98067 189.16843 110.0886 188.27634 110.0886 187.17588 110.0886 186.0754 110.98067 185.18332 112.08115 185.18332 113.18161 185.18332 114.0737 186.0754 114.0737 187.17588ZM112.08115 187.17588" fill="#ff801a"/>
<path transform="matrix(1.00003,0,0,-1.00005,6.582779,192.31395)" stroke-width=".3985" stroke-linecap="butt" stroke-miterlimit="10" stroke-linejoin="miter" fill="none" stroke="#ff801a" d="M114.0737 187.17588C114.0737 188.27634 113.18161 189.16843 112.08115 189.16843 110.98067 189.16843 110.0886 188.27634 110.0886 187.17588 110.0886 186.0754 110.98067 185.18332 112.08115 185.18332 113.18161 185.18332 114.0737 186.0754 114.0737 187.17588ZM112.08115 187.17588"/>
<path transform="matrix(1.00003,0,0,-1.00005,6.582779,192.31395)" stroke-width=".3985" stroke-linecap="butt" stroke-miterlimit="10" stroke-linejoin="miter" fill="none" stroke="#ff801a" d=""/>
<path transform="matrix(1.00003,0,0,-1.00005,6.582779,192.31395)" d="M58.03313 174.63509C58.03313 175.73557 57.14104 176.62764 56.04057 176.62764 54.9401 176.62764 54.04802 175.73557 54.04802 174.63509 54.04802 173.53462 54.9401 172.64253 56.04057 172.64253 57.14104 172.64253 58.03313 173.53462 58.03313 174.63509ZM56.04057 174.63509" fill="#e61ae6"/>
<path transform="matrix(1.00003,0,0,-1.00005,6.582779,192.31395)" stroke-width=".3985" stroke-linecap="butt" stroke-miterlimit="10" stroke-linejoin="miter" fill="none" stroke="#e61ae6" d="M58.03313 174.63509C58.03313 175.73557 57.14104 176.62764 56.04057 176.62764 54.9401 176.62764 54.04802 175.73557 54.04802 174.63509 54.04802 173.53462 54.9401 172.64253 56.04057 172.64253 57.14104 172.64253 58.03313 173.53462 58.03313 174.63509ZM56.04057 174.63509"/>
<path transform="matrix(1.00003,0,0,-1.00005,6.582779,192.31395)" stroke-width=".3985" stroke-linecap="butt" stroke-miterlimit="10" stroke-linejoin="miter" fill="none" stroke="#e61ae6" d=""/>
<path transform="matrix(1.00003,0,0,-1.00005,6.582779,192.31395)" d="M34.83232 159.7546C34.83232 160.85506 33.94023 161.74715 32.83977 161.74715 31.73929 161.74715 30.84721 160.85506 30.84721 159.7546 30.84721 158.65412 31.73929 157.76204 32.83977 157.76204 33.94023 157.76204 34.83232 158.65412 34.83232 159.7546ZM32.83977 159.7546" fill="#8014b3"/>
<path transform="matrix(1.00003,0,0,-1.00005,6.582779,192.31395)" stroke-width=".3985" stroke-linecap="butt" stroke-miterlimit="10" stroke-linejoin="miter" fill="none" stroke="#8014b3" d="M34.83232 159.7546C34.83232 160.85506 33.94023 161.74715 32.83977 161.74715 31.73929 161.74715 30.84721 160.85506 30.84721 159.7546 30.84721 158.65412 31.73929 157.76204 32.83977 157.76204 33.94023 157.76204 34.83232 158.65412 34.83232 159.7546ZM32.83977 159.7546"/>
<path transform="matrix(1.00003,0,0,-1.00005,6.582779,192.31395)" stroke-width=".3985" stroke-linecap="butt" stroke-miterlimit="10" stroke-linejoin="miter" fill="none" stroke="#8014b3" d=""/>
<path transform="matrix(1.00003,0,0,-1.00005,6.582779,192.31395)" d="M17.0114 140.3819C17.0114 141.48238 16.11932 142.37445 15.01884 142.37445 13.91838 142.37445 13.02629 141.48238 13.02629 140.3819 13.02629 139.28144 13.91838 138.38935 15.01884 138.38935 16.11932 138.38935 17.0114 139.28144 17.0114 140.3819ZM15.01884 140.3819" fill="#008c0d"/>
<path transform="matrix(1.00003,0,0,-1.00005,6.582779,192.31395)" stroke-width=".3985" stroke-linecap="butt" stroke-miterlimit="10" stroke-linejoin="miter" fill="none" stroke="#008c0d" d="M17.0114 140.3819C17.0114 141.48238 16.11932 142.37445 15.01884 142.37445 13.91838 142.37445 13.02629 141.48238 13.02629 140.3819 13.02629 139.28144 13.91838 138.38935 15.01884 138.38935 16.11932 138.38935 17.0114 139.28144 17.0114 140.3819ZM15.01884 140.3819"/>
<path transform="matrix(1.00003,0,0,-1.00005,6.582779,192.31395)" stroke-width=".3985" stroke-linecap="butt" stroke-miterlimit="10" stroke-linejoin="miter" fill="none" stroke="#008c0d" d=""/>
<path transform="matrix(1.00003,0,0,-1.00005,6.582779,192.31395)" d="M1.99255 93.58794C1.99255 94.6884 1.10046 95.58049 0 95.58049-1.10046 95.58049-1.99255 94.6884-1.99255 93.58794-1.99255 92.48746-1.10046 91.59538 0 91.59538 1.10046 91.59538 1.99255 92.48746 1.99255 93.58794ZM0 93.58794" fill="#1414cc"/>
<path transform="matrix(1.00003,0,0,-1.00005,6.582779,192.31395)" stroke-width=".3985" stroke-linecap="butt" stroke-miterlimit="10" stroke-linejoin="miter" fill="none" stroke="#1414cc" d="M1.99255 93.58794C1.99255 94.6884 1.10046 95.58049 0 95.58049-1.10046 95.58049-1.99255 94.6884-1.99255 93.58794-1.99255 92.48746-1.10046 91.59538 0 91.59538 1.10046 91.59538 1.99255 92.48746 1.99255 93.58794ZM0 93.58794"/>
<path transform="matrix(1.00003,0,0,-1.00005,6.582779,192.31395)" stroke-width=".3985" stroke-linecap="butt" stroke-miterlimit="10" stroke-linejoin="miter" fill="none" stroke="#1414cc" d=""/>
<path transform="matrix(1.00003,0,0,-1.00005,6.582779,192.31395)" d="M17.0114 46.79396C17.0114 47.89444 16.11932 48.78651 15.01884 48.78651 13.91838 48.78651 13.02629 47.89444 13.02629 46.79396 13.02629 45.6935 13.91838 44.8014 15.01884 44.8014 16.11932 44.8014 17.0114 45.6935 17.0114 46.79396ZM15.01884 46.79396" fill="#008c0d"/>
<path transform="matrix(1.00003,0,0,-1.00005,6.582779,192.31395)" stroke-width=".3985" stroke-linecap="butt" stroke-miterlimit="10" stroke-linejoin="miter" fill="none" stroke="#008c0d" d="M17.0114 46.79396C17.0114 47.89444 16.11932 48.78651 15.01884 48.78651 13.91838 48.78651 13.02629 47.89444 13.02629 46.79396 13.02629 45.6935 13.91838 44.8014 15.01884 44.8014 16.11932 44.8014 17.0114 45.6935 17.0114 46.79396ZM15.01884 46.79396"/>
<path transform="matrix(1.00003,0,0,-1.00005,6.582779,192.31395)" stroke-width=".3985" stroke-linecap="butt" stroke-miterlimit="10" stroke-linejoin="miter" fill="none" stroke="#008c0d" d=""/>
<path transform="matrix(1.00003,0,0,-1.00005,6.582779,192.31395)" d="M34.83232 27.42126C34.83232 28.52173 33.94023 29.41382 32.83977 29.41382 31.73929 29.41382 30.84721 28.52173 30.84721 27.42126 30.84721 26.32079 31.73929 25.42871 32.83977 25.42871 33.94023 25.42871 34.83232 26.32079 34.83232 27.42126ZM32.83977 27.42126" fill="#8014b3"/>
<path transform="matrix(1.00003,0,0,-1.00005,6.582779,192.31395)" stroke-width=".3985" stroke-linecap="butt" stroke-miterlimit="10" stroke-linejoin="miter" fill="none" stroke="#8014b3" d="M34.83232 27.42126C34.83232 28.52173 33.94023 29.41382 32.83977 29.41382 31.73929 29.41382 30.84721 28.52173 30.84721 27.42126 30.84721 26.32079 31.73929 25.42871 32.83977 25.42871 33.94023 25.42871 34.83232 26.32079 34.83232 27.42126ZM32.83977 27.42126"/>
<path transform="matrix(1.00003,0,0,-1.00005,6.582779,192.31395)" stroke-width=".3985" stroke-linecap="butt" stroke-miterlimit="10" stroke-linejoin="miter" fill="none" stroke="#8014b3" d=""/>
<path transform="matrix(1.00003,0,0,-1.00005,6.582779,192.31395)" d="M58.03313 12.54076C58.03313 13.64124 57.14104 14.53331 56.04057 14.53331 54.9401 14.53331 54.04802 13.64124 54.04802 12.54076 54.04802 11.44029 54.9401 10.5482 56.04057 10.5482 57.14104 10.5482 58.03313 11.44029 58.03313 12.54076ZM56.04057 12.54076" fill="#e61ae6"/>
<path transform="matrix(1.00003,0,0,-1.00005,6.582779,192.31395)" stroke-width=".3985" stroke-linecap="butt" stroke-miterlimit="10" stroke-linejoin="miter" fill="none" stroke="#e61ae6" d="M58.03313 12.54076C58.03313 13.64124 57.14104 14.53331 56.04057 14.53331 54.9401 14.53331 54.04802 13.64124 54.04802 12.54076 54.04802 11.44029 54.9401 10.5482 56.04057 10.5482 57.14104 10.5482 58.03313 11.44029 58.03313 12.54076ZM56.04057 12.54076"/>
<path transform="matrix(1.00003,0,0,-1.00005,6.582779,192.31395)" stroke-width=".3985" stroke-linecap="butt" stroke-miterlimit="10" stroke-linejoin="miter" fill="none" stroke="#e61ae6" d=""/>
<path transform="matrix(1.00003,0,0,-1.00005,6.582779,192.31395)" d="M114.0737 0C114.0737 1.10046 113.18161 1.99255 112.08115 1.99255 110.98067 1.99255 110.0886 1.10046 110.0886 0 110.0886-1.10046 110.98067-1.99255 112.08115-1.99255 113.18161-1.99255 114.0737-1.10046 114.0737 0ZM112.08115 0" fill="#ff801a"/>
<path transform="matrix(1.00003,0,0,-1.00005,6.582779,192.31395)" stroke-width=".3985" stroke-linecap="butt" stroke-miterlimit="10" stroke-linejoin="miter" fill="none" stroke="#ff801a" d="M114.0737 0C114.0737 1.10046 113.18161 1.99255 112.08115 1.99255 110.98067 1.99255 110.0886 1.10046 110.0886 0 110.0886-1.10046 110.98067-1.99255 112.08115-1.99255 113.18161-1.99255 114.0737-1.10046 114.0737 0ZM112.08115 0"/>
<path transform="matrix(1.00003,0,0,-1.00005,6.582779,192.31395)" stroke-width=".3985" stroke-linecap="butt" stroke-miterlimit="10" stroke-linejoin="miter" fill="none" stroke="#ff801a" d=""/>
<path transform="matrix(1.00003,0,0,-1.00005,6.582779,192.31395)" d="M211.13597 46.79396C211.13597 47.89444 210.24388 48.78651 209.14342 48.78651 208.04294 48.78651 207.15087 47.89444 207.15087 46.79396 207.15087 45.6935 208.04294 44.8014 209.14342 44.8014 210.24388 44.8014 211.13597 45.6935 211.13597 46.79396ZM209.14342 46.79396" fill="#008c0d"/>
<path transform="matrix(1.00003,0,0,-1.00005,6.582779,192.31395)" stroke-width=".3985" stroke-linecap="butt" stroke-miterlimit="10" stroke-linejoin="miter" fill="none" stroke="#008c0d" d="M211.13597 46.79396C211.13597 47.89444 210.24388 48.78651 209.14342 48.78651 208.04294 48.78651 207.15087 47.89444 207.15087 46.79396 207.15087 45.6935 208.04294 44.8014 209.14342 44.8014 210.24388 44.8014 211.13597 45.6935 211.13597 46.79396ZM209.14342 46.79396"/>
<path transform="matrix(1.00003,0,0,-1.00005,6.582779,192.31395)" stroke-width=".3985" stroke-linecap="butt" stroke-miterlimit="10" stroke-linejoin="miter" fill="none" stroke="#008c0d" d=""/>
<path transform="matrix(1.00003,0,0,-1.00005,6.582779,192.31395)" d="M193.31505 27.42126C193.31505 28.52173 192.42298 29.41382 191.3225 29.41382 190.22203 29.41382 189.32994 28.52173 189.32994 27.42126 189.32994 26.32079 190.22203 25.42871 191.3225 25.42871 192.42298 25.42871 193.31505 26.32079 193.31505 27.42126ZM191.3225 27.42126" fill="#8014b3"/>
<path transform="matrix(1.00003,0,0,-1.00005,6.582779,192.31395)" stroke-width=".3985" stroke-linecap="butt" stroke-miterlimit="10" stroke-linejoin="miter" fill="none" stroke="#8014b3" d="M193.31505 27.42126C193.31505 28.52173 192.42298 29.41382 191.3225 29.41382 190.22203 29.41382 189.32994 28.52173 189.32994 27.42126 189.32994 26.32079 190.22203 25.42871 191.3225 25.42871 192.42298 25.42871 193.31505 26.32079 193.31505 27.42126ZM191.3225 27.42126"/>
<path transform="matrix(1.00003,0,0,-1.00005,6.582779,192.31395)" stroke-width=".3985" stroke-linecap="butt" stroke-miterlimit="10" stroke-linejoin="miter" fill="none" stroke="#8014b3" d=""/>
<path transform="matrix(1.00003,0,0,-1.00005,6.582779,192.31395)" d="M170.11428 12.54076C170.11428 13.64124 169.22219 14.53331 168.12172 14.53331 167.02124 14.53331 166.12917 13.64124 166.12917 12.54076 166.12917 11.44029 167.02124 10.5482 168.12172 10.5482 169.22219 10.5482 170.11428 11.44029 170.11428 12.54076ZM168.12172 12.54076" fill="#e61ae6"/>
<path transform="matrix(1.00003,0,0,-1.00005,6.582779,192.31395)" stroke-width=".3985" stroke-linecap="butt" stroke-miterlimit="10" stroke-linejoin="miter" fill="none" stroke="#e61ae6" d="M170.11428 12.54076C170.11428 13.64124 169.22219 14.53331 168.12172 14.53331 167.02124 14.53331 166.12917 13.64124 166.12917 12.54076 166.12917 11.44029 167.02124 10.5482 168.12172 10.5482 169.22219 10.5482 170.11428 11.44029 170.11428 12.54076ZM168.12172 12.54076"/>
<path transform="matrix(1.00003,0,0,-1.00005,6.582779,192.31395)" stroke-width=".3985" stroke-linecap="butt" stroke-miterlimit="10" stroke-linejoin="miter" fill="none" stroke="#e61ae6" d=""/>
<use data-text="x" xlink:href="#font_7_1" transform="matrix(9.962899,0,0,-9.963098,221.53723,95.201099)"/>
<use data-text="y" xlink:href="#font_7_2" transform="matrix(9.962899,0,0,-9.963098,122.18725,12.937988)"/>
</svg>
